<svg width="50" height="68" viewBox="0 0 50 68" fill="none" xmlns="http://www.w3.org/2000/svg">
<g clip-path="url(#clip0_110_34)">
<path d="M0 7.48762V60.5124C0 64.6411 3.50098 68 7.80003 68H42.2C46.499 68 50 64.9053 50 61.1087V13.1335C50 10.9824 48.8932 8.99723 46.9959 7.69897V7.48762C46.9959 3.35886 43.495 0 39.1959 0H7.80003C3.50098 0 0 3.35886 0 7.48762ZM2.49209 7.48762C2.49209 4.74015 4.87125 2.49839 7.80003 2.49839H39.1959C42.1247 2.49839 44.5038 4.7326 44.5038 7.48762V8.39338C44.5038 8.84627 44.7523 9.26895 45.1438 9.48785C46.6195 10.3106 47.5079 11.6768 47.5079 13.1335V61.1087C47.5079 63.5316 45.1287 65.5016 42.2 65.5016H7.80003C4.87125 65.5016 2.49209 63.2674 2.49209 60.5124V7.48762Z" fill="white"/>
<path d="M8.56206 11.2238C8.78793 11.405 9.0665 11.5107 9.3526 11.5107H15.4812V32.4337C15.4812 32.9319 15.7824 33.3848 16.2416 33.581C16.3997 33.649 16.5654 33.6792 16.731 33.6792C17.0472 33.6792 17.3559 33.5584 17.5893 33.332L22.7542 28.388L28.1751 33.3471C28.5365 33.6792 29.0635 33.7697 29.5228 33.5659C29.9745 33.3697 30.2681 32.9168 30.2681 32.4186V11.5107H42.3973C42.8942 11.5107 43.346 11.2163 43.5417 10.7559C43.6396 10.5294 44.4753 8.46127 43.5041 6.60446C43.09 5.81192 42.1714 4.78539 40.1838 4.38535C40.101 4.37025 40.0182 4.3627 39.9353 4.3627H9.3526C9.27731 4.3627 9.20955 4.3627 9.13426 4.38535C8.87827 4.43063 6.60452 4.88351 6.12267 6.71768C5.58058 8.77829 7.82422 10.6275 8.55453 11.2389L8.56206 11.2238ZM9.48059 6.85354H39.7998C40.5527 7.02715 41.0572 7.32907 41.283 7.7593C41.4863 8.1367 41.4863 8.60468 41.4336 9.01227H29.0108C28.3256 9.01227 27.761 9.57083 27.761 10.2652V29.6032L23.5673 25.7688C23.3264 25.55 23.0252 25.4443 22.7241 25.4443C22.4229 25.4443 22.1067 25.5575 21.8658 25.7915L17.9658 29.5202V10.2577C17.9658 9.57083 17.4086 9.00473 16.7159 9.00473H9.80434C8.50935 7.85743 8.53194 7.33662 8.53194 7.33662C8.58464 7.20075 9.03638 6.95167 9.47306 6.85354H9.48059Z" fill="white"/>
<path d="M20.2099 20.7797L19.9163 22.4931C19.8786 22.7271 19.969 22.9611 20.1647 23.1045C20.2701 23.1875 20.4056 23.2253 20.5336 23.2253C20.6315 23.2253 20.7294 23.2026 20.8273 23.1498L22.3632 22.3421L23.8991 23.1498C24.1099 23.263 24.3659 23.2404 24.5541 23.1045C24.7423 22.9611 24.8402 22.7271 24.8026 22.4931L24.5089 20.7797L25.7512 19.5645C25.9244 19.3984 25.9846 19.1493 25.9093 18.9229C25.834 18.6965 25.6383 18.5304 25.4049 18.5002L23.6883 18.2511L22.9203 16.6962C22.8149 16.4849 22.5966 16.349 22.3632 16.349C22.1298 16.349 21.9114 16.4849 21.806 16.6962L21.0381 18.2511L19.3215 18.5002C19.0881 18.5304 18.8923 18.6965 18.817 18.9229C18.7417 19.1493 18.802 19.3984 18.9751 19.5645L20.2174 20.7797H20.2099ZM21.535 19.4437C21.7383 19.4135 21.9114 19.2852 22.0018 19.0965L22.3557 18.3794L22.7095 19.0965C22.7999 19.2852 22.973 19.406 23.1763 19.4437L23.9669 19.5569L23.3947 20.1155C23.2516 20.2589 23.1838 20.4627 23.214 20.6665L23.3495 21.4515L22.6418 21.0816C22.5514 21.0363 22.4535 21.0137 22.3481 21.0137C22.2427 21.0137 22.1524 21.0363 22.0545 21.0816L21.3468 21.4515L21.4823 20.6665C21.5199 20.4627 21.4522 20.2589 21.3016 20.1155L20.7294 19.5569L21.5199 19.4437H21.535Z" fill="white"/>
</g>
<defs>
<clipPath id="clip0_110_34">
<rect width="50" height="68" fill="white"/>
</clipPath>
</defs>
</svg>
