<svg width="42" height="80" viewBox="0 0 42 80" fill="none" xmlns="http://www.w3.org/2000/svg">
<path d="M3.71187 39.1729C3.71187 41.5125 3.85273 43.5607 4.57355 46.5663C5.85776 51.8116 8.98132 58.9801 10.075 61.4113C9.611 62.0773 9.35415 62.86 9.33757 63.6676C9.32929 64.6833 9.71041 65.6408 10.3732 66.3901C9.72698 67.1145 9.35415 68.0386 9.33757 69.0211C9.32929 70.1701 9.80985 71.2358 10.6218 72.0101C10.0418 72.7178 9.70212 73.592 9.69383 74.5411C9.66898 76.864 11.6906 78.7873 14.1928 78.8123L30.4484 79.0288H30.5147C31.7575 79.0288 32.9506 78.5542 33.804 77.7133C34.5911 76.939 35.0302 75.9315 35.0385 74.8575C35.0468 73.7085 34.5662 72.6428 33.7542 71.8685C34.3342 71.1608 34.6739 70.2866 34.6822 69.3375C34.6905 68.3217 34.3094 67.3643 33.6548 66.6149C34.3011 65.8906 34.6739 64.9664 34.6822 63.984C34.6905 62.9599 34.3094 62.0107 33.6631 61.2781C34.8065 58.7304 37.8472 51.7117 39.1065 46.5496C39.8273 43.5523 39.9682 41.4959 39.9682 39.1563C39.9682 29.107 31.8321 20.931 21.8318 20.931C11.8315 20.931 3.69531 29.107 3.69531 39.1563L3.71187 39.1729ZM31.8901 75.7484C31.5421 76.0897 31.0367 76.3062 30.4899 76.2729L14.2342 76.0564C13.2399 76.0481 12.4363 75.3737 12.4445 74.5661C12.4445 73.95 12.9417 73.4005 13.6708 73.2007C14.2922 73.0342 14.723 72.4513 14.6898 71.8019C14.6567 71.1525 14.1845 70.6113 13.5465 70.5114C12.7097 70.3699 12.08 69.7454 12.0883 69.0544C12.0883 68.4633 12.5522 67.9304 13.2399 67.7139C13.8116 67.5391 14.201 67.0062 14.2093 66.3985C14.2093 65.799 13.8282 65.2661 13.2565 65.083C12.5523 64.8582 12.0883 64.3003 12.0966 63.6926C12.0966 63.4261 12.1877 63.218 12.3037 63.0431H31.5504C31.7989 63.3012 31.9564 63.6176 31.9564 63.9673C31.9564 64.5501 31.4924 65.0913 30.8047 65.3078C30.233 65.4826 29.8436 66.0155 29.8353 66.6149C29.8353 67.2144 30.2164 67.7556 30.7881 67.9387C31.4924 68.1635 31.9564 68.7214 31.9481 69.3292C31.9481 69.9536 31.4509 70.4948 30.7218 70.6946C30.1004 70.8611 29.6696 71.4439 29.7028 72.0933C29.7359 72.7427 30.2081 73.2839 30.8461 73.3922C31.6829 73.5337 32.3043 74.1581 32.296 74.8492C32.296 75.2738 32.0723 75.5735 31.8901 75.7567V75.7484ZM21.8483 23.7035C30.3324 23.7035 37.2341 30.639 37.2341 39.1646C37.2341 41.296 37.1015 43.1694 36.447 45.9002C35.229 50.8624 32.1552 57.9311 31.103 60.2873H12.5854C11.5332 57.9311 8.45934 50.8708 7.2414 45.9086C6.58687 43.1693 6.45432 41.296 6.45432 39.1646C6.45432 30.639 13.3559 23.7035 21.84 23.7035H21.8483Z" fill="white"/>
<path d="M2.85308 7.40156C2.58795 7.06853 2.20682 6.85205 1.78428 6.8021C1.36173 6.75214 0.939167 6.86871 0.607757 7.13513C0.268061 7.40156 0.0609536 7.78455 0.011242 8.20917C-0.0384696 8.63378 0.077519 9.0584 0.342647 9.39144L8.52849 19.832C8.83505 20.215 9.29901 20.4482 9.78784 20.4482H9.84585C10.1855 20.4315 10.5087 20.3149 10.7821 20.1068C11.1218 19.8404 11.3289 19.4574 11.3869 19.0328C11.4366 18.6081 11.3206 18.1835 11.0555 17.8505L2.86964 7.40989L2.85308 7.40156ZM9.92041 19.0244C9.92041 19.0244 9.83755 19.0744 9.78784 19.0744C9.72156 19.0827 9.64698 19.0411 9.59727 18.9828L1.41143 8.5422C1.36172 8.48392 1.36172 8.41731 1.36172 8.37568C1.36172 8.34238 1.38659 8.27577 1.45287 8.22582C1.50258 8.18419 1.55228 8.17586 1.5937 8.17586C1.60199 8.17586 1.61027 8.17586 1.61856 8.17586C1.6517 8.17586 1.71798 8.20084 1.77598 8.25912L9.96183 18.6997C10.0115 18.758 10.0115 18.8246 10.0115 18.8662C10.0115 18.8995 9.98667 18.9662 9.92868 19.0244H9.92041Z" fill="white"/>
<path d="M32.5075 20.0568C32.7726 20.2317 33.0791 20.3233 33.394 20.3233H33.452C33.9657 20.3066 34.4462 20.0402 34.7279 19.6072L41.4804 9.40809C41.7207 9.05008 41.8035 8.61714 41.7207 8.20084C41.6378 7.78455 41.3976 7.41821 41.0413 7.17676C40.685 6.93531 40.2625 6.85206 39.8399 6.93531C39.4174 7.01857 39.0611 7.26835 38.8208 7.62636L32.0683 17.8255C31.8281 18.1835 31.7452 18.6081 31.8281 19.0328C31.9109 19.4491 32.1512 19.8154 32.5075 20.0568ZM33.2034 18.5915L39.9559 8.38401C39.9973 8.3174 40.0636 8.29243 40.0968 8.2841C40.1299 8.2841 40.1962 8.26745 40.2625 8.3174C40.3288 8.36736 40.3536 8.42564 40.3619 8.46727C40.3702 8.5089 40.3702 8.57551 40.3287 8.64211L33.5763 18.8496C33.5183 18.9412 33.4271 18.9495 33.394 18.9495C33.3526 18.9495 33.3028 18.9412 33.2614 18.9079C33.1951 18.8662 33.1703 18.7996 33.162 18.7663C33.1537 18.733 33.1537 18.6664 33.1951 18.5915H33.2034Z" fill="white"/>
<path d="M21.5184 17.6756C21.5184 17.6756 21.5598 17.6756 21.5847 17.6756C21.6095 17.6756 21.6261 17.6756 21.6427 17.6756C22.4712 17.6507 23.1506 16.9763 23.192 16.1354L23.7637 2.58088C23.7803 2.14793 23.6311 1.73997 23.3411 1.42359C23.0512 1.1072 22.6535 0.924034 22.2309 0.907383C21.8001 0.890731 21.3941 1.03227 21.0793 1.32367C20.7644 1.61508 20.5822 2.01472 20.5573 2.44766L19.9856 16.0021C19.9691 16.4351 20.1182 16.843 20.4082 17.1594C20.6982 17.4758 21.0959 17.659 21.5184 17.6756ZM21.361 16.0604L21.9327 2.50594C21.9327 2.42269 21.9824 2.37273 22.0072 2.34775C22.0404 2.32278 22.0901 2.28947 22.1729 2.28947C22.2475 2.28947 22.3055 2.3311 22.3303 2.36441C22.3552 2.38938 22.3966 2.44766 22.3883 2.53092L21.8167 16.0854C21.8167 16.202 21.7172 16.3019 21.593 16.3102H21.5847C21.5101 16.3102 21.4521 16.2686 21.4272 16.2353C21.4024 16.2103 21.361 16.152 21.3693 16.0687L21.361 16.0604Z" fill="white"/>
<path d="M12.1305 36.6003C12.9507 36.6502 13.6798 36.0175 13.7296 35.1932C13.7544 34.7936 13.8124 34.4106 13.9118 34.0359C14.5415 31.5382 16.5548 30.5557 18.1373 30.1811C18.8747 30.0062 19.4215 29.9812 19.4795 29.9812C20.3081 29.9646 20.9709 29.2652 20.946 28.4326C20.9294 27.6167 20.2583 26.9506 19.4132 26.9506C16.588 27.0089 11.1445 28.7657 10.7303 34.9934C10.6723 35.826 11.302 36.5503 12.1305 36.6003Z" fill="white"/>
</svg>
