<svg width="58" height="74" viewBox="0 0 58 74" fill="none" xmlns="http://www.w3.org/2000/svg">
<g clip-path="url(#clip0_48_733)">
<path d="M57.9987 27.8161C57.9987 21.8698 55.9346 16.0758 52.1891 11.4919C47.304 5.51354 40.0918 2.0836 32.4095 2.0836C24.7272 2.0836 17.515 5.51354 12.6299 11.4919C8.88434 16.0758 6.82031 21.8778 6.82031 27.8161C6.82031 42.0087 18.296 53.5486 32.4095 53.5486C46.523 53.5486 57.9987 42.0087 57.9987 27.8161ZM55.3608 27.8161C55.3608 28.9942 55.2732 30.1562 55.0979 31.2861C51.3284 33.8906 47.4873 35.7659 43.5983 36.8958C43.8613 35.7819 44.0525 34.6519 44.1721 33.4979C44.6821 28.2489 43.6301 23.144 41.9885 18.6483C44.9929 17.8709 48.1009 16.5807 51.2408 14.6253C53.9104 18.48 55.3608 23.0959 55.3608 27.8161ZM42.8571 33.3617C42.7296 34.7 42.4906 36.0143 42.1479 37.2805C35.8283 38.8111 29.3652 38.4024 22.8225 36.0383C22.6552 35.9822 22.5037 35.9101 22.3364 35.854C22.169 35.0366 22.0415 34.2112 21.9618 33.3617C21.4438 28.0325 22.6631 22.7834 24.4482 18.2155C27.3012 19.0489 30.5686 19.642 34.1149 19.642C36.2028 19.642 38.3944 19.4336 40.6417 18.9528C42.2674 23.3364 43.3353 28.305 42.8412 33.3537L42.8571 33.3617ZM50.149 13.1748C50.2526 13.295 50.3482 13.4232 50.4438 13.5514C47.4076 15.4267 44.4032 16.6528 41.5024 17.3901C39.2551 11.7563 36.1869 7.2285 34.3859 4.82434C40.5222 5.35326 46.1883 8.3264 50.149 13.1668V13.1748ZM32.4095 4.73619C32.4892 4.73619 32.5609 4.73619 32.6406 4.73619C34.1388 6.6515 37.6453 11.4919 40.1635 17.6946C34.4735 18.8646 29.2298 18.2155 24.9583 16.9814C27.4447 11.1232 30.7439 6.57938 32.1863 4.72818C32.2581 4.72818 32.3378 4.72818 32.4175 4.72818L32.4095 4.73619ZM30.4331 4.83236C28.7197 7.11631 25.8588 11.3316 23.6433 16.5887C19.6826 15.2904 16.7021 13.5675 15.18 12.5818C19.1089 8.08599 24.5518 5.33723 30.4331 4.83236ZM9.45812 27.8161C9.45812 22.6712 11.1874 17.6545 14.3273 13.6075C15.8733 14.6173 18.9813 16.4364 23.1413 17.8148C21.3243 22.5029 20.097 27.9123 20.6469 33.4899C20.7027 34.091 20.7904 34.692 20.894 35.277C15.2199 32.8809 11.1476 29.6192 9.46609 28.1367C9.46609 28.0325 9.45812 27.9203 9.45812 27.8161ZM9.56172 29.9718C11.7692 31.791 15.8096 34.7 21.2048 36.8397C22.4081 42.0247 25.2212 46.6727 29.6043 50.7117C18.9654 49.4055 10.5579 40.7505 9.56172 29.9718ZM32.4015 50.896C32.2023 50.896 31.9951 50.888 31.7959 50.88C27.1339 46.9853 24.0816 42.4655 22.703 37.4087C26.0182 38.5707 30.0267 39.4683 34.5293 39.4683C36.8085 39.4683 39.2152 39.2279 41.7175 38.6909C40.1954 43.2348 37.2787 47.3138 33.0151 50.88C32.8159 50.88 32.6167 50.896 32.4095 50.896H32.4015ZM35.2067 50.7197C39.1674 47.0734 41.8371 42.9222 43.2078 38.3383C46.8816 37.3686 50.7546 35.7178 54.7313 33.1373C52.5477 42.4174 44.7777 49.5417 35.2067 50.7277V50.7197Z" fill="white"/>
<path d="M27.4619 62.9248H19.8593C16.823 62.9248 14.3526 65.4091 14.3526 68.4624C14.3526 71.5157 16.823 74 19.8593 74H44.9623C47.9986 74 50.4691 71.5157 50.4691 68.4624C50.4691 65.4091 47.9986 62.9248 44.9623 62.9248H37.3597V61.6506C37.3597 60.9294 37.2003 60.2402 36.9214 59.6151C39.8222 59.2064 42.8346 58.4611 45.9346 57.3792C46.7953 57.0747 47.2495 56.1291 46.9547 55.2636C46.6518 54.3981 45.7115 53.9413 44.8508 54.2378C39.344 56.1611 34.18 56.9465 29.4941 56.5618C15.3408 55.3998 3.34707 41.8163 3.30723 26.8865C3.30723 24.4423 3.56224 22.1022 4.08821 19.9225C4.95686 16.3082 6.63039 12.8943 8.92553 10.0574C11.396 7.00411 14.4801 4.55988 17.612 3.16547C18.4487 2.79683 18.8233 1.81113 18.4567 0.977685C18.0901 0.136229 17.1179 -0.240422 16.2811 0.128215C12.6312 1.74702 9.19648 4.4557 6.36741 7.95776C3.76147 11.1793 1.8648 15.05 0.884584 19.1371C0.286892 21.5893 0 24.2019 0 26.9105C0.0478153 43.0024 12.6631 57.7078 27.8524 59.7353C27.6054 60.3284 27.4699 60.9775 27.4699 61.6587V62.9329L27.4619 62.9248ZM28.7848 65.5774C29.51 65.5774 30.1077 64.9844 30.1077 64.2471V61.6426C30.1077 60.9775 30.3946 60.3844 30.8409 59.9597C31.1756 59.9677 31.5103 59.9838 31.845 59.9838C32.5304 59.9838 33.2237 59.9517 33.925 59.9116C34.4031 60.3364 34.7139 60.9534 34.7139 61.6506V64.2551C34.7139 64.9844 35.3037 65.5854 36.0368 65.5854H44.9623C46.5403 65.5854 47.8233 66.8757 47.8233 68.4704C47.8233 70.0652 46.5403 71.3474 44.9623 71.3474H19.8593C18.2814 71.3474 16.9984 70.0572 16.9984 68.4704C16.9984 66.8837 18.2814 65.5854 19.8593 65.5854H28.7848V65.5774Z" fill="white"/>
</g>
<defs>
<clipPath id="clip0_48_733">
<rect width="58" height="74" fill="white"/>
</clipPath>
</defs>
</svg>
