<svg width="163" height="54" viewBox="0 0 163 54" fill="none" xmlns="http://www.w3.org/2000/svg">
<path d="M47.6806 41.0572C46.5669 40.6598 46.3558 40.3948 46.3558 39.939C46.3558 39.4831 46.6763 39.1208 47.4383 39.1208C47.9972 39.1208 48.3685 39.3039 48.7749 39.639L49.1735 39.152C48.7045 38.7779 48.2278 38.5598 47.4774 38.5598C46.4379 38.5598 45.7344 39.0896 45.7344 39.9779C45.7344 40.7805 46.1409 41.1701 47.3446 41.5987C48.3645 41.9649 48.6733 42.2572 48.6733 42.7714C48.6733 43.3598 48.2121 43.726 47.4735 43.726C46.899 43.726 46.4144 43.4611 45.9924 43.0598L45.582 43.5195C46.0197 43.9636 46.6958 44.2909 47.454 44.2909C48.6147 44.2909 49.2986 43.613 49.2986 42.7442C49.2986 41.8753 48.9195 41.5052 47.6846 41.0611L47.6806 41.0572Z" fill="#004289"/>
<path d="M51.825 39.9507C51.2818 39.9507 50.7894 40.0831 50.422 40.2818L50.6487 40.7649C50.9887 40.5662 51.3482 40.4455 51.7859 40.4455C52.3956 40.4455 52.6926 40.7455 52.6926 41.3688V41.8598C52.4464 41.7234 52.0673 41.6182 51.6492 41.6182C50.8246 41.6182 50.0508 42.0156 50.0508 42.9507C50.0508 43.9559 50.7347 44.2831 51.3834 44.2831C51.9853 44.2831 52.3956 44.0026 52.6926 43.687V44.1974H53.2866V41.2909C53.2866 40.3247 52.7239 39.9429 51.825 39.9429V39.9507ZM52.6926 43.1805C52.4386 43.5273 52.0321 43.8039 51.4928 43.8039C50.9809 43.8039 50.637 43.5351 50.637 42.9156C50.637 42.3935 51.0043 42.0974 51.6179 42.0974C52.1259 42.0974 52.419 42.1909 52.6926 42.339V43.1844V43.1805Z" fill="#004289"/>
<path d="M59.2796 41.7623V44.2013H59.8736V41.6649C59.8736 40.4493 59.3421 39.9506 58.4901 39.9506C57.8101 39.9506 57.4701 40.2662 57.2239 40.6636C57.0246 40.2662 56.669 39.9506 56.0789 39.9506C55.5865 39.9506 55.2347 40.1883 55.0198 40.5467V40.0402H54.418V44.2052H55.0198V41.7662C55.0198 40.8428 55.3754 40.4649 55.9499 40.4649C56.5244 40.4649 56.8488 40.8117 56.8488 41.7662V44.2052H57.4467V41.7662C57.4467 40.8428 57.8101 40.4649 58.3768 40.4649C58.9786 40.4649 59.2756 40.8117 59.2756 41.7662L59.2796 41.7623Z" fill="#004289"/>
<path d="M62.2703 41.7779C61.5629 41.4584 61.3519 41.322 61.3519 40.9675C61.3519 40.6636 61.602 40.4532 62.0436 40.4532C62.4852 40.4532 62.7588 40.5701 63.0832 40.8272L63.4153 40.387C63.0988 40.1259 62.6533 39.9467 62.0827 39.9467C61.3206 39.9467 60.7774 40.3753 60.7774 41.0065C60.7774 41.6727 61.1252 41.9259 61.9655 42.2844C62.7041 42.6 62.9503 42.7909 62.9503 43.1337C62.9503 43.5389 62.6806 43.7766 62.1061 43.7766C61.6919 43.7766 61.3011 43.6091 60.9689 43.3168L60.6172 43.7493C61.0158 44.0688 61.516 44.2831 62.0905 44.2831C62.8135 44.2831 63.5209 43.9285 63.5209 43.1065C63.5209 42.3623 63.0597 42.1324 62.2664 41.774L62.2703 41.7779Z" fill="#004289"/>
<path d="M67.0051 42.4714C67.0051 43.3831 66.5479 43.7688 65.9734 43.7688C65.3012 43.7688 64.9846 43.3675 64.9846 42.4714V40.0364H64.3906V42.5727C64.3906 43.7688 64.9729 44.287 65.8522 44.287C66.3798 44.287 66.7667 44.0416 67.0051 43.6909V44.2013H67.603V40.0364H67.0051V42.4714Z" fill="#004289"/>
<path d="M71.8257 44.2013V41.6649C71.8257 40.4649 71.2434 39.9506 70.3602 39.9506C69.8365 39.9506 69.4457 40.1961 69.2112 40.5467V40.0402H68.6094V44.2052H69.2112V41.7662C69.2112 40.8545 69.6606 40.4649 70.239 40.4649C70.9073 40.4649 71.2278 40.8701 71.2278 41.7662V44.2052H71.8257V44.2013Z" fill="#004289"/>
<path d="M73.7036 45.2766L73.8951 45.7285C75.4466 45.6818 76.0093 45.0779 76.0093 43.8233V40.0324H75.4114V40.5C75.1183 40.1649 74.7588 39.9467 74.2351 39.9467C73.3597 39.9467 72.6562 40.7065 72.6562 42.1831C72.6562 43.6597 73.3206 44.2831 74.153 44.2831C74.7197 44.2831 75.1183 44.0026 75.4114 43.687V43.9013C75.4114 44.8714 75.0949 45.2376 73.6997 45.2727L73.7036 45.2766ZM74.3054 43.7688C73.645 43.7688 73.2464 43.2233 73.2464 42.1753C73.2464 41.0571 73.5864 40.461 74.282 40.461C74.7783 40.461 75.1808 40.7376 75.4114 41.0844V43.1688C75.1183 43.535 74.751 43.7688 74.3054 43.7688Z" fill="#004289"/>
<path d="M82.5995 41.3844C82.5995 39.4792 81.5209 38.6454 80.0593 38.6454H78.5859V44.2013H79.9498C81.4388 44.2013 82.5995 43.3987 82.5995 41.3844ZM79.2073 39.2065H80.0124C81.2942 39.2065 81.9781 39.9857 81.9781 41.4039C81.9781 43.0013 81.2278 43.6364 80.028 43.6364H79.2073V39.2065Z" fill="#004289"/>
<path d="M84.1878 40.5507V40.0364H83.5898V44.2013H84.1878V41.7546C84.1878 40.9598 84.516 40.4961 85.0983 40.4961C85.3758 40.4961 85.5556 40.5585 85.7236 40.6559L85.8721 40.0559C85.7314 39.9935 85.5321 39.9546 85.2195 39.9546C84.7701 39.9546 84.3754 40.2234 84.1878 40.5546V40.5507Z" fill="#004289"/>
<path d="M89.4468 43.8039L89.1654 43.3754C88.7824 43.6286 88.4971 43.7728 88.0086 43.7728C87.3286 43.7728 86.9026 43.2078 86.8479 42.3234H89.6304C89.65 42.226 89.6578 42.1403 89.6578 42C89.6578 40.8117 89.0638 39.9546 87.9734 39.9546C86.9808 39.9546 86.25 40.7767 86.25 42.0974C86.25 43.7377 87.1801 44.291 87.9461 44.291C88.5753 44.291 88.9426 44.1234 89.4468 43.8078V43.8039ZM87.9734 40.465C88.7042 40.465 89.056 41.0299 89.1029 41.8364H86.8479C86.9183 40.9052 87.3521 40.465 87.9734 40.465Z" fill="#004289"/>
<path d="M91.6491 44.287C92.247 44.287 92.6573 44.0065 92.9504 43.6909V44.2013H93.5484V41.2948C93.5484 40.3285 92.9856 39.9467 92.0867 39.9467C91.5435 39.9467 91.0511 40.0792 90.6838 40.2779L90.9065 40.761C91.2504 40.5623 91.6061 40.4415 92.0438 40.4415C92.6573 40.4415 92.9504 40.7415 92.9504 41.3649V41.8558C92.7042 41.7194 92.329 41.6142 91.9109 41.6142C91.0824 41.6142 90.3047 42.0117 90.3047 42.9467C90.3047 43.9519 90.9925 44.2792 91.6451 44.2792L91.6491 44.287ZM91.8796 42.0935C92.3877 42.0935 92.6847 42.187 92.9543 42.335V43.1805C92.7003 43.5272 92.2939 43.8039 91.7546 43.8039C91.2465 43.8039 90.8987 43.535 90.8987 42.9155C90.8987 42.3935 91.27 42.0974 91.8796 42.0974V42.0935Z" fill="#004289"/>
<path d="M99.5452 41.7623V44.2013H100.143V41.6649C100.143 40.4493 99.6116 39.9506 98.7597 39.9506C98.0836 39.9506 97.7397 40.2662 97.4974 40.6636C97.2981 40.2662 96.9424 39.9506 96.3523 39.9506C95.856 39.9506 95.5082 40.1883 95.2932 40.5467V40.0402H94.6992V44.2052H95.2932V41.7662C95.2932 40.8428 95.6528 40.4649 96.2273 40.4649C96.8017 40.4649 97.13 40.8117 97.13 41.7662V44.2052H97.724V41.7662C97.724 40.8428 98.0875 40.4649 98.658 40.4649C99.2599 40.4649 99.5569 40.8117 99.5569 41.7662L99.5452 41.7623Z" fill="#004289"/>
<path d="M47.6806 49.3207C46.5629 48.9233 46.3597 48.6623 46.3597 48.2025C46.3597 47.7428 46.6802 47.3882 47.4423 47.3882C48.0011 47.3882 48.3763 47.5675 48.7788 47.9025L49.1774 47.4194C48.7085 47.0493 48.2278 46.8272 47.4813 46.8272C46.4379 46.8272 45.7384 47.3493 45.7384 48.2454C45.7384 49.048 46.1448 49.4337 47.3485 49.8623C48.3685 50.2324 48.6772 50.5207 48.6772 51.0389C48.6772 51.6233 48.216 51.9895 47.4735 51.9895C46.899 51.9895 46.4144 51.7246 45.9924 51.3233L45.582 51.7831C46.0197 52.2272 46.6958 52.5506 47.454 52.5506C48.6147 52.5506 49.2947 51.8766 49.2947 51.0038C49.2947 50.1311 48.9156 49.7649 47.6846 49.3207H47.6806Z" fill="#004289"/>
<path d="M51.8328 48.7285C52.2549 48.7285 52.5324 48.8766 52.8333 49.1493L53.1928 48.7051C52.8646 48.4168 52.4308 48.2103 51.8719 48.2103C50.9965 48.2103 50.0703 48.861 50.0703 50.3999C50.0703 51.8532 50.9105 52.5467 51.8289 52.5467C52.4151 52.5467 52.8216 52.3246 53.1733 51.9662L52.8138 51.5883C52.5285 51.8649 52.2588 52.0285 51.8524 52.0285C51.1138 52.0285 50.6722 51.3701 50.6722 50.3454C50.6722 49.3207 51.1763 48.7207 51.8289 48.7207L51.8328 48.7285Z" fill="#004289"/>
<path d="M55.743 48.2143C55.2193 48.2143 54.8246 48.4597 54.5862 48.8104V46.8546H53.9922V52.4727H54.5862V50.0338C54.5862 49.1221 55.0434 48.7325 55.6218 48.7325C56.294 48.7325 56.6106 49.1338 56.6106 50.0338V52.4727H57.2085V49.9286C57.2085 48.7325 56.6262 48.2143 55.743 48.2143Z" fill="#004289"/>
<path d="M59.8719 48.2143C58.8558 48.2143 58.0469 48.974 58.0469 50.3883C58.0469 51.8026 58.8246 52.5546 59.8407 52.5546C60.8568 52.5546 61.6735 51.7714 61.6735 50.3572C61.6735 48.9429 60.888 48.2143 59.8719 48.2143ZM59.8602 52.0364C59.1333 52.0364 58.6448 51.4675 58.6448 50.3727C58.6448 49.2779 59.1333 48.7325 59.8602 48.7325C60.5871 48.7325 61.0756 49.2779 61.0756 50.3727C61.0756 51.4675 60.5832 52.0364 59.8602 52.0364Z" fill="#004289"/>
<path d="M63.1721 46.8506H62.5742V52.4688H63.1721V46.8506Z" fill="#004289"/>
<path d="M65.9031 48.2143C65.3599 48.2143 64.8675 48.3507 64.5041 48.5494L64.7268 49.0364C65.0707 48.8377 65.4303 48.7169 65.868 48.7169C66.4776 48.7169 66.7746 49.0208 66.7746 49.6364V50.1312C66.5284 49.9948 66.1533 49.8896 65.7351 49.8896C64.9066 49.8896 64.1328 50.287 64.1328 51.226C64.1328 52.2312 64.8167 52.5546 65.4694 52.5546C66.0673 52.5546 66.4776 52.2779 66.7746 51.9623V52.4727H67.3726V49.5701C67.3726 48.5961 66.8059 48.2182 65.9071 48.2182L65.9031 48.2143ZM66.7707 51.4442C66.5206 51.787 66.1064 52.0675 65.571 52.0675C65.0629 52.0675 64.719 51.7987 64.719 51.1792C64.719 50.6533 65.0864 50.3649 65.6999 50.3649C66.208 50.3649 66.5011 50.4507 66.7707 50.6026V51.4442Z" fill="#004289"/>
<path d="M69.1057 48.8182V48.2961H68.5078V52.4649H69.1057V50.0182C69.1057 49.2273 69.4262 48.7558 70.0124 48.7558C70.2938 48.7558 70.4735 48.8182 70.6416 48.9156L70.794 48.3117C70.6494 48.2493 70.454 48.2065 70.1414 48.2065C69.6959 48.2065 69.2933 48.4753 69.1096 48.8143L69.1057 48.8182Z" fill="#004289"/>
<path d="M73.0828 50.0455C72.3754 49.726 72.1605 49.5818 72.1605 49.2351C72.1605 48.9351 72.4145 48.7208 72.8522 48.7208C73.2899 48.7208 73.5713 48.8416 73.8957 49.0948L74.2278 48.6585C73.9074 48.3974 73.4658 48.2143 72.8913 48.2143C72.1331 48.2143 71.5821 48.6429 71.5821 49.2779C71.5821 49.913 71.9338 50.1974 72.7701 50.552C73.5088 50.8675 73.755 51.0623 73.755 51.4013C73.755 51.8104 73.4853 52.0442 72.9147 52.0442C72.4966 52.0442 72.1097 51.8766 71.7736 51.5844L71.4258 52.0208C71.8244 52.3403 72.3246 52.5507 72.8991 52.5507C73.6221 52.5507 74.3294 52.1922 74.3294 51.3779C74.3294 50.6299 73.8683 50.4039 73.0789 50.0455H73.0828Z" fill="#004289"/>
<path d="M77.0555 48.2143C76.524 48.2143 76.1371 48.4597 75.8987 48.8104V46.8546H75.3008V52.4727H75.8987V50.0338C75.8987 49.1221 76.352 48.7325 76.9343 48.7325C77.6026 48.7325 77.9192 49.1338 77.9192 50.0338V52.4727H78.5171V49.9286C78.5171 48.7325 77.9387 48.2143 77.0555 48.2143Z" fill="#004289"/>
<path d="M80.2932 48.2961H79.6992V52.4649H80.2932V48.2961Z" fill="#004289"/>
<path d="M80.008 46.7065C79.7657 46.7065 79.5742 46.8974 79.5742 47.1389C79.5742 47.3805 79.7657 47.5597 80.008 47.5597C80.2308 47.5597 80.4223 47.3649 80.4223 47.1389C80.4223 46.8974 80.2308 46.7065 80.008 46.7065Z" fill="#004289"/>
<path d="M83.3524 48.2143C82.7897 48.2143 82.391 48.4948 82.094 48.8104V48.3H81.4961V54H82.094V52.0013C82.3871 52.3325 82.7467 52.5546 83.2742 52.5546C84.1457 52.5546 84.8492 51.7909 84.8492 50.3182C84.8492 48.8455 84.1848 48.2143 83.3524 48.2143ZM83.2234 52.0364C82.731 52.0364 82.3246 51.7597 82.094 51.4091V49.3286C82.3871 48.9662 82.7545 48.7286 83.2 48.7286C83.8644 48.7286 84.263 49.274 84.263 50.3221C84.263 51.4403 83.9191 52.0325 83.2274 52.0325L83.2234 52.0364Z" fill="#004289"/>
<path d="M88.012 47.474H90.6616V46.913H87.3906V52.4688H88.012V49.8779H89.54V49.3169H88.012V47.474Z" fill="#004289"/>
<path d="M92.4735 48.2143C91.4574 48.2143 90.6445 48.974 90.6445 50.3883C90.6445 51.8026 91.4261 52.5546 92.4422 52.5546C93.4583 52.5546 94.2751 51.7714 94.2751 50.3572C94.2751 48.9429 93.4974 48.2143 92.4735 48.2143ZM92.4579 52.0364C91.731 52.0364 91.2503 51.4675 91.2503 50.3727C91.2503 49.2779 91.7349 48.7325 92.4579 48.7325C93.1808 48.7325 93.6772 49.2779 93.6772 50.3727C93.6772 51.4675 93.1848 52.0364 92.4579 52.0364Z" fill="#004289"/>
<path d="M97.5715 50.735C97.5715 51.6467 97.1221 52.0363 96.5398 52.0363C95.8715 52.0363 95.5511 51.635 95.5511 50.735V48.2961H94.957V50.8363C94.957 52.0324 95.5393 52.5506 96.4225 52.5506C96.9423 52.5506 97.3331 52.3091 97.5715 51.9584V52.4688H98.1733V48.3H97.5715V50.7389V50.735Z" fill="#004289"/>
<path d="M100.923 48.2142C100.399 48.2142 100.008 48.4597 99.7698 48.8103V48.2999H99.1719V52.4688H99.7698V50.0298C99.7698 49.1181 100.223 48.7285 100.805 48.7285C101.474 48.7285 101.79 49.1298 101.79 50.0298V52.4688H102.388V49.9246C102.388 48.7285 101.806 48.2103 100.923 48.2103V48.2142Z" fill="#004289"/>
<path d="M105.982 48.7714C105.685 48.4363 105.329 48.2103 104.801 48.2103C103.926 48.2103 103.227 48.9701 103.227 50.4506C103.227 51.9311 103.887 52.5506 104.723 52.5506C105.29 52.5506 105.685 52.274 105.978 51.9584V52.4688H106.576V46.8506H105.978V48.7714H105.982ZM105.982 51.4324C105.685 51.7947 105.321 52.0324 104.876 52.0324C104.215 52.0324 103.817 51.487 103.817 50.4389C103.817 49.3168 104.157 48.7246 104.852 48.7246C105.345 48.7246 105.747 49.0012 105.982 49.3519V51.4285V51.4324Z" fill="#004289"/>
<path d="M109.106 48.2143C108.567 48.2143 108.075 48.3507 107.707 48.5494L107.926 49.0364C108.27 48.8377 108.629 48.7169 109.067 48.7169C109.677 48.7169 109.97 49.0208 109.97 49.6364V50.1312C109.724 49.9948 109.349 49.8896 108.927 49.8896C108.102 49.8896 107.328 50.287 107.328 51.226C107.328 52.2312 108.016 52.5546 108.669 52.5546C109.267 52.5546 109.677 52.2779 109.97 51.9623V52.4727H110.568V49.5701C110.568 48.5961 110.005 48.2182 109.102 48.2182L109.106 48.2143ZM109.97 51.4442C109.716 51.787 109.313 52.0675 108.766 52.0675C108.262 52.0675 107.922 51.7987 107.922 51.1792C107.922 50.6533 108.286 50.3649 108.899 50.3649C109.407 50.3649 109.704 50.4507 109.97 50.6026V51.4442Z" fill="#004289"/>
<path d="M112.477 46.8506H111.875V48.296H111.359V48.7986H111.875V51.6077C111.875 52.2973 112.157 52.5467 112.676 52.5467C112.989 52.5467 113.212 52.4999 113.442 52.4064L113.485 51.8921C113.294 51.9701 113.138 52.009 112.895 52.009C112.579 52.009 112.477 51.8805 112.477 51.5103V48.7986H113.513V48.296H112.477V46.8506Z" fill="#004289"/>
<path d="M114.867 46.7065C114.621 46.7065 114.426 46.8974 114.426 47.1389C114.426 47.3805 114.621 47.5597 114.867 47.5597C115.09 47.5597 115.278 47.3649 115.278 47.1389C115.278 46.8974 115.086 46.7065 114.867 46.7065Z" fill="#004289"/>
<path d="M115.153 48.2961H114.555V52.4649H115.153V48.2961Z" fill="#004289"/>
<path d="M117.88 48.2143C116.864 48.2143 116.051 48.974 116.051 50.3883C116.051 51.8026 116.828 52.5546 117.848 52.5546C118.868 52.5546 119.677 51.7714 119.677 50.3572C119.677 48.9429 118.896 48.2143 117.88 48.2143ZM117.864 52.0364C117.141 52.0364 116.653 51.4675 116.653 50.3727C116.653 49.2779 117.141 48.7325 117.864 48.7325C118.587 48.7325 119.083 49.2779 119.083 50.3727C119.083 51.4675 118.591 52.0364 117.864 52.0364Z" fill="#004289"/>
<path d="M122.294 48.2142C121.77 48.2142 121.379 48.4597 121.137 48.8103V48.2999H120.539V52.4688H121.137V50.0298C121.137 49.1181 121.59 48.7285 122.173 48.7285C122.841 48.7285 123.161 49.1298 123.161 50.0298V52.4688H123.755V49.9246C123.755 48.7285 123.173 48.2103 122.294 48.2103V48.2142Z" fill="#004289"/>
<path d="M68.5762 27.7092C66.1767 27.7131 64.1992 29.5833 64.1992 31.9287C64.1992 34.2742 66.1767 36.1248 68.5762 36.1326C70.9992 36.1248 72.9571 34.2508 72.9571 31.9287C72.9571 29.6066 70.9992 27.7131 68.5762 27.7092ZM68.5176 34.2079C67.2631 34.2079 66.3174 33.1872 66.3174 31.9287C66.3174 30.6703 67.3295 29.63 68.5801 29.63C69.8307 29.63 70.8077 30.6508 70.8077 31.9287C70.8077 33.2066 69.7838 34.2079 68.5215 34.2079H68.5176Z" fill="#004289"/>
<path d="M48.4915 24.8066C49.1598 25.465 49.9257 26.0416 50.68 26.4118L50.7582 26.4546L52.0517 24.9312L51.9267 24.8611C50.6995 24.1988 49.7382 23.3611 49.109 22.3053C48.4837 21.265 48.1632 20.0572 48.1632 18.6118V17.2559H45.8497V18.4676C45.8497 20.0338 45.494 21.265 44.8258 22.3442C44.0793 23.5403 42.9734 24.5027 41.5587 25.3949L41.4336 25.4728L42.8366 26.9222L42.9147 26.8793C43.7511 26.4274 44.6382 25.73 45.4081 24.9507C46.0763 24.2689 46.6547 23.5403 47.0064 22.8507C47.3464 23.5287 47.8662 24.2183 48.4915 24.8105V24.8066Z" fill="#004289"/>
<path d="M45.9883 35.1352H55.6724V28.5391H45.9883V35.1352ZM48.1651 30.4014H53.4956V33.2728H48.1651V30.4014Z" fill="#004289"/>
<path d="M78.2734 35.1352H89.2237V28.5391H78.2734V35.1352ZM80.4268 30.4014H87.0743V33.2728H80.4268V30.4014Z" fill="#004289"/>
<path d="M55.708 16.8663H53.5547V27.7832H55.708V22.952H58.2287V21.0118H55.708V16.8663Z" fill="#004289"/>
<path d="M100.355 25.3637C101.062 25.9754 101.871 26.4897 102.633 26.8209L102.711 26.8559L103.876 25.2858L103.751 25.2235C102.641 24.6585 101.652 23.9572 100.941 23.1001C100.218 22.2274 99.788 21.1754 99.788 19.9092V19.5391H102.993V17.6611H94.2934V19.5391H97.494V19.991C97.494 21.1443 97.111 22.2196 96.474 23.1507C95.7276 24.2689 94.6373 25.1689 93.5782 25.7533L93.4375 25.8274L94.8678 27.304L94.946 27.265C95.7159 26.8287 96.5678 26.1702 97.2947 25.43C97.877 24.8222 98.4007 24.1793 98.7212 23.5365C99.1081 24.1598 99.7021 24.7832 100.359 25.3637H100.355Z" fill="#004289"/>
<path d="M115.93 30.4442H123.757V35.1313H125.93V28.5819H115.93V30.4442Z" fill="#004289"/>
<path d="M121.329 22.9365C121.329 21.904 120.864 20.9533 120.176 20.2287H122.325V18.3702H118.222V16.3248H115.889V18.3702H111.688V20.2287H113.884C113.212 20.9533 112.747 21.8962 112.747 22.9365C112.747 25.2391 114.65 27.1092 117.03 27.117C119.41 27.1092 121.325 25.2391 121.329 22.9365ZM114.822 22.8507C114.822 21.5767 115.9 20.4975 117.03 20.4975C118.159 20.4975 119.234 21.5806 119.238 22.8507C119.238 24.1053 118.159 25.1884 117.03 25.1923C115.896 25.1884 114.826 24.1053 114.822 22.8507Z" fill="#004289"/>
<path d="M125.931 16.8663H123.781V27.8222H125.931V23.6417H128.459V21.7014H125.931V16.8663Z" fill="#004289"/>
<path d="M107.688 16.8663H105.539V27.8222H107.688V22.952H110.213V21.0118H107.688V16.8663Z" fill="#004289"/>
<path d="M71.2047 20.1157H67.8203V22.0365H71.2047V28.1689H73.358V16.8663H71.2047V20.1157Z" fill="#004289"/>
<path d="M65.7376 25.091C66.4098 25.7455 67.1953 26.3222 67.9456 26.7118L68.0277 26.7585L69.3212 25.2351L69.1962 25.165C67.9691 24.5222 67.0272 23.6884 66.3941 22.6481C65.7532 21.6157 65.4327 20.3611 65.4327 18.9157V17.2559H63.1153V18.7754C63.1153 20.3416 62.7636 21.5689 62.1109 22.6287C61.3684 23.8442 60.239 24.8144 58.8243 25.6988L58.7031 25.7767L60.1139 27.23L60.1843 27.1832C61.0167 26.7274 61.8843 26.0689 62.6541 25.317C63.3498 24.6274 63.9282 23.8754 64.2799 23.1546C64.6121 23.8131 65.1201 24.4832 65.7376 25.0949V25.091Z" fill="#004289"/>
<path d="M103.076 27.7092C100.677 27.7131 98.6992 29.5833 98.6953 31.9287C98.6992 34.2508 100.673 36.1248 103.076 36.1326C105.495 36.1248 107.457 34.2508 107.457 31.9287C107.457 29.6066 105.495 27.7131 103.076 27.7092ZM103.014 34.2079C101.763 34.2079 100.81 33.1872 100.81 31.9287C100.81 30.6703 101.818 29.63 103.076 29.63C104.335 29.63 105.3 30.6508 105.304 31.9287C105.304 33.1833 104.276 34.2079 103.014 34.2079Z" fill="#004289"/>
<path d="M80.8962 23.1274H83.0495V17.5521H77.2383V19.4066H80.8962V23.1274Z" fill="#004289"/>
<path d="M87.361 23.1274H89.5183V17.5521H83.707V19.4066H87.361V23.1274Z" fill="#004289"/>
<path d="M142.248 21.8027H140.438V17.1702H138.402V34.6637H140.438V23.9066H142.248V35.1313H144.358V16.8663H142.248V21.8027Z" fill="#004289"/>
<path d="M135.417 24.2221C134.932 23.1663 134.733 21.9858 134.733 20.5364V19.8468H137.176V17.8793H130.079V19.8468H132.599V20.5754C132.599 21.9468 132.419 23.0689 131.986 24.1091C131.482 25.3053 130.633 26.3806 129.281 27.5338L129.188 27.6195L130.524 28.9403L130.606 28.878C131.278 28.3832 131.982 27.6663 132.568 26.926C133.064 26.3027 133.482 25.6559 133.744 25.0871C134.014 25.6403 134.436 26.2754 134.928 26.8676C135.499 27.5611 136.144 28.2195 136.761 28.613L136.843 28.6676L137.969 27.3273L137.879 27.2455C136.667 26.1936 135.917 25.2546 135.425 24.2182L135.417 24.2221Z" fill="#004289"/>
<path d="M75.4375 25.7221H82.5853V27.8027H84.9184V25.7221H92.1795V23.8559H75.4375V25.7221Z" fill="#004289"/>
<path d="M156.618 25.1261H149.341V19.6053H154.882V17.6611H147.16V27.0118H156.618V25.1261Z" fill="#004289"/>
<path d="M152.505 29.3105H150.328V35.1313H160.509V33.2144H152.505V29.3105Z" fill="#004289"/>
<path d="M160.458 21.9235V16.8624H158.309V30.3391H160.458V23.8637H163.002V21.9235H160.458Z" fill="#004289"/>
<path d="M45.6488 11.2286L40.072 8.92598L45.6488 6.62338L44.6561 4.24286L39.0833 6.54546L41.3929 0.985715L39.0012 0L36.6955 5.55974L34.3858 0L31.9941 0.985715L34.3038 6.54546L28.7309 4.24286L27.7422 6.62338L33.315 8.92598L27.7422 11.2286L28.7309 13.6091L34.3038 11.3065L31.9941 16.8662L34.3858 17.852L36.6955 12.2961L39.0012 17.852L41.3929 16.8623L39.0833 11.3065L44.6561 13.6091L45.6488 11.2286Z" fill="#009FE3"/>
<path d="M9.56659 26.739H13.2753V16.8663H0.59375V20.1935H9.56659V26.739Z" fill="#009FE3"/>
<path d="M24.0353 26.739H27.7441V16.8663H15.0625V20.1935H24.0353V26.739Z" fill="#009FE3"/>
<path d="M0 31.8467H24.0344V36.9312H27.7431V28.5195H0V31.8467Z" fill="#009FE3"/>
<path d="M8.97266 52.4689H27.7429V38.6416H8.97266V52.4689ZM12.6814 41.9689H24.0381V49.1416H12.6814V41.9689Z" fill="#009FE3"/>
</svg>
