<svg width="163" height="49" viewBox="0 0 163 49" fill="none" xmlns="http://www.w3.org/2000/svg">
<path d="M47.6806 36.856C46.5669 36.5033 46.3558 36.2681 46.3558 35.8635C46.3558 35.4589 46.6763 35.1373 47.4383 35.1373C47.9972 35.1373 48.3685 35.2998 48.7749 35.5972L49.1735 35.1649C48.7045 34.8329 48.2278 34.6393 47.4774 34.6393C46.4379 34.6393 45.7344 35.1096 45.7344 35.8981C45.7344 36.6105 46.1409 36.9563 47.3446 37.3367C48.3645 37.6617 48.6733 37.9211 48.6733 38.3776C48.6733 38.8998 48.2121 39.2249 47.4735 39.2249C46.899 39.2249 46.4144 38.9897 45.9924 38.6335L45.582 39.0416C46.0197 39.4358 46.6958 39.7263 47.454 39.7263C48.6147 39.7263 49.2986 39.1246 49.2986 38.3534C49.2986 37.5822 48.9195 37.2537 47.6846 36.8594L47.6806 36.856Z" fill="#004289"/>
<path d="M51.825 35.8739C51.2818 35.8739 50.7894 35.9914 50.422 36.1678L50.6487 36.5966C50.9887 36.4203 51.3482 36.3131 51.7859 36.3131C52.3956 36.3131 52.6926 36.5793 52.6926 37.1326V37.5684C52.4464 37.4473 52.0673 37.354 51.6492 37.354C50.8246 37.354 50.0508 37.7067 50.0508 38.5367C50.0508 39.4289 50.7347 39.7194 51.3834 39.7194C51.9853 39.7194 52.3956 39.4704 52.6926 39.1903V39.6433H53.2866V37.0635C53.2866 36.2058 52.7239 35.8669 51.825 35.8669V35.8739ZM52.6926 38.7407C52.4386 39.0485 52.0321 39.294 51.4928 39.294C50.9809 39.294 50.637 39.0554 50.637 38.5056C50.637 38.0422 51.0043 37.7793 51.6179 37.7793C52.1259 37.7793 52.419 37.8623 52.6926 37.9937V38.7442V38.7407Z" fill="#004289"/>
<path d="M59.2796 37.4819V39.6467H59.8736V37.3955C59.8736 36.3165 59.3421 35.8738 58.4901 35.8738C57.8101 35.8738 57.4701 36.154 57.2239 36.5067C57.0246 36.154 56.669 35.8738 56.0789 35.8738C55.5865 35.8738 55.2347 36.0848 55.0198 36.4029V35.9534H54.418V39.6502H55.0198V37.4854C55.0198 36.6658 55.3754 36.3303 55.9499 36.3303C56.5244 36.3303 56.8488 36.6381 56.8488 37.4854V39.6502H57.4467V37.4854C57.4467 36.6658 57.8101 36.3303 58.3768 36.3303C58.9786 36.3303 59.2756 36.6381 59.2756 37.4854L59.2796 37.4819Z" fill="#004289"/>
<path d="M62.2703 37.4957C61.5629 37.2121 61.3519 37.0911 61.3519 36.7764C61.3519 36.5067 61.602 36.3199 62.0436 36.3199C62.4852 36.3199 62.7588 36.4237 63.0832 36.6519L63.4153 36.2611C63.0988 36.0294 62.6533 35.8704 62.0827 35.8704C61.3206 35.8704 60.7774 36.2508 60.7774 36.811C60.7774 37.4023 61.1252 37.6271 61.9655 37.9453C62.7041 38.2254 62.9503 38.3948 62.9503 38.6992C62.9503 39.0588 62.6806 39.2698 62.1061 39.2698C61.6919 39.2698 61.3011 39.1211 60.9689 38.8617L60.6172 39.2456C61.0158 39.5291 61.516 39.7193 62.0905 39.7193C62.8135 39.7193 63.5209 39.4046 63.5209 38.675C63.5209 38.0144 63.0597 37.8104 62.2664 37.4923L62.2703 37.4957Z" fill="#004289"/>
<path d="M67.0051 38.1113C67.0051 38.9205 66.5479 39.2629 65.9734 39.2629C65.3012 39.2629 64.9846 38.9067 64.9846 38.1113V35.95H64.3906V38.2012C64.3906 39.2629 64.9729 39.7228 65.8522 39.7228C66.3798 39.7228 66.7667 39.505 67.0051 39.1937V39.6468H67.603V35.95H67.0051V38.1113Z" fill="#004289"/>
<path d="M71.8257 39.6467V37.3955C71.8257 36.3303 71.2434 35.8738 70.3602 35.8738C69.8365 35.8738 69.4457 36.0917 69.2112 36.4029V35.9534H68.6094V39.6502H69.2112V37.4854C69.2112 36.6761 69.6606 36.3303 70.239 36.3303C70.9073 36.3303 71.2278 36.69 71.2278 37.4854V39.6502H71.8257V39.6467Z" fill="#004289"/>
<path d="M73.7036 40.6012L73.8951 41.0023C75.4466 40.9608 76.0093 40.4248 76.0093 39.3113V35.9464H75.4114V36.3614C75.1183 36.064 74.7588 35.8704 74.2351 35.8704C73.3597 35.8704 72.6562 36.5447 72.6562 37.8554C72.6562 39.166 73.3206 39.7193 74.153 39.7193C74.7197 39.7193 75.1183 39.4703 75.4114 39.1902V39.3804C75.4114 40.2415 75.0949 40.5666 73.6997 40.5977L73.7036 40.6012ZM74.3054 39.2629C73.645 39.2629 73.2464 38.7787 73.2464 37.8485C73.2464 36.8559 73.5864 36.3268 74.282 36.3268C74.7783 36.3268 75.1808 36.5724 75.4114 36.8802V38.7303C75.1183 39.0554 74.751 39.2629 74.3054 39.2629Z" fill="#004289"/>
<path d="M82.5995 37.1464C82.5995 35.4554 81.5209 34.7153 80.0593 34.7153H78.5859V39.6467H79.9498C81.4388 39.6467 82.5995 38.9343 82.5995 37.1464ZM79.2073 35.2133H80.0124C81.2942 35.2133 81.9781 35.905 81.9781 37.1637C81.9781 38.5816 81.2278 39.1453 80.028 39.1453H79.2073V35.2133Z" fill="#004289"/>
<path d="M84.1878 36.4064V35.9499H83.5898V39.6468H84.1878V37.475C84.1878 36.7695 84.516 36.358 85.0983 36.358C85.3758 36.358 85.5556 36.4133 85.7236 36.4998L85.8721 35.9672C85.7314 35.9119 85.5321 35.8773 85.2195 35.8773C84.7701 35.8773 84.3754 36.1159 84.1878 36.4099V36.4064Z" fill="#004289"/>
<path d="M89.4468 39.294L89.1654 38.9136C88.7824 39.1384 88.4971 39.2664 88.0086 39.2664C87.3286 39.2664 86.9026 38.7649 86.8479 37.9799H89.6304C89.65 37.8934 89.6578 37.8174 89.6578 37.6929C89.6578 36.6381 89.0638 35.8773 87.9734 35.8773C86.9808 35.8773 86.25 36.607 86.25 37.7793C86.25 39.2352 87.1801 39.7263 87.9461 39.7263C88.5753 39.7263 88.9426 39.5776 89.4468 39.2975V39.294ZM87.9734 36.3303C88.7042 36.3303 89.056 36.8318 89.1029 37.5476H86.8479C86.9183 36.7211 87.3521 36.3303 87.9734 36.3303Z" fill="#004289"/>
<path d="M91.6491 39.7228C92.247 39.7228 92.6573 39.4738 92.9504 39.1937V39.6467H93.5484V37.0669C93.5484 36.2093 92.9856 35.8704 92.0867 35.8704C91.5435 35.8704 91.0511 35.9879 90.6838 36.1643L90.9065 36.5931C91.2504 36.4168 91.6061 36.3096 92.0438 36.3096C92.6573 36.3096 92.9504 36.5758 92.9504 37.1291V37.5649C92.7042 37.4438 92.329 37.3505 91.9109 37.3505C91.0824 37.3505 90.3047 37.7032 90.3047 38.5332C90.3047 39.4254 90.9925 39.7159 91.6451 39.7159L91.6491 39.7228ZM91.8796 37.7758C92.3877 37.7758 92.6847 37.8588 92.9543 37.9902V38.7407C92.7003 39.0485 92.2939 39.294 91.7546 39.294C91.2465 39.294 90.8987 39.0554 90.8987 38.5055C90.8987 38.0421 91.27 37.7793 91.8796 37.7793V37.7758Z" fill="#004289"/>
<path d="M99.5452 37.4819V39.6467H100.143V37.3955C100.143 36.3165 99.6116 35.8738 98.7597 35.8738C98.0836 35.8738 97.7397 36.154 97.4974 36.5067C97.2981 36.154 96.9424 35.8738 96.3523 35.8738C95.856 35.8738 95.5082 36.0848 95.2932 36.4029V35.9534H94.6992V39.6502H95.2932V37.4854C95.2932 36.6658 95.6528 36.3303 96.2273 36.3303C96.8017 36.3303 97.13 36.6381 97.13 37.4854V39.6502H97.724V37.4854C97.724 36.6658 98.0875 36.3303 98.658 36.3303C99.2599 36.3303 99.5569 36.6381 99.5569 37.4854L99.5452 37.4819Z" fill="#004289"/>
<path d="M47.6806 44.1908C46.5629 43.8381 46.3597 43.6064 46.3597 43.1983C46.3597 42.7902 46.6802 42.4755 47.4423 42.4755C48.0011 42.4755 48.3763 42.6346 48.7788 42.932L49.1774 42.5032C48.7085 42.1747 48.2278 41.9775 47.4813 41.9775C46.4379 41.9775 45.7384 42.4409 45.7384 43.2363C45.7384 43.9487 46.1448 44.2911 47.3485 44.6715C48.3685 45 48.6772 45.2559 48.6772 45.7159C48.6772 46.2346 48.216 46.5597 47.4735 46.5597C46.899 46.5597 46.4144 46.3245 45.9924 45.9683L45.582 46.3764C46.0197 46.7706 46.6958 47.0576 47.454 47.0576C48.6147 47.0576 49.2947 46.4594 49.2947 45.6847C49.2947 44.9101 48.9156 44.585 47.6846 44.1908H47.6806Z" fill="#004289"/>
<path d="M51.8328 43.6651C52.2549 43.6651 52.5324 43.7966 52.8333 44.0386L53.1928 43.6444C52.8646 43.3885 52.4308 43.2052 51.8719 43.2052C50.9965 43.2052 50.0703 43.7827 50.0703 45.1487C50.0703 46.4386 50.9105 47.0542 51.8289 47.0542C52.4151 47.0542 52.8216 46.8571 53.1733 46.5389L52.8138 46.2035C52.5285 46.449 52.2588 46.5942 51.8524 46.5942C51.1138 46.5942 50.6722 46.0098 50.6722 45.1003C50.6722 44.1908 51.1763 43.6582 51.8289 43.6582L51.8328 43.6651Z" fill="#004289"/>
<path d="M55.743 43.2087C55.2193 43.2087 54.8246 43.4265 54.5862 43.7378V42.0018H53.9922V46.9885H54.5862V44.8237C54.5862 44.0144 55.0434 43.6686 55.6218 43.6686C56.294 43.6686 56.6106 44.0248 56.6106 44.8237V46.9885H57.2085V44.7303C57.2085 43.6686 56.6262 43.2087 55.743 43.2087Z" fill="#004289"/>
<path d="M59.8719 43.2087C58.8558 43.2087 58.0469 43.883 58.0469 45.1384C58.0469 46.3937 58.8246 47.0611 59.8407 47.0611C60.8568 47.0611 61.6735 46.366 61.6735 45.1107C61.6735 43.8554 60.888 43.2087 59.8719 43.2087ZM59.8602 46.6012C59.1333 46.6012 58.6448 46.0963 58.6448 45.1245C58.6448 44.1528 59.1333 43.6686 59.8602 43.6686C60.5871 43.6686 61.0756 44.1528 61.0756 45.1245C61.0756 46.0963 60.5832 46.6012 59.8602 46.6012Z" fill="#004289"/>
<path d="M63.1721 41.9983H62.5742V46.985H63.1721V41.9983Z" fill="#004289"/>
<path d="M65.9031 43.2087C65.3599 43.2087 64.8675 43.3297 64.5041 43.5061L64.7268 43.9384C65.0707 43.762 65.4303 43.6548 65.868 43.6548C66.4776 43.6548 66.7746 43.9245 66.7746 44.4709V44.9101C66.5284 44.7891 66.1533 44.6957 65.7351 44.6957C64.9066 44.6957 64.1328 45.0484 64.1328 45.8819C64.1328 46.7741 64.8167 47.0611 65.4694 47.0611C66.0673 47.0611 66.4776 46.8156 66.7746 46.5355V46.9885H67.3726V44.4121C67.3726 43.5476 66.8059 43.2121 65.9071 43.2121L65.9031 43.2087ZM66.7707 46.0755C66.5206 46.3798 66.1064 46.6288 65.571 46.6288C65.0629 46.6288 64.719 46.3902 64.719 45.8404C64.719 45.3735 65.0864 45.1176 65.6999 45.1176C66.208 45.1176 66.5011 45.1937 66.7707 45.3286V46.0755Z" fill="#004289"/>
<path d="M69.1057 43.7447V43.2813H68.5078V46.9816H69.1057V44.8098C69.1057 44.1078 69.4262 43.6894 70.0124 43.6894C70.2938 43.6894 70.4735 43.7447 70.6416 43.8312L70.794 43.2952C70.6494 43.2398 70.454 43.2018 70.1414 43.2018C69.6959 43.2018 69.2933 43.4404 69.1096 43.7413L69.1057 43.7447Z" fill="#004289"/>
<path d="M73.0828 44.834C72.3754 44.5505 72.1605 44.4225 72.1605 44.1147C72.1605 43.8484 72.4145 43.6582 72.8522 43.6582C73.2899 43.6582 73.5713 43.7655 73.8957 43.9902L74.2278 43.6029C73.9074 43.3712 73.4658 43.2087 72.8913 43.2087C72.1331 43.2087 71.5821 43.5891 71.5821 44.1528C71.5821 44.7165 71.9338 44.9689 72.7701 45.2836C73.5088 45.5637 73.755 45.7366 73.755 46.0375C73.755 46.4006 73.4853 46.6081 72.9147 46.6081C72.4966 46.6081 72.1097 46.4594 71.7736 46.2L71.4258 46.5873C71.8244 46.8709 72.3246 47.0577 72.8991 47.0577C73.6221 47.0577 74.3294 46.7395 74.3294 46.0167C74.3294 45.3528 73.8683 45.1522 73.0789 44.834H73.0828Z" fill="#004289"/>
<path d="M77.0555 43.2087C76.524 43.2087 76.1371 43.4265 75.8987 43.7378V42.0018H75.3008V46.9885H75.8987V44.8237C75.8987 44.0144 76.352 43.6686 76.9343 43.6686C77.6026 43.6686 77.9192 44.0248 77.9192 44.8237V46.9885H78.5171V44.7303C78.5171 43.6686 77.9387 43.2087 77.0555 43.2087Z" fill="#004289"/>
<path d="M80.2932 43.2813H79.6992V46.9816H80.2932V43.2813Z" fill="#004289"/>
<path d="M80.008 41.8704C79.7657 41.8704 79.5742 42.0398 79.5742 42.2542C79.5742 42.4686 79.7657 42.6277 80.008 42.6277C80.2308 42.6277 80.4223 42.4548 80.4223 42.2542C80.4223 42.0398 80.2308 41.8704 80.008 41.8704Z" fill="#004289"/>
<path d="M83.3524 43.2087C82.7897 43.2087 82.391 43.4577 82.094 43.7378V43.2848H81.4961V48.3441H82.094V46.5701C82.3871 46.864 82.7467 47.0611 83.2742 47.0611C84.1457 47.0611 84.8492 46.3833 84.8492 45.0761C84.8492 43.7689 84.1848 43.2087 83.3524 43.2087ZM83.2234 46.6012C82.731 46.6012 82.3246 46.3556 82.094 46.0444V44.1977C82.3871 43.8761 82.7545 43.6652 83.2 43.6652C83.8644 43.6652 84.263 44.1493 84.263 45.0796C84.263 46.0721 83.9191 46.5977 83.2274 46.5977L83.2234 46.6012Z" fill="#004289"/>
<path d="M88.012 42.5516H90.6616V42.0536H87.3906V46.985H88.012V44.6853H89.54V44.1874H88.012V42.5516Z" fill="#004289"/>
<path d="M92.4735 43.2087C91.4574 43.2087 90.6445 43.883 90.6445 45.1384C90.6445 46.3937 91.4261 47.0611 92.4422 47.0611C93.4583 47.0611 94.2751 46.366 94.2751 45.1107C94.2751 43.8554 93.4974 43.2087 92.4735 43.2087ZM92.4579 46.6012C91.731 46.6012 91.2503 46.0963 91.2503 45.1245C91.2503 44.1528 91.7349 43.6686 92.4579 43.6686C93.1808 43.6686 93.6772 44.1528 93.6772 45.1245C93.6772 46.0963 93.1848 46.6012 92.4579 46.6012Z" fill="#004289"/>
<path d="M97.5715 45.4461C97.5715 46.2554 97.1221 46.6012 96.5398 46.6012C95.8715 46.6012 95.5511 46.245 95.5511 45.4461V43.2813H94.957V45.5361C94.957 46.5977 95.5393 47.0577 96.4225 47.0577C96.9423 47.0577 97.3331 46.8433 97.5715 46.532V46.985H98.1733V43.2848H97.5715V45.4496V45.4461Z" fill="#004289"/>
<path d="M100.923 43.2087C100.399 43.2087 100.008 43.4265 99.7698 43.7378V43.2847H99.1719V46.985H99.7698V44.8202C99.7698 44.011 100.223 43.6651 100.805 43.6651C101.474 43.6651 101.79 44.0213 101.79 44.8202V46.985H102.388V44.7268C102.388 43.6651 101.806 43.2052 100.923 43.2052V43.2087Z" fill="#004289"/>
<path d="M105.982 43.7032C105.685 43.4058 105.329 43.2052 104.801 43.2052C103.926 43.2052 103.227 43.8796 103.227 45.1937C103.227 46.5078 103.887 47.0576 104.723 47.0576C105.29 47.0576 105.685 46.8121 105.978 46.532V46.985H106.576V41.9983H105.978V43.7032H105.982ZM105.982 46.0651C105.685 46.3867 105.321 46.5977 104.876 46.5977C104.215 46.5977 103.817 46.1136 103.817 45.1833C103.817 44.1873 104.157 43.6617 104.852 43.6617C105.345 43.6617 105.747 43.9072 105.982 44.2185V46.0617V46.0651Z" fill="#004289"/>
<path d="M109.106 43.2087C108.567 43.2087 108.075 43.3297 107.707 43.5061L107.926 43.9384C108.27 43.762 108.629 43.6548 109.067 43.6548C109.677 43.6548 109.97 43.9245 109.97 44.4709V44.9101C109.724 44.7891 109.349 44.6957 108.927 44.6957C108.102 44.6957 107.328 45.0484 107.328 45.8819C107.328 46.7741 108.016 47.0611 108.669 47.0611C109.267 47.0611 109.677 46.8156 109.97 46.5355V46.9885H110.568V44.4121C110.568 43.5476 110.005 43.2121 109.102 43.2121L109.106 43.2087ZM109.97 46.0755C109.716 46.3798 109.313 46.6288 108.766 46.6288C108.262 46.6288 107.922 46.3902 107.922 45.8404C107.922 45.3735 108.286 45.1176 108.899 45.1176C109.407 45.1176 109.704 45.1937 109.97 45.3286V46.0755Z" fill="#004289"/>
<path d="M112.477 41.9983H111.875V43.2813H111.359V43.7274H111.875V46.2208C111.875 46.8329 112.157 47.0542 112.676 47.0542C112.989 47.0542 113.212 47.0127 113.442 46.9297L113.485 46.4732C113.294 46.5424 113.138 46.577 112.895 46.577C112.579 46.577 112.477 46.4628 112.477 46.1343V43.7274H113.513V43.2813H112.477V41.9983Z" fill="#004289"/>
<path d="M114.867 41.8704C114.621 41.8704 114.426 42.0398 114.426 42.2542C114.426 42.4686 114.621 42.6277 114.867 42.6277C115.09 42.6277 115.278 42.4548 115.278 42.2542C115.278 42.0398 115.086 41.8704 114.867 41.8704Z" fill="#004289"/>
<path d="M115.153 43.2813H114.555V46.9816H115.153V43.2813Z" fill="#004289"/>
<path d="M117.88 43.2087C116.864 43.2087 116.051 43.883 116.051 45.1384C116.051 46.3937 116.828 47.0611 117.848 47.0611C118.868 47.0611 119.677 46.366 119.677 45.1107C119.677 43.8554 118.896 43.2087 117.88 43.2087ZM117.864 46.6012C117.141 46.6012 116.653 46.0963 116.653 45.1245C116.653 44.1528 117.141 43.6686 117.864 43.6686C118.587 43.6686 119.083 44.1528 119.083 45.1245C119.083 46.0963 118.591 46.6012 117.864 46.6012Z" fill="#004289"/>
<path d="M122.294 43.2087C121.77 43.2087 121.379 43.4265 121.137 43.7378V43.2847H120.539V46.985H121.137V44.8202C121.137 44.011 121.59 43.6651 122.173 43.6651C122.841 43.6651 123.161 44.0213 123.161 44.8202V46.985H123.755V44.7268C123.755 43.6651 123.173 43.2052 122.294 43.2052V43.2087Z" fill="#004289"/>
<path d="M68.5762 25.0083C66.1767 25.0118 64.1992 26.6717 64.1992 28.7535C64.1992 30.8354 66.1767 32.478 68.5762 32.4849C70.9992 32.478 72.9571 30.8146 72.9571 28.7535C72.9571 26.6924 70.9992 25.0118 68.5762 25.0083ZM68.5176 30.7766C67.2631 30.7766 66.3174 29.8705 66.3174 28.7535C66.3174 27.6365 67.3295 26.7132 68.5801 26.7132C69.8307 26.7132 70.8077 27.6192 70.8077 28.7535C70.8077 29.8878 69.7838 30.7766 68.5215 30.7766H68.5176Z" fill="#004289"/>
<path d="M48.4915 22.4319C49.1598 23.0164 49.9257 23.5282 50.68 23.8567L50.7582 23.8947L52.0517 22.5426L51.9267 22.4803C50.6995 21.8924 49.7382 21.1489 49.109 20.2117C48.4837 19.2884 48.1632 18.2164 48.1632 16.9334V15.7299H45.8497V16.8054C45.8497 18.1956 45.494 19.2884 44.8258 20.2463C44.0793 21.308 42.9734 22.1622 41.5587 22.9541L41.4336 23.0233L42.8366 24.3097L42.9147 24.2717C43.7511 23.8705 44.6382 23.2515 45.4081 22.5599C46.0763 21.9547 46.6547 21.308 47.0064 20.6959C47.3464 21.2976 47.8662 21.9097 48.4915 22.4354V22.4319Z" fill="#004289"/>
<path d="M45.9883 31.5996H55.6724V25.7449H45.9883V31.5996ZM48.1651 27.3979H53.4956V29.9466H48.1651V27.3979Z" fill="#004289"/>
<path d="M78.2734 31.5996H89.2237V25.7449H78.2734V31.5996ZM80.4268 27.3979H87.0743V29.9466H80.4268V27.3979Z" fill="#004289"/>
<path d="M55.708 15.3841H53.5547V25.074H55.708V20.7858H58.2287V19.0636H55.708V15.3841Z" fill="#004289"/>
<path d="M100.355 22.9264C101.062 23.4693 101.871 23.9258 102.633 24.2198L102.711 24.2509L103.876 22.8572L103.751 22.8019C102.641 22.3005 101.652 21.678 100.941 20.9172C100.218 20.1426 99.788 19.2088 99.788 18.0849V17.7564H102.993V16.0895H94.2934V17.7564H97.494V18.1575C97.494 19.1812 97.111 20.1356 96.474 20.9621C95.7276 21.9546 94.6373 22.7535 93.5782 23.2722L93.4375 23.3379L94.8678 24.6486L94.946 24.614C95.7159 24.2267 96.5678 23.6423 97.2947 22.9852C97.877 22.4457 98.4007 21.8751 98.7212 21.3045C99.1081 21.8578 99.7021 22.4111 100.359 22.9264H100.355Z" fill="#004289"/>
<path d="M115.93 27.4359H123.757V31.5961H125.93V25.7829H115.93V27.4359Z" fill="#004289"/>
<path d="M121.329 20.772C121.329 19.8555 120.864 19.0117 120.176 18.3685H122.325V16.7189H118.222V14.9034H115.889V16.7189H111.688V18.3685H113.884C113.212 19.0117 112.747 19.8486 112.747 20.772C112.747 22.8157 114.65 24.4757 117.03 24.4826C119.41 24.4757 121.325 22.8157 121.329 20.772ZM114.822 20.6959C114.822 19.565 115.9 18.6071 117.03 18.6071C118.159 18.6071 119.234 19.5685 119.238 20.6959C119.238 21.8094 118.159 22.7708 117.03 22.7743C115.896 22.7708 114.826 21.8094 114.822 20.6959Z" fill="#004289"/>
<path d="M125.931 15.3841H123.781V25.1086H125.931V21.3979H128.459V19.6757H125.931V15.3841Z" fill="#004289"/>
<path d="M107.688 15.3841H105.539V25.1086H107.688V20.7858H110.213V19.0636H107.688V15.3841Z" fill="#004289"/>
<path d="M71.2047 18.2682H67.8203V19.9731H71.2047V25.4163H73.358V15.3841H71.2047V18.2682Z" fill="#004289"/>
<path d="M65.7376 22.6844C66.4098 23.2653 67.1953 23.7772 67.9456 24.123L68.0277 24.1645L69.3212 22.8123L69.1962 22.7501C67.9691 22.1795 67.0272 21.4394 66.3941 20.5161C65.7532 19.5996 65.4327 18.4861 65.4327 17.2031V15.7299H63.1153V17.0786C63.1153 18.4688 62.7636 19.5582 62.1109 20.4988C61.3684 21.5777 60.239 22.4388 58.8243 23.2238L58.7031 23.293L60.1139 24.5829L60.1843 24.5414C61.0167 24.1368 61.8843 23.5524 62.6541 22.8849C63.3498 22.2728 63.9282 21.6054 64.2799 20.9656C64.6121 21.5501 65.1201 22.1449 65.7376 22.6878V22.6844Z" fill="#004289"/>
<path d="M103.076 25.0083C100.677 25.0118 98.6992 26.6717 98.6953 28.7535C98.6992 30.8146 100.673 32.478 103.076 32.4849C105.495 32.478 107.457 30.8146 107.457 28.7535C107.457 26.6924 105.495 25.0118 103.076 25.0083ZM103.014 30.7766C101.763 30.7766 100.81 29.8705 100.81 28.7535C100.81 27.6365 101.818 26.7132 103.076 26.7132C104.335 26.7132 105.3 27.6192 105.304 28.7535C105.304 29.8671 104.276 30.7766 103.014 30.7766Z" fill="#004289"/>
<path d="M80.8962 20.9414H83.0495V15.9927H77.2383V17.6388H80.8962V20.9414Z" fill="#004289"/>
<path d="M87.361 20.9414H89.5183V15.9927H83.707V17.6388H87.361V20.9414Z" fill="#004289"/>
<path d="M142.248 19.7656H140.438V15.6538H138.402V31.1812H140.438V21.6331H142.248V31.5961H144.358V15.3841H142.248V19.7656Z" fill="#004289"/>
<path d="M135.417 21.9132C134.932 20.976 134.733 19.9281 134.733 18.6417V18.0296H137.176V16.2832H130.079V18.0296H132.599V18.6763C132.599 19.8936 132.419 20.8895 131.986 21.8129C131.482 22.8745 130.633 23.829 129.281 24.8526L129.188 24.9287L130.524 26.101L130.606 26.0457C131.278 25.6065 131.982 24.9702 132.568 24.3132C133.064 23.7598 133.482 23.1858 133.744 22.6809C134.014 23.1719 134.436 23.7356 134.928 24.2613C135.499 24.8768 136.144 25.4613 136.761 25.8106L136.843 25.859L137.969 24.6693L137.879 24.5967C136.667 23.663 135.917 22.8296 135.425 21.9097L135.417 21.9132Z" fill="#004289"/>
<path d="M75.4375 23.2446H82.5853V25.0912H84.9184V23.2446H92.1795V21.5881H75.4375V23.2446Z" fill="#004289"/>
<path d="M156.618 22.7155H149.341V17.8152H154.882V16.0895H147.16V24.3892H156.618V22.7155Z" fill="#004289"/>
<path d="M152.505 26.4296H150.328V31.5961H160.509V29.8947H152.505V26.4296Z" fill="#004289"/>
<path d="M160.458 19.8728V15.3806H158.309V27.3425H160.458V21.595H163.002V19.8728H160.458Z" fill="#004289"/>
<path d="M45.6488 10.38L40.072 8.33619L45.6488 6.2924L44.6561 4.17944L39.0833 6.22323L41.3929 1.28838L39.0012 0.413452L36.6955 5.34831L34.3858 0.413452L31.9941 1.28838L34.3038 6.22323L28.7309 4.17944L27.7422 6.2924L33.315 8.33619L27.7422 10.38L28.7309 12.493L34.3038 10.4492L31.9941 15.384L34.3858 16.2589L36.6955 11.3275L39.0012 16.2589L41.3929 15.3806L39.0833 10.4492L44.6561 12.493L45.6488 10.38Z" fill="#009FE3"/>
<path d="M9.56659 24.1471H13.2753V15.384H0.59375V18.3373H9.56659V24.1471Z" fill="#009FE3"/>
<path d="M24.0353 24.1471H27.7441V15.384H15.0625V18.3373H24.0353V24.1471Z" fill="#009FE3"/>
<path d="M0 28.6808H24.0344V33.1937H27.7431V25.7275H0V28.6808Z" fill="#009FE3"/>
<path d="M8.97266 46.9851H27.7429V34.7119H8.97266V46.9851ZM12.6814 37.6652H24.0381V44.0318H12.6814V37.6652Z" fill="#009FE3"/>
</svg>
