<svg width="51" height="29" viewBox="0 0 51 29" fill="none" xmlns="http://www.w3.org/2000/svg">
<g clip-path="url(#clip0_48_1619)">
<path d="M25.1406 25.2702L37.1584 20.9268V26.2448C37.1584 26.805 36.6923 27.2731 36.1174 27.2731H25.1328V25.2779L25.1406 25.2702Z" fill="#075F63"/>
<path d="M14.5117 20.8042L25.1467 25.2705V27.2657H15.5527C14.9856 27.2657 14.5117 26.8053 14.5117 26.2374V20.8042Z" fill="#075F63"/>
<path d="M7.90947 17.9341C7.96385 17.8727 8.03377 17.7576 8.03377 17.5888C8.03377 17.2895 7.79295 17.0516 7.49775 17.0516C7.20255 17.0516 6.95396 17.2972 6.95396 17.5888C6.95396 17.7423 7.02387 17.8957 7.15594 17.9955C7.35791 18.1566 7.45114 18.4176 7.41229 18.6708L6.65875 23.0757H8.37558L7.73857 18.5097C7.70749 18.3025 7.76964 18.1029 7.90947 17.9341ZM25.0467 10.7359C26.4139 10.7359 27.284 10.2524 27.284 9.91478C27.284 9.57713 26.4139 9.08599 25.0467 9.08599C23.6794 9.08599 22.8093 9.57713 22.8093 9.91478C22.8093 10.2524 23.6794 10.7359 25.0467 10.7359ZM37.1654 26.245V15.1408L25.3419 20.2056C25.2486 20.244 25.1554 20.267 25.0467 20.267C24.9534 20.267 24.8447 20.244 24.7515 20.2056L14.5049 15.8084V26.245C14.5049 26.8052 14.971 27.2733 15.5458 27.2733H36.1244C36.6915 27.2733 37.1654 26.8129 37.1654 26.245ZM25.0467 18.7552L47.0469 9.32389L24.6582 1.77268C21.2013 3.06191 8.51541 7.78142 3.23287 9.4083L7.90947 11.4112L22.149 9.55411C22.4365 8.8481 23.5862 8.35697 25.0467 8.35697C26.7324 8.35697 28.0142 9.0246 28.0142 9.90711C28.0142 10.7896 26.7402 11.4496 25.0467 11.4496C24.1222 11.4496 23.3143 11.2501 22.786 10.9278L10.5197 12.5239L25.0467 18.7475V18.7552ZM49.3619 9.90711L38.6181 14.5115V26.245C38.6181 27.611 37.4995 28.7161 36.1167 28.7161H15.5381C14.1553 28.7161 13.0366 27.611 13.0366 26.245V15.1868L8.52318 13.2606V15.9005C9.10581 16.2535 9.49424 16.8751 9.49424 17.5888C9.49424 17.9418 9.39325 18.2948 9.2068 18.5941L9.9215 23.6896C9.95257 23.8968 9.89043 24.104 9.75059 24.2651C9.61853 24.4186 9.40878 24.5184 9.2068 24.5184H5.78092C5.56341 24.5184 5.36143 24.4263 5.22936 24.2575C5.08953 24.0963 5.02738 23.8814 5.07399 23.6666L5.90522 18.7782C5.64109 18.4406 5.50126 18.0185 5.50126 17.5888C5.50126 16.6295 6.17711 15.8391 7.07825 15.6549V12.6314L0.739204 9.90711C0.420698 9.77665 0.242024 9.439 0.31194 9.10134C0.381856 8.77136 0.677057 8.52579 1.01887 8.52579C2.29289 8.44905 16.0275 3.46864 24.3941 0.329975C24.5495 0.276257 24.7281 0.268583 24.8835 0.322301L49.3153 8.56416C49.6027 8.65625 49.7891 8.91717 49.8047 9.21645C49.8124 9.51574 49.6415 9.792 49.3696 9.90711H49.3619Z" fill="black"/>
<path d="M7.07821 15.6549C6.17707 15.8391 5.50121 16.6372 5.50121 17.5888C5.50121 18.0185 5.64105 18.4406 5.90517 18.7782L5.07395 23.6666C5.03511 23.8814 5.08949 24.0886 5.22932 24.2575C5.36138 24.4186 5.57113 24.5184 5.78088 24.5184H9.20676C9.41651 24.5184 9.61849 24.4263 9.75055 24.2651C9.89038 24.1117 9.9603 23.8968 9.92146 23.6896L9.20676 18.5941C9.38543 18.2948 9.49419 17.9418 9.49419 17.5888C9.49419 16.8674 9.10577 16.2458 8.52314 15.9005V13.2606L13.0366 15.1868V26.245C13.0366 27.611 14.1553 28.7161 15.538 28.7161H36.1166C37.4994 28.7161 38.6181 27.611 38.6181 26.245V14.5115L49.3618 9.90711C49.6337 9.792 49.8046 9.51574 49.7969 9.21645C49.7813 8.91717 49.5871 8.66392 49.3075 8.56416L24.8835 0.322301C24.7281 0.268583 24.5494 0.276257 24.3941 0.329975C16.0197 3.46864 2.29285 8.44905 1.01106 8.52579C0.669244 8.52579 0.374044 8.77136 0.304128 9.10134C0.234212 9.439 0.412886 9.77665 0.731392 9.90711L7.07821 12.6314V15.6549Z" stroke="black" stroke-width="0.75" stroke-linecap="round" stroke-linejoin="round"/>
<path d="M6.64844 23.068L7.40198 18.6632C7.44082 18.4099 7.3476 18.1567 7.14562 17.9878C7.02132 17.8881 6.94364 17.7346 6.94364 17.5811C6.94364 17.2818 7.19223 17.0439 7.48743 17.0439C7.78263 17.0439 8.02345 17.2895 8.02345 17.5811C8.02345 17.7423 7.95354 17.8651 7.89916 17.9265C7.75932 18.0876 7.68941 18.2948 7.72825 18.502L8.36526 23.068H6.64844Z" stroke="black" stroke-width="0.75" stroke-linecap="round" stroke-linejoin="round"/>
<path d="M3.23438 9.40808C8.51691 7.78119 21.2028 3.06936 24.6597 1.77246L47.0484 9.32366L25.0482 18.755L10.5212 12.5314L22.7875 10.9352C23.3158 11.2652 24.1159 11.457 25.0482 11.457C26.7339 11.457 28.0157 10.7894 28.0157 9.91456C28.0157 9.03973 26.7417 8.36442 25.0482 8.36442C23.5877 8.36442 22.438 8.85555 22.1505 9.56156L7.91098 11.4187L3.23438 9.41575V9.40808Z" stroke="black" stroke-width="0.25" stroke-linecap="round" stroke-linejoin="round"/>
<path d="M22.8086 9.91473C22.8086 9.57707 23.6787 9.08594 25.0459 9.08594C26.4132 9.08594 27.2832 9.57707 27.2832 9.91473C27.2832 10.2524 26.4132 10.7358 25.0459 10.7358C23.6787 10.7358 22.8086 10.2524 22.8086 9.91473Z" stroke="black" stroke-width="0.75" stroke-linecap="round" stroke-linejoin="round"/>
</g>
<defs>
<clipPath id="clip0_48_1619">
<rect width="50.0909" height="29" fill="white"/>
</clipPath>
</defs>
</svg>
