<svg id="quick_ico03" xmlns="http://www.w3.org/2000/svg" xmlns:xlink="http://www.w3.org/1999/xlink" width="22.166" height="36.883" viewBox="0 0 22.166 36.883">
  <defs>
    <clipPath id="clip-path">
      <rect id="사각형_238" data-name="사각형 238" width="22.166" height="36.883" fill="#fff"/>
    </clipPath>
  </defs>
  <g id="그룹_122" data-name="그룹 122" transform="translate(0 0)" clip-path="url(#clip-path)">
    <path id="패스_1854" data-name="패스 1854" d="M21.853,13.7a11.084,11.084,0,1,0-21.538,0,16.563,16.563,0,0,0,1.21,4.312C2.614,20.3,7.2,27.855,9.3,31.295c-2.845.362-4.165,1.586-4.165,2.739,0,1.373,1.861,2.849,5.948,2.849s5.948-1.477,5.948-2.849c0-1.153-1.32-2.376-4.165-2.739,2.1-3.44,6.687-10.992,7.776-13.279a16.532,16.532,0,0,0,1.21-4.312m-6.535,20.33c-.115.324-1.547,1.138-4.234,1.138-2.719,0-4.152-.833-4.237-1.127.077-.283,1.245-.982,3.453-1.121l.056.091a.856.856,0,0,0,1.457,0l.056-.092c2.179.138,3.346.821,3.45,1.111m4.865-20.705a.649.649,0,0,0-.014.066A15.222,15.222,0,0,1,19.1,17.28c-1.1,2.309-6.117,10.551-8.015,13.648-1.9-3.1-6.914-11.339-8.014-13.648A15.221,15.221,0,0,1,2,13.395c0-.022-.008-.045-.013-.067a9.372,9.372,0,1,1,18.2,0" transform="translate(0 0)" fill="#fff"/>
    <path id="패스_1855" data-name="패스 1855" d="M12.4,6.094a5.948,5.948,0,1,0,5.948,5.948A5.955,5.955,0,0,0,12.4,6.094m0,10.184a4.236,4.236,0,1,1,4.235-4.236A4.24,4.24,0,0,1,12.4,16.278" transform="translate(-1.315 -1.243)" fill="#fff"/>
  </g>
</svg>
