<svg id="quick_ico02" xmlns="http://www.w3.org/2000/svg" xmlns:xlink="http://www.w3.org/1999/xlink" width="34.232" height="33.693" viewBox="0 0 34.232 33.693">
  <defs>
    <clipPath id="clip-path">
      <rect id="사각형_324" data-name="사각형 324" width="34.233" height="33.693" fill="#fff"/>
    </clipPath>
  </defs>
  <g id="합치기_1" data-name="합치기 1" transform="translate(13.018 12.748)" fill="none">
    <path d="M3.732,8.2a1,1,0,0,1-1-1V5.464H1a1,1,0,0,1-1-1V3.732a1,1,0,0,1,1-1H2.732V1a1,1,0,0,1,1-1h.732a1,1,0,0,1,1,1V2.732H7.2a1,1,0,0,1,1,1v.732a1,1,0,0,1-1,1H5.464V7.2a1,1,0,0,1-1,1Z" stroke="none"/>
    <path d="M 4.463900089263916 7.196300029754639 L 4.463900089263916 4.463900089263916 L 7.196300029754639 4.464000225067139 L 7.196400165557861 3.732400178909302 L 4.463900089263916 3.732400178909302 L 4.464000225067139 1.000000238418579 L 3.732400178909302 0.9999002814292908 L 3.732400178909302 3.732400178909302 L 1.000000238418579 3.732300281524658 L 0.9999002814292908 4.463900089263916 L 3.732400178909302 4.463900089263916 L 3.732300281524658 7.196300029754639 L 4.463900089263916 7.196300029754639 M 4.464000225067139 8.196300506591797 L 3.732300281524658 8.196300506591797 C 3.179700136184692 8.196300506591797 2.732400178909302 7.748100280761719 2.732400178909302 7.196400165557861 L 2.732400178909302 5.463900089263916 L 0.9999002814292908 5.463900089263916 C 0.4473002552986145 5.463900089263916 2.53295894481198e-07 5.016600131988525 2.53295894481198e-07 4.464000225067139 L 2.53295894481198e-07 3.732300281524658 C 2.53295894481198e-07 3.179700136184692 0.4473002552986145 2.732400178909302 0.9999002814292908 2.732400178909302 L 2.732400178909302 2.732400178909302 L 2.732400178909302 0.9999002814292908 C 2.732400178909302 0.4473002552986145 3.179700136184692 2.53295894481198e-07 3.732300281524658 2.53295894481198e-07 L 4.464000225067139 2.53295894481198e-07 C 5.016600131988525 2.53295894481198e-07 5.463900089263916 0.4473002552986145 5.463900089263916 0.9999002814292908 L 5.463900089263916 2.732400178909302 L 7.196400165557861 2.732400178909302 C 7.748100280761719 2.732400178909302 8.196300506591797 3.179700136184692 8.196300506591797 3.732300281524658 L 8.196300506591797 4.464000225067139 C 8.196300506591797 5.016600131988525 7.748100280761719 5.463900089263916 7.196400165557861 5.463900089263916 L 5.463900089263916 5.463900089263916 L 5.463900089263916 7.196400165557861 C 5.463900089263916 7.748100280761719 5.016600131988525 8.196300506591797 4.464000225067139 8.196300506591797 Z" stroke="none" fill="#fff"/>
  </g>
  <g id="그룹_166" data-name="그룹 166" transform="translate(0 0)">
    <g id="그룹_165" data-name="그룹 165" clip-path="url(#clip-path)">
      <path id="패스_1902" data-name="패스 1902" d="M.706,11.5A3.158,3.158,0,0,0,0,13.486V30.013a3.6,3.6,0,0,0,3.6,3.6l.078.077.077-.077H30.475l.078.077.077-.077h0a3.6,3.6,0,0,0,3.6-3.6V13.486a3.153,3.153,0,0,0-.707-1.991.838.838,0,0,0-.246-.608L17.713.237a.868.868,0,0,0-1.193,0L.952,10.887a.846.846,0,0,0-.246.608M5.9,31.471l6.916-6.917a.43.43,0,0,1,.608,0l3.094,3.093a.842.842,0,0,0,1.193,0l3.093-3.093a.431.431,0,0,1,.609,0l6.916,6.917a.43.43,0,0,1-.3.734H6.206a.43.43,0,0,1-.3-.734M7.72,16.761V11.449a.43.43,0,0,1,.43-.43H26.365a.43.43,0,0,1,.43.43v5.029a.429.429,0,0,1-.126.3l-9.249,9.249a.431.431,0,0,1-.609,0L7.846,17.066a.43.43,0,0,1-.126-.3m25.1-3.275V30.443A1.765,1.765,0,0,1,31.659,32.1a.412.412,0,0,1-.424-.111l-8.628-8.628a.43.43,0,0,1,0-.608L32.64,12.72a1.753,1.753,0,0,1,.183.766M17.367,2.2l13.711,8.983a.43.43,0,0,1,.054.655l-2.59,2.59a.43.43,0,0,1-.734-.3V10.943a.936.936,0,0,0-.936-.936H7.645a.936.936,0,0,0-.937.937v3.468a.43.43,0,0,1-.734.3L3.1,11.843a.432.432,0,0,1,.054-.655L16.866,2.2a.43.43,0,0,1,.5,0M1.41,13.486a1.753,1.753,0,0,1,.183-.766L11.625,22.753a.43.43,0,0,1,0,.608L3,31.989a.411.411,0,0,1-.423.111A1.765,1.765,0,0,1,1.41,30.443Z" transform="translate(0 0)" fill="#fff"/>
    </g>
  </g>
</svg>
