<svg id="quick_ico01" xmlns="http://www.w3.org/2000/svg" xmlns:xlink="http://www.w3.org/1999/xlink" width="31" height="37.388" viewBox="0 0 31 37.388">
  <defs>
    <clipPath id="clip-path">
      <rect id="사각형_325" data-name="사각형 325" width="31" height="37.389" fill="#fff"/>
    </clipPath>
  </defs>
  <g id="그룹_168" data-name="그룹 168" transform="translate(0 0)" clip-path="url(#clip-path)">
    <path id="패스_1903" data-name="패스 1903" d="M26.936,16.233H6.581a1.622,1.622,0,0,0,0,3.245H26.936a1.622,1.622,0,0,0,0-3.245m0,2.209H6.581a.587.587,0,1,1,0-1.174H26.936a.587.587,0,0,1,0,1.174" transform="translate(-1.231 -4.03)" fill="#fff"/>
    <path id="패스_1904" data-name="패스 1904" d="M26.936,22.561H6.581a1.622,1.622,0,1,0,0,3.245H26.936a1.622,1.622,0,0,0,0-3.245m0,2.209H6.581a.587.587,0,1,1,0-1.174H26.936a.587.587,0,0,1,0,1.174" transform="translate(-1.231 -5.601)" fill="#fff"/>
    <path id="패스_1905" data-name="패스 1905" d="M26.936,28.672H6.581a1.622,1.622,0,1,0,0,3.245H26.936a1.622,1.622,0,0,0,0-3.245m0,2.209H6.581a.587.587,0,1,1,0-1.174H26.936a.587.587,0,0,1,0,1.174" transform="translate(-1.231 -7.118)" fill="#fff"/>
    <path id="패스_1906" data-name="패스 1906" d="M24.713,6.609h-1.36v1.24a2.5,2.5,0,0,1-.049.489h1.409A4.563,4.563,0,0,1,29.271,12.9V32.743A4.563,4.563,0,0,1,24.713,37.3H6.287a4.563,4.563,0,0,1-4.558-4.558V12.9A4.563,4.563,0,0,1,6.287,8.338H7.7a2.5,2.5,0,0,1-.05-.489V6.609H6.287A6.294,6.294,0,0,0,0,12.9V32.743a6.293,6.293,0,0,0,6.287,6.286H24.713A6.294,6.294,0,0,0,31,32.743V12.9a6.294,6.294,0,0,0-6.287-6.287" transform="translate(0 -1.641)" fill="#fff"/>
    <path id="패스_1907" data-name="패스 1907" d="M23.4,9.41H12.681a.977.977,0,0,1-.842-.5h-1.6a2.5,2.5,0,0,0,2.444,2H23.4a2.5,2.5,0,0,0,2.443-2h-1.6a.977.977,0,0,1-.841.5" transform="translate(-2.541 -2.212)" fill="#fff"/>
    <path id="패스_1908" data-name="패스 1908" d="M11.675,4.508a.99.99,0,0,1,.989-.989h2.849l.192-.464a2.509,2.509,0,0,1,4.638,0l.192.464h2.849a.991.991,0,0,1,.989.989v.46h1.5v-.46a2.5,2.5,0,0,0-2.493-2.493h-1.88a4.013,4.013,0,0,0-6.961,0h-1.88a2.5,2.5,0,0,0-2.493,2.493v.46h1.5Z" transform="translate(-2.525 0)" fill="#fff"/>
    <path id="패스_1909" data-name="패스 1909" d="M29.016,7.849a.957.957,0,0,1-.148.489h1.6a2.488,2.488,0,0,0,.05-.489V6.609h-1.5Z" transform="translate(-7.166 -1.641)" fill="#fff"/>
    <path id="패스_1910" data-name="패스 1910" d="M10.221,8.338h1.6a.961.961,0,0,1-.148-.489V6.609h-1.5v1.24a2.5,2.5,0,0,0,.05.489" transform="translate(-2.525 -1.641)" fill="#fff"/>
    <path id="패스_1911" data-name="패스 1911" d="M27,38.162H6.43a1.64,1.64,0,1,1,0-3.28H27a1.64,1.64,0,1,1,0,3.28M6.43,35.859a.663.663,0,0,0,0,1.326H27a.663.663,0,0,0,0-1.326Z" transform="translate(-1.189 -8.659)" fill="#fff"/>
  </g>
</svg>
