<svg xmlns="http://www.w3.org/2000/svg" xmlns:xlink="http://www.w3.org/1999/xlink" width="32" height="31.059" viewBox="0 0 32 31.059">
  <defs>
    <clipPath id="clip-path">
      <rect id="사각형_151" data-name="사각형 151" width="32" height="31.059" transform="translate(0 0)" fill="none"/>
    </clipPath>
  </defs>
  <g id="quick_ico04" transform="translate(0.189 0.607)">
    <g id="그룹_55" data-name="그룹 55" transform="translate(-0.189 -0.607)" clip-path="url(#clip-path)">
      <path id="패스_1714" data-name="패스 1714" d="M37.668,11.5a.924.924,0,1,0,0,1.848,7.742,7.742,0,0,1,7.767,7.7.934.934,0,0,0,1.868,0A9.6,9.6,0,0,0,37.668,11.5" transform="translate(-21.582 -6.189)" fill="#fff"/>
      <path id="패스_1715" data-name="패스 1715" d="M38.046,0a.931.931,0,0,0-.935.926.93.93,0,0,0,.935.924A12.312,12.312,0,0,1,50.4,14.092a.934.934,0,0,0,1.868,0A14.172,14.172,0,0,0,38.046,0" transform="translate(-21.803 0.615)" fill="#fff"/>
      <path id="패스_1716" data-name="패스 1716" d="M25.99,23.124a5.066,5.066,0,0,0-7.111.353l-.9.991A4.985,4.985,0,0,0,17.2,25.6a16.649,16.649,0,0,1-7.889-7.143,5.012,5.012,0,0,0,1.57-1.16l.9-.99a4.959,4.959,0,0,0-.356-7.047L9.9,7.892a5.067,5.067,0,0,0-7.112.353l-.9.992a5.047,5.047,0,0,0-.357.439A5.865,5.865,0,0,0,.14,15.082a24.12,24.12,0,0,0,21.509,19.28c.239.021.475.032.7.032a6.5,6.5,0,0,0,3.389-.884,5.041,5.041,0,0,0,1.227-.981l.9-.991a4.963,4.963,0,0,0-.356-7.046Zm-17.9-6.063-.276.082a.871.871,0,0,0-.554.489.86.86,0,0,0,.02.732l.128.255a18.322,18.322,0,0,0,9.718,8.837l.238.093a.889.889,0,0,0,.693-.022.877.877,0,0,0,.462-.512l.081-.239a3.218,3.218,0,0,1,.675-1.142l.905-.99a3.3,3.3,0,0,1,4.629-.23l1.526,1.368a3.233,3.233,0,0,1,.233,4.589l-.906.992a3.317,3.317,0,0,1-.822.653,5.007,5.007,0,0,1-3.035.613A22.361,22.361,0,0,1,1.865,14.754a4.156,4.156,0,0,1,.866-3.812.8.8,0,0,0,.085-.082l.04-.044a.825.825,0,0,0,.068-.085,3.267,3.267,0,0,1,.262-.328l.9-.991a3.3,3.3,0,0,1,4.63-.229l1.526,1.367a3.23,3.23,0,0,1,.231,4.59l-.9.99a3.278,3.278,0,0,1-1.483.932" transform="translate(-0.027 -3.29)" fill="#fff"/>
    </g>
  </g>
</svg>
