<svg width="9" height="5" viewBox="0 0 9 5" fill="none" xmlns="http://www.w3.org/2000/svg">
<path d="M3.775 0.224951L0.15 3.84995C0.1 3.89995 0.0625 3.95412 0.0375 4.01245C0.0125 4.07078 0 4.13328 0 4.19995C0 4.33328 0.0458333 4.44995 0.1375 4.54995C0.229167 4.64995 0.35 4.69995 0.5 4.69995H8.1C8.25 4.69995 8.37083 4.64995 8.4625 4.54995C8.55417 4.44995 8.6 4.33328 8.6 4.19995C8.6 4.16662 8.55 4.04995 8.45 3.84995L4.825 0.224951C4.74167 0.141617 4.65833 0.0832839 4.575 0.0499506C4.49167 0.0166173 4.4 -4.91142e-05 4.3 -4.91142e-05C4.2 -4.91142e-05 4.10833 0.0166173 4.025 0.0499506C3.94167 0.0832839 3.85833 0.141617 3.775 0.224951Z" fill="white" fill-opacity="0.8"/>
</svg>
