<svg width="22" height="22" viewBox="0 0 22 22" fill="none" xmlns="http://www.w3.org/2000/svg">
<path d="M12.375 11.55L11.11 9.9C11 9.75333 10.8533 9.68 10.67 9.68C10.4867 9.68 10.34 9.75333 10.23 9.9L8.3875 12.32C8.24083 12.5033 8.21792 12.6958 8.31875 12.8975C8.41958 13.0992 8.58917 13.2 8.8275 13.2H17.5725C17.8108 13.2 17.9804 13.0992 18.0812 12.8975C18.1821 12.6958 18.1592 12.5033 18.0125 12.32L15.345 8.8275C15.235 8.68083 15.0883 8.6075 14.905 8.6075C14.7217 8.6075 14.575 8.68083 14.465 8.8275L12.375 11.55ZM6.6 17.6C5.995 17.6 5.47708 17.3846 5.04625 16.9537C4.61542 16.5229 4.4 16.005 4.4 15.4V2.2C4.4 1.595 4.61542 1.07708 5.04625 0.64625C5.47708 0.215417 5.995 0 6.6 0H19.8C20.405 0 20.9229 0.215417 21.3537 0.64625C21.7846 1.07708 22 1.595 22 2.2V15.4C22 16.005 21.7846 16.5229 21.3537 16.9537C20.9229 17.3846 20.405 17.6 19.8 17.6H6.6ZM6.6 15.4H19.8V2.2H6.6V15.4ZM2.2 22C1.595 22 1.07708 21.7846 0.64625 21.3537C0.215417 20.9229 0 20.405 0 19.8V5.5C0 5.18833 0.105417 4.92708 0.31625 4.71625C0.527083 4.50542 0.788333 4.4 1.1 4.4C1.41167 4.4 1.67292 4.50542 1.88375 4.71625C2.09458 4.92708 2.2 5.18833 2.2 5.5V19.8H16.5C16.8117 19.8 17.0729 19.9054 17.2837 20.1162C17.4946 20.3271 17.6 20.5883 17.6 20.9C17.6 21.2117 17.4946 21.4729 17.2837 21.6837C17.0729 21.8946 16.8117 22 16.5 22H2.2Z" fill="white"/>
</svg>
