<svg width="32" height="33" viewBox="0 0 32 33" fill="none" xmlns="http://www.w3.org/2000/svg">
<path d="M17.3333 16.8988V11.275C17.3333 10.8854 17.2051 10.5589 16.9486 10.2953C16.6922 10.0318 16.3744 9.9 15.9953 9.9C15.6162 9.9 15.3 10.0318 15.0467 10.2953C14.7933 10.5589 14.6667 10.8854 14.6667 11.275V17.4763C14.6667 17.6516 14.6978 17.8215 14.76 17.9859C14.8222 18.1503 14.9244 18.3058 15.0667 18.4525L19.3734 22.8938C19.6412 23.1688 19.9593 23.3063 20.3276 23.3063C20.6959 23.3063 21.0168 23.1702 21.2904 22.8981C21.5413 22.626 21.6667 22.3029 21.6667 21.9287C21.6667 21.5546 21.5378 21.2346 21.28 20.9688L17.3333 16.8988ZM16.0047 6.32499C16.3838 6.32499 16.7 6.19322 16.9533 5.92969C17.2067 5.66616 17.3333 5.33959 17.3333 4.95V4.12496C17.3333 3.73539 17.2051 3.40885 16.9486 3.14531C16.6922 2.88175 16.3744 2.74997 15.9953 2.74997C15.6162 2.74997 15.3 2.88175 15.0467 3.14531C14.7933 3.40885 14.6667 3.73539 14.6667 4.12496V4.95C14.6667 5.33959 14.7949 5.66616 15.0514 5.92969C15.3078 6.19322 15.6256 6.32499 16.0047 6.32499ZM25.8667 16.5048C25.8667 16.8958 25.9945 17.2219 26.25 17.4831C26.5055 17.7444 26.8222 17.875 27.2 17.875H28C28.3778 17.875 28.6945 17.7428 28.95 17.4783C29.2056 17.2138 29.3334 16.8861 29.3334 16.4952C29.3334 16.1042 29.2056 15.7781 28.95 15.5169C28.6945 15.2556 28.3778 15.125 28 15.125H27.2C26.8222 15.125 26.5055 15.2572 26.25 15.5217C25.9945 15.7862 25.8667 16.1139 25.8667 16.5048ZM15.9953 26.675C15.6162 26.675 15.3 26.8068 15.0467 27.0703C14.7933 27.3338 14.6667 27.6604 14.6667 28.05V28.875C14.6667 29.2646 14.7949 29.5912 15.0514 29.8547C15.3078 30.1182 15.6256 30.25 16.0047 30.25C16.3838 30.25 16.7 30.1182 16.9533 29.8547C17.2067 29.5912 17.3333 29.2646 17.3333 28.875V28.05C17.3333 27.6604 17.2051 27.3338 16.9486 27.0703C16.6922 26.8068 16.3744 26.675 15.9953 26.675ZM6.13332 16.4952C6.13332 16.1042 6.00555 15.7781 5.75 15.5169C5.49445 15.2556 5.17779 15.125 4.8 15.125H3.99996C3.6222 15.125 3.30555 15.2572 3.05 15.5217C2.79443 15.7862 2.66664 16.1139 2.66664 16.5048C2.66664 16.8958 2.79443 17.2219 3.05 17.4831C3.30555 17.7444 3.6222 17.875 3.99996 17.875H4.8C5.17779 17.875 5.49445 17.7428 5.75 17.4783C6.00555 17.2138 6.13332 16.8861 6.13332 16.4952ZM16.0071 33C13.7985 33 11.7229 32.5669 9.78044 31.7006C7.83793 30.8344 6.14223 29.6542 4.69332 28.16C3.24444 26.6658 2.1 24.9165 1.26 22.9119C0.42 20.9073 0 18.7654 0 16.4863C0 14.2071 0.42 12.0652 1.26 10.0606C2.1 8.05604 3.24444 6.31125 4.69332 4.82625C6.14223 3.34125 7.83859 2.16563 9.7824 1.29938C11.7262 0.433125 13.8032 0 16.0133 0C18.2235 0 20.3004 0.433125 22.2442 1.29938C24.1881 2.16563 25.88 3.34125 27.32 4.82625C28.76 6.31125 29.9 8.0575 30.74 10.065C31.58 12.0725 32 14.2151 32 16.4927C32 18.7703 31.58 20.9107 30.74 22.9139C29.9 24.9171 28.76 26.6641 27.32 28.1549C25.88 29.6457 24.1867 30.8259 22.24 31.6956C20.2933 32.5652 18.2157 33 16.0071 33Z" fill="white" fill-opacity="0.6"/>
</svg>
