<svg width="32" height="29" viewBox="0 0 32 29" fill="none" xmlns="http://www.w3.org/2000/svg">
<path d="M12.4332 29H5.44228C5.03807 29 4.69922 28.8615 4.42575 28.5846C4.1523 28.3076 4.01558 27.9645 4.01558 27.5551V15.1286H0.73412C0.40121 15.1286 0.175318 14.9744 0.0564442 14.6662C-0.0624584 14.3579 0.00649486 14.093 0.263304 13.8715L15.0441 0.390135C15.3045 0.130045 15.624 0 16.0027 0C16.3813 0 16.6991 0.130045 16.9559 0.390135L23.9896 6.71903V2.55755C23.9896 2.36491 24.061 2.19634 24.2036 2.05185C24.3463 1.90735 24.5128 1.83511 24.703 1.83511H27.271C27.4613 1.83511 27.6277 1.90735 27.7704 2.05185C27.9131 2.19634 27.9844 2.36491 27.9844 2.55755V10.418L31.7367 13.8715C31.9935 14.093 32.0625 14.3579 31.9436 14.6662C31.8247 14.9744 31.5988 15.1286 31.2659 15.1286H27.9844V27.5551C27.9844 27.9645 27.8477 28.3076 27.5743 28.5846C27.3008 28.8615 26.9619 29 26.5577 29H19.5668V20.0413C19.5668 19.632 19.4301 19.2888 19.1566 19.0118C18.8832 18.7349 18.5443 18.5964 18.1401 18.5964H13.8599C13.4557 18.5964 13.1168 18.7349 12.8434 19.0118C12.5699 19.2888 12.4332 19.632 12.4332 20.0413V29ZM12.4332 11.3861H19.5668C19.5668 10.4421 19.2101 9.66426 18.4967 9.05255C17.7834 8.44085 16.9511 8.135 16 8.135C15.0489 8.135 14.2166 8.43933 13.5033 9.048C12.7899 9.65667 12.4332 10.436 12.4332 11.3861Z" fill="white" fill-opacity="0.6"/>
</svg>
