<svg width="33" height="28" viewBox="0 0 33 28" fill="none" xmlns="http://www.w3.org/2000/svg">
<path d="M1.35275 28C0.792385 28 0.392125 27.7546 0.151969 27.2639C-0.0881871 26.7731 -0.0437048 26.3047 0.285416 25.8585L7.22325 16.5831C7.49009 16.2262 7.84588 16.0478 8.29062 16.0478C8.73536 16.0478 9.09115 16.2262 9.35799 16.5831L15.095 24.2257C15.3263 24.5469 15.6198 24.7298 15.9756 24.7744C16.3314 24.819 16.6605 24.7253 16.9629 24.4933C17.2653 24.2613 17.441 23.9647 17.4899 23.6033C17.5389 23.2419 17.4432 22.9095 17.2031 22.6061L13.1471 17.2123L18.4305 10.1587C18.6974 9.80176 19.0532 9.62331 19.4979 9.62331C19.9426 9.62331 20.2984 9.80176 20.5653 10.1587L32.3062 25.8585C32.6353 26.3047 32.6798 26.7731 32.4397 27.2639C32.1995 27.7546 31.7993 28 31.2389 28H1.35275ZM27.5031 11.6711C27.1206 11.6711 26.8027 11.544 26.5492 11.2897C26.2957 11.0354 26.1689 10.7164 26.1689 10.3327V4.5774L24.2343 6.45122C23.9941 6.69214 23.6962 6.81929 23.3404 6.83267C22.9846 6.84606 22.6733 6.71891 22.4065 6.45122C22.1663 6.2103 22.0462 5.89801 22.0462 5.51433C22.0462 5.13065 22.1663 4.81836 22.4065 4.57744L26.5692 0.40153C26.836 0.133843 27.1473 0 27.5031 0C27.8589 0 28.1702 0.133843 28.437 0.40153L32.5997 4.57744C32.8666 4.84513 33 5.15742 33 5.51433C33 5.87124 32.8666 6.18353 32.5997 6.45122C32.3329 6.71891 32.0149 6.85275 31.6458 6.85275C31.2767 6.85275 30.9587 6.71891 30.6919 6.45122L28.8373 4.59081V10.3327C28.8373 10.7164 28.7105 11.0354 28.457 11.2897C28.2035 11.544 27.8856 11.6711 27.5031 11.6711Z" fill="white" fill-opacity="0.6"/>
</svg>
