<svg width="33" height="29" viewBox="0 0 33 29" fill="none" xmlns="http://www.w3.org/2000/svg">
<path d="M4.43255 29C3.69361 29 3.05275 28.7337 2.50996 28.2012C1.96717 27.6686 1.69577 27.0398 1.69577 26.3148V12.9426C0.975061 12.325 0.475594 11.5552 0.19737 10.6333C-0.0808804 9.71143 -0.0649249 8.76266 0.245237 7.78702L1.99681 2.33611C2.21575 1.62005 2.60119 1.05169 3.15312 0.631032C3.70502 0.210344 4.34133 0 5.06204 0H27.8049C28.562 0 29.2234 0.212573 29.7891 0.637718C30.3547 1.06289 30.7515 1.62902 30.9796 2.33611L32.7585 7.78702C33.0687 8.76266 33.0801 9.70696 32.7927 10.6199C32.5053 11.5329 32.0013 12.3071 31.2806 12.9426V26.3148C31.2806 27.0398 31.0092 27.6686 30.4664 28.2012C29.9236 28.7337 29.2828 29 28.5438 29H4.43255ZM20.1692 11.5463C20.9446 11.5463 21.5786 11.2934 22.0713 10.7877C22.5639 10.282 22.76 9.68456 22.6597 8.99536L21.6745 2.68516H17.8702V9.10278C17.8702 9.75616 18.0892 10.3268 18.5271 10.8146C18.965 11.3024 19.5124 11.5463 20.1692 11.5463ZM12.5882 11.5463C13.3089 11.5463 13.9133 11.3069 14.4014 10.828C14.8894 10.3491 15.1335 9.77407 15.1335 9.10278V2.68516H11.3293L10.344 8.99536C10.2346 9.67562 10.4102 10.2708 10.8709 10.781C11.3316 11.2912 11.904 11.5463 12.5882 11.5463ZM5.17148 11.5463C5.77358 11.5463 6.29586 11.3404 6.73832 10.9287C7.18078 10.517 7.44306 10.0068 7.52516 9.39814L8.53775 2.68516H4.73358L2.92729 8.40464C2.69012 9.13858 2.79275 9.84568 3.23518 10.5259C3.67764 11.2062 4.32308 11.5463 5.17148 11.5463ZM27.8049 11.5463C28.6533 11.5463 29.3056 11.2107 29.7617 10.5394C30.2178 9.86807 30.3227 9.15649 30.0764 8.40464L28.2428 2.68516H24.466L25.4786 9.39814C25.5607 10.0068 25.823 10.517 26.2654 10.9287C26.7079 11.3404 27.221 11.5463 27.8049 11.5463Z" fill="white" fill-opacity="0.6"/>
</svg>
