<svg width="44" height="56" viewBox="0 0 44 56" fill="none" xmlns="http://www.w3.org/2000/svg">
<path d="M42.7108 55.2997H0.70079C0.50079 55.2997 0.300781 55.0997 0.300781 54.8997V29.5997C0.300781 29.3997 0.50079 29.1997 0.70079 29.1997H42.8108C43.0108 29.1997 43.2108 29.3997 43.2108 29.5997V54.8997C43.2108 55.0997 43.0108 55.2997 42.7108 55.2997ZM1.10078 54.3997H42.3108V30.0997H1.10078V54.3997Z" fill="#1D1D1D"/>
<path d="M42.71 55.5999H0.699997C0.329997 55.5999 0 55.2699 0 54.8999V29.5999C0 29.2299 0.329997 28.8999 0.699997 28.8999H42.81C43.18 28.8999 43.51 29.2299 43.51 29.5999V54.8999C43.51 55.2899 43.15 55.5999 42.71 55.5999ZM0.699997 29.4999C0.699997 29.4999 0.599991 29.5599 0.599991 29.5999V54.8999C0.599991 54.8999 0.669997 54.9999 0.699997 54.9999H42.71C42.85 54.9999 42.91 54.9199 42.92 54.8999V29.5999C42.92 29.5999 42.85 29.4999 42.82 29.4999H0.709991H0.699997ZM42.61 54.6999H0.809998V29.7999H42.61V54.6999ZM1.39999 54.0999H42.01V30.3999H1.39999V54.0999Z" fill="#1D1D1D"/>
<path d="M10.9008 55.2998H0.70079C0.50079 55.2998 0.300781 55.0998 0.300781 54.8998V16.6998C0.300781 16.4998 0.50079 16.2998 0.70079 16.2998H10.9008C11.1008 16.2998 11.3008 16.4998 11.3008 16.6998V54.8998C11.3008 55.0998 11.1008 55.2998 10.9008 55.2998ZM1.10078 54.3998H10.3908V17.1998H1.10078V54.3998Z" fill="#1D1D1D"/>
<path d="M10.9 55.6H0.699997C0.329997 55.6 0 55.27 0 54.9V16.7C0 16.33 0.329997 16 0.699997 16H10.9C11.27 16 11.6 16.33 11.6 16.7V54.9C11.6 55.27 11.26 55.6 10.9 55.6ZM0.699997 16.6C0.699997 16.6 0.599991 16.67 0.599991 16.7V54.9C0.599991 54.9 0.669997 55 0.699997 55H10.9C10.9 55 11 54.94 11 54.9V16.7C11 16.7 10.93 16.6 10.9 16.6H0.699997ZM10.7 54.7H0.809998V16.9H10.7V54.7ZM1.40999 54.1H10.1V17.5H1.40999V54.1Z" fill="#1D1D1D"/>
<path d="M10.9008 17.1997H0.70079C0.50079 17.1997 0.300781 16.9997 0.300781 16.7997V14.0997C0.300781 13.8997 0.50079 13.6997 0.70079 13.6997H10.9008C11.1008 13.6997 11.3008 13.8997 11.3008 14.0997V16.7997C11.3008 16.9997 11.1008 17.1997 10.9008 17.1997ZM1.10078 16.2997H10.3908V14.4997H1.10078V16.2997Z" fill="#1D1D1D"/>
<path d="M10.9 17.4999H0.699997C0.329997 17.4999 0 17.1699 0 16.7999V14.0999C0 13.7299 0.329997 13.3999 0.699997 13.3999H10.9C11.27 13.3999 11.6 13.7299 11.6 14.0999V16.7999C11.6 17.1699 11.26 17.4999 10.9 17.4999ZM0.699997 13.9999C0.699997 13.9999 0.599991 14.0599 0.599991 14.0999V16.7999C0.599991 16.7999 0.669997 16.8999 0.699997 16.8999H10.9C10.9 16.8999 11 16.8399 11 16.7999V14.0999C11 14.0999 10.93 13.9999 10.9 13.9999H0.699997ZM10.7 16.5999H0.809998V14.1999H10.7V16.5999ZM1.40999 15.9999H10.1V14.7999H1.40999V15.9999Z" fill="#1D1D1D"/>
<path d="M8.4707 14.4996H3.1207C2.9207 14.4996 2.7207 14.2996 2.7207 14.0996V11.4996C2.7207 11.2996 2.9207 11.0996 3.1207 11.0996H8.4707C8.6707 11.0996 8.8707 11.2996 8.8707 11.4996V14.0996C8.8707 14.2996 8.6707 14.4996 8.4707 14.4996ZM3.52069 13.5996H7.96069V11.8996H3.52069V13.5996Z" fill="#1D1D1D"/>
<path d="M8.46992 14.7998H3.11992C2.74992 14.7998 2.41992 14.4698 2.41992 14.0998V11.4998C2.41992 11.1298 2.74992 10.7998 3.11992 10.7998H8.46992C8.83992 10.7998 9.16992 11.1298 9.16992 11.4998V14.0998C9.16992 14.4698 8.82993 14.7998 8.46992 14.7998ZM3.11992 11.3998C3.11992 11.3998 3.01991 11.4598 3.01991 11.4998V14.0998C3.01991 14.0998 3.07992 14.1998 3.11992 14.1998H8.46992C8.46992 14.1998 8.56992 14.1298 8.56992 14.0998V11.4998C8.56992 11.4998 8.49993 11.3998 8.46992 11.3998H3.11992ZM8.26991 13.8998H3.22992V11.5998H8.26991V13.8998ZM3.82993 13.2998H7.66992V12.1998H3.82993V13.2998Z" fill="#1D1D1D"/>
<path d="M42.7108 55.2999H0.70079C0.50079 55.2999 0.300781 55.0999 0.300781 54.8999V50.2999C0.300781 50.0999 0.50079 49.8999 0.70079 49.8999H42.8108C43.0108 49.8999 43.2108 50.0999 43.2108 50.2999V54.8999C43.2108 55.0999 43.0108 55.2999 42.7108 55.2999ZM1.10078 54.3999H42.3108V50.6999H1.10078V54.3999Z" fill="#1D1D1D"/>
<path d="M42.71 55.6001H0.699997C0.329997 55.6001 0 55.2701 0 54.9001V50.3001C0 49.9301 0.329997 49.6001 0.699997 49.6001H42.81C43.18 49.6001 43.51 49.9301 43.51 50.3001V54.9001C43.51 55.2901 43.15 55.6001 42.71 55.6001ZM0.699997 50.2001C0.699997 50.2001 0.599991 50.2601 0.599991 50.3001V54.9001C0.599991 54.9001 0.669997 55.0001 0.699997 55.0001H42.71C42.85 55.0001 42.91 54.9201 42.92 54.9001V50.3001C42.92 50.3001 42.85 50.2001 42.82 50.2001H0.709991H0.699997ZM42.61 54.7001H0.809998V50.4001H42.61V54.7001ZM1.39999 54.1001H42.01V51.0001H1.39999V54.1001Z" fill="#1D1D1D"/>
<path d="M16.5502 48.7003H12.8102C12.6102 48.7003 12.4102 48.5003 12.4102 48.3003V34.7003C12.4102 34.5003 12.6102 34.3003 12.8102 34.3003H16.5502C16.7502 34.3003 16.9502 34.5003 16.9502 34.7003V48.3003C17.0502 48.5003 16.8502 48.7003 16.5502 48.7003ZM13.2202 47.8003H16.0502V35.1003H13.2202V47.8003Z" fill="#1D1D1D"/>
<path d="M16.5505 48.8002H12.8105C12.5505 48.8002 12.3105 48.5602 12.3105 48.3002V34.7002C12.3105 34.4402 12.5505 34.2002 12.8105 34.2002H16.5505C16.8105 34.2002 17.0505 34.4402 17.0505 34.7002V48.2802C17.0905 48.3802 17.0805 48.4802 17.0305 48.5802C16.9405 48.7202 16.7605 48.8102 16.5505 48.8102V48.8002ZM12.8105 34.4002C12.6605 34.4002 12.5105 34.5502 12.5105 34.7002V48.3002C12.5105 48.4402 12.6705 48.6002 12.8105 48.6002H16.5505C16.6905 48.6002 16.8105 48.5502 16.8605 48.4702C16.8805 48.4302 16.8906 48.3902 16.8605 48.3502V48.3002L16.8505 34.7002C16.8505 34.5502 16.6905 34.4002 16.5505 34.4002H12.8105ZM16.1405 47.9002H13.1105V35.0002H16.1405V47.9002ZM13.3105 47.7002H15.9406V35.2002H13.3105V47.7002Z" fill="#1D1D1D"/>
<path d="M16.5502 46.5H12.8102C12.6102 46.5 12.4102 46.3 12.4102 46.1V36.9C12.4102 36.7 12.6102 36.5 12.8102 36.5H16.5502C16.7502 36.5 16.9502 36.7 16.9502 36.9V46.1C17.0502 46.3 16.8502 46.5 16.5502 46.5ZM13.2202 45.6H16.0502V37.3H13.2202V45.6Z" fill="#1D1D1D"/>
<path d="M16.5505 46.5999H12.8105C12.5505 46.5999 12.3105 46.3599 12.3105 46.0999V36.8999C12.3105 36.6399 12.5505 36.3999 12.8105 36.3999H16.5505C16.8105 36.3999 17.0505 36.6399 17.0505 36.8999V46.0799C17.0905 46.1799 17.0805 46.2899 17.0305 46.3799C16.9405 46.5199 16.7605 46.6099 16.5505 46.6099V46.5999ZM12.8105 36.5999C12.6605 36.5999 12.5105 36.7499 12.5105 36.8999V46.0999C12.5105 46.2499 12.6705 46.3999 12.8105 46.3999H16.5505C16.6905 46.3999 16.8105 46.3499 16.8605 46.2699C16.8805 46.2299 16.8906 46.1899 16.8605 46.1499V46.0999L16.8505 36.8999C16.8505 36.7499 16.6905 36.5999 16.5505 36.5999H12.8105ZM16.1405 45.6999H13.1105V37.1999H16.1405V45.6999ZM13.3105 45.4999H15.9406V37.3999H13.3105V45.4999Z" fill="#1D1D1D"/>
<path d="M22.7103 48.7003H18.9703C18.7703 48.7003 18.5703 48.5003 18.5703 48.3003V34.7003C18.5703 34.5003 18.7703 34.3003 18.9703 34.3003H22.7103C22.9103 34.3003 23.1103 34.5003 23.1103 34.7003V48.3003C23.1103 48.5003 22.9103 48.7003 22.7103 48.7003ZM19.3803 47.8003H22.2103V35.1003H19.3803V47.8003Z" fill="#1D1D1D"/>
<path d="M22.7107 48.8002H18.9707C18.7107 48.8002 18.4707 48.5602 18.4707 48.3002V34.7002C18.4707 34.4402 18.7207 34.2002 18.9707 34.2002H22.7107C22.9707 34.2002 23.2107 34.4402 23.2107 34.7002V48.3002C23.2107 48.5602 22.9607 48.8002 22.7107 48.8002ZM18.9707 34.4002C18.8207 34.4002 18.6707 34.5502 18.6707 34.7002V48.3002C18.6707 48.4502 18.8307 48.6002 18.9707 48.6002H22.7107C22.8607 48.6002 23.0107 48.4502 23.0107 48.3002V34.7002C23.0107 34.5502 22.8507 34.4002 22.7107 34.4002H18.9707ZM22.3007 47.9002H19.2707V35.0002H22.3007V47.9002ZM19.4707 47.7002H22.1007V35.2002H19.4707V47.7002Z" fill="#1D1D1D"/>
<path d="M22.7103 46.5H18.9703C18.7703 46.5 18.5703 46.3 18.5703 46.1V36.9C18.5703 36.7 18.7703 36.5 18.9703 36.5H22.7103C22.9103 36.5 23.1103 36.7 23.1103 36.9V46.1C23.1103 46.3 22.9103 46.5 22.7103 46.5ZM19.3803 45.6H22.2103V37.3H19.3803V45.6Z" fill="#1D1D1D"/>
<path d="M22.7107 46.5999H18.9707C18.7107 46.5999 18.4707 46.3599 18.4707 46.0999V36.8999C18.4707 36.6399 18.7207 36.3999 18.9707 36.3999H22.7107C22.9707 36.3999 23.2107 36.6399 23.2107 36.8999V46.0999C23.2107 46.3599 22.9607 46.5999 22.7107 46.5999ZM18.9707 36.5999C18.8207 36.5999 18.6707 36.7499 18.6707 36.8999V46.0999C18.6707 46.2499 18.8307 46.3999 18.9707 46.3999H22.7107C22.8607 46.3999 23.0107 46.2499 23.0107 46.0999V36.8999C23.0107 36.7499 22.8507 36.5999 22.7107 36.5999H18.9707ZM22.3007 45.6999H19.2707V37.1999H22.3007V45.6999ZM19.4707 45.4999H22.1007V37.3999H19.4707V45.4999Z" fill="#1D1D1D"/>
<path d="M28.7693 48.7003H24.9293C24.7293 48.7003 24.5293 48.5003 24.5293 48.3003V34.7003C24.5293 34.5003 24.7293 34.3003 24.9293 34.3003H28.7693C28.9693 34.3003 29.1693 34.5003 29.1693 34.7003V48.3003C29.2693 48.5003 29.0693 48.7003 28.7693 48.7003ZM25.4393 47.8003H28.3693V35.1003H25.4393V47.8003Z" fill="#1D1D1D"/>
<path d="M28.7697 48.8002H24.9297C24.6697 48.8002 24.4297 48.5602 24.4297 48.3002V34.7002C24.4297 34.4402 24.6697 34.2002 24.9297 34.2002H28.7697C29.0297 34.2002 29.2697 34.4402 29.2697 34.7002V48.2802C29.3097 48.3802 29.2997 48.4802 29.2497 48.5802C29.1597 48.7202 28.9797 48.8102 28.7697 48.8102V48.8002ZM24.9297 34.4002C24.7797 34.4002 24.6297 34.5502 24.6297 34.7002V48.3002C24.6297 48.4402 24.7897 48.6002 24.9297 48.6002H28.7697C28.9097 48.6002 29.0297 48.5502 29.0797 48.4702C29.0997 48.4302 29.1097 48.3902 29.0797 48.3502V48.3102L29.0697 34.7102C29.0697 34.5602 28.9097 34.4102 28.7697 34.4102H24.9297V34.4002ZM28.4597 47.9002H25.3297V35.0002H28.4597V47.9002ZM25.5297 47.7002H28.2597V35.2002H25.5297V47.7002Z" fill="#1D1D1D"/>
<path d="M28.7693 46.5H24.9293C24.7293 46.5 24.5293 46.3 24.5293 46.1V36.9C24.5293 36.7 24.7293 36.5 24.9293 36.5H28.7693C28.9693 36.5 29.1693 36.7 29.1693 36.9V46.1C29.2693 46.3 29.0693 46.5 28.7693 46.5ZM25.4393 45.6H28.3693V37.3H25.4393V45.6Z" fill="#1D1D1D"/>
<path d="M28.7697 46.5999H24.9297C24.6697 46.5999 24.4297 46.3599 24.4297 46.0999V36.8999C24.4297 36.6399 24.6697 36.3999 24.9297 36.3999H28.7697C29.0297 36.3999 29.2697 36.6399 29.2697 36.8999V46.0799C29.3097 46.1799 29.2997 46.2899 29.2497 46.3799C29.1597 46.5199 28.9797 46.6099 28.7697 46.6099V46.5999ZM24.9297 36.5999C24.7797 36.5999 24.6297 36.7499 24.6297 36.8999V46.0999C24.6297 46.2499 24.7897 46.3999 24.9297 46.3999H28.7697C28.9097 46.3999 29.0297 46.3499 29.0797 46.2699C29.0997 46.2299 29.1097 46.1899 29.0797 46.1499V46.1099L29.0697 36.9099C29.0697 36.7599 28.9097 36.6099 28.7697 36.6099H24.9297V36.5999ZM28.4597 45.6999H25.3297V37.1999H28.4597V45.6999ZM25.5297 45.4999H28.2597V37.3999H25.5297V45.4999Z" fill="#1D1D1D"/>
<path d="M34.9294 48.7003H31.0894C30.8894 48.7003 30.6895 48.5003 30.6895 48.3003V34.7003C30.6895 34.5003 30.8894 34.3003 31.0894 34.3003H34.9294C35.1294 34.3003 35.3295 34.5003 35.3295 34.7003V48.3003C35.3295 48.5003 35.1294 48.7003 34.9294 48.7003ZM31.5994 47.8003H34.5294V35.1003H31.5994V47.8003Z" fill="#1D1D1D"/>
<path d="M34.9298 48.8002H31.0898C30.8298 48.8002 30.5898 48.5602 30.5898 48.3002V34.7002C30.5898 34.4402 30.8398 34.2002 31.0898 34.2002H34.9298C35.1898 34.2002 35.4298 34.4402 35.4298 34.7002V48.3002C35.4298 48.5602 35.1898 48.8002 34.9298 48.8002ZM31.0898 34.4002C30.9398 34.4002 30.7898 34.5502 30.7898 34.7002V48.3002C30.7898 48.4502 30.9498 48.6002 31.0898 48.6002H34.9298C35.0798 48.6002 35.2298 48.4502 35.2298 48.3002V34.7002C35.2298 34.5502 35.0698 34.4002 34.9298 34.4002H31.0898ZM34.6198 47.9002H31.4898V35.0002H34.6198V47.9002ZM31.6898 47.7002H34.4198V35.2002H31.6898V47.7002Z" fill="#1D1D1D"/>
<path d="M34.9294 46.5H31.0894C30.8894 46.5 30.6895 46.3 30.6895 46.1V36.9C30.6895 36.7 30.8894 36.5 31.0894 36.5H34.9294C35.1294 36.5 35.3295 36.7 35.3295 36.9V46.1C35.3295 46.3 35.1294 46.5 34.9294 46.5ZM31.5994 45.6H34.5294V37.3H31.5994V45.6Z" fill="#1D1D1D"/>
<path d="M34.9298 46.5999H31.0898C30.8298 46.5999 30.5898 46.3599 30.5898 46.0999V36.8999C30.5898 36.6399 30.8398 36.3999 31.0898 36.3999H34.9298C35.1898 36.3999 35.4298 36.6399 35.4298 36.8999V46.0999C35.4298 46.3599 35.1898 46.5999 34.9298 46.5999ZM31.0898 36.5999C30.9398 36.5999 30.7898 36.7499 30.7898 36.8999V46.0999C30.7898 46.2499 30.9498 46.3999 31.0898 46.3999H34.9298C35.0798 46.3999 35.2298 46.2499 35.2298 46.0999V36.8999C35.2298 36.7499 35.0698 36.5999 34.9298 36.5999H31.0898ZM34.6198 45.6999H31.4898V37.1999H34.6198V45.6999ZM31.6898 45.4999H34.4198V37.3999H31.6898V45.4999Z" fill="#1D1D1D"/>
<path d="M40.9896 48.7003H37.2496C37.0496 48.7003 36.8496 48.5003 36.8496 48.3003V34.7003C36.8496 34.5003 37.0496 34.3003 37.2496 34.3003H40.9896C41.1896 34.3003 41.3896 34.5003 41.3896 34.7003V48.3003C41.4896 48.5003 41.2896 48.7003 40.9896 48.7003ZM37.6596 47.8003H40.5896V35.1003H37.6596V47.8003Z" fill="#1D1D1D"/>
<path d="M40.99 48.8002H37.25C36.99 48.8002 36.75 48.5602 36.75 48.3002V34.7002C36.75 34.4402 36.99 34.2002 37.25 34.2002H40.99C41.25 34.2002 41.49 34.4402 41.49 34.7002V48.2802C41.53 48.3802 41.52 48.4802 41.47 48.5802C41.38 48.7202 41.2 48.8102 40.99 48.8102V48.8002ZM37.25 34.4002C37.1 34.4002 36.95 34.5502 36.95 34.7002V48.3002C36.95 48.4502 37.11 48.6002 37.25 48.6002H40.99C41.13 48.6002 41.25 48.5502 41.3 48.4702C41.32 48.4302 41.33 48.3902 41.3 48.3502V48.3002L41.29 34.7002C41.29 34.5502 41.13 34.4002 40.99 34.4002H37.25ZM40.68 47.9002H37.55V35.0002H40.68V47.9002ZM37.75 47.7002H40.48V35.2002H37.75V47.7002Z" fill="#1D1D1D"/>
<path d="M40.9896 46.5H37.2496C37.0496 46.5 36.8496 46.3 36.8496 46.1V36.9C36.8496 36.7 37.0496 36.5 37.2496 36.5H40.9896C41.1896 36.5 41.3896 36.7 41.3896 36.9V46.1C41.4896 46.3 41.2896 46.5 40.9896 46.5ZM37.6596 45.6H40.5896V37.3H37.6596V45.6Z" fill="#1D1D1D"/>
<path d="M40.99 46.5999H37.25C36.99 46.5999 36.75 46.3599 36.75 46.0999V36.8999C36.75 36.6399 36.99 36.3999 37.25 36.3999H40.99C41.25 36.3999 41.49 36.6399 41.49 36.8999V46.0799C41.53 46.1799 41.52 46.2899 41.47 46.3799C41.38 46.5199 41.2 46.6099 40.99 46.6099V46.5999ZM37.25 36.5999C37.1 36.5999 36.95 36.7499 36.95 36.8999V46.0999C36.95 46.2499 37.11 46.3999 37.25 46.3999H40.99C41.13 46.3999 41.25 46.3499 41.3 46.2699C41.32 46.2299 41.33 46.1899 41.3 46.1499V46.0999L41.29 36.8999C41.29 36.7499 41.13 36.5999 40.99 36.5999H37.25ZM40.68 45.6999H37.55V37.1999H40.68V45.6999ZM37.75 45.4999H40.48V37.3999H37.75V45.4999Z" fill="#1D1D1D"/>
<path d="M6.15164 10.5998C4.94164 10.5998 3.93164 9.5998 3.93164 8.3998C3.93164 7.1998 4.94164 6.1998 6.15164 6.1998H6.35164V6.0998C6.35164 4.7998 7.56165 3.0998 9.08165 3.0998H9.28165V2.9998C9.28165 1.4998 10.4916 0.299805 12.0116 0.299805C13.2216 0.299805 14.3316 1.0998 14.6416 2.1998H15.2516C15.5516 1.2998 16.3616 0.699805 17.3716 0.699805C18.5816 0.699805 19.5916 1.6998 19.5916 2.8998C19.5916 4.0998 18.5816 5.0998 17.3716 5.0998H17.0716C16.9716 5.3998 16.8716 5.5998 16.6716 5.7998V5.8998C16.6716 7.0998 15.6616 8.0998 14.4516 8.0998H14.1516C13.8516 8.9998 13.0416 9.5998 12.0316 9.5998C11.3216 9.5998 10.6216 9.19981 10.2116 8.5998C9.60164 8.89981 8.90164 8.8998 8.29164 8.6998C8.09164 9.8998 7.18165 10.5998 6.17165 10.5998H6.15164ZM6.15164 7.1998C5.44164 7.1998 4.84164 7.7998 4.84164 8.4998C4.84164 9.1998 5.45164 9.7998 6.15164 9.7998C6.85164 9.7998 7.46164 9.1998 7.46164 8.4998V8.2998C7.46164 8.0998 7.46164 7.8998 7.66164 7.7998C7.86164 7.6998 8.06164 7.6998 8.16164 7.7998C8.46164 7.9998 8.87165 8.0998 9.17165 8.0998C9.57165 8.0998 9.88164 7.9998 10.1816 7.7998C10.2816 7.6998 10.4816 7.6998 10.5816 7.6998C10.6816 7.6998 10.7816 7.7998 10.8816 7.9998C11.0816 8.4998 11.5916 8.7998 12.0916 8.7998C12.8016 8.7998 13.3016 8.2998 13.4016 7.5998C13.4016 7.4998 13.5016 7.2998 13.6016 7.1998C13.7016 7.0998 13.9016 7.0998 14.0016 7.1998C14.1016 7.2998 14.3016 7.2998 14.5016 7.2998C15.2116 7.2998 15.8116 6.6998 15.8116 5.9998V5.7998C15.8116 5.5998 15.8116 5.4998 15.9116 5.3998C16.1116 5.1998 16.3116 4.8998 16.3116 4.4998C16.3116 4.3998 16.4116 4.1998 16.5116 4.0998C16.6116 3.9998 16.8116 3.9998 16.9116 4.0998C17.0116 4.1998 17.2116 4.1998 17.4216 4.1998C18.1316 4.1998 18.7316 3.5998 18.7316 2.8998C18.7316 2.1998 18.1216 1.5998 17.4216 1.5998C16.7216 1.5998 16.2116 2.0998 16.1116 2.7998C16.1116 2.8998 16.0116 3.0998 15.9116 3.1998C15.8116 3.2998 15.6116 3.2998 15.5116 3.1998C15.3116 3.0998 15.1116 3.0998 15.0016 3.0998C14.8916 3.0998 14.7016 3.0998 14.5016 3.1998H14.1016C14.0016 3.0998 13.9016 2.9998 13.9016 2.8998C13.8016 1.9998 12.9916 1.2998 12.0816 1.2998C11.0716 1.2998 10.2616 2.0998 10.2616 3.0998C10.2616 3.2998 10.2616 3.4998 10.3616 3.6998C10.4616 3.8998 10.3616 4.0998 10.2616 4.1998C10.1616 4.2998 9.96164 4.2998 9.76164 4.2998C9.56164 4.1998 9.36164 4.1998 9.15164 4.1998C8.24164 4.1998 7.33165 5.3998 7.33165 6.2998C7.33165 6.4998 7.33164 6.6998 7.43164 6.7998C7.53164 6.9998 7.43165 7.1998 7.33165 7.2998C7.23165 7.3998 7.03165 7.3998 6.83165 7.3998C6.53165 7.2998 6.33164 7.1998 6.12164 7.1998H6.15164Z" fill="#1D1D1D"/>
<path d="M6.15086 10.9C4.78086 10.9 3.63086 9.76 3.63086 8.4C3.63086 7.04 4.73087 5.95 6.06087 5.9C6.17087 4.48 7.43086 2.86 8.99086 2.8C9.09086 1.24 10.4109 0 12.0109 0C13.2809 0 14.4409 0.79 14.8509 1.9H15.0309C15.4309 0.98 16.3209 0.4 17.3609 0.4C18.7309 0.4 19.8809 1.54 19.8809 2.9C19.8809 4.26 18.7309 5.4 17.3609 5.4H17.2709C17.1909 5.59 17.1009 5.76 16.9609 5.92C16.9509 7.27 15.8009 8.4 14.4409 8.4H14.3409C13.9409 9.32 13.0509 9.9 12.0109 9.9C11.3009 9.9 10.5709 9.54 10.0909 8.97C9.60087 9.15 9.04086 9.19 8.49086 9.07C8.18086 10.18 7.27086 10.9 6.15086 10.9ZM6.15086 6.5C5.11086 6.5 4.23087 7.37 4.23087 8.4C4.23087 9.43 5.11086 10.3 6.15086 10.3C7.08086 10.3 7.81087 9.64 7.98087 8.65L8.04086 8.31L8.37086 8.42C8.95086 8.61 9.57087 8.58 10.0609 8.34L10.2909 8.22L10.4409 8.44C10.8009 8.97 11.4109 9.31 12.0109 9.31C12.8709 9.31 13.5809 8.81 13.8509 8.01L13.9209 7.81H14.4409C15.4809 7.81 16.3609 6.94 16.3609 5.91V5.69L16.4509 5.6C16.6009 5.45 16.6809 5.3 16.7809 5.02L16.8509 4.82H17.3709C18.4109 4.82 19.2909 3.95 19.2909 2.92C19.2909 1.89 18.4109 1.02 17.3709 1.02C16.5109 1.02 15.8009 1.52 15.5309 2.32L15.4609 2.52H14.4109L14.3509 2.3C14.0809 1.33 13.1009 0.62 12.0109 0.62C10.6709 0.62 9.58087 1.7 9.58087 3.02V3.42H9.08087C7.80087 3.42 6.65086 4.93 6.65086 6.12V6.52H6.15086V6.5ZM6.15086 10.1C5.27086 10.1 4.54086 9.37 4.54086 8.5C4.54086 7.63 5.28086 6.9 6.15086 6.9C6.35086 6.9 6.53087 6.96 6.73087 7.04L6.91086 7.1C7.00086 7.1 7.12086 7.1 7.16086 7.08C7.16086 7.08 7.21087 7.02 7.20087 6.96C7.06087 6.77 7.06087 6.53 7.06087 6.3C7.06087 5.25 8.09086 3.9 9.18086 3.9C9.38086 3.9 9.61086 3.9 9.85086 4C9.94086 4 10.0509 4 10.0909 3.98C10.0909 3.98 10.1609 3.9 10.1209 3.84C9.99086 3.58 9.99086 3.33 9.99086 3.1C9.99086 1.94 10.9409 1 12.1109 1C13.1809 1 14.1109 1.82 14.2309 2.87C14.2309 2.87 14.2409 2.89 14.2609 2.9H14.4709C14.7109 2.8 14.9409 2.8 15.0409 2.8C15.1609 2.8 15.4109 2.8 15.6809 2.93L15.7609 2.99C15.7609 2.99 15.8509 2.83 15.8509 2.79C15.9809 1.89 16.6209 1.31 17.4609 1.31C18.3009 1.31 19.0709 2.04 19.0709 2.91C19.0709 3.78 18.3309 4.51 17.4609 4.51C17.2109 4.51 16.9309 4.51 16.7409 4.32C16.7109 4.37 16.6509 4.48 16.6409 4.52C16.6409 4.91 16.4709 5.3 16.1509 5.62C16.1409 5.64 16.1409 5.73 16.1409 5.81V6.01C16.1409 6.88 15.4009 7.61 14.5309 7.61C14.2809 7.61 14.0009 7.61 13.8109 7.42C13.7809 7.47 13.7209 7.58 13.7109 7.62C13.5809 8.52 12.9309 9.1 12.1009 9.1C11.4509 9.1 10.8509 8.7 10.6109 8.11C10.5609 8.01 10.5209 7.98 10.5209 7.98C10.4809 8 10.4109 8 10.3809 8.02C9.98086 8.29 9.62087 8.4 9.17087 8.4C8.86087 8.4 8.39087 8.31 8.00087 8.05C7.96087 8.02 7.89086 8.02 7.79086 8.07C7.76086 8.08 7.75087 8.12 7.75087 8.3V8.5C7.75087 9.37 7.01087 10.1 6.14087 10.1H6.15086ZM6.15086 7.5C5.61086 7.5 5.14087 7.97 5.14087 8.5C5.14087 9.03 5.61086 9.5 6.15086 9.5C6.69086 9.5 7.16086 9.03 7.16086 8.5V8.3C7.16086 8.12 7.16086 7.83 7.37086 7.64C7.21086 7.7 7.02086 7.7 6.85086 7.7H6.76086C6.67086 7.66 6.59086 7.63 6.52086 7.6C6.36086 7.54 6.24087 7.5 6.14087 7.5H6.15086ZM10.5909 7.4C10.9309 7.4 11.1009 7.75 11.1609 7.86C11.3209 8.25 11.6909 8.5 12.1009 8.5C12.6309 8.5 13.0309 8.13 13.1209 7.56C13.1209 7.4 13.2709 7.13 13.4109 6.99C13.6209 6.78 14.0209 6.77 14.2409 6.99C14.2709 7 14.4409 7 14.5309 7C15.0709 7 15.5409 6.53 15.5409 6V5.8C15.5409 5.58 15.5409 5.37 15.7309 5.19C15.9409 4.98 16.0509 4.75 16.0509 4.5C16.0509 4.3 16.2009 4.02 16.3409 3.89C16.5509 3.68 16.9509 3.67 17.1709 3.89C17.2009 3.9 17.3709 3.9 17.4609 3.9C18.0009 3.9 18.4709 3.43 18.4709 2.9C18.4709 2.37 18.0009 1.9 17.4609 1.9C16.9209 1.9 16.5309 2.27 16.4409 2.84C16.4409 3 16.2909 3.27 16.1509 3.41C15.9609 3.6 15.5909 3.62 15.3709 3.45C15.2409 3.4 15.1109 3.4 15.0309 3.4C14.9409 3.4 14.8009 3.4 14.6609 3.47L14.5309 3.5H14.0009L13.9109 3.41C13.7909 3.29 13.6209 3.12 13.6209 2.9C13.5409 2.19 12.8709 1.6 12.1009 1.6C11.2509 1.6 10.5809 2.26 10.5809 3.1C10.5809 3.28 10.5809 3.43 10.6509 3.56C10.8109 3.88 10.6909 4.22 10.4909 4.41C10.3009 4.6 10.0209 4.6 9.77086 4.6L9.64087 4.57C9.50087 4.5 9.35087 4.5 9.17087 4.5C8.44087 4.5 7.65086 5.56 7.65086 6.3C7.65086 6.4 7.65087 6.56 7.67087 6.6L7.71086 6.66C7.87086 6.98 7.75087 7.31 7.56087 7.51C7.87087 7.38 8.18086 7.4 8.37086 7.59C8.59086 7.72 8.94087 7.8 9.17087 7.8C9.50087 7.8 9.74086 7.73 10.0109 7.55C10.1509 7.4 10.4409 7.4 10.5809 7.4H10.5909Z" fill="#1D1D1D"/>
<path d="M2.50937 50.7C2.30937 50.7 2.10938 50.5 2.10938 50.3V31.9C2.10938 31.7 2.30937 31.5 2.50937 31.5C2.70937 31.5 2.90936 31.7 2.90936 31.9V50.2C2.90936 50.5 2.70937 50.7 2.50937 50.7Z" fill="#1D1D1D"/>
<path d="M2.51016 50.8998C2.20016 50.8998 1.91016 50.6098 1.91016 50.2998V31.8998C1.91016 31.5898 2.20016 31.2998 2.51016 31.2998C2.82016 31.2998 3.11017 31.5898 3.11017 31.8998V50.1998C3.11017 50.5898 2.84016 50.8998 2.51016 50.8998ZM2.51016 31.6998C2.42016 31.6998 2.31017 31.8098 2.31017 31.8998V50.2998C2.31017 50.3898 2.42016 50.4998 2.51016 50.4998C2.59016 50.4998 2.71016 50.3998 2.71016 50.1998V31.8998C2.71016 31.8098 2.60016 31.6998 2.51016 31.6998Z" fill="#1D1D1D"/>
<path d="M4.23007 50.7C4.03007 50.7 3.83008 50.5 3.83008 50.3V31.9C3.83008 31.7 4.03007 31.5 4.23007 31.5C4.43007 31.5 4.63007 31.7 4.63007 31.9V50.2C4.63007 50.5 4.43007 50.7 4.23007 50.7Z" fill="#1D1D1D"/>
<path d="M4.23087 50.8998C3.92087 50.8998 3.63086 50.6098 3.63086 50.2998V31.8998C3.63086 31.5898 3.92087 31.2998 4.23087 31.2998C4.54087 31.2998 4.83087 31.5898 4.83087 31.8998V50.1998C4.83087 50.5898 4.56087 50.8998 4.23087 50.8998ZM4.23087 31.6998C4.14087 31.6998 4.03087 31.8098 4.03087 31.8998V50.2998C4.03087 50.3898 4.14087 50.4998 4.23087 50.4998C4.31087 50.4998 4.43086 50.3898 4.43086 50.1998V31.8998C4.43086 31.8098 4.32087 31.6998 4.23087 31.6998Z" fill="#1D1D1D"/>
<path d="M42.7097 52.6003H13.8297C13.6297 52.6003 13.4297 52.4003 13.4297 52.2003C13.4297 52.0003 13.6297 51.8003 13.8297 51.8003H42.7097C42.9097 51.8003 43.1097 52.0003 43.1097 52.2003C43.1097 52.4003 43.0097 52.6003 42.7097 52.6003Z" fill="#1D1D1D"/>
<path d="M42.7101 52.7002H13.8301C13.5701 52.7002 13.3301 52.4602 13.3301 52.2002C13.3301 51.9402 13.5801 51.7002 13.8301 51.7002H42.7101C42.9701 51.7002 43.2101 51.9402 43.2101 52.2002C43.2101 52.4402 43.0801 52.7002 42.7101 52.7002ZM13.8301 51.9002C13.6801 51.9002 13.5301 52.0502 13.5301 52.2002C13.5301 52.3502 13.6901 52.5002 13.8301 52.5002H42.7101C42.9601 52.5002 43.0101 52.3402 43.0101 52.2002C43.0101 52.0502 42.8501 51.9002 42.7101 51.9002H13.8301Z" fill="#1D1D1D"/>
<path d="M35.0298 30.0997H15.2398C15.0398 30.0997 14.8398 29.8997 14.8398 29.6997V23.5997C14.8398 23.3997 14.9398 23.1997 15.1398 23.1997L22.6098 20.9997V18.5997C22.6098 18.3997 22.7098 18.1997 22.9098 18.1997L34.8298 13.6997C34.9298 13.6997 35.1298 13.6997 35.2298 13.7997C35.3298 13.8997 35.4298 13.9997 35.4298 14.1997V29.6997C35.4298 29.8997 35.2298 30.0997 35.0298 30.0997ZM15.7398 29.1997H34.5298V14.7997L23.4198 18.6997V21.0997C23.4198 21.2997 23.3198 21.4997 23.1198 21.4997L15.6498 23.6997V29.1997H15.7498H15.7398Z" fill="#1D1D1D"/>
<path d="M35.0291 30.3999H15.2391C14.8691 30.3999 14.5391 30.0699 14.5391 29.6999V23.5999C14.5391 23.2099 14.7691 22.9299 15.0891 22.8999L22.3091 20.7699V18.5999C22.3091 18.2199 22.5291 17.9399 22.8491 17.8999L34.8291 13.3999C34.9691 13.3999 35.2591 13.3999 35.4491 13.5899C35.5691 13.6999 35.7391 13.8799 35.7391 14.1999V29.6999C35.7391 30.0699 35.3991 30.3999 35.0391 30.3999H35.0291ZM15.1391 23.4999C15.1391 23.4999 15.1391 23.5399 15.1391 23.5999V29.6999C15.1391 29.6999 15.2091 29.7999 15.2391 29.7999H35.0291C35.0291 29.7999 35.1291 29.7399 35.1291 29.6999V14.1999C35.1291 14.1299 35.1091 14.1099 35.0191 14.0099C35.0091 14.0099 34.9591 13.9999 34.8791 13.9999L22.9091 18.4999C22.9091 18.4999 22.9091 18.5399 22.9091 18.5999V21.2199L15.1391 23.4999ZM34.8291 29.4999H15.3391V23.4799L23.1091 21.1999C23.1091 21.1999 23.1091 21.1599 23.1091 21.0999V18.4899L34.8191 14.3799V29.4999H34.8291ZM15.9391 28.8999H34.2291V15.2199L23.7191 18.9099V21.0999C23.7191 21.4899 23.4891 21.7699 23.1691 21.7999L15.9491 23.9299V28.9099L15.9391 28.8999Z" fill="#1D1D1D"/>
<path d="M33.0089 22.2H29.7789C29.5789 22.2 29.3789 22 29.3789 21.8V20.4C29.3789 20.2 29.5789 20 29.7789 20H33.0089C33.2089 20 33.4089 20.2 33.4089 20.4V21.8C33.5089 22 33.3089 22.2 33.0089 22.2ZM30.2789 21.3H32.5989V20.8H30.2789V21.3Z" fill="#1D1D1D"/>
<path d="M33.0093 22.2999H29.7793C29.5193 22.2999 29.2793 22.0599 29.2793 21.7999V20.3999C29.2793 20.1399 29.5193 19.8999 29.7793 19.8999H33.0093C33.2693 19.8999 33.5093 20.1399 33.5093 20.3999V21.7799C33.5493 21.8799 33.5393 21.9799 33.4893 22.0799C33.3993 22.2199 33.2193 22.3099 33.0093 22.3099V22.2999ZM29.7793 20.0999C29.6293 20.0999 29.4793 20.2499 29.4793 20.3999V21.7999C29.4793 21.9399 29.6393 22.0999 29.7793 22.0999H33.0093C33.1493 22.0999 33.2693 22.0499 33.3193 21.9699C33.3393 21.9299 33.3493 21.8899 33.3193 21.8499V21.7999L33.3093 20.3999C33.3093 20.2499 33.1493 20.0999 33.0093 20.0999H29.7793ZM32.7093 21.3999H30.1893V20.6999H32.7093V21.3999ZM30.3893 21.1999H32.5093V20.8999H30.3893V21.1999Z" fill="#1D1D1D"/>
<path d="M33.0089 25.2H29.7789C29.5789 25.2 29.3789 25 29.3789 24.8V23.4C29.3789 23.2 29.5789 23 29.7789 23H33.0089C33.2089 23 33.4089 23.2 33.4089 23.4V24.8C33.5089 25 33.3089 25.2 33.0089 25.2ZM30.2789 24.3H32.5989V23.8H30.2789V24.3Z" fill="#1D1D1D"/>
<path d="M33.0093 25.2999H29.7793C29.5193 25.2999 29.2793 25.0599 29.2793 24.7999V23.3999C29.2793 23.1399 29.5193 22.8999 29.7793 22.8999H33.0093C33.2693 22.8999 33.5093 23.1399 33.5093 23.3999V24.7799C33.5493 24.8799 33.5393 24.9799 33.4893 25.0799C33.3993 25.2199 33.2193 25.3099 33.0093 25.3099V25.2999ZM29.7793 23.0999C29.6293 23.0999 29.4793 23.2499 29.4793 23.3999V24.7999C29.4793 24.9399 29.6393 25.0999 29.7793 25.0999H33.0093C33.1493 25.0999 33.2693 25.0499 33.3193 24.9699C33.3393 24.9299 33.3493 24.8899 33.3193 24.8499V24.7999L33.3093 23.3999C33.3093 23.2499 33.1493 23.0999 33.0093 23.0999H29.7793ZM32.7093 24.3999H30.1893V23.6999H32.7093V24.3999ZM30.3893 24.1999H32.5093V23.8999H30.3893V24.1999Z" fill="#1D1D1D"/>
<path d="M33.0089 28.2H29.7789C29.5789 28.2 29.3789 28 29.3789 27.8V26.4C29.3789 26.2 29.5789 26 29.7789 26H33.0089C33.2089 26 33.4089 26.2 33.4089 26.4V27.8C33.5089 28 33.3089 28.2 33.0089 28.2ZM30.2789 27.3H32.5989V26.8H30.2789V27.3Z" fill="#1D1D1D"/>
<path d="M33.0093 28.2999H29.7793C29.5193 28.2999 29.2793 28.0599 29.2793 27.7999V26.3999C29.2793 26.1399 29.5193 25.8999 29.7793 25.8999H33.0093C33.2693 25.8999 33.5093 26.1399 33.5093 26.3999V27.7799C33.5493 27.8799 33.5393 27.9799 33.4893 28.0799C33.3993 28.2199 33.2193 28.3099 33.0093 28.3099V28.2999ZM29.7793 26.0999C29.6293 26.0999 29.4793 26.2499 29.4793 26.3999V27.7999C29.4793 27.9399 29.6393 28.0999 29.7793 28.0999H33.0093C33.1493 28.0999 33.2693 28.0499 33.3193 27.9699C33.3393 27.9299 33.3493 27.8899 33.3193 27.8499V27.7999L33.3093 26.3999C33.3093 26.2499 33.1493 26.0999 33.0093 26.0999H29.7793ZM32.7093 27.3999H30.1893V26.6999H32.7093V27.3999ZM30.3893 27.1999H32.5093V26.8999H30.3893V27.1999Z" fill="#1D1D1D"/>
<path d="M28.1691 22.2H24.9391C24.7391 22.2 24.5391 22 24.5391 21.8V20.4C24.5391 20.2 24.7391 20 24.9391 20H28.1691C28.3691 20 28.5691 20.2 28.5691 20.4V21.8C28.6691 22 28.4691 22.2 28.1691 22.2ZM25.4391 21.3H27.7591V20.8H25.4391V21.3Z" fill="#1D1D1D"/>
<path d="M28.1694 22.2999H24.9395C24.6795 22.2999 24.4395 22.0599 24.4395 21.7999V20.3999C24.4395 20.1399 24.6795 19.8999 24.9395 19.8999H28.1694C28.4294 19.8999 28.6694 20.1399 28.6694 20.3999V21.7799C28.7094 21.8799 28.6994 21.9799 28.6494 22.0799C28.5594 22.2199 28.3794 22.3099 28.1694 22.3099V22.2999ZM24.9395 20.0999C24.7895 20.0999 24.6395 20.2499 24.6395 20.3999V21.7999C24.6395 21.9399 24.7995 22.0999 24.9395 22.0999H28.1694C28.3094 22.0999 28.4294 22.0499 28.4794 21.9699C28.4994 21.9299 28.5094 21.8899 28.4794 21.8499V21.7999L28.4695 20.3999C28.4695 20.2499 28.3094 20.0999 28.1694 20.0999H24.9395ZM27.8694 21.3999H25.3494V20.6999H27.8694V21.3999ZM25.5494 21.1999H27.6694V20.8999H25.5494V21.1999Z" fill="#1D1D1D"/>
<path d="M28.1691 25.2H24.9391C24.7391 25.2 24.5391 25 24.5391 24.8V23.4C24.5391 23.2 24.7391 23 24.9391 23H28.1691C28.3691 23 28.5691 23.2 28.5691 23.4V24.8C28.6691 25 28.4691 25.2 28.1691 25.2ZM25.4391 24.3H27.7591V23.8H25.4391V24.3Z" fill="#1D1D1D"/>
<path d="M28.1694 25.2999H24.9395C24.6795 25.2999 24.4395 25.0599 24.4395 24.7999V23.3999C24.4395 23.1399 24.6795 22.8999 24.9395 22.8999H28.1694C28.4294 22.8999 28.6694 23.1399 28.6694 23.3999V24.7799C28.7094 24.8799 28.6994 24.9799 28.6494 25.0799C28.5594 25.2199 28.3794 25.3099 28.1694 25.3099V25.2999ZM24.9395 23.0999C24.7895 23.0999 24.6395 23.2499 24.6395 23.3999V24.7999C24.6395 24.9399 24.7995 25.0999 24.9395 25.0999H28.1694C28.3094 25.0999 28.4294 25.0499 28.4794 24.9699C28.4994 24.9299 28.5094 24.8899 28.4794 24.8499V24.7999L28.4695 23.3999C28.4695 23.2499 28.3094 23.0999 28.1694 23.0999H24.9395ZM27.8694 24.3999H25.3494V23.6999H27.8694V24.3999ZM25.5494 24.1999H27.6694V23.8999H25.5494V24.1999Z" fill="#1D1D1D"/>
<path d="M28.1691 28.2H24.9391C24.7391 28.2 24.5391 28 24.5391 27.8V26.4C24.5391 26.2 24.7391 26 24.9391 26H28.1691C28.3691 26 28.5691 26.2 28.5691 26.4V27.8C28.6691 28 28.4691 28.2 28.1691 28.2ZM25.4391 27.3H27.7591V26.8H25.4391V27.3Z" fill="#1D1D1D"/>
<path d="M28.1694 28.2999H24.9395C24.6795 28.2999 24.4395 28.0599 24.4395 27.7999V26.3999C24.4395 26.1399 24.6795 25.8999 24.9395 25.8999H28.1694C28.4294 25.8999 28.6694 26.1399 28.6694 26.3999V27.7799C28.7094 27.8799 28.6994 27.9799 28.6494 28.0799C28.5594 28.2199 28.3794 28.3099 28.1694 28.3099V28.2999ZM24.9395 26.0999C24.7895 26.0999 24.6395 26.2499 24.6395 26.3999V27.7999C24.6395 27.9399 24.7995 28.0999 24.9395 28.0999H28.1694C28.3094 28.0999 28.4294 28.0499 28.4794 27.9699C28.4994 27.9299 28.5094 27.8899 28.4794 27.8499V27.7999L28.4695 26.3999C28.4695 26.2499 28.3094 26.0999 28.1694 26.0999H24.9395ZM27.8694 27.3999H25.3494V26.6999H27.8694V27.3999ZM25.5494 27.1999H27.6694V26.8999H25.5494V27.1999Z" fill="#1D1D1D"/>
<path d="M22.7101 25.2H19.4801C19.2801 25.2 19.0801 25 19.0801 24.8V23.4C19.0801 23.2 19.2801 23 19.4801 23H22.7101C22.9101 23 23.1101 23.2 23.1101 23.4V24.8C23.2101 25 23.0101 25.2 22.7101 25.2ZM19.9801 24.3H22.3001V23.8H19.9801V24.3Z" fill="#1D1D1D"/>
<path d="M22.7105 25.2999H19.4805C19.2205 25.2999 18.9805 25.0599 18.9805 24.7999V23.3999C18.9805 23.1399 19.2305 22.8999 19.4805 22.8999H22.7105C22.9705 22.8999 23.2105 23.1399 23.2105 23.3999V24.7799C23.2505 24.8799 23.2405 24.9799 23.1905 25.0799C23.1005 25.2199 22.9205 25.3099 22.7105 25.3099V25.2999ZM19.4805 23.0999C19.3305 23.0999 19.1805 23.2499 19.1805 23.3999V24.7999C19.1805 24.9499 19.3405 25.0999 19.4805 25.0999H22.7105C22.8505 25.0999 22.9705 25.0499 23.0205 24.9699C23.0505 24.9299 23.0505 24.8899 23.0205 24.8499V24.8099L23.0105 23.4099C23.0105 23.2599 22.8505 23.1099 22.7105 23.1099H19.4805V23.0999ZM22.4105 24.3999H19.8905V23.6999H22.4105V24.3999ZM20.0905 24.1999H22.2105V23.8999H20.0905V24.1999Z" fill="#1D1D1D"/>
<path d="M22.7101 28.2H19.4801C19.2801 28.2 19.0801 28 19.0801 27.8V26.4C19.0801 26.2 19.2801 26 19.4801 26H22.7101C22.9101 26 23.1101 26.2 23.1101 26.4V27.8C23.2101 28 23.0101 28.2 22.7101 28.2ZM19.9801 27.3H22.3001V26.8H19.9801V27.3Z" fill="#1D1D1D"/>
<path d="M22.7105 28.2999H19.4805C19.2205 28.2999 18.9805 28.0599 18.9805 27.7999V26.3999C18.9805 26.1399 19.2305 25.8999 19.4805 25.8999H22.7105C22.9705 25.8999 23.2105 26.1399 23.2105 26.3999V27.7799C23.2505 27.8799 23.2405 27.9799 23.1905 28.0799C23.1005 28.2199 22.9205 28.3099 22.7105 28.3099V28.2999ZM19.4805 26.0999C19.3305 26.0999 19.1805 26.2499 19.1805 26.3999V27.7999C19.1805 27.9499 19.3405 28.0999 19.4805 28.0999H22.7105C22.8505 28.0999 22.9705 28.0499 23.0205 27.9699C23.0505 27.9299 23.0505 27.8899 23.0205 27.8499V27.8099L23.0105 26.4099C23.0105 26.2599 22.8505 26.1099 22.7105 26.1099H19.4805V26.0999ZM22.4105 27.3999H19.8905V26.6999H22.4105V27.3999ZM20.0905 27.1999H22.2105V26.8999H20.0905V27.1999Z" fill="#1D1D1D"/>
<path d="M29.2815 8.3999C28.4715 8.3999 27.7715 7.6999 27.7715 6.8999C27.7715 6.0999 28.3815 5.3999 29.1815 5.3999C29.2815 4.5999 29.9915 3.5999 30.9015 3.5999C31.0015 2.6999 31.8115 1.8999 32.7215 1.8999C33.5315 1.8999 34.1315 2.3999 34.4415 3.0999H34.5415C34.7415 2.5999 35.3515 2.1999 35.9515 2.1999C36.7615 2.1999 37.4715 2.8999 37.4715 3.6999C37.4715 4.4999 36.7615 5.1999 35.9515 5.1999H35.8515C35.8515 5.2999 35.7515 5.3999 35.6515 5.4999C35.6515 6.2999 34.9415 6.9999 34.1315 6.9999H34.0315C33.9315 7.4999 33.4215 7.8999 32.8215 7.8999C32.4215 7.8999 31.9115 7.6999 31.7115 7.2999C31.4115 7.3999 31.1015 7.3999 30.7015 7.3999C30.5015 7.9999 29.9915 8.3999 29.2915 8.3999H29.2815ZM29.2815 6.3999C28.9815 6.3999 28.6715 6.6999 28.6715 6.9999C28.6715 7.2999 28.9715 7.5999 29.2815 7.5999C29.5915 7.5999 29.8915 7.2999 29.8915 6.9999V6.8999C29.8915 6.6999 29.7915 6.5999 29.5915 6.4999C29.4915 6.3999 29.3915 6.3999 29.2915 6.3999H29.2815ZM31.9115 6.2999H32.0115C32.1115 6.2999 32.2115 6.3999 32.3115 6.5999C32.4115 6.7999 32.6115 6.9999 32.8115 6.9999C33.1115 6.9999 33.4215 6.7999 33.4215 6.4999C33.4215 6.3999 33.5215 6.1999 33.6215 6.1999C33.7215 6.0999 33.9215 6.0999 34.0215 6.1999H34.2215C34.5215 6.1999 34.8315 5.8999 34.8315 5.5999V5.4999C34.8315 5.3999 34.8315 5.1999 34.9315 5.0999C35.0315 4.9999 35.1315 4.8999 35.1315 4.6999C35.1315 4.5999 35.2315 4.3999 35.3315 4.3999C35.4315 4.2999 35.6315 4.2999 35.7315 4.3999H35.9315C36.2315 4.3999 36.5415 4.0999 36.5415 3.7999C36.5415 3.4999 36.2415 3.1999 35.9315 3.1999C35.6215 3.1999 35.3215 3.3999 35.3215 3.6999C35.3215 3.7999 35.2215 3.9999 35.1215 4.0999C35.0215 4.1999 34.8215 4.1999 34.7215 4.0999H34.3215C34.2215 4.1999 34.0215 4.0999 33.9215 4.0999C33.8215 3.9999 33.7215 3.8999 33.7215 3.7999C33.7215 3.1999 33.3215 2.8999 32.8115 2.8999C32.3015 2.8999 31.9015 3.2999 31.9015 3.7999V4.0999C32.0015 4.2999 31.9015 4.4999 31.8015 4.5999C31.7015 4.6999 31.5015 4.6999 31.3015 4.5999C31.2015 4.5999 31.1015 4.4999 31.1015 4.4999C30.7015 4.4999 30.1915 5.0999 30.1915 5.5999C30.1915 5.6999 30.0915 6.3999 30.0915 6.3999C30.2915 6.2999 30.9015 6.5999 31.1015 6.5999C31.3015 6.5999 31.5015 6.5999 31.6015 6.4999C31.7015 6.2999 31.8015 6.2999 31.9015 6.2999H31.9115Z" fill="#1D1D1D"/>
<path d="M29.2807 8.7001C28.3107 8.7001 27.4707 7.8601 27.4707 6.9001C27.4707 6.0001 28.1007 5.2501 28.9307 5.1201C29.1307 4.2801 29.8007 3.4601 30.6407 3.3201C30.8607 2.3501 31.7507 1.6001 32.7107 1.6001C33.4407 1.6001 34.0807 1.9601 34.4907 2.5901C34.8307 2.1801 35.3907 1.9001 35.9407 1.9001C36.9107 1.9001 37.7507 2.7401 37.7507 3.7001C37.7507 4.6601 36.9607 5.4401 36.0407 5.5001C36.0107 5.5501 35.9707 5.5901 35.9307 5.6301C35.8607 6.4901 35.1107 7.2301 34.2407 7.3001C34.0207 7.8301 33.4407 8.2001 32.8107 8.2001C32.4007 8.2001 31.8807 8.0201 31.5707 7.6501C31.3607 7.6901 31.1407 7.7001 30.9007 7.7001C30.6107 8.3301 30.0207 8.7001 29.2807 8.7001ZM29.1807 5.7001C28.5707 5.7001 28.0707 6.2401 28.0707 6.9001C28.0707 7.5601 28.6407 8.1001 29.2807 8.1001C29.8307 8.1001 30.2407 7.8101 30.4107 7.3001L30.4807 7.1001H30.7007C31.0807 7.1001 31.3607 7.1001 31.6207 7.0201L31.8707 6.9401L31.9907 7.1701C32.1307 7.4501 32.5307 7.6101 32.8307 7.6101C33.2807 7.6101 33.6707 7.3301 33.7507 6.9501L33.8007 6.7101H34.1507C34.8007 6.7101 35.3707 6.1501 35.3707 5.5101V5.3901L35.4607 5.3001C35.4607 5.3001 35.5707 5.1901 35.5807 5.1701V4.8701L35.9707 4.9201C36.6207 4.9201 37.1807 4.3601 37.1807 3.7201C37.1807 3.0801 36.6107 2.5201 35.9707 2.5201C35.4907 2.5201 35.0007 2.8301 34.8307 3.2301L34.7507 3.4201H34.2507L34.1707 3.2401C33.8907 2.5901 33.3607 2.2201 32.7307 2.2201C31.9907 2.2201 31.3007 2.8801 31.2107 3.6501L31.1807 3.9201H30.9107C30.1507 3.9201 29.5707 4.8201 29.4907 5.4601L29.4607 5.7201H29.2007L29.1807 5.7001ZM29.2807 7.9001C28.8107 7.9001 28.3707 7.4601 28.3707 7.0001C28.3707 6.5401 28.8107 6.1001 29.2807 6.1001C29.3907 6.1001 29.5807 6.1001 29.7607 6.2501C29.7807 6.2501 29.7907 6.2701 29.8107 6.2801C29.8407 6.1001 29.8907 5.6901 29.9007 5.6001C29.9007 4.9401 30.5307 4.2001 31.1107 4.2001H31.2307L31.3207 4.2901H31.3907L31.4407 4.3301C31.5307 4.3801 31.6007 4.3801 31.6207 4.3701C31.6207 4.3701 31.6807 4.2901 31.6507 4.2301L31.6207 4.0901V3.7901C31.6207 3.1301 32.1607 2.5901 32.8307 2.5901C33.5507 2.5901 34.0407 3.0701 34.0407 3.7901C34.0407 3.7801 34.0607 3.7901 34.0807 3.8101C34.0907 3.8101 34.1107 3.8101 34.1207 3.8101C34.1407 3.8101 34.1607 3.8101 34.1807 3.8201L34.2207 3.7801H34.8707L34.9607 3.8701C34.9607 3.8701 35.0507 3.7101 35.0607 3.6701C35.0607 3.2401 35.4707 2.8901 35.9707 2.8901C36.4407 2.8901 36.8807 3.3301 36.8807 3.7901C36.8807 4.2501 36.4407 4.6901 35.9707 4.6901H35.6407L35.5507 4.6001L35.4807 4.6701C35.4507 5.0201 35.2807 5.1901 35.1707 5.3001C35.1707 5.3201 35.1507 5.3801 35.1507 5.4901V5.5901C35.1507 6.0501 34.7107 6.4901 34.2407 6.4901H33.9107L33.8207 6.4001L33.7507 6.4701C33.7107 6.9401 33.3107 7.2901 32.8207 7.2901C32.4807 7.2901 32.1907 7.0101 32.0507 6.7301C31.9907 6.6101 31.9507 6.5801 31.9507 6.5801L31.8507 6.6401L31.8207 6.7101C31.6307 6.9001 31.3507 6.9001 31.1007 6.9001C30.9807 6.9001 30.8507 6.8601 30.6407 6.7901C30.5107 6.7501 30.2707 6.6701 30.1907 6.6801L30.1607 6.7001C30.1807 6.7601 30.1907 6.8301 30.1907 6.9101V7.0101C30.1907 7.4701 29.7507 7.9101 29.2807 7.9101V7.9001ZM29.2807 6.7001C29.1407 6.7001 28.9707 6.8701 28.9707 7.0001C28.9707 7.1301 29.1407 7.3001 29.2807 7.3001C29.4207 7.3001 29.5907 7.1301 29.5907 7.0001V6.9001C29.5907 6.9001 29.5907 6.8401 29.4507 6.7701L29.3707 6.7201C29.3707 6.7201 29.3607 6.7101 29.2807 6.7101V6.7001ZM31.9107 6.0001H32.0107C32.3407 6.0001 32.5207 6.3501 32.5807 6.4601C32.6507 6.6101 32.7807 6.7001 32.8207 6.7001C32.9607 6.7001 33.1307 6.6101 33.1307 6.5001C33.1307 6.3301 33.2607 6.0101 33.5007 5.9201C33.6807 5.8001 33.9407 5.7901 34.1307 5.9001H34.2407C34.3807 5.9001 34.5507 5.7301 34.5507 5.6001V5.5001C34.5507 5.3601 34.5507 5.0701 34.7407 4.8901C34.8307 4.8001 34.8507 4.7701 34.8507 4.7001C34.8507 4.6401 34.8707 4.5501 34.9007 4.4701C34.8107 4.4701 34.7307 4.4401 34.6507 4.4001H34.4307C34.2607 4.4801 34.0907 4.4401 33.9907 4.4101H33.8707L33.7407 4.3101C33.6107 4.1801 33.4507 4.0201 33.4507 3.8001C33.4507 3.2801 33.0707 3.2001 32.8407 3.2001C32.5007 3.2001 32.2307 3.4601 32.2307 3.8001V4.0401C32.3407 4.3301 32.2307 4.6401 32.0407 4.8101C31.8507 4.9901 31.5407 5.0201 31.2407 4.8901C31.1607 4.8801 31.1007 4.8501 31.0407 4.8101C30.8207 4.8901 30.5107 5.2701 30.5107 5.5901C30.5107 5.6601 30.4807 5.8801 30.4507 6.1001C30.5707 6.1301 30.7107 6.1701 30.8407 6.2101C30.9307 6.2401 31.0807 6.2901 31.1207 6.2901C31.2007 6.2901 31.3307 6.2901 31.4007 6.2701C31.5807 5.9901 31.8107 5.9901 31.9307 5.9901L31.9107 6.0001ZM35.8407 4.1001H35.9507C36.0907 4.1001 36.2607 3.9301 36.2607 3.8001C36.2607 3.6701 36.0907 3.5001 35.9507 3.5001C35.8107 3.5001 35.6407 3.5901 35.6407 3.7001C35.6407 3.8001 35.6007 3.9201 35.5507 4.0301C35.6507 4.0301 35.7507 4.0601 35.8407 4.1001Z" fill="#1D1D1D"/>
<path d="M26.75 17.4996C26.65 17.4996 26.55 17.4996 26.45 17.3996C26.35 17.2996 26.25 17.1996 26.25 16.9996L26.96 8.99961C26.96 8.79961 27.16 8.59961 27.36 8.59961H30.79C30.99 8.59961 31.19 8.79961 31.19 8.99961L31.9 15.3996C31.9 15.5996 31.8 15.7996 31.6 15.8996L26.95 17.4996H26.75ZM27.86 9.49961L27.25 16.3996L30.89 15.0996L30.28 9.49961H27.86Z" fill="#1D1D1D"/>
<path d="M26.9992 17.7998H26.7492C26.6292 17.7998 26.4192 17.7998 26.2392 17.6098C26.1292 17.4998 25.9492 17.3198 25.9492 16.9998L26.6592 8.9698C26.6592 8.6298 26.9892 8.2998 27.3592 8.2998H30.7892C31.1592 8.2998 31.4892 8.6298 31.4892 8.9998L32.1992 15.3698C32.1992 15.7298 32.0192 16.0298 31.7292 16.1698L26.9992 17.7998ZM27.3492 8.8998C27.3492 8.8998 27.2492 8.9598 27.2492 8.9998L26.5392 17.0298C26.5392 17.0298 26.5592 17.0998 26.6492 17.1898C26.6692 17.1998 26.7092 17.1998 26.7392 17.1998H26.8892L31.4892 15.6198C31.5792 15.5698 31.5892 15.4398 31.5892 15.3998L30.8792 9.0298C30.8792 8.9598 30.8092 8.8998 30.7692 8.8998H27.3392H27.3492ZM26.9092 16.8398L27.5792 9.1998H30.5492L31.2092 15.2998L26.9092 16.8398ZM28.1292 9.7998L27.5892 15.9598L30.5592 14.8998L30.0092 9.7998H28.1292Z" fill="#1D1D1D"/>
</svg>
