<svg width="57" height="37" viewBox="0 0 57 37" fill="none" xmlns="http://www.w3.org/2000/svg">
<path d="M16.741 32.8002C15.831 32.8002 14.9209 32.4002 14.2209 31.8002C13.5109 31.1002 13.2109 30.2002 13.2109 29.3002C13.2109 28.4002 13.6109 27.4002 14.2209 26.8002C14.9309 26.1002 15.841 25.7002 16.741 25.7002C17.641 25.7002 18.5609 26.1002 19.2609 26.8002C19.9709 27.5002 20.271 28.4002 20.271 29.3002C20.271 30.2002 19.8709 31.1002 19.2609 31.8002C18.5509 32.4002 17.641 32.8002 16.741 32.8002ZM16.741 26.6002C16.031 26.6002 15.3309 26.9002 14.8209 27.4002C14.3109 27.9002 14.0109 28.6002 14.0109 29.3002C14.0109 30.0002 14.3109 30.7002 14.8209 31.2002C15.3309 31.7002 16.031 32.0002 16.741 32.0002C17.451 32.0002 18.1509 31.7002 18.6609 31.2002C19.1609 30.7002 19.4709 30.0002 19.4709 29.3002C19.4709 28.6002 19.1709 27.9002 18.6609 27.4002C18.1509 26.9002 17.451 26.6002 16.741 26.6002Z" fill="#1D1D1D"/>
<path d="M16.7401 33.1803C15.8001 33.1803 14.7901 32.7803 13.9701 32.0903C13.2201 31.3403 12.8301 30.3903 12.8301 29.3003C12.8301 28.2903 13.2701 27.2103 13.9501 26.5303C14.7301 25.7603 15.7401 25.3203 16.7401 25.3203C17.7401 25.3203 18.7501 25.7603 19.5301 26.5303C20.2601 27.2603 20.6501 28.2103 20.6501 29.3003C20.6501 30.2403 20.2501 31.2403 19.5501 32.0503C18.6901 32.7803 17.6901 33.1803 16.7401 33.1803ZM16.7401 26.0803C15.9401 26.0803 15.1201 26.4403 14.4801 27.0703C13.9401 27.6003 13.5801 28.5003 13.5801 29.3003C13.5801 29.9103 13.7401 30.8003 14.4801 31.5303C15.1401 32.0903 15.9701 32.4203 16.7401 32.4203C17.5101 32.4203 18.3401 32.0903 19.0201 31.5103C19.5601 30.8803 19.9001 30.0503 19.9001 29.3003C19.9001 28.6903 19.7401 27.8003 19.0001 27.0703C18.3601 26.4403 17.5401 26.0803 16.7401 26.0803ZM16.7401 32.3803C15.9401 32.3803 15.1401 32.0503 14.5601 31.4703C13.9801 30.8903 13.6401 30.1003 13.6401 29.3003C13.6401 28.5003 13.9701 27.7103 14.5601 27.1303C15.7301 25.9703 17.7601 25.9703 18.9301 27.1303C19.5101 27.7103 19.8501 28.5003 19.8501 29.3003C19.8501 30.1003 19.5201 30.8903 18.9301 31.4703C18.3501 32.0503 17.5501 32.3803 16.7501 32.3803H16.7401ZM16.7401 26.9803C16.1401 26.9803 15.5201 27.2403 15.0801 27.6703C14.6401 28.1003 14.3801 28.7103 14.3801 29.3003C14.3801 29.8903 14.6401 30.5003 15.0801 30.9303C15.9601 31.8003 17.5201 31.8003 18.3901 30.9303C18.8301 30.5003 19.0901 29.8903 19.0901 29.3003C19.0901 28.7103 18.8301 28.1003 18.3901 27.6703C17.9501 27.2403 17.3301 26.9803 16.7301 26.9803H16.7401Z" fill="#1D1D1D"/>
<path d="M16.7405 35.4005C15.0205 35.4005 13.5105 34.8005 12.3005 33.6005C11.0905 32.4005 10.4805 30.9005 10.4805 29.2005C10.4805 27.5005 11.0905 26.0005 12.3005 24.8005C13.5105 23.6005 15.0305 23.0005 16.7405 23.0005C18.4505 23.0005 19.9705 23.6005 21.1805 24.8005C22.3905 26.0005 23.0005 27.5005 23.0005 29.2005C23.0005 30.8005 22.3905 32.4005 21.1805 33.5005C19.9705 34.8005 18.3505 35.4005 16.7405 35.4005ZM16.7405 23.9005C15.3305 23.9005 14.0105 24.4005 13.0005 25.4005C11.9905 26.4005 11.4905 27.7005 11.4905 29.2005C11.4905 30.6005 12.1005 31.9005 13.0005 32.9005C14.0105 33.9005 15.3205 34.4005 16.7405 34.4005C18.1605 34.4005 19.4705 33.9005 20.4805 32.9005C21.4905 31.9005 21.9905 30.6005 21.9905 29.2005C21.9905 27.8005 21.3805 26.4005 20.3705 25.4005C19.4605 24.5005 18.1505 23.9005 16.7305 23.9005H16.7405Z" fill="#1D1D1D"/>
<path d="M16.7396 35.7806C14.8996 35.7806 13.3096 35.1406 12.0296 33.8706C10.7496 32.6006 10.0996 31.0306 10.0996 29.2006C10.0996 27.3706 10.7496 25.8006 12.0296 24.5306C13.3096 23.2606 14.8896 22.6206 16.7396 22.6206C18.5896 22.6206 20.1696 23.2606 21.4496 24.5306C22.7296 25.8006 23.3796 27.3706 23.3796 29.2006C23.3796 31.0306 22.6696 32.6606 21.4396 33.7806C20.2496 35.0606 18.5696 35.7806 16.7396 35.7806ZM16.7396 23.3806C15.0996 23.3806 13.6896 23.9506 12.5596 25.0706C11.4296 26.1906 10.8496 27.5806 10.8496 29.2006C10.8496 30.8206 11.4196 32.2106 12.5596 33.3306C13.6896 34.4506 15.0996 35.0206 16.7396 35.0206C18.3796 35.0206 19.8396 34.3906 20.9096 33.2406C22.0096 32.2406 22.6296 30.7706 22.6296 29.2006C22.6296 27.6306 22.0596 26.1906 20.9196 25.0706C19.7896 23.9506 18.3796 23.3806 16.7396 23.3806ZM16.7396 34.7806C15.1896 34.7806 13.7996 34.2206 12.7396 33.1706C11.6896 32.0106 11.1096 30.6106 11.1096 29.2006C11.1096 27.5906 11.6696 26.1906 12.7396 25.1306C13.7996 24.0806 15.1896 23.5206 16.7396 23.5206C18.1896 23.5206 19.6096 24.1106 20.6396 25.1306C21.7396 26.2206 22.3696 27.7006 22.3696 29.2006C22.3696 30.7006 21.8096 32.1106 20.7396 33.1706C19.6796 34.2206 18.2896 34.7806 16.7396 34.7806ZM16.7396 24.2806C15.3896 24.2806 14.1896 24.7606 13.2696 25.6706C12.3396 26.5906 11.8696 27.7806 11.8696 29.2006C11.8696 30.4206 12.3696 31.6406 13.2896 32.6506C14.1996 33.5506 15.3996 34.0306 16.7496 34.0306C18.0996 34.0306 19.2996 33.5506 20.2196 32.6406C21.1396 31.7306 21.6196 30.5406 21.6196 29.2106C21.6196 27.8806 21.0596 26.6106 20.1196 25.6806C19.2296 24.8006 17.9996 24.2906 16.7496 24.2906L16.7396 24.2806Z" fill="#1D1D1D"/>
<path d="M35.7306 35.9007C35.664 35.9007 35.664 35.9007 35.7306 35.9007C35.4306 35.9007 35.2306 35.8007 35.0206 35.8007C34.8206 35.7007 34.6206 35.6007 34.5206 35.5007C32.9006 34.2007 30.8806 32.2007 29.1706 30.4007C28.4606 29.7007 27.7606 29.0007 27.1506 28.4007C26.8506 28.5007 26.6506 28.6007 26.5406 28.7007C25.7306 29.1007 25.6306 29.1007 24.2206 29.1007C23.8206 29.1007 23.5106 28.9007 23.5106 28.5007C23.3106 26.9007 22.5006 25.4007 21.2906 24.3007C20.0806 23.2007 18.4606 22.6007 16.8506 22.6007C16.0406 22.6007 15.2306 22.7007 14.5306 23.0007C13.8206 23.3007 13.1206 23.7007 12.5106 24.2007C12.3106 24.4007 11.9006 24.4007 11.6006 24.2007L0.890625 16.3007C0.590625 16.2007 0.390625 16.0007 0.390625 15.7007V13.9007C0.390625 13.5007 0.690632 13.2007 1.10063 13.2007H43.1106C43.5106 13.2007 43.8206 13.5007 43.8206 13.9007V15.7007C43.8206 16.1007 43.5206 16.4007 43.1106 16.4007H42.6106L42.0006 19.2007L47.5506 16.6007C47.7506 16.5007 48.0606 16.6007 48.1606 16.8007L49.6706 19.9007C49.7706 20.0007 49.7706 20.1007 49.6706 20.2007C49.6706 20.3007 49.5706 20.4007 49.4706 20.5007C47.5506 21.4007 45.5306 22.3007 43.6106 23.2007C42.0906 23.9007 40.5806 24.5007 39.1706 25.2007L37.9606 34.0007C37.8606 34.5007 37.5606 35.0007 37.1506 35.4007C36.7506 35.7007 36.2406 35.9007 35.7406 35.9007H35.7306ZM27.1506 27.3007C27.2506 27.3007 27.3506 27.3007 27.4506 27.4007C28.1606 28.1007 28.8606 28.9007 29.6706 29.7007C31.3906 31.5007 33.3106 33.5007 34.9206 34.7007C35.0206 34.8007 35.1206 34.8007 35.2206 34.9007C35.3206 34.9007 35.4206 35.0007 35.6206 35.0007C35.9206 35.0007 36.3306 34.9007 36.5306 34.7007C36.8306 34.5007 36.9306 34.2007 37.0306 33.9007L38.2406 24.8007C38.2406 24.6007 38.3406 24.5007 38.5406 24.5007C40.0606 23.8007 41.6706 23.1007 43.1906 22.4007C45.0106 21.6007 46.8306 20.8007 48.6406 19.9007L47.5306 17.6007L41.5706 20.4007C41.3706 20.5007 41.2706 20.5007 41.0706 20.3007C40.9706 20.2007 40.8706 20.0007 40.8706 19.9007L41.7806 15.8007C41.7806 15.6007 41.9806 15.4007 42.1806 15.4007H42.8906V14.0007H1.18062V15.4007L11.7806 23.3007C12.3906 22.8007 13.1906 22.4007 14.0006 22.1007C14.9106 21.8007 15.7206 21.6007 16.6306 21.6007C18.5506 21.6007 20.3706 22.3007 21.6806 23.5007C22.9906 24.7007 23.9006 26.3007 24.2006 28.1007C24.9406 28.1007 25.514 28.0007 25.9206 27.8007C26.1206 27.7007 26.4206 27.5007 26.8306 27.3007H27.1306H27.1506Z" fill="#1D1D1D"/>
<path d="M35.73 36.2805H35.65C35.48 36.2805 35.34 36.2405 35.22 36.2105C35.14 36.1905 35.07 36.1805 35.02 36.1805L34.85 36.1405C34.63 36.0305 34.39 35.9105 34.25 35.7705C32.53 34.3905 30.38 32.2305 28.89 30.6605L27.05 28.8305C26.87 28.9005 26.81 28.9505 26.8 28.9605L26.7 29.0305C25.81 29.4705 25.63 29.4705 24.21 29.4705C23.56 29.4705 23.13 29.0805 23.13 28.4905C22.94 27.0405 22.2 25.6305 21.03 24.5705C19.91 23.5505 18.38 22.9705 16.84 22.9705C15.96 22.9705 15.25 23.0905 14.66 23.3405C13.93 23.6505 13.26 24.0505 12.73 24.4805C12.42 24.7805 11.83 24.8005 11.38 24.5005L0.699997 16.6205C0.259997 16.4505 0 16.1105 0 15.6905V13.8905C0 13.2905 0.480002 12.8105 1.08 12.8105H43.09C43.7 12.8105 44.17 13.2805 44.17 13.8905V15.6905C44.17 16.2905 43.69 16.7705 43.09 16.7705H42.89L42.51 18.5305L47.38 16.2505C47.76 16.0705 48.29 16.2405 48.48 16.6205L49.97 19.6805C50.08 19.8105 50.11 19.9505 50.11 20.0405C50.11 20.1205 50.09 20.2405 50.01 20.3605C49.96 20.5305 49.83 20.6605 49.72 20.7605L49.61 20.8305C48.64 21.2805 47.65 21.7405 46.66 22.1905C45.68 22.6405 44.7 23.0805 43.75 23.5305C43.13 23.8205 42.5 24.0905 41.88 24.3605C41.05 24.7205 40.26 25.0705 39.49 25.4405L38.3 34.0405C38.18 34.6205 37.86 35.1805 37.38 35.6605C36.84 36.0605 36.26 36.2705 35.7 36.2705L35.73 36.2805ZM35.12 35.4305C35.21 35.4305 35.3 35.4605 35.39 35.4805C35.85 35.5805 36.44 35.4605 36.92 35.1005C37.25 34.7705 37.5 34.3305 37.58 33.9305L38.81 24.9605L38.99 24.8705C39.83 24.4505 40.69 24.0805 41.6 23.6905C42.21 23.4205 42.83 23.1605 43.45 22.8705C44.4 22.4205 45.38 21.9705 46.36 21.5305C47.33 21.0905 48.3 20.6505 49.24 20.2005C49.27 20.1705 49.3 20.1405 49.3 20.1305V20.0405L47.8 16.9805C47.8 16.9805 47.72 16.9505 47.69 16.9505L41.44 19.8705L42.27 16.0305H43.08C43.28 16.0305 43.41 15.9005 43.41 15.7005V13.9005C43.41 13.7105 43.27 13.5705 43.08 13.5705H1.06999C0.999992 13.5705 0.930005 13.5905 0.880005 13.6205H43.26V15.7705L42.18 15.8105L42.14 15.8705L41.25 19.8905C41.25 19.8905 41.31 20.0005 41.33 20.0205C41.38 20.0705 41.41 20.0905 41.41 20.0905L47.71 17.0905L49.14 20.0605L48.81 20.2205C46.99 21.1205 45.13 21.9405 43.34 22.7305C42.58 23.0805 41.8 23.4305 41.02 23.7805C40.24 24.1305 39.46 24.4805 38.7 24.8305L38.6 24.8605L37.4 33.9305C37.27 34.3205 37.14 34.7205 36.73 34.9905C36.48 35.2405 35.96 35.3505 35.61 35.3505C35.42 35.3505 35.28 35.2905 35.2 35.2605H35.05L34.95 35.1405C34.83 35.0805 34.74 35.0305 34.65 34.9405C33.01 33.7305 31 31.6205 29.39 29.9305C28.98 29.5205 28.59 29.1105 28.21 28.7105C27.86 28.3405 27.52 27.9805 27.18 27.6405H26.93C26.74 27.7505 26.57 27.8505 26.42 27.9305C26.29 28.0005 26.18 28.0705 26.09 28.1105C25.41 28.4505 25.34 28.4505 24.21 28.4505H23.89L23.84 28.1405C23.55 26.4505 22.72 24.9305 21.43 23.7505C20.18 22.6005 18.43 21.9505 16.63 21.9505C15.71 21.9505 14.88 22.1805 14.12 22.4305C13.26 22.7505 12.53 23.1405 12.02 23.5605L11.79 23.7505L0.800003 15.5605V13.6805C0.760003 13.7305 0.740005 13.8005 0.740005 13.8805V15.6805C0.740005 15.6805 0.740005 15.8405 0.990005 15.9205L1.09 15.9705L11.8 23.8705C11.96 23.9805 12.17 23.9605 12.22 23.9105C12.84 23.4005 13.55 22.9705 14.36 22.6305C15.04 22.3405 15.85 22.2005 16.83 22.2005C18.56 22.2005 20.27 22.8605 21.53 24.0005C22.83 25.1805 23.66 26.7505 23.87 28.4305C23.87 28.5405 23.87 28.7005 24.2 28.7005C25.57 28.7005 25.62 28.7005 26.31 28.3605C26.46 28.2305 26.69 28.1205 27.01 28.0205L27.23 27.9505L29.41 30.1105C30.9 31.6705 33.02 33.8005 34.73 35.1805C34.8 35.2505 34.97 35.3405 35.1 35.4005L35.12 35.4305ZM35.39 34.5505C35.39 34.5505 35.47 34.5805 35.5 34.5905C35.56 34.6105 35.59 34.6205 35.63 34.6205C35.88 34.6205 36.17 34.5305 36.28 34.4305C36.52 34.2605 36.59 34.0705 36.69 33.7805L37.89 24.7505C37.89 24.4205 38.11 24.1705 38.47 24.1305C39.21 23.7905 39.97 23.4505 40.73 23.1105C41.51 22.7605 42.29 22.4105 43.05 22.0605C44.73 21.3205 46.46 20.5605 48.16 19.7305L47.37 18.1005L41.75 20.7405C41.4 20.9205 41.13 20.8705 40.82 20.5705C40.67 20.4205 40.51 20.1305 40.51 19.9005L41.43 15.7205C41.43 15.4005 41.79 15.0305 42.2 15.0305H42.53V14.3805H1.56999V15.2205L11.79 22.8405C12.34 22.4405 13.04 22.0705 13.89 21.7605C14.72 21.4905 15.62 21.2405 16.65 21.2405C18.63 21.2405 20.56 21.9705 21.95 23.2405C23.28 24.4605 24.17 26.0105 24.53 27.7405C25.25 27.7405 25.3 27.7105 25.77 27.4805C25.85 27.4405 25.94 27.3905 26.05 27.3205C26.22 27.2205 26.43 27.1005 26.68 26.9805L26.85 26.9405H27.15C27.27 26.9405 27.51 26.9405 27.72 27.1505C28.06 27.4905 28.41 27.8605 28.77 28.2305C29.14 28.6305 29.53 29.0305 29.94 29.4405C31.54 31.1205 33.52 33.2005 35.15 34.4105L35.24 34.4805C35.24 34.4805 35.33 34.5305 35.39 34.5705V34.5505Z" fill="#1D1D1D"/>
<path d="M34.6198 30.0003C34.5198 30.0003 34.4198 30.0003 34.3198 29.9003L28.6598 24.3003C28.4598 24.1003 28.4598 23.8003 28.6598 23.7003C28.8598 23.5003 29.1698 23.5003 29.2698 23.7003L34.9298 29.3003C35.1298 29.5003 35.1298 29.8003 34.9298 29.9003C34.9298 30.0003 34.7298 30.0003 34.6298 30.0003H34.6198Z" fill="#1D1D1D"/>
<path d="M34.6202 30.3803C34.5002 30.3803 34.2602 30.3803 34.0502 30.1703L28.3902 24.5703C28.1902 24.3703 28.1002 24.1003 28.1402 23.8503C28.1702 23.6603 28.2802 23.5003 28.4302 23.4003C28.6202 23.2303 28.8702 23.1503 29.1102 23.1903C29.3002 23.2203 29.4502 23.3203 29.5502 23.4703L35.1702 29.0403C35.3702 29.2403 35.4602 29.5103 35.4202 29.7603C35.3902 29.9103 35.3202 30.0503 35.2102 30.1503C35.1302 30.2703 34.9602 30.3803 34.6002 30.3803H34.6202ZM28.9202 24.0403L34.5802 29.6403H34.6202C34.6202 29.6403 34.6202 29.6403 34.6302 29.6403L34.7502 29.5803H34.6502L28.9202 23.8803L28.8202 24.0503L28.6502 24.3103L28.9102 24.0403H28.9202Z" fill="#1D1D1D"/>
<path d="M34.6213 30.0007C34.3213 30.0007 34.1213 29.7007 34.2213 29.5007L35.1313 23.1007C35.1313 22.9007 35.4313 22.7007 35.6313 22.7007C35.8313 22.7007 36.0313 23.0007 36.0313 23.2007L35.1213 29.6007C35.0213 29.9007 34.9213 30.0007 34.6213 30.0007Z" fill="#1D1D1D"/>
<path d="M34.6208 30.3806C34.3408 30.3806 34.0708 30.2306 33.9208 29.9906C33.8008 29.8006 33.7808 29.5906 33.8508 29.4006L34.7508 23.0506C34.7508 22.6706 35.2308 22.3306 35.6308 22.3306C36.0608 22.3306 36.4108 22.8106 36.4108 23.2106L35.5008 29.6606C35.3708 30.0706 35.1908 30.3806 34.6208 30.3806ZM35.5708 23.0706C35.5708 23.0706 35.5108 23.1406 35.4908 23.1706L34.5508 29.6806L34.6208 29.6406C34.6808 29.6406 34.7108 29.6406 34.7208 29.6406C34.7208 29.6406 34.7408 29.6006 34.7708 29.5006L35.6608 23.1706C35.6608 23.1706 35.6008 23.1106 35.5708 23.0906V23.0706Z" fill="#1D1D1D"/>
<path d="M35.221 14.0004H6.44102C6.34102 14.0004 6.14102 13.9004 6.14102 13.8004C6.04102 13.7004 6.04102 13.6004 6.04102 13.4004C7.35102 5.00036 9.17103 0.900365 11.601 0.400365C13.421 0.100365 15.341 1.80037 17.461 5.70037C19.681 9.70037 20.791 10.5004 21.401 10.4004C22.111 10.4004 22.611 9.10036 23.121 7.80036C23.931 6.00036 24.741 4.00036 26.451 3.90036C28.571 3.70036 31.501 6.70036 35.541 13.1004C35.641 13.2004 35.641 13.4004 35.541 13.6004C35.541 14.0004 35.441 14.0004 35.241 14.0004H35.221ZM6.94102 13.1004H34.411C30.881 7.60036 28.251 4.90036 26.531 5.00036C25.321 5.10036 24.611 6.70036 23.901 8.30036C23.191 9.90036 22.591 11.4004 21.381 11.4004C20.071 11.5004 18.651 9.90037 16.631 6.20037C14.711 2.80037 13.101 1.10037 11.681 1.40037C10.571 1.60037 9.56102 3.10036 8.65102 5.80036C8.04102 7.70036 7.44102 10.1004 6.93102 13.1004H6.94102Z" fill="#1D1D1D"/>
<path d="M35.2202 14.3805H6.44016C6.24016 14.3805 5.91016 14.2505 5.80016 13.9905C5.66016 13.8005 5.66016 13.6005 5.66016 13.4105C7.00016 4.82047 8.86015 0.590469 11.5101 0.040469C13.5401 -0.299531 15.5802 1.50047 17.7702 5.53047C20.1802 9.86047 21.1001 10.0805 21.3201 10.0405C21.8301 10.0405 22.3802 8.62047 22.7502 7.68047L22.8701 7.40047C23.6601 5.64047 24.5502 3.65047 26.4102 3.54047C28.6802 3.33047 31.6101 6.21047 35.8401 12.9105C35.9901 13.0505 36.0301 13.3705 35.9001 13.7005C35.8801 14.1805 35.6702 14.3905 35.2202 14.3905V14.3805ZM6.46014 13.6205H35.1501C35.1501 13.6205 35.1501 13.6205 35.1501 13.6105L35.1902 13.4405C35.2202 13.3705 35.2301 13.3305 35.2301 13.3205C31.2601 7.06047 28.4301 4.11047 26.4801 4.29047C25.0601 4.37047 24.3001 6.07047 23.5701 7.71047L23.4501 7.97047C22.8902 9.41047 22.3602 10.7905 21.3902 10.7905C20.7602 10.8905 19.6501 10.4405 17.1201 5.90047C15.1301 2.24047 13.3001 0.510469 11.6501 0.790469C9.39015 1.26047 7.66015 5.41047 6.40015 13.4805C6.40015 13.4805 6.40015 13.5605 6.40015 13.5805L6.45015 13.6305L6.46014 13.6205ZM35.1002 13.4805H6.50015L6.57014 13.0405C7.03014 10.3305 7.61016 7.86047 8.30016 5.69047C9.28016 2.78047 10.3701 1.26047 11.6201 1.03047C13.1701 0.700469 14.8301 2.24047 16.9601 6.01047C18.9001 9.56047 20.2102 11.1105 21.3502 11.0205C22.2902 11.0205 22.8402 9.78047 23.4702 8.35047L23.5602 8.14047C24.3001 6.47047 25.0602 4.74047 26.5002 4.62047C28.4302 4.50047 31.0802 7.22047 34.7202 12.8905L35.0901 13.4705L35.1002 13.4805ZM7.39015 12.7305H33.7202C29.6802 6.57047 27.6002 5.31047 26.5502 5.38047C25.5702 5.46047 24.9002 6.98047 24.2502 8.46047L24.1602 8.67047C23.4502 10.2705 22.7902 11.7905 21.3802 11.7905C19.9302 11.8805 18.4602 10.3405 16.3002 6.39047C14.4302 3.09047 12.9001 1.53047 11.7601 1.78047C11.1001 1.90047 10.0901 2.72047 9.01015 5.93047C8.37015 7.95047 7.82016 10.2305 7.38016 12.7405L7.39015 12.7305Z" fill="#1D1D1D"/>
<path d="M49.5598 21.1003H49.4598C49.3598 21.1003 49.2599 21.0003 49.1599 20.9003L47.0398 16.4003C46.9398 16.3003 46.9398 16.2003 47.0398 16.1003C47.0398 16.0003 47.1399 15.9003 47.2399 15.8003L51.3799 13.9003C52.0899 13.6003 52.8999 13.5003 53.5999 13.8003C54.3099 14.0003 54.9099 14.5003 55.3199 15.2003L55.4199 15.3003C55.7199 16.0003 55.7198 16.7003 55.5198 17.4003C55.3198 18.1003 54.8098 18.6003 54.2098 18.9003C52.8998 19.6003 51.4798 20.3003 49.8698 21.1003H49.5699H49.5598ZM48.0498 16.4003L49.8698 20.1003C51.2798 19.4003 52.5998 18.8003 53.8098 18.1003C54.2098 17.9003 54.5199 17.5003 54.7199 17.1003C54.9199 16.6003 54.8198 16.2003 54.6198 15.7003V15.6003C54.4198 15.2003 53.9099 14.8003 53.4099 14.6003C52.9099 14.4003 52.2998 14.4003 51.8898 14.7003L48.0498 16.4003Z" fill="#1D1D1D"/>
<path d="M49.9503 21.4802H49.4603C49.2103 21.4802 49.0203 21.3002 48.8903 21.1702L48.8103 21.0602L46.7103 16.6102C46.6003 16.4802 46.5703 16.3402 46.5703 16.2502C46.5703 16.1702 46.5903 16.0502 46.6703 15.9302C46.7203 15.7602 46.8603 15.6302 46.9603 15.5302L47.0703 15.4602L51.2103 13.5602C52.1103 13.1802 53.0003 13.1402 53.7303 13.4602C54.4703 13.6602 55.1403 14.2102 55.6003 14.9702L55.7503 15.1502C56.0703 15.8802 56.1103 16.6702 55.8703 17.5002C55.6603 18.2402 55.1203 18.8602 54.3603 19.2302C53.0503 19.9302 51.6503 20.6202 50.0203 21.4302L49.9403 21.4702L49.9503 21.4802ZM49.4703 20.6802C49.4703 20.6802 49.5303 20.7302 49.5403 20.7402L49.5603 20.7202H49.7803C51.3703 19.9302 52.7503 19.2502 54.0303 18.5602C54.4403 18.3602 54.9603 17.9802 55.1603 17.2902C55.3503 16.6502 55.3303 16.0602 55.1003 15.5102L54.9903 15.3802C54.6303 14.7602 54.1003 14.3202 53.5003 14.1502C52.9103 13.9002 52.2203 13.9402 51.5303 14.2302L47.4603 16.1002C47.4603 16.1002 47.4103 16.1602 47.4003 16.1702V16.2602L49.4803 20.6602L49.4703 20.6802ZM49.7003 20.6002L47.5403 16.2102L51.7303 14.3502C52.1403 14.0302 52.8603 13.9802 53.5303 14.2402C54.1503 14.4802 54.7003 14.9502 54.9403 15.4202L54.9803 15.6202C55.1603 16.0902 55.3103 16.6002 55.0503 17.2302C54.8403 17.6502 54.5003 18.1602 53.9603 18.4302C53.0703 18.9502 52.1003 19.4202 51.0803 19.9102L49.6803 20.6002H49.7003ZM48.5603 16.5802L50.0403 19.5902L50.7703 19.2302C51.7803 18.7402 52.7303 18.2802 53.6203 17.7602C53.9203 17.6102 54.1803 17.3202 54.3803 16.9202C54.5203 16.5802 54.4503 16.2902 54.2703 15.8302L54.2403 15.6902C54.0603 15.4102 53.6703 15.1002 53.2603 14.9402C52.8403 14.7702 52.3803 14.7902 52.1103 14.9902L48.5603 16.5702V16.5802Z" fill="#1D1D1D"/>
<path d="M29.6688 17.2004H2.69882C2.49882 17.2004 2.29883 17.0004 2.29883 16.8004C2.29883 16.6004 2.49882 16.4004 2.69882 16.4004H29.6688C29.8688 16.4004 30.0688 16.6004 30.0688 16.8004C30.0688 17.0004 29.8688 17.2004 29.6688 17.2004Z" fill="#1D1D1D"/>
<path d="M29.6697 17.5805H2.70969C2.29969 17.5805 1.92969 17.2105 1.92969 16.8105C1.92969 16.4105 2.29969 16.0405 2.70969 16.0405H29.6697C30.0797 16.0405 30.4497 16.4105 30.4497 16.8105C30.4497 17.2105 30.0797 17.5805 29.6697 17.5805Z" fill="#1D1D1D"/>
</svg>
