<svg width="51" height="58" viewBox="0 0 51 58" fill="none" xmlns="http://www.w3.org/2000/svg">
<path d="M45.7991 56.9303H4.41906C4.22906 56.9303 4.03906 56.7303 4.03906 56.5303V32.9303C4.03906 32.7303 4.22906 32.5303 4.41906 32.5303H45.7991C45.9891 32.5303 46.1791 32.7303 46.1791 32.9303V56.5303C46.1791 56.7303 45.9891 56.9303 45.7991 56.9303ZM4.78906 56.0303H45.3291V33.3303H4.78906V56.0303Z" fill="#1D1D1D"/>
<path d="M45.7999 57.3002H4.41992C4.02992 57.3002 3.66992 56.9302 3.66992 56.5302V32.9302C3.66992 32.5202 4.02992 32.1602 4.41992 32.1602H45.7999C46.1899 32.1602 46.5499 32.5302 46.5499 32.9302V56.5302C46.5499 56.9402 46.1899 57.3002 45.7999 57.3002ZM4.41992 32.9002V56.5202L45.7799 56.5402L45.8099 32.9202L4.41992 32.9002ZM45.7099 56.4002H4.41992V32.9502H45.7099V56.4002ZM5.16992 55.6502H44.9599V33.7002H5.16992V55.6502Z" fill="#1D1D1D"/>
<path d="M49.4691 33.3305H0.749138C0.559138 33.3305 0.369141 33.1305 0.369141 32.9305V28.6305C0.369141 28.4305 0.559138 28.2305 0.749138 28.2305H49.4691C49.6591 28.2305 49.8491 28.4305 49.8491 28.6305V32.9305C49.8491 33.1305 49.6591 33.3305 49.4691 33.3305ZM1.21914 32.4305H49.0891V29.0305H1.21914V32.4305Z" fill="#1D1D1D"/>
<path d="M49.47 33.7004H0.75C0.36 33.7004 0 33.3304 0 32.9304V28.6304C0 28.2204 0.36 27.8604 0.75 27.8604H49.47C49.86 27.8604 50.22 28.2304 50.22 28.6304V32.9304C50.22 33.3404 49.86 33.7004 49.47 33.7004ZM0.75 28.6004V32.9203L49.44 32.9403V32.7904H0.840004V28.6404H49.46V29.0404V28.6204L0.739998 28.6004H0.75ZM1.59 32.0504H48.71V29.4004H1.59V32.0504Z" fill="#1D1D1D"/>
<path d="M16.6388 56.9301H10.4288C10.2388 56.9301 10.0488 56.7301 10.0488 56.5301V46.2301C10.0488 46.0301 10.2388 45.8301 10.4288 45.8301H16.6388C16.8288 45.8301 17.0188 46.0301 17.0188 46.2301V56.5301C17.0188 56.7301 16.8288 56.9301 16.6388 56.9301ZM10.8988 56.0301H16.2588V46.6301H10.8988V56.0301Z" fill="#1D1D1D"/>
<path d="M16.6397 57.3002H10.4297C10.0397 57.3002 9.67969 56.9302 9.67969 56.5302V46.2302C9.67969 45.8202 10.0397 45.4502 10.4297 45.4502H16.6397C17.0297 45.4502 17.3897 45.8202 17.3897 46.2302V56.5302C17.3897 56.9402 17.0297 57.3002 16.6397 57.3002ZM10.4297 46.2002V56.5302L16.6097 56.5502V56.4002H10.5297V46.2502H16.6397V47.2402V46.2202L10.4297 46.1902V46.2002ZM11.2697 55.6502H15.8797V47.0002H11.2697V55.6502Z" fill="#1D1D1D"/>
<path d="M39.7794 56.9301H33.5695C33.3795 56.9301 33.1895 56.7301 33.1895 56.5301V46.2301C33.1895 46.0301 33.3795 45.8301 33.5695 45.8301H39.7794C39.9694 45.8301 40.1595 46.0301 40.1595 46.2301V56.5301C40.1595 56.7301 39.9694 56.9301 39.7794 56.9301ZM34.0395 56.0301H39.3995V46.6301H34.0395V56.0301Z" fill="#1D1D1D"/>
<path d="M39.7803 57.3002H33.5703C33.1803 57.3002 32.8203 56.9302 32.8203 56.5302V46.2302C32.8203 45.8202 33.1803 45.4502 33.5703 45.4502H39.7803C40.1703 45.4502 40.5303 45.8202 40.5303 46.2302V56.5302C40.5303 56.9402 40.1703 57.3002 39.7803 57.3002ZM33.5703 46.2002V56.5302L39.7503 56.5502V56.4002H33.6703V46.2502H39.7803V47.2402V46.2202L33.5703 46.1902V46.2002ZM34.4203 55.6502H39.0303V47.0002H34.4203V55.6502Z" fill="#1D1D1D"/>
<path d="M14.0092 42.2298H6.57922C6.38922 42.2298 6.19922 42.0298 6.19922 41.8298V35.4298C6.19922 35.2298 6.38922 35.0298 6.57922 35.0298H14.0092C14.1992 35.0298 14.3892 35.2298 14.3892 35.4298V41.8298C14.3892 42.0298 14.1992 42.2298 14.0092 42.2298ZM7.04922 41.4298H13.6292V35.9298H7.04922V41.4298Z" fill="#1D1D1D"/>
<path d="M14.0101 42.5999H6.58008C6.19008 42.5999 5.83008 42.2299 5.83008 41.8199V35.4199C5.83008 35.0099 6.19008 34.6499 6.58008 34.6499H14.0101C14.4001 34.6499 14.7601 35.0199 14.7601 35.4199V41.8199C14.7601 42.2299 14.4001 42.5999 14.0101 42.5999ZM6.58008 35.3999V41.8199L13.9801 41.8499V41.7999H6.67007V35.5499H14.0001V35.8599V35.4299L6.57008 35.4099L6.58008 35.3999ZM7.43008 41.0499H13.2601V36.2999H7.43008V41.0499Z" fill="#1D1D1D"/>
<path d="M21.4389 42.2298H14.0089C13.8189 42.2298 13.6289 42.0298 13.6289 41.8298V35.4298C13.6289 35.2298 13.8189 35.0298 14.0089 35.0298H21.4389C21.6289 35.0298 21.8189 35.2298 21.8189 35.4298V41.8298C21.8189 42.0298 21.6289 42.2298 21.4389 42.2298ZM14.3889 41.4298H20.9689V35.9298H14.3889V41.4298Z" fill="#1D1D1D"/>
<path d="M21.4398 42.5999H14.0098C13.6198 42.5999 13.2598 42.2299 13.2598 41.8199V35.4199C13.2598 35.0099 13.6198 34.6499 14.0098 34.6499H21.4398C21.8298 34.6499 22.1898 35.0199 22.1898 35.4199V41.8199C22.1898 42.2299 21.8298 42.5999 21.4398 42.5999ZM14.0098 35.3999V41.8199L21.4098 41.8499L21.4398 35.4199L14.0098 35.3999ZM21.3398 41.7999H14.0098V35.5499H21.3398V41.7999ZM14.7598 41.0499H20.5898V36.2999H14.7598V41.0499Z" fill="#1D1D1D"/>
<path d="M28.769 42.2298H21.339C21.149 42.2298 20.959 42.0298 20.959 41.8298V35.4298C20.959 35.2298 21.149 35.0298 21.339 35.0298H28.769C28.959 35.0298 29.149 35.2298 29.149 35.4298V41.8298C29.239 42.0298 29.059 42.2298 28.769 42.2298ZM21.809 41.4298H28.389V35.9298H21.809V41.4298Z" fill="#1D1D1D"/>
<path d="M28.7698 42.5999H21.3398C20.9498 42.5999 20.5898 42.2299 20.5898 41.8199V35.4199C20.5898 35.0099 20.9498 34.6499 21.3398 34.6499H28.7698C29.1598 34.6499 29.5198 35.0199 29.5198 35.4199V41.7499C29.5698 41.9199 29.5398 42.0999 29.4498 42.2499C29.3098 42.4599 29.0598 42.5899 28.7698 42.5899V42.5999ZM21.3398 35.3999V41.8199L28.7698 41.8499V35.4199L21.3398 35.3999ZM28.7698 41.7999H21.4398V35.5499H28.7698V41.7999ZM22.1898 41.0499H28.0198V36.2999H22.1898V41.0499Z" fill="#1D1D1D"/>
<path d="M36.1987 42.2298H28.7687C28.5787 42.2298 28.3887 42.0298 28.3887 41.8298V35.4298C28.3887 35.2298 28.5787 35.0298 28.7687 35.0298H36.1987C36.3887 35.0298 36.5787 35.2298 36.5787 35.4298V41.8298C36.5787 42.0298 36.3887 42.2298 36.1987 42.2298ZM29.2387 41.4298H35.8187V35.9298H29.2387V41.4298Z" fill="#1D1D1D"/>
<path d="M36.1995 42.5999H28.7695C28.3795 42.5999 28.0195 42.2299 28.0195 41.8199V35.4199C28.0195 35.0099 28.3795 34.6499 28.7695 34.6499H36.1995C36.5895 34.6499 36.9495 35.0199 36.9495 35.4199V41.8199C36.9495 42.2299 36.5895 42.5999 36.1995 42.5999ZM28.7695 35.3999V41.8199L36.1695 41.8499V41.7999H28.8595V35.5499H36.1895V35.8399V35.4199L28.7595 35.3999H28.7695ZM29.6195 41.0499H35.4495V36.2999H29.6195V41.0499Z" fill="#1D1D1D"/>
<path d="M43.6284 42.2298H36.1984C36.0084 42.2298 35.8184 42.0298 35.8184 41.8298V35.4298C35.8184 35.2298 36.0084 35.0298 36.1984 35.0298H43.6284C43.8184 35.0298 44.0084 35.2298 44.0084 35.4298V41.8298C44.0084 42.0298 43.8184 42.2298 43.6284 42.2298ZM36.5784 41.4298H43.1584V35.9298H36.5784V41.4298Z" fill="#1D1D1D"/>
<path d="M43.6292 42.5999H36.1992C35.8092 42.5999 35.4492 42.2299 35.4492 41.8199V35.4199C35.4492 35.0099 35.8092 34.6499 36.1992 34.6499H43.6292C44.0192 34.6499 44.3792 35.0199 44.3792 35.4199V41.8199C44.3792 42.2299 44.0192 42.5999 43.6292 42.5999ZM36.1992 35.3999V41.8199L43.5992 41.8499L43.6292 35.4199L36.1992 35.3999ZM43.5292 41.7999H36.1992V35.5499H43.5292V41.7999ZM36.9492 41.0499H42.7792V36.2999H36.9492V41.0499Z" fill="#1D1D1D"/>
<path d="M42.3918 29.0304H37.7418C37.5418 29.0304 37.3418 28.8604 37.3418 28.6804V17.9804C37.3418 17.8104 37.5418 17.6304 37.7418 17.6304H42.3918C42.5918 17.6304 42.7918 17.8004 42.7918 17.9804V28.6804C42.7918 28.8504 42.5918 29.0304 42.3918 29.0304ZM38.1518 28.2504H41.8918V18.3404H38.1518V28.2504Z" fill="#1D1D1D"/>
<path d="M42.3909 29.4003H37.7409C37.3209 29.4003 36.9609 29.0603 36.9609 28.6803V17.9803C36.9609 17.6003 37.3209 17.2603 37.7409 17.2603H42.3909C42.8009 17.2603 43.1709 17.6003 43.1709 17.9803V28.6803C43.1709 29.0603 42.8009 29.4003 42.3909 29.4003ZM37.7709 18.0103H37.7409L37.7109 28.6803L42.3809 28.6503L42.4109 17.9803H42.2509V28.6203H37.7609V18.0103H37.7709ZM38.5209 27.8703H41.5109V18.7103H38.5209V27.8703Z" fill="#1D1D1D"/>
<path d="M44.4294 18.22H35.6694C35.4294 18.22 35.1794 18.1 35.1794 17.86L33.1094 11.72C33.1094 11.6 33.1094 11.36 33.2294 11.24C33.3494 11.12 33.4694 11 33.7194 11H46.4894C46.6094 11 46.8494 11.12 46.9794 11.24C47.0994 11.36 47.0994 11.6 47.0994 11.72L45.0294 17.86C44.7894 18.1 44.6594 18.22 44.4194 18.22H44.4294ZM36.0394 17.14H43.9494L45.6494 12.08H34.3394L36.0394 17.14Z" fill="#1D1D1D"/>
<path d="M44.4294 18.4702H35.6694C35.2594 18.4702 34.9594 18.2302 34.9294 17.9002L32.8594 11.7102C32.8594 11.5602 32.8594 11.2402 33.0594 11.0502C33.1894 10.9202 33.3794 10.7402 33.7194 10.7402H46.4894C46.6994 10.7402 46.9994 10.9002 47.1494 11.0502C47.3494 11.2402 47.3494 11.5602 47.3494 11.7102V11.7902L45.2094 18.0302C44.9594 18.2802 44.7694 18.4602 44.4294 18.4602V18.4702ZM33.3694 11.6802L35.4394 17.8602C35.4394 17.9402 35.5794 17.9702 35.6794 17.9702H44.4394C44.5594 17.9702 44.6194 17.9302 44.8294 17.7202L46.8694 11.6702C46.8694 11.4802 46.8394 11.4202 46.8194 11.4102C46.7294 11.3202 46.5594 11.2502 46.5094 11.2402H33.7394C33.5994 11.2402 33.5494 11.2902 33.4294 11.4102C33.4094 11.4302 33.3894 11.4802 33.3794 11.6702L33.3694 11.6802ZM44.1194 17.3902H35.8594L33.9894 11.8302H45.9994L44.1294 17.3902H44.1194ZM36.2094 16.8902H43.7594L45.2894 12.3302H34.6694L36.2094 16.8902Z" fill="#1D1D1D"/>
<path d="M42.6106 12.0802H37.3806C37.1406 12.0802 36.8906 11.8402 36.8906 11.6002V7.14016C36.8906 6.90016 37.1306 6.66016 37.3806 6.66016H42.6106C42.8506 6.66016 43.1006 6.90016 43.1006 7.14016V11.6002C43.2206 11.8402 42.9806 12.0802 42.6106 12.0802ZM37.9906 11.0002H42.1206V7.63016H37.9906V11.0002Z" fill="#1D1D1D"/>
<path d="M42.6106 12.3302H37.3806C37.0006 12.3302 36.6406 11.9702 36.6406 11.6002V7.14016C36.6406 6.76016 37.0006 6.41016 37.3806 6.41016H42.6106C42.9906 6.41016 43.3506 6.77016 43.3506 7.14016V11.5402C43.4006 11.6902 43.3906 11.8502 43.3006 11.9902C43.1706 12.2002 42.9106 12.3202 42.6106 12.3202V12.3302ZM37.3806 6.91016C37.2806 6.91016 37.1406 7.04016 37.1406 7.14016V11.6002C37.1406 11.7002 37.2706 11.8302 37.3806 11.8302H42.6106C42.7606 11.8302 42.8506 11.7702 42.8806 11.7302L42.8506 11.6802V11.6002V7.14016C42.8506 7.04016 42.7206 6.91016 42.6106 6.91016H37.3806ZM42.3706 11.2502H37.7406V7.38016H42.3706V11.2502ZM38.2406 10.7502H41.8706V7.88016H38.2406V10.7502Z" fill="#1D1D1D"/>
<path d="M40.0505 9.91014C39.8105 9.91014 39.5605 9.67014 39.5605 9.43014V1.12014C39.5605 0.880137 39.8005 0.640137 40.0505 0.640137C40.3005 0.640137 40.5405 0.880137 40.5405 1.12014V9.31014C40.5405 9.67014 40.3005 9.91014 40.0505 9.91014Z" fill="#1D1D1D"/>
<path d="M40.0505 10.1601C39.6705 10.1601 39.3105 9.80014 39.3105 9.43014V1.12014C39.3105 0.740137 39.6705 0.390137 40.0505 0.390137C40.4305 0.390137 40.7905 0.750137 40.7905 1.12014V9.31014C40.7905 9.78014 40.4605 10.1601 40.0505 10.1601ZM40.0505 0.890137C39.9405 0.890137 39.8105 1.02014 39.8105 1.12014V9.43014C39.8105 9.53014 39.9405 9.66014 40.0505 9.66014C40.1505 9.66014 40.2905 9.54014 40.2905 9.31014V1.12014C40.2905 1.02014 40.1605 0.890137 40.0505 0.890137Z" fill="#1D1D1D"/>
<path d="M45.5297 14.7203H36.1697C35.9297 14.7203 35.6797 14.4803 35.6797 14.2403C35.6797 14.0003 35.9197 13.7603 36.1697 13.7603H45.5297C45.7697 13.7603 46.0197 14.0003 46.0197 14.2403C46.0197 14.4803 45.8997 14.7203 45.5297 14.7203Z" fill="#1D1D1D"/>
<path d="M45.0409 16.4102H37.6209C37.3809 16.4102 37.1309 16.1702 37.1309 15.9302C37.1309 15.6902 37.3709 15.4502 37.6209 15.4502H45.0409C45.2809 15.4502 45.5309 15.6902 45.5309 15.9302C45.5309 16.1702 45.2909 16.4102 45.0409 16.4102Z" fill="#1D1D1D"/>
<path d="M39.4509 18.2202C39.2109 18.2202 38.9609 17.9802 38.9609 17.7402V12.6802C38.9609 12.4402 39.2009 12.2002 39.4509 12.2002C39.7009 12.2002 39.9409 12.4402 39.9409 12.6802V17.7402C40.0609 17.9802 39.8209 18.2202 39.4509 18.2202Z" fill="#1D1D1D"/>
<path d="M41.8806 18.2199C41.6406 18.2199 41.3906 17.9799 41.3906 17.7399V12.9199C41.3906 12.6799 41.6306 12.4399 41.8806 12.4399C42.1306 12.4399 42.3706 12.6799 42.3706 12.9199V17.7399C42.4906 17.9799 42.2506 18.2199 41.8806 18.2199Z" fill="#1D1D1D"/>
<path d="M15.3914 25.4204C15.2514 25.4204 15.1114 25.4204 14.9714 25.2804C14.6914 25.1404 14.6914 24.8604 14.8314 24.5804L15.9614 22.0604L12.5614 23.8804C11.9914 24.1604 11.5714 24.4404 11.0014 24.7204C10.7214 24.8604 10.4314 24.8604 10.2914 24.7204L5.47143 20.6504C5.33143 20.5104 5.19143 20.2304 5.33143 19.9504C5.47143 19.6704 5.61143 19.5304 5.90143 19.5304L8.87143 19.1104C9.01143 19.1104 9.29143 19.1104 9.44143 19.2504L10.8614 20.5104C11.7114 19.9504 12.8414 19.1104 13.9814 18.2704C17.5214 15.6104 21.6314 12.6604 23.8914 12.9404L28.2814 13.5004C28.5614 13.5004 28.7014 13.7804 28.8514 14.0604C28.8514 14.3404 28.8514 14.6204 28.5714 14.7604L21.0614 19.1104L19.2214 22.6204C19.2214 22.7604 19.0814 22.7604 19.0814 22.9004L15.8214 25.2804C15.6814 25.2804 15.5414 25.4204 15.3914 25.4204ZM7.32143 20.5104L10.7214 23.4604C11.1514 23.3204 11.4314 23.0404 11.8514 22.9004L12.5614 22.4804L16.9514 19.9604C17.2314 19.8204 17.5214 19.8204 17.6614 20.1004C17.8014 20.2404 17.9414 20.5204 17.8014 20.8004L16.8114 22.9004L17.9414 22.0604L20.0614 18.2704C20.0614 18.1304 20.2014 18.1304 20.3414 17.9904L26.4314 14.4804L23.8814 14.2004C22.0414 13.9204 17.9314 17.0004 14.8214 19.2504C13.4014 20.3704 12.1314 21.2104 11.1414 21.7704C10.8614 21.9104 10.5714 21.9104 10.4314 21.6304L8.87143 20.2304L7.31143 20.5104H7.32143Z" fill="#1D1D1D"/>
<path d="M15.3909 25.5203C15.2509 25.5203 15.0709 25.5203 14.9109 25.3603C14.7809 25.2903 14.7009 25.2003 14.6609 25.0803C14.6109 24.9303 14.6409 24.7403 14.7409 24.5303L15.7509 22.2803L12.6109 23.9603C12.3309 24.1003 12.0809 24.2403 11.8409 24.3803C11.5909 24.5203 11.3409 24.6603 11.0509 24.8103C10.7309 24.9703 10.4009 24.9603 10.2309 24.7903L5.42091 20.7303C5.22091 20.5403 5.10092 20.2103 5.25092 19.9103C5.39092 19.6203 5.56092 19.4303 5.91092 19.4303L8.87092 19.0103C9.03092 19.0103 9.35092 19.0103 9.52092 19.1803L10.8809 20.3903C11.7209 19.8303 12.8409 19.0003 13.9309 18.1903C17.4009 15.5803 21.2609 12.8203 23.5909 12.8203C23.7009 12.8203 23.8109 12.8203 23.9109 12.8403L28.3009 13.4003C28.6309 13.4003 28.8009 13.7203 28.9409 14.0103V14.0603C28.9509 14.3503 28.9509 14.6803 28.6109 14.8503L21.1309 19.1803L19.3109 22.6403C19.3109 22.7403 19.2509 22.7903 19.2109 22.8203C19.1809 22.8503 19.1709 22.8603 19.1709 22.8903V22.9403L19.1309 22.9703L15.8509 25.3703H15.8209C15.8209 25.3703 15.7109 25.4003 15.6509 25.4303C15.5709 25.4703 15.4909 25.5103 15.3909 25.5103V25.5203ZM16.1709 21.8303L14.9209 24.6203C14.8409 24.7803 14.8209 24.9103 14.8509 25.0203C14.8709 25.0903 14.9309 25.1503 15.0109 25.1903L15.0409 25.2103C15.1509 25.3203 15.2609 25.3203 15.3909 25.3203C15.4409 25.3203 15.5009 25.2903 15.5609 25.2603C15.6309 25.2303 15.7009 25.1903 15.7809 25.1803L18.9809 22.8403C19.0009 22.7603 19.0409 22.7203 19.0709 22.6803C19.1009 22.6503 19.1109 22.6403 19.1109 22.6103V22.5603L20.9809 19.0303H21.0109L28.5209 14.6703C28.7309 14.5603 28.7509 14.3803 28.7509 14.0803C28.6209 13.8303 28.5009 13.6003 28.2809 13.6003L23.8809 13.0403C21.6809 12.7603 17.6409 15.6403 14.0409 18.3503C12.9209 19.1803 11.7709 20.0303 10.9209 20.6003L10.8609 20.6403L9.39092 19.3303C9.27092 19.2103 9.01092 19.2103 8.89092 19.2103L5.93092 19.6303C5.69092 19.6303 5.58092 19.7203 5.44092 20.0003C5.32092 20.2403 5.46092 20.4803 5.56092 20.5803L10.3709 24.6403C10.4809 24.7503 10.7309 24.7503 10.9709 24.6303C11.2509 24.4903 11.5009 24.3503 11.7509 24.2103C11.9909 24.0703 12.2509 23.9303 12.5309 23.7903L16.1809 21.8303H16.1709ZM10.7009 23.5703L7.10091 20.4503L8.91092 20.1203L10.5309 21.5803C10.6509 21.8303 10.9109 21.7703 11.1009 21.6803C11.8809 21.2403 13.1609 20.4403 14.7609 19.1703L15.4109 18.7003C18.2709 16.6303 21.8009 14.0803 23.6509 14.0803C23.7409 14.0803 23.8309 14.0803 23.9109 14.1003L26.7609 14.4103L20.4109 18.0603C20.3509 18.1203 20.2909 18.1503 20.2509 18.1803C20.1709 18.2303 20.1709 18.2403 20.1709 18.2603V18.3103L18.0109 22.1303L16.5609 23.2103L17.7209 20.7503C17.8409 20.5003 17.7009 20.2703 17.6009 20.1603L17.5809 20.1303C17.4509 19.8803 17.2009 19.9403 17.0009 20.0303L11.9109 22.9703C11.6909 23.0503 11.5209 23.1503 11.3409 23.2503C11.1609 23.3603 10.9809 23.4703 10.7509 23.5403L10.7009 23.5603V23.5703ZM7.55092 20.5703L10.7509 23.3403C10.9309 23.2703 11.0809 23.1803 11.2509 23.0903C11.4309 22.9803 11.6109 22.8703 11.8409 22.8003L12.5309 22.3903L16.9209 19.8603C17.3009 19.6803 17.6009 19.7403 17.7609 20.0303C17.9409 20.2203 18.0609 20.5403 17.9109 20.8403L17.0909 22.5803L17.8909 21.9903L19.9909 18.2403C20.0009 18.1203 20.0909 18.0603 20.1709 18.0203C20.2109 17.9903 20.2609 17.9603 20.3109 17.9203L20.3309 17.9003L26.1609 14.5503L23.9109 14.3003C22.2409 14.0503 18.5309 16.7203 15.5609 18.8703L14.9209 19.3403C13.3109 20.6203 12.0209 21.4203 11.2309 21.8703C10.8609 22.0503 10.5509 21.9903 10.3909 21.7003L8.88092 20.3403L7.58092 20.5803L7.55092 20.5703Z" fill="#1D1D1D"/>
</svg>
