<svg width="50" height="51" viewBox="0 0 50 51" fill="none" xmlns="http://www.w3.org/2000/svg">
<path d="M43.4903 50.1502H6.92031C6.74031 50.1502 6.57031 49.9502 6.57031 49.7502V25.9502C6.57031 25.8502 6.66031 25.7502 6.66031 25.6502L24.9403 6.3502C25.1203 6.1502 25.2903 6.1502 25.4703 6.3502L43.7503 25.5502C43.8403 25.6502 43.8403 25.7502 43.8403 25.8502V49.6502C43.9303 49.9502 43.7503 50.1502 43.4903 50.1502ZM7.27031 49.2502H43.0403V26.1502L25.2103 7.1502L7.28031 26.1502V49.2502H7.27031Z" fill="#1D1D1D" stroke="#1D1D1D" stroke-width="0.75" stroke-miterlimit="10"/>
<path d="M48.79 32.05L25.21 7.15L1.71 32.05C1.62 32.15 1.44 32.25 1.27 32.15C1.09 32.05 1 31.95 1 31.75V26.55C1 26.45 1.09 26.35 1.09 26.25L24.85 1.15C25.03 0.95 25.2 0.95 25.38 1.15L49.23 26.25C49.32 26.35 49.32 26.45 49.32 26.55V31.75C49.32 31.95 48.79 32.05 48.79 32.05ZM25.21 6.15C25.3 6.15 25.39 6.15 25.47 6.25L48.61 30.65V26.75L25.21 2.05L1.8 26.75V30.65L24.94 6.25C25.03 6.15 25.12 6.15 25.21 6.15Z" fill="#1D1D1D" stroke="#1D1D1D" stroke-width="0.75" stroke-miterlimit="10"/>
<path d="M41.9005 19.5501C41.8105 19.5501 41.7205 19.5501 41.6305 19.4501L37.5705 15.0501C37.4805 14.9501 37.4805 14.8501 37.4805 14.7501V11.2501C37.4805 11.0501 37.6605 10.8501 37.8305 10.8501H41.8905C42.0705 10.8501 42.2405 11.0501 42.2405 11.2501V19.0501C42.2405 19.2501 42.1505 19.3501 41.9805 19.4501C42.0705 19.5501 41.9805 19.5501 41.8905 19.5501H41.9005ZM38.2805 14.5501L41.5505 18.0501V11.6501H38.2805V14.5501Z" fill="#1D1D1D" stroke="#1D1D1D" stroke-width="0.75" stroke-miterlimit="10"/>
<path d="M29.1809 27.05H22.7309C22.5509 27.05 22.3809 26.85 22.3809 26.65V21.65C22.3809 21.45 22.5609 21.25 22.7309 21.25H29.1809C29.3609 21.25 29.5309 21.45 29.5309 21.65V26.65C29.5309 26.85 29.3509 27.05 29.1809 27.05ZM23.1709 26.15H28.7309V22.05H23.0809V26.15H23.1709Z" fill="#1D1D1D" stroke="#1D1D1D" stroke-width="0.4" stroke-miterlimit="10"/>
<path d="M32.2708 27.05H30.1508C29.9708 27.05 29.8008 26.85 29.8008 26.65V21.65C29.8008 21.45 29.9808 21.25 30.1508 21.25H32.2708C32.4508 21.25 32.6208 21.45 32.6208 21.65V26.65C32.7108 26.85 32.5308 27.05 32.2708 27.05ZM30.5908 26.15H31.9108V22.05H30.5908V26.15Z" fill="#1D1D1D" stroke="#1D1D1D" stroke-width="0.4" stroke-miterlimit="10"/>
<path d="M30.2401 26.4502H29.1801C29.0001 26.4502 28.8301 26.2502 28.8301 26.0502V22.3502C28.8301 22.1502 29.0101 21.9502 29.1801 21.9502H30.2401C30.4201 21.9502 30.5901 22.1502 30.5901 22.3502V26.0502C30.5901 26.2502 30.4101 26.4502 30.2401 26.4502ZM29.5301 25.5502H29.7901V22.7502H29.5301V25.5502Z" fill="#1D1D1D" stroke="#1D1D1D" stroke-width="0.4" stroke-miterlimit="10"/>
<path d="M22.7302 26.25H18.1402C17.9602 26.25 17.8802 26.15 17.7902 26.05C17.7002 25.95 17.7002 25.75 17.7902 25.65C18.6702 23.35 20.3502 21.85 22.7402 21.25C22.8302 21.25 23.0002 21.25 23.0902 21.35C23.1802 21.45 23.2702 21.55 23.2702 21.75V25.85C23.1802 26.05 23.0102 26.25 22.7402 26.25H22.7302ZM18.7502 25.35H22.3702V22.25C20.6902 22.75 19.4502 23.85 18.7502 25.35Z" fill="#1D1D1D" stroke="#1D1D1D" stroke-width="0.4" stroke-miterlimit="10"/>
<path d="M27.3302 44.1502H24.5902C24.4102 44.1502 24.2402 43.9502 24.2402 43.7502V37.8502C24.2402 37.6502 24.4202 37.4502 24.5902 37.4502H27.3302C27.5102 37.4502 27.6802 37.6502 27.6802 37.8502V43.7502C27.6802 43.9502 27.5002 44.1502 27.3302 44.1502ZM24.9402 43.2502H26.8802V38.2502H24.9402V43.2502Z" fill="#1D1D1D" stroke="#1D1D1D" stroke-width="0.4" stroke-miterlimit="10"/>
<path d="M27.3302 35.15H24.5902C24.4102 35.15 24.2402 34.95 24.2402 34.75V26.65C24.2402 26.45 24.4202 26.25 24.5902 26.25H27.3302C27.5102 26.25 27.6802 26.45 27.6802 26.65V34.75C27.6802 34.95 27.5002 35.15 27.3302 35.15ZM24.9402 34.25H26.8802V27.05H24.9402V34.25Z" fill="#1D1D1D" stroke="#1D1D1D" stroke-width="0.4" stroke-miterlimit="10"/>
<path d="M25.9098 25.6499C25.1998 25.6499 24.5898 24.9499 24.5898 24.1499C24.5898 23.3499 25.2098 22.6499 25.9098 22.6499C26.6098 22.6499 27.2298 23.3499 27.2298 24.1499C27.2298 24.9499 26.6998 25.6499 25.9098 25.6499ZM25.9098 23.5499C25.6498 23.5499 25.3798 23.8499 25.3798 24.1499C25.3798 24.4499 25.6498 24.7499 25.9098 24.7499C26.1698 24.7499 26.4398 24.4499 26.4398 24.1499C26.4398 23.7499 26.2598 23.5499 25.9098 23.5499Z" fill="#1D1D1D" stroke="#1D1D1D" stroke-width="0.4" stroke-miterlimit="10"/>
<path d="M16.9907 40.0502C15.5807 40.0502 14.3407 39.0502 13.8107 37.5502C13.7207 37.4502 13.8107 37.2502 13.9007 37.1502C13.9907 37.0502 14.0807 36.9502 14.2507 36.9502H17.4307V35.5502H14.2507C14.1607 35.5502 13.9907 35.4502 13.9007 35.3502C13.8107 35.2502 13.8107 35.0502 13.8107 34.9502C14.2507 33.4502 15.5807 32.4502 16.9907 32.4502C18.8507 32.4502 20.3507 34.1502 20.3507 36.2502C20.4407 38.3502 18.8507 40.0502 16.9907 40.0502ZM14.8707 37.8502C15.3107 38.6502 16.1907 39.1502 16.9907 39.1502C18.4007 39.1502 19.5507 37.8502 19.5507 36.2502C19.5507 34.6502 18.4007 33.3502 16.9907 33.3502C16.1107 33.3502 15.3107 33.8502 14.8707 34.6502H17.7907C17.9707 34.6502 18.1407 34.8502 18.1407 35.0502V37.3502C18.1407 37.5502 17.9607 37.7502 17.7907 37.7502H14.8707V37.8502Z" fill="#1D1D1D" stroke="#1D1D1D" stroke-width="0.4" stroke-miterlimit="10"/>
<path d="M33.4205 40.0502C31.5705 40.0502 30.0605 38.3502 30.0605 36.2502C30.0605 34.1502 31.5605 32.4502 33.4205 32.4502C34.8305 32.4502 36.0705 33.4502 36.6005 34.9502C36.6905 35.0502 36.6005 35.2502 36.5105 35.3502C36.4205 35.4502 36.3305 35.5502 36.1605 35.5502H32.9805V36.9502H36.1605C36.2505 36.9502 36.4305 37.0502 36.5105 37.1502C36.5905 37.2502 36.6005 37.4502 36.6005 37.5502C36.0705 39.0502 34.8305 40.0502 33.4205 40.0502ZM33.4205 33.3502C32.0105 33.3502 30.8605 34.6502 30.8605 36.2502C30.8605 37.8502 32.0105 39.1502 33.4205 39.1502C34.3005 39.1502 35.1005 38.6502 35.5405 37.8502H32.6305C32.4505 37.8502 32.2805 37.6502 32.2805 37.4502V35.1502C32.2805 34.9502 32.4605 34.7502 32.6305 34.7502H35.5405C35.1005 33.8502 34.3005 33.3502 33.4205 33.3502Z" fill="#1D1D1D" stroke="#1D1D1D" stroke-width="0.4" stroke-miterlimit="10"/>
<path d="M30.7702 38.2502H19.6402C19.4602 38.2502 19.3802 38.1502 19.2902 38.0502C19.2002 37.9502 19.2002 37.7502 19.2902 37.6502C19.4702 37.2502 19.5502 36.7502 19.5502 36.3502C19.5502 35.8502 19.4602 35.4502 19.2902 35.0502C19.2002 34.9502 19.2002 34.7502 19.2902 34.6502C19.3802 34.5502 19.4702 34.4502 19.6402 34.4502H30.6802C30.8602 34.4502 30.9502 34.5502 31.0302 34.6502C31.1202 34.7502 31.1202 34.9502 31.0302 35.0502C30.8502 35.4502 30.7702 35.9502 30.7702 36.3502C30.7702 36.8502 30.8602 37.2502 31.0302 37.6502C31.1202 37.7502 31.1202 37.9502 31.0302 38.0502C30.9402 38.1502 30.8502 38.2502 30.7702 38.2502ZM20.2602 37.3502H30.1502C30.0602 36.9502 29.9702 36.6502 29.9702 36.2502C29.9702 35.8502 30.0602 35.5502 30.1502 35.1502H20.2602C20.3502 35.5502 20.4402 35.8502 20.4402 36.2502C20.4402 36.6502 20.3502 36.9502 20.2602 37.3502Z" fill="#1D1D1D" stroke="#1D1D1D" stroke-width="0.4" stroke-miterlimit="10"/>
</svg>
