<svg width="62" height="41" viewBox="0 0 62 41" fill="none" xmlns="http://www.w3.org/2000/svg">
<g clip-path="url(#clip0_90_518)">
<path d="M0.309227 35.8999C0.510224 36.1002 0.788529 36.2234 1.06683 36.2234H18.3062C18.1052 37.3636 17.9661 38.5808 17.9506 39.9213C17.9506 40.2141 18.0589 40.4914 18.2599 40.6917C18.4608 40.892 18.7392 41.0153 19.0329 41.0153H42.797C43.3845 41.0153 43.8484 40.553 43.8638 39.9829C43.8638 39.8289 43.9102 38.3189 43.5855 36.2389H60.9332C61.5207 36.2389 61.9845 35.7766 62 35.2065C62 34.8368 62.2319 26.1622 56.7741 21.1855C56.3875 20.8311 55.8155 20.8157 55.398 21.1239C55.3362 21.1701 48.9815 25.9157 43.0908 21.1239C42.6888 20.8003 42.1012 20.8003 41.7147 21.1393C41.591 21.2471 39.8594 22.7879 38.3441 25.7616C38.004 25.6075 37.5865 25.6537 37.2618 25.8849C36.999 26.0852 30.8145 30.6613 24.9392 25.8849C24.6454 25.6537 24.2743 25.5921 23.9342 25.7C23.1766 24.0821 22.1252 22.4952 20.6718 21.1701C20.2853 20.8157 19.7132 20.8003 19.2958 21.1085C19.2339 21.1547 12.8793 25.9003 6.98853 21.1085C6.58653 20.7849 5.999 20.7849 5.61247 21.1239C5.38055 21.3242 0.139152 25.9773 0 35.1295C0 35.4222 0.108229 35.6842 0.309227 35.8999ZM42.5187 23.358C48.1312 27.2561 53.8673 24.5444 55.9237 23.3118C59.1087 26.7323 59.7272 31.8939 59.8354 34.0664H43.1526C42.6115 31.8785 41.6529 29.4286 39.9676 27.3486C40.8643 25.4072 41.8848 24.0667 42.5187 23.358ZM24.3671 28.1344C29.9796 32.0325 35.7157 29.3208 37.7721 28.0882C40.9571 31.5087 41.5756 36.6703 41.6838 38.8428H20.1307C20.5172 33.0957 23.1611 29.4903 24.3671 28.119V28.1344ZM6.41646 23.358C12.0289 27.2561 17.7651 24.5444 19.8214 23.3118C20.9192 24.4828 21.7077 25.8694 22.2798 27.2716C21.213 28.5812 19.7287 30.8461 18.801 34.0664H2.19551C2.56658 28.3193 5.22593 24.7139 6.43192 23.3426L6.41646 23.358Z" fill="#2D2D2D"/>
<path d="M12.9569 20.2458C15.6627 20.2458 18.2138 19.198 20.131 17.2721C20.3938 17.0101 20.6412 16.7328 20.8731 16.4401C21.6153 21.2935 25.8208 25.0222 30.9076 25.0222C33.6133 25.0222 36.1644 23.9744 38.0816 22.0485C39.6896 20.4461 40.6791 18.4123 40.9574 16.2244C42.8128 18.6588 45.735 20.2458 49.0437 20.2458C51.7495 20.2458 54.3006 19.198 56.2178 17.2721C58.135 15.3615 59.2018 12.8192 59.2018 10.1229C59.2018 4.54528 54.6407 0 49.0437 0C46.338 0 43.7869 1.04773 41.8542 2.97369C40.2462 4.5761 39.2567 6.60992 38.9784 8.79782C37.123 6.3634 34.1854 4.7764 30.8921 4.7764C28.1864 4.7764 25.6352 5.82413 23.7026 7.75009C23.4397 8.01203 23.1923 8.28936 22.9604 8.58211C22.2028 3.72867 18.0128 0 12.9415 0C10.2357 0 7.68462 1.04773 5.75195 2.97369C3.83474 4.88425 2.76791 7.42653 2.78337 10.1229C2.78337 15.7005 7.34447 20.2458 12.9415 20.2458H12.9569ZM43.3849 4.48365C44.9001 2.97369 46.91 2.14168 49.0437 2.14168C53.4657 2.14168 57.0527 5.71627 57.0527 10.1229C57.0527 12.2492 56.2178 14.2522 54.7026 15.7621C53.1874 17.2721 51.1774 18.1041 49.0437 18.1041C44.6218 18.1041 41.0347 14.5295 41.0347 10.1229C41.0347 7.99662 41.8697 5.99361 43.3849 4.48365ZM25.2332 9.26005C26.7485 7.75009 28.7584 6.91808 30.8921 6.91808C35.314 6.91808 38.9011 10.4927 38.9011 14.8993C38.9011 17.0256 38.0662 19.0286 36.5509 20.5385C35.0357 22.0485 33.0258 22.8805 30.8921 22.8805C26.4701 22.8805 22.8831 19.3059 22.8831 14.8993C22.8831 12.773 23.718 10.77 25.2332 9.26005ZM7.28262 4.48365C8.79783 2.97369 10.8078 2.14168 12.9415 2.14168C17.3634 2.14168 20.9505 5.71627 20.9505 10.1229C20.9505 12.2492 20.1155 14.2522 18.6003 15.7621C17.0851 17.2721 15.0751 18.1041 12.9415 18.1041C8.51953 18.1041 4.9325 14.5295 4.9325 10.1229C4.9325 7.99662 5.76741 5.99361 7.28262 4.48365Z" fill="#2D2D2D"/>
</g>
<defs>
<clipPath id="clip0_90_518">
<rect width="62" height="41" fill="white"/>
</clipPath>
</defs>
</svg>
