<svg width="50" height="65" viewBox="0 0 50 65" fill="none" xmlns="http://www.w3.org/2000/svg">
<g clip-path="url(#clip0_90_529)">
<path d="M1.25799 30.8013C0.644778 30.7534 0.0944632 31.2001 0.0158469 31.8062C-0.0627695 32.4123 0.330312 33.0025 0.927797 33.1301C5.26742 34.0872 9.18252 34.5178 12.736 34.5178C29.5756 34.5178 38.302 24.7399 44.497 14.3559L48.2391 16.6369C48.6322 16.8761 49.1196 16.8602 49.497 16.605C49.8743 16.3498 50.063 15.8872 49.9844 15.4246L47.5787 0.973064C47.5159 0.622143 47.3114 0.303125 46.9813 0.127665C46.6668 -0.0477954 46.2894 -0.0637463 45.9592 0.079812L33.2077 5.56693C32.7831 5.74239 32.5001 6.15711 32.5001 6.61969C32.5001 7.08227 32.7517 7.51294 33.1605 7.7203L37.0127 9.61846C26.7454 32.5559 2.31144 30.897 1.25799 30.8013ZM39.607 9.53871C39.8429 8.96447 39.607 8.29454 39.041 8.00742L36.4938 6.7473L45.5347 2.85527L47.28 13.3031L44.7014 11.7399C44.4341 11.5804 44.1196 11.5326 43.8209 11.6123C43.5221 11.6921 43.2548 11.8835 43.0976 12.1547C36.8397 22.9375 28.6636 32.524 11.9655 32.189C20.975 30.243 33.2863 24.7559 39.607 9.55466V9.53871Z" fill="#2D2D2D"/>
<path d="M5.01539 45.9229C2.76696 45.9229 0.990234 48.156 0.990234 51.0112V59.9278C0.990234 62.783 2.75124 65.0161 5.01539 65.0161H10.5185C12.767 65.0161 14.5437 62.783 14.5437 59.9278V51.0112C14.5437 48.156 12.7827 45.9229 10.5185 45.9229H5.01539ZM12.2009 51.0112V59.9278C12.2009 61.3793 11.4148 62.6394 10.5185 62.6394H5.01539C4.11916 62.6394 3.333 61.3633 3.333 59.9278V51.0112C3.333 49.5597 4.11916 48.2995 5.01539 48.2995H10.5185C11.4148 48.2995 12.2009 49.5756 12.2009 51.0112Z" fill="#2D2D2D"/>
<path d="M21.6189 37.5645C19.3705 37.5645 17.5938 39.7976 17.5938 42.6528V59.9117C17.5938 62.7669 19.3548 65 21.6189 65H27.1221C29.3705 65 31.1472 62.7669 31.1472 59.9117V42.6528C31.1472 39.7976 29.3862 37.5645 27.1221 37.5645H21.6189ZM28.8044 42.6528V59.9117C28.8044 61.3632 28.0183 62.6233 27.1221 62.6233H21.6189C20.7227 62.6233 19.9365 61.3473 19.9365 59.9117V42.6528C19.9365 41.2013 20.7227 39.9411 21.6189 39.9411H27.1221C28.0183 39.9411 28.8044 41.2013 28.8044 42.6528Z" fill="#2D2D2D"/>
<path d="M45.3779 27.5474H39.8748C37.6263 27.5474 35.8496 29.7805 35.8496 32.6357V59.9277C35.8496 62.7829 37.6106 65.0161 39.8748 65.0161H45.3779C47.6263 65.0161 49.4031 62.7829 49.4031 59.9277V32.6357C49.4031 29.7805 47.6421 27.5474 45.3779 27.5474ZM47.0603 59.9277C47.0603 61.3793 46.2741 62.6394 45.3779 62.6394H39.8748C38.9785 62.6394 38.1924 61.3633 38.1924 59.9277V32.6357C38.1924 31.1842 38.9785 29.9241 39.8748 29.9241H45.3779C46.2741 29.9241 47.0603 31.2001 47.0603 32.6357V59.9277Z" fill="#2D2D2D"/>
</g>
<defs>
<clipPath id="clip0_90_529">
<rect width="50" height="65" fill="white"/>
</clipPath>
</defs>
</svg>
