<svg width="34" height="44" viewBox="0 0 34 44" fill="none" xmlns="http://www.w3.org/2000/svg">
<g clip-path="url(#clip0_100_957)">
<path d="M0.8329 20.3927C0.426914 20.361 0.0625681 20.6567 0.0105187 21.058C-0.0415308 21.4593 0.218716 21.85 0.614292 21.9345C3.48742 22.5681 6.07948 22.8533 8.43212 22.8533C19.5811 22.8533 25.3586 16.3796 29.4601 9.50467L31.9376 11.0148C32.1979 11.1732 32.5206 11.1627 32.7704 10.9937C33.0203 10.8247 33.1452 10.5185 33.0931 10.2122L31.5004 0.644319C31.4588 0.411986 31.3235 0.200774 31.1049 0.0846071C30.8967 -0.0315596 30.6468 -0.0421202 30.4282 0.0529252L21.9858 3.68577C21.7047 3.80194 21.5173 4.07652 21.5173 4.38277C21.5173 4.68903 21.6839 4.97417 21.9546 5.11146L24.505 6.36817C17.7073 21.5543 1.53036 20.456 0.8329 20.3927ZM26.2226 6.31537C26.3788 5.93518 26.2226 5.49164 25.8479 5.30155L24.1615 4.46726L30.1471 1.89047L31.3026 8.80767L29.5954 7.77273C29.4185 7.66712 29.2103 7.63544 29.0125 7.68825C28.8147 7.74105 28.6377 7.86778 28.5336 8.04731C24.3905 15.1863 18.9773 21.5332 7.92203 21.3114C13.8869 20.023 22.0378 16.3902 26.2226 6.32593V6.31537Z" fill="white"/>
<path d="M3.32118 30.4043C1.83257 30.4043 0.65625 31.8828 0.65625 33.7731V39.6765C0.65625 41.5669 1.82216 43.0453 3.32118 43.0453H6.96464C8.45326 43.0453 9.62957 41.5669 9.62957 39.6765V33.7731C9.62957 31.8828 8.46367 30.4043 6.96464 30.4043H3.32118ZM8.0785 33.7731V39.6765C8.0785 40.6375 7.55801 41.4718 6.96464 41.4718H3.32118C2.72782 41.4718 2.20732 40.627 2.20732 39.6765V33.7731C2.20732 32.8121 2.72782 31.9778 3.32118 31.9778H6.96464C7.55801 31.9778 8.0785 32.8227 8.0785 33.7731Z" fill="white"/>
<path d="M14.3134 24.8701C12.8248 24.8701 11.6484 26.3486 11.6484 28.239V39.6655C11.6484 41.5559 12.8143 43.0344 14.3134 43.0344H17.9568C19.4454 43.0344 20.6218 41.5559 20.6218 39.6655V28.239C20.6218 26.3486 19.4559 24.8701 17.9568 24.8701H14.3134ZM19.0707 28.239V39.6655C19.0707 40.6265 18.5502 41.4608 17.9568 41.4608H14.3134C13.72 41.4608 13.1995 40.616 13.1995 39.6655V28.239C13.1995 27.2779 13.72 26.4436 14.3134 26.4436H17.9568C18.5502 26.4436 19.0707 27.2779 19.0707 28.239Z" fill="white"/>
<path d="M30.0428 18.2383H26.3993C24.9107 18.2383 23.7344 19.7168 23.7344 21.6071V39.6763C23.7344 41.5667 24.9003 43.0451 26.3993 43.0451H30.0428C31.5314 43.0451 32.7077 41.5667 32.7077 39.6763V21.6071C32.7077 19.7168 31.5418 18.2383 30.0428 18.2383ZM31.1566 39.6763C31.1566 40.6373 30.6361 41.4716 30.0428 41.4716H26.3993C25.8059 41.4716 25.2855 40.6268 25.2855 39.6763V21.6071C25.2855 20.6461 25.8059 19.8118 26.3993 19.8118H30.0428C30.6361 19.8118 31.1566 20.6567 31.1566 21.6071V39.6763Z" fill="white"/>
</g>
<defs>
<clipPath id="clip0_100_957">
<rect width="33.1034" height="43.0345" fill="white"/>
</clipPath>
</defs>
</svg>
