<svg width="34" height="44" viewBox="0 0 34 44" fill="none" xmlns="http://www.w3.org/2000/svg">
<g clip-path="url(#clip0_100_951)">
<path d="M14.5319 8.56003V4.69065C14.5319 4.05209 14.2623 3.53516 13.9329 3.53516C13.6035 3.53516 13.334 4.05209 13.334 4.69065V5.42803C14.2923 7.19168 14.4345 9.02374 13.5436 10.4149C13.4837 10.5137 13.4089 10.6049 13.334 10.6886V17.6519H14.5319V12.1709C14.5319 12.1709 14.5244 12.1557 14.5169 12.1405C14.0902 11.0307 14.0976 9.80674 14.5319 8.56003Z" fill="white"/>
<path d="M33.4594 4.60667C32.1192 1.13259 26.7811 -9.13143e-05 21.5628 2.08284C19.0847 3.07108 16.9809 4.62948 15.6483 6.46154C15.1466 7.15332 14.7723 7.8603 14.5327 8.55967C14.106 9.80639 14.091 11.0303 14.5178 12.1402C14.5178 12.1478 14.5252 12.163 14.5327 12.1706C15.4311 14.4436 18.0515 15.7055 21.2259 15.7055C22.8655 15.7055 24.6474 15.371 26.4218 14.664C31.6401 12.5887 34.7995 8.07315 33.4669 4.59907L33.4594 4.60667ZM16.6814 7.23694C17.8718 5.59492 19.766 4.19617 22.027 3.29914C23.6816 2.63778 25.3362 2.3261 26.8261 2.3261C29.2967 2.3261 31.3107 3.18511 32.1192 4.77392L22.4762 8.75732L23.2474 5.64814C23.3372 5.29845 23.1276 4.94116 22.7832 4.85754C22.4388 4.76631 22.0869 4.97917 21.9971 5.32886L20.9938 9.37308L15.6782 11.5624C15.229 10.2777 15.5809 8.74972 16.6814 7.23694ZM25.9426 13.4477C22.0046 15.0137 18.0515 14.626 16.3445 12.6951L26.0549 8.6813L30.8839 9.37308C30.8839 9.37308 30.9438 9.37308 30.9738 9.37308C31.2882 9.37308 31.5652 9.13742 31.6101 8.81054C31.6625 8.45325 31.4155 8.11876 31.0636 8.07315L28.4282 7.69305L32.4636 6.02823C32.6808 8.6737 29.993 11.8209 25.9351 13.4325L25.9426 13.4477Z" fill="white"/>
<path d="M8.36966 17.6516C5.10541 17.6516 2.45508 20.2211 2.45508 23.3759V37.3102C2.45508 40.465 5.10541 43.0345 8.36966 43.0345H21.3293C24.5936 43.0345 27.2439 40.465 27.2439 37.3102V33.0531V27.8914V23.3683C27.2439 20.2135 24.5936 17.644 21.3293 17.644H8.36966V17.6516ZM25.9562 37.3102C25.9562 39.7428 23.8823 41.7269 21.3293 41.7269H8.36966C5.81666 41.7269 3.74281 39.7428 3.74281 37.3102V33.7069H25.9562V37.3102ZM25.9562 32.3994H3.74281V28.5528H25.9562V32.3994ZM21.3293 18.9592C23.8823 18.9592 25.9562 20.9433 25.9562 23.3759V27.2453H3.74281V23.3759C3.74281 20.9433 5.81666 18.9592 8.36966 18.9592H21.3293Z" fill="white"/>
<path d="M13.3337 5.42775C12.6075 4.09741 11.4246 2.80508 9.86731 1.77122C8.18278 0.661342 6.31856 0.030383 4.61157 -2.46866e-05C3.21902 -0.0228305 2.05857 0.364868 1.23502 1.08705C1.21256 1.10986 1.1901 1.13266 1.16764 1.15547C0.950519 1.36072 0.755862 1.58118 0.591152 1.83204C-0.973592 4.27226 0.636073 8.06561 4.26718 10.4754C5.95171 11.5929 7.81593 12.2239 9.52292 12.2467C9.56035 12.2467 9.59779 12.2467 9.63522 12.2467C11.2449 12.2467 12.5401 11.6993 13.3262 10.6883C13.4011 10.5971 13.4685 10.5058 13.5358 10.4146C14.4268 9.02346 14.2845 7.19139 13.3262 5.42775H13.3337ZM9.54538 10.9391C8.08545 10.9163 6.46081 10.3614 4.97842 9.37315C2.05108 7.44226 0.538744 4.31027 1.67674 2.54662C1.6992 2.50861 1.72915 2.4858 1.75161 2.44779L12.3679 9.82926C11.8139 10.559 10.8256 10.9619 9.55287 10.9391H9.54538ZM12.8321 8.57494L11.0802 7.35864C11.0802 7.29022 11.0652 7.2294 11.0427 7.16099L9.93469 4.34067C9.79993 4.00619 9.42559 3.83895 9.09617 3.97578C8.76675 4.11262 8.60204 4.49271 8.7368 4.8272L9.22344 6.06631L2.82222 1.61918C3.29389 1.41393 3.8554 1.30751 4.49927 1.30751C4.52921 1.30751 4.55916 1.30751 4.58911 1.30751C6.04904 1.33031 7.67368 1.88525 9.15606 2.8659C11.5294 4.4395 12.9743 6.79609 12.8246 8.56734L12.8321 8.57494Z" fill="white"/>
</g>
<defs>
<clipPath id="clip0_100_951">
<rect width="33.7655" height="43.0345" fill="white"/>
</clipPath>
</defs>
</svg>
