<svg width="51" height="65" viewBox="0 0 51 65" fill="none" xmlns="http://www.w3.org/2000/svg">
<g clip-path="url(#clip0_90_534)">
<path d="M21.9499 12.929V7.08463C21.9499 6.12014 21.5428 5.33936 21.0453 5.33936C20.5477 5.33936 20.1406 6.12014 20.1406 7.08463V8.19839C21.5881 10.8622 21.8029 13.6294 20.4573 15.7306C20.3668 15.8799 20.2537 16.0177 20.1406 16.144V26.6616H21.9499V18.383C21.9499 18.383 21.9386 18.36 21.9273 18.3371C21.2828 16.6607 21.2941 14.8121 21.9499 12.929Z" fill="#2D2D2D"/>
<path d="M50.5371 6.95792C48.5129 1.71061 40.4502 -0.000219464 32.5684 3.14587C28.8253 4.63854 25.6477 6.99236 23.6349 9.75954C22.8772 10.8044 22.3118 11.8722 21.95 12.9286C21.3054 14.8117 21.2828 16.6603 21.9273 18.3366C21.9273 18.3481 21.9387 18.3711 21.95 18.3826C23.3069 21.8157 27.2648 23.7217 32.0595 23.7217C34.536 23.7217 37.2273 23.2165 39.9074 22.1487C47.7892 19.0141 52.5613 12.1937 50.5484 6.94643L50.5371 6.95792ZM25.1954 10.9307C26.9934 8.45058 29.8544 6.33788 33.2695 4.983C35.7686 3.98406 38.2677 3.51329 40.518 3.51329C44.2497 3.51329 47.2917 4.81077 48.5129 7.21052L33.948 13.2271L35.1127 8.53096C35.2484 8.00278 34.9318 7.46313 34.4116 7.33682C33.8914 7.19904 33.3599 7.52054 33.2242 8.04871L31.7089 14.1572L23.6801 17.464C23.0016 15.5235 23.5331 13.2156 25.1954 10.9307ZM39.1837 20.3116C33.2356 22.6769 27.2648 22.0913 24.6865 19.1748L39.3533 13.1123L46.6471 14.1572C46.6471 14.1572 46.7375 14.1572 46.7828 14.1572C47.2577 14.1572 47.6761 13.8012 47.744 13.3075C47.8231 12.7678 47.45 12.2626 46.9185 12.1937L42.938 11.6196L49.0331 9.10506C49.3611 13.1008 45.3014 17.8544 39.1724 20.2886L39.1837 20.3116Z" fill="#2D2D2D"/>
<path d="M12.6425 26.6614C7.71209 26.6614 3.70898 30.5423 3.70898 35.3074V56.354C3.70898 61.1191 7.71209 65 12.6425 65H32.217C37.1473 65 41.1504 61.1191 41.1504 56.354V49.9241V42.1277V35.2959C41.1504 30.5308 37.1473 26.6499 32.217 26.6499H12.6425V26.6614ZM39.2054 56.354C39.2054 60.0283 36.0731 63.0251 32.217 63.0251H12.6425C8.78637 63.0251 5.654 60.0283 5.654 56.354V50.9115H39.2054V56.354ZM39.2054 48.9366H5.654V43.1267H39.2054V48.9366ZM32.217 28.6363C36.0731 28.6363 39.2054 31.6331 39.2054 35.3074V41.1518H5.654V35.3074C5.654 31.6331 8.78637 28.6363 12.6425 28.6363H32.217Z" fill="#2D2D2D"/>
<path d="M20.1405 8.19817C19.0436 6.18881 17.2569 4.23686 14.9048 2.6753C12.3604 0.998913 9.5447 0.0459012 6.96643 -2.71145e-05C4.8631 -0.0344733 3.11033 0.551112 1.86643 1.64191C1.8325 1.67636 1.79858 1.7108 1.76465 1.74525C1.43672 2.05526 1.1427 2.38824 0.893923 2.76715C-1.46949 6.4529 0.961772 12.1824 6.44625 15.8223C8.9906 17.5101 11.8063 18.4631 14.3846 18.4976C14.4412 18.4976 14.4977 18.4976 14.5542 18.4976C16.9855 18.4976 18.9418 17.6709 20.1292 16.1438C20.2423 16.006 20.344 15.8682 20.4458 15.7304C21.7915 13.6292 21.5766 10.862 20.1292 8.19817H20.1405ZM14.4185 16.5227C12.2134 16.4882 9.75955 15.65 7.52053 14.1574C3.09902 11.2409 0.814766 6.51031 2.53361 3.84647C2.56754 3.78906 2.61277 3.75461 2.64669 3.6972L18.6817 14.8463C17.8449 15.9486 16.3522 16.5571 14.4298 16.5227H14.4185ZM19.3828 12.9517L16.7367 11.1146C16.7367 11.0113 16.7141 10.9194 16.6802 10.8161L15.0066 6.55623C14.803 6.05102 14.2376 5.79842 13.74 6.0051C13.2425 6.21177 12.9937 6.78588 13.1972 7.29109L13.9323 9.16266L4.26377 2.44565C4.97618 2.13564 5.8243 1.97489 6.79681 1.97489C6.84204 1.97489 6.88727 1.97489 6.9325 1.97489C9.1376 2.00934 11.5915 2.84753 13.8305 4.32871C17.4152 6.7055 19.5977 10.2649 19.3715 12.9403L19.3828 12.9517Z" fill="#2D2D2D"/>
</g>
<defs>
<clipPath id="clip0_90_534">
<rect width="51" height="65" fill="white"/>
</clipPath>
</defs>
</svg>
