<svg width="42" height="28" viewBox="0 0 42 28" fill="none" xmlns="http://www.w3.org/2000/svg">
<g clip-path="url(#clip0_100_963)">
<path d="M0.20473 23.7683C0.337804 23.9009 0.52206 23.9825 0.706317 23.9825H12.12C11.9869 24.7374 11.8948 25.5433 11.8846 26.4307C11.8846 26.6246 11.9562 26.8082 12.0893 26.9408C12.2224 27.0734 12.4066 27.155 12.6011 27.155H28.3346C28.7236 27.155 29.0307 26.849 29.0409 26.4715C29.0409 26.3695 29.0716 25.3698 28.8566 23.9927H40.342C40.7309 23.9927 41.038 23.6867 41.0483 23.3092C41.0483 23.0644 41.2018 17.3213 37.5883 14.0263C37.3324 13.7917 36.9537 13.7815 36.6773 13.9855C36.6364 14.0161 32.4292 17.158 28.5291 13.9855C28.2629 13.7713 27.8739 13.7713 27.618 13.9957C27.5361 14.0671 26.3896 15.0872 25.3865 17.056C25.1613 16.954 24.8849 16.9846 24.6699 17.1376C24.4959 17.2702 20.4013 20.2999 16.5114 17.1376C16.3169 16.9846 16.0713 16.9438 15.8461 17.0152C15.3445 15.9441 14.6484 14.8934 13.6862 14.0161C13.4303 13.7815 13.0515 13.7713 12.7751 13.9753C12.7342 14.0059 8.52699 17.1478 4.62689 13.9753C4.36074 13.7611 3.97175 13.7611 3.71584 13.9855C3.56229 14.1181 0.0921283 17.1988 0 23.2582C0 23.452 0.0716554 23.6255 0.20473 23.7683ZM28.1503 15.4647C31.8662 18.0455 35.6639 16.2502 37.0253 15.4341C39.1341 17.6987 39.5435 21.116 39.6152 22.5544H28.57C28.2117 21.1058 27.5771 19.4839 26.4613 18.1067C27.055 16.8214 27.7306 15.9339 28.1503 15.4647ZM16.1327 18.627C19.8485 21.2078 23.6463 19.4125 25.0077 18.5964C27.1164 20.861 27.5259 24.2783 27.5975 25.7167H13.3279C13.5838 21.9117 15.3342 19.5247 16.1327 18.6168V18.627ZM4.24814 15.4647C7.96398 18.0455 11.7617 16.2502 13.1232 15.4341C13.85 16.2093 14.372 17.1274 14.7508 18.0557C14.0444 18.9228 13.0617 20.4224 12.4476 22.5544H1.45358C1.69926 18.7494 3.45993 16.3624 4.25837 15.4545L4.24814 15.4647Z" fill="white"/>
<path d="M8.57751 13.4041C10.3689 13.4041 12.0579 12.7104 13.3272 11.4353C13.5013 11.2619 13.665 11.0783 13.8186 10.8845C14.3099 14.0978 17.0943 16.5664 20.4621 16.5664C22.2534 16.5664 23.9425 15.8727 25.2118 14.5976C26.2764 13.5367 26.9315 12.1902 27.1158 10.7416C28.3441 12.3534 30.2788 13.4041 32.4694 13.4041C34.2608 13.4041 35.9498 12.7104 37.2192 11.4353C38.4885 10.1704 39.1948 8.48722 39.1948 6.70205C39.1948 3.00929 36.175 0 32.4694 0C30.6781 0 28.989 0.693667 27.7095 1.96879C26.6449 3.02969 25.9898 4.37622 25.8055 5.82476C24.5771 4.21301 22.6322 3.16231 20.4518 3.16231C18.6604 3.16231 16.9714 3.85597 15.6919 5.1311C15.5178 5.30451 15.3541 5.48813 15.2005 5.68195C14.6989 2.46864 11.9248 0 8.56727 0C6.77589 0 5.08687 0.693667 3.80731 1.96879C2.53799 3.23371 1.83167 4.91688 1.84191 6.70205C1.84191 10.3948 4.86167 13.4041 8.56727 13.4041H8.57751ZM28.7229 2.96849C29.7261 1.96879 31.0568 1.41794 32.4694 1.41794C35.3971 1.41794 37.7719 3.78457 37.7719 6.70205C37.7719 8.10979 37.2192 9.43591 36.216 10.4356C35.2128 11.4353 33.8821 11.9862 32.4694 11.9862C29.5418 11.9862 27.167 9.61953 27.167 6.70205C27.167 5.29431 27.7197 3.96818 28.7229 2.96849ZM16.7053 6.13079C17.7084 5.1311 19.0392 4.58024 20.4518 4.58024C23.3795 4.58024 25.7543 6.94687 25.7543 9.86435C25.7543 11.2721 25.2015 12.5982 24.1984 13.5979C23.1952 14.5976 21.8645 15.1485 20.4518 15.1485C17.5242 15.1485 15.1493 12.7818 15.1493 9.86435C15.1493 8.45662 15.7021 7.13049 16.7053 6.13079ZM4.82072 2.96849C5.8239 1.96879 7.15464 1.41794 8.56727 1.41794C11.4949 1.41794 13.8698 3.78457 13.8698 6.70205C13.8698 8.10979 13.317 9.43591 12.3138 10.4356C11.3106 11.4353 9.97991 11.9862 8.56727 11.9862C5.63964 11.9862 3.26478 9.61953 3.26478 6.70205C3.26478 5.29431 3.81755 3.96818 4.82072 2.96849Z" fill="white"/>
</g>
<defs>
<clipPath id="clip0_100_963">
<rect width="41.0483" height="27.1448" fill="white"/>
</clipPath>
</defs>
</svg>
