<svg xmlns="http://www.w3.org/2000/svg" xmlns:xlink="http://www.w3.org/1999/xlink" width="269.76" height="49.98" viewBox="0 0 269.76 49.98">
  <defs>
    <clipPath id="clip-path">
      <rect id="사각형_475" data-name="사각형 475" width="269.76" height="49.98" transform="translate(3074 6732)" fill="#fff" stroke="#707070" stroke-width="1"/>
    </clipPath>
    <clipPath id="clip-path-2">
      <rect id="사각형_474" data-name="사각형 474" width="269.764" height="49.981" transform="translate(0 0)" fill="none"/>
    </clipPath>
  </defs>
  <g id="logo_white" transform="translate(-3074 -6732)" clip-path="url(#clip-path)">
    <g id="그룹_326" data-name="그룹 326" transform="translate(3074 6732)">
      <g id="그룹_325" data-name="그룹 325" clip-path="url(#clip-path-2)">
        <path id="패스_3057" data-name="패스 3057" d="M17.771,49.98a5.529,5.529,0,0,1-4.9-2.8l-10.7-19.57.859-.511a33.971,33.971,0,0,0,2.323,3.147,6.663,6.663,0,0,0,8.933,1.019c4.951-3.6,7.505-6.626,7.39-8.756l-.121-2.226,1.282,2.372a3.221,3.221,0,0,0,.144.324l1.083,1.915,5.389,9.853L22.667,47.179a5.531,5.531,0,0,1-4.9,2.8M5.688,31.944,13.752,46.7a4.473,4.473,0,0,0,4.019,2.281A4.472,4.472,0,0,0,21.789,46.7l6.532-11.953L22.439,24.037c-.766,2.246-3.3,4.94-7.556,8.036a7.734,7.734,0,0,1-9.2-.129" fill="#fff"/>
        <path id="패스_3058" data-name="패스 3058" d="M2.195,27.636A19.59,19.59,0,0,1,.868,25.192l.9-.443,1.293,2.382Z" fill="#fff"/>
        <path id="패스_3059" data-name="패스 3059" d="M10.377,33.525A7.5,7.5,0,0,1,4.59,30.882,34.8,34.8,0,0,1,2.2,27.64L.884,25.226a8.951,8.951,0,0,1-.848-3.189l-.012-.088A1.947,1.947,0,0,1,0,21.679c0-5.794,5.058-10.508,11.275-10.508,6.181,0,10.286,7.658,11.237,10.341a1.194,1.194,0,0,1,.055.21,1.118,1.118,0,0,1,.045.2,2.788,2.788,0,0,1,.051.3,2.327,2.327,0,0,1,.02.263c.136,2.494-2.488,5.73-7.8,9.591a7.632,7.632,0,0,1-4.507,1.452m.9-21.354C5.609,12.171,1,16.437,1,21.679a.962.962,0,0,0,.014.128l.02.161a7.911,7.911,0,0,0,.745,2.813l1.278,2.35a34,34,0,0,0,2.3,3.114,6.666,6.666,0,0,0,8.934,1.02h0c4.949-3.6,7.5-6.626,7.388-8.756a1.331,1.331,0,0,0-.014-.18c-.008-.075-.02-.131-.032-.191l.464-.233-.484.127-.051-.1.011-.09c-.732-2.037-4.6-9.668-10.3-9.668" fill="#fff"/>
        <path id="패스_3060" data-name="패스 3060" d="M47.393,33.523a7.647,7.647,0,0,1-4.511-1.45c-5.306-3.866-7.928-7.1-7.791-9.619a2.111,2.111,0,0,1,.02-.248c.008-.079.024-.163.042-.252a2.2,2.2,0,0,1,.055-.271.866.866,0,0,1,.059-.19c.944-2.664,5.05-10.322,11.232-10.322,6.216,0,11.274,4.714,11.274,10.508a1.945,1.945,0,0,1-.038.341,8.809,8.809,0,0,1-.831,3.173l-1.319,2.416a32.829,32.829,0,0,1-2.4,3.271,7.509,7.509,0,0,1-5.791,2.643M46.5,12.171c-5.7,0-9.572,7.631-10.3,9.675l-.035.114a.812.812,0,0,0-.021.118c-.025.129-.036.181-.042.239a1.327,1.327,0,0,0-.015.165c-.116,2.153,2.437,5.18,7.38,8.783a6.677,6.677,0,0,0,8.943-1.022A32.254,32.254,0,0,0,54.725,27.1l1.286-2.354a7.679,7.679,0,0,0,.718-2.762l.022-.145a.915.915,0,0,0,.022-.161c0-5.242-4.609-9.508-10.274-9.508" fill="#fff"/>
        <path id="패스_3061" data-name="패스 3061" d="M28.891,35.788,22.112,23.459a3.031,3.031,0,0,1-.181-.408l-.248-.442v-.127a1.316,1.316,0,0,0-.013-.153,1.67,1.67,0,0,0-.033-.191l.464-.232-.483.126-.091-.184.076-.168c.824-2.453,3.652-5.238,6.783-5.46a4.625,4.625,0,0,1,1,0,8.67,8.67,0,0,1,6.773,5.441l.05.148-.043.15a.7.7,0,0,0-.021.118c-.025.129-.036.181-.042.239a1.327,1.327,0,0,0-.015.165v.127ZM22.677,22.343l.168.312a3.25,3.25,0,0,0,.15.336l1.077,1.9,4.819,8.81L35.1,22.343c0-.045.009-.091.015-.137a2.134,2.134,0,0,1,.042-.252c.005-.035.01-.067.016-.1A7.726,7.726,0,0,0,29.3,17.217a3.659,3.659,0,0,0-.841,0A7.561,7.561,0,0,0,22.6,21.855c.005.023.008.044.011.063a2.771,2.771,0,0,1,.05.3c0,.039.01.081.014.124" fill="#fff"/>
        <path id="패스_3062" data-name="패스 3062" d="M40,49.981h-.007a5.456,5.456,0,0,1-4.886-2.8L28.321,34.746l7.89-14.464-.121,2.227c-.116,2.126,2.436,5.153,7.38,8.756a6.677,6.677,0,0,0,8.944-1.022A31.954,31.954,0,0,0,54.725,27.1l.861.508L44.9,47.179a5.544,5.544,0,0,1-4.9,2.8M29.461,34.746,35.985,46.7a4.467,4.467,0,0,0,4.01,2.28H40A4.485,4.485,0,0,0,44.022,46.7l8.053-14.747a7.757,7.757,0,0,1-9.194.121h0c-4.268-3.11-6.8-5.813-7.554-8.061Z" fill="#fff"/>
        <path id="패스_3063" data-name="패스 3063" d="M28.887,12.694a6.347,6.347,0,1,1,6.347-6.346,6.353,6.353,0,0,1-6.347,6.346M28.887,1a5.347,5.347,0,1,0,5.347,5.348A5.354,5.354,0,0,0,28.887,1" fill="#fff"/>
        <path id="패스_3064" data-name="패스 3064" d="M73.315,33.809a7.7,7.7,0,0,1-2.022,2.865,8.261,8.261,0,0,1-3.334,1.782l-1.394-2.321a7.739,7.739,0,0,0,2.789-1.4,6.121,6.121,0,0,0,1.682-2.074,5.484,5.484,0,0,0,.556-2.409v-.808h2.391v.808a9.378,9.378,0,0,1-.668,3.557m5.543-3.5H67.292V27.956H78.858Zm2.455,9.135a5.551,5.551,0,0,1,2.543,1.371,3.029,3.029,0,0,1,.9,2.162,3.092,3.092,0,0,1-.9,2.2,5.655,5.655,0,0,1-2.543,1.4,14.184,14.184,0,0,1-3.92.48,13.989,13.989,0,0,1-3.9-.48,5.694,5.694,0,0,1-2.532-1.4,3.045,3.045,0,0,1-.89-2.2,2.99,2.99,0,0,1,.885-2.162,5.536,5.536,0,0,1,2.531-1.371,16.775,16.775,0,0,1,7.828,0M74.592,28.893h-3V25.635h3Zm.533,3.563a5.742,5.742,0,0,0,1.7,1.886A7.959,7.959,0,0,0,79.631,35.6L78.225,37.9a8.578,8.578,0,0,1-3.357-1.641,7.221,7.221,0,0,1-2.051-2.672,8.148,8.148,0,0,1-.686-3.34v-.808h2.426v.808a4.6,4.6,0,0,0,.568,2.2m-.117,9a3.519,3.519,0,0,0-1.47.574,1.159,1.159,0,0,0-.5.949,1.209,1.209,0,0,0,.5.984,3.563,3.563,0,0,0,1.47.6,12.213,12.213,0,0,0,2.385.217,12.532,12.532,0,0,0,2.42-.217,3.424,3.424,0,0,0,1.465-.6,1.224,1.224,0,0,0,.486-.984,1.167,1.167,0,0,0-.486-.955,3.431,3.431,0,0,0-1.459-.568,13.123,13.123,0,0,0-2.426-.188,12.8,12.8,0,0,0-2.385.188m7.4-7.606H78.237v-2.4h4.172Zm2.273,4.77H81.705V25.706h2.977Z" fill="#fff"/>
        <path id="패스_3065" data-name="패스 3065" d="M106.672,39.886H87.219V37.507h19.453ZM96.8,32.2a7.991,7.991,0,0,1-2.947,2.625,13.189,13.189,0,0,1-4.582,1.424l-1.113-2.332a11.61,11.61,0,0,0,3.837-1.072A6.712,6.712,0,0,0,94.4,30.974a3.66,3.66,0,0,0,.808-2.232V28.1h2.6v.645A6.233,6.233,0,0,1,96.8,32.2m8.115-3.017H88.965V26.855h15.949ZM98.364,47.07H95.4V39.207h2.965Zm1.107-16.1a6.655,6.655,0,0,0,2.4,1.875,11.678,11.678,0,0,0,3.873,1.072l-1.078,2.332a13.333,13.333,0,0,1-4.617-1.424A8.021,8.021,0,0,1,97.086,32.2a6.213,6.213,0,0,1-1.019-3.462V28.1h2.6v.645a3.678,3.678,0,0,0,.8,2.232" fill="#fff"/>
        <path id="패스_3066" data-name="패스 3066" d="M115.127,35.051q3.235-.123,6.211-.5l.153,2.145a58.4,58.4,0,0,1-6.475.7q-3.381.181-7.037.17l-.352-2.355q4.266-.036,7.5-.159m2.192-8.1a4.365,4.365,0,0,1,1.9,1.353,3.148,3.148,0,0,1,.68,1.987,3.062,3.062,0,0,1-.68,1.98,4.436,4.436,0,0,1-1.892,1.318,8.323,8.323,0,0,1-5.543,0,4.433,4.433,0,0,1-1.893-1.318,3.062,3.062,0,0,1-.68-1.98,3.173,3.173,0,0,1,.68-1.993,4.307,4.307,0,0,1,1.9-1.353,7.615,7.615,0,0,1,2.777-.475,7.448,7.448,0,0,1,2.754.481m-3.973,17.976h-3.012v-4.6h3.012Zm12.9,1.77H110.335V44.28h15.914ZM113.241,28.846a1.973,1.973,0,0,0-.885.557,1.257,1.257,0,0,0-.311.885,1.24,1.24,0,0,0,.311.879,2,2,0,0,0,.885.55,4.194,4.194,0,0,0,1.324.188,4.059,4.059,0,0,0,1.295-.188,1.955,1.955,0,0,0,.873-.55,1.3,1.3,0,0,0,.316-.879,1.32,1.32,0,0,0-.316-.879,1.907,1.907,0,0,0-.873-.563,4.06,4.06,0,0,0-1.295-.187,4.2,4.2,0,0,0-1.324.187m3.105,12.5h-3.012V36.639h3.012Zm7.113-1.183H118.7V38.128h4.758Zm2.321,1.7h-3V25.753h3Z" fill="#fff"/>
        <path id="패스_3067" data-name="패스 3067" d="M135.068,35.35q3.246-.117,6.117-.469l.141,2.1a55.885,55.885,0,0,1-6.305.7q-3.3.188-6.832.188l-.258-2.391q3.891-.012,7.137-.129m3.34-6.047H129.2V26.889h9.211Zm3.662,10.16a5.855,5.855,0,0,1,2.566,1.377,2.894,2.894,0,0,1,.9,2.116,3.007,3.007,0,0,1-.891,2.185,5.724,5.724,0,0,1-2.56,1.389,16.513,16.513,0,0,1-7.9,0,5.772,5.772,0,0,1-2.572-1.389,3,3,0,0,1-.9-2.185,2.894,2.894,0,0,1,.9-2.116,5.864,5.864,0,0,1,2.578-1.377,16.439,16.439,0,0,1,7.887,0m-7.2-2.519h-2.977V31.659h2.977Zm.879,4.529a3.541,3.541,0,0,0-1.495.569,1.126,1.126,0,0,0-.509.914,1.175,1.175,0,0,0,.5.978,3.57,3.57,0,0,0,1.47.568,12.951,12.951,0,0,0,2.408.188,12.769,12.769,0,0,0,2.391-.188,3.463,3.463,0,0,0,1.453-.568,1.184,1.184,0,0,0,.492-.978,1.124,1.124,0,0,0-.5-.92,3.518,3.518,0,0,0-1.47-.563,13.062,13.062,0,0,0-2.362-.181,13.346,13.346,0,0,0-2.378.181M140.2,28.4q-.012,1.512-.106,2.76a20.26,20.26,0,0,1-.41,2.724l-2.918-.222a20.533,20.533,0,0,0,.369-2.6q.076-1.131.088-2.654V26.889H140.2V28.4Zm5.191,10.336h-3.07V25.706h3.07Zm2.613-5.274H144.15V30.99h3.855Z" fill="#fff"/>
        <path id="패스_3068" data-name="패스 3068" d="M168.226,44.924h-19.5V42.545h19.5Zm-.926-14.1H149.546V28.448H167.3Zm-5,1.365a5.506,5.506,0,0,1,2.514,1.418,3.231,3.231,0,0,1,0,4.418,5.654,5.654,0,0,1-2.514,1.418,15.4,15.4,0,0,1-7.769,0A5.747,5.747,0,0,1,152,38.028a3.231,3.231,0,0,1,0-4.418,5.6,5.6,0,0,1,2.526-1.418,15.767,15.767,0,0,1,7.769,0M156.39,44.163h-3.012V38.772h3.012Zm-.3-9.955a3.226,3.226,0,0,0-1.418.615,1.228,1.228,0,0,0-.468,1,1.193,1.193,0,0,0,.468.99,3.442,3.442,0,0,0,1.424.6,10.489,10.489,0,0,0,2.326.2,10.269,10.269,0,0,0,2.3-.2,3.43,3.43,0,0,0,1.418-.6,1.225,1.225,0,0,0,.481-.99,1.261,1.261,0,0,0-.481-1,3.221,3.221,0,0,0-1.418-.615,10.915,10.915,0,0,0-2.3-.206,11.127,11.127,0,0,0-2.332.206m3.809-4.284h-2.965V25.951h2.965Zm3.539,14.239H160.48V38.772h2.953Z" fill="#fff"/>
        <path id="패스_3069" data-name="패스 3069" d="M188.728,44.643h-19.5V42.194h19.5Zm-2.285-15.035h-11.93v6.738h-2.988V27.241h14.918Zm.152,8.039h-15.07V35.268H186.6Zm-6.187,5.332h-2.941V36.358h2.941Z" fill="#fff"/>
        <path id="패스_3070" data-name="패스 3070" d="M209.23,44.561h-19.5V42.112h19.5Zm-5.654-17.086a6.677,6.677,0,0,1,2.859,2.016,4.852,4.852,0,0,1,.006,5.988,6.687,6.687,0,0,1-2.859,2,12.309,12.309,0,0,1-8.268,0,6.689,6.689,0,0,1-2.854-2,4.863,4.863,0,0,1,0-5.988,6.641,6.641,0,0,1,2.854-2.016,12.291,12.291,0,0,1,8.262,0m-6.534,15.094h-2.965V36.581h2.965Zm-.269-13.055a3.89,3.89,0,0,0-1.764,1.16,2.92,2.92,0,0,0,0,3.616,3.937,3.937,0,0,0,1.77,1.177,8.06,8.06,0,0,0,2.666.422,7.967,7.967,0,0,0,2.66-.428,4.032,4.032,0,0,0,1.781-1.177,2.89,2.89,0,0,0,0-3.61,3.926,3.926,0,0,0-1.781-1.16,9.376,9.376,0,0,0-5.332,0m8.121,13.055h-3.012V36.581h3.012Z" fill="#fff"/>
        <path id="패스_3071" data-name="패스 3071" d="M219.18,27.545a5.032,5.032,0,0,1,2.092,1.834,4.927,4.927,0,0,1,.773,2.678,4.837,4.837,0,0,1-.773,2.66,5.233,5.233,0,0,1-2.092,1.84,6.924,6.924,0,0,1-5.947-.006,5.318,5.318,0,0,1-2.1-1.845,4.734,4.734,0,0,1-.767-2.649,4.839,4.839,0,0,1,.767-2.678,5.066,5.066,0,0,1,2.1-1.834,7.187,7.187,0,0,1,5.947,0m4.787,11.59a5.518,5.518,0,0,1,2.5,1.459,3.249,3.249,0,0,1,.873,2.268,3.171,3.171,0,0,1-.873,2.238,5.633,5.633,0,0,1-2.5,1.447,12.826,12.826,0,0,1-3.82.51,13.15,13.15,0,0,1-3.867-.51,5.817,5.817,0,0,1-2.549-1.447,3.125,3.125,0,0,1-.9-2.238,3.2,3.2,0,0,1,.9-2.268,5.7,5.7,0,0,1,2.549-1.459,13.3,13.3,0,0,1,3.867-.5,12.969,12.969,0,0,1,3.82.5m-9.252-9.416a2.453,2.453,0,0,0-1.037.932,2.846,2.846,0,0,0,0,2.824,2.432,2.432,0,0,0,1.037.914,3.681,3.681,0,0,0,2.989,0,2.472,2.472,0,0,0,1.043-.914,2.813,2.813,0,0,0,0-2.824,2.492,2.492,0,0,0-1.043-.932,3.757,3.757,0,0,0-2.989,0M217.792,41.2a3.34,3.34,0,0,0-1.459.621,1.261,1.261,0,0,0-.487,1.037,1.221,1.221,0,0,0,.481,1.019,3.445,3.445,0,0,0,1.447.6,11.532,11.532,0,0,0,2.373.2,11.3,11.3,0,0,0,2.344-.2,3.336,3.336,0,0,0,1.429-.6,1.262,1.262,0,0,0,.481-1.019,1.31,1.31,0,0,0-.486-1.037,3.235,3.235,0,0,0-1.43-.621,11.691,11.691,0,0,0-2.338-.217,11.96,11.96,0,0,0-2.355.217m9.351-3.006h-2.988V25.706h2.988Zm2.777-7.371h-3.7V28.389h3.7Zm0,4.652h-3.7V33.018h3.7Z" fill="#fff"/>
        <path id="패스_3072" data-name="패스 3072" d="M234.637,29.9h4.2V27.03H241.8V37.249H231.625V27.03h3.012Zm10.705,9.428a5.552,5.552,0,0,1,2.537,1.418,3.183,3.183,0,0,1,.891,2.232,3.1,3.1,0,0,1-.9,2.2,5.62,5.62,0,0,1-2.538,1.4,16.222,16.222,0,0,1-7.834,0,5.62,5.62,0,0,1-2.531-1.4,3.057,3.057,0,0,1-.885-2.2,3.127,3.127,0,0,1,.885-2.232,5.6,5.6,0,0,1,2.531-1.418,14.1,14.1,0,0,1,3.909-.5,14.261,14.261,0,0,1,3.931.5M238.833,32.2h-4.195v2.719h4.195Zm.187,9.123a3.463,3.463,0,0,0-1.465.615,1.288,1.288,0,0,0-.5,1.043,1.225,1.225,0,0,0,.5.99,3.452,3.452,0,0,0,1.465.6,12.557,12.557,0,0,0,2.391.211,12.841,12.841,0,0,0,2.408-.211,3.382,3.382,0,0,0,1.471-.6,1.235,1.235,0,0,0,.492-.99,1.3,1.3,0,0,0-.492-1.043,3.385,3.385,0,0,0-1.465-.615,11.533,11.533,0,0,0-2.414-.194,11.3,11.3,0,0,0-2.391.194m7.359-10.1H241.07V28.881h5.309Zm0,4.395H241.07V33.229h5.309Zm2.321,2.859h-2.977V25.706H248.7Z" fill="#fff"/>
        <path id="패스_3073" data-name="패스 3073" d="M258.643,35.051q3.234-.123,6.211-.5l.152,2.145a58.36,58.36,0,0,1-6.474.7q-3.381.181-7.037.17l-.352-2.355q4.266-.036,7.5-.159m2.191-8.1a4.362,4.362,0,0,1,1.9,1.353,3.148,3.148,0,0,1,.68,1.987,3.062,3.062,0,0,1-.68,1.98,4.433,4.433,0,0,1-1.893,1.318,7.51,7.51,0,0,1-2.759.475,7.591,7.591,0,0,1-2.784-.475,4.436,4.436,0,0,1-1.892-1.318,3.062,3.062,0,0,1-.68-1.98,3.173,3.173,0,0,1,.68-1.993,4.309,4.309,0,0,1,1.9-1.353,7.624,7.624,0,0,1,2.778-.475,7.439,7.439,0,0,1,2.753.481m-3.972,17.976H253.85v-4.6h3.012Zm12.9,1.77H253.85V44.28h15.914ZM256.756,28.846a1.964,1.964,0,0,0-.884.557,1.253,1.253,0,0,0-.311.885,1.235,1.235,0,0,0,.311.879,1.989,1.989,0,0,0,.884.55,4.2,4.2,0,0,0,1.325.188,4.052,4.052,0,0,0,1.294-.188,1.953,1.953,0,0,0,.874-.55,1.3,1.3,0,0,0,.316-.879,1.325,1.325,0,0,0-.316-.879,1.905,1.905,0,0,0-.874-.563,4.053,4.053,0,0,0-1.294-.187,4.2,4.2,0,0,0-1.325.187m3.106,12.5H256.85V36.639h3.012Zm7.113-1.183h-4.758V38.128h4.758Zm2.32,1.7h-3V25.753h3Z" fill="#fff"/>
        <path id="패스_3074" data-name="패스 3074" d="M72.061,14.923a40.218,40.218,0,0,0,4.3-.382l.109,1.086a30.5,30.5,0,0,1-3.043.406q-1.581.133-2.965.172t-3.054.039l-.2-1.235q2.586,0,4.852-.086m1.6-8.285a3.291,3.291,0,0,1,1.355,1.188,3.142,3.142,0,0,1,.488,1.73,3.143,3.143,0,0,1-.488,1.731,3.3,3.3,0,0,1-1.355,1.187,4.377,4.377,0,0,1-1.954.426,4.431,4.431,0,0,1-1.972-.426,3.3,3.3,0,0,1-1.36-1.187,3.143,3.143,0,0,1-.488-1.731,3.142,3.142,0,0,1,.488-1.73,3.293,3.293,0,0,1,1.36-1.188,4.431,4.431,0,0,1,1.972-.426,4.377,4.377,0,0,1,1.954.426M70.5,7.759a1.965,1.965,0,0,0-.84.723,1.94,1.94,0,0,0-.305,1.074,1.9,1.9,0,0,0,.305,1.071,2.046,2.046,0,0,0,.84.718,2.978,2.978,0,0,0,2.425,0,2.008,2.008,0,0,0,.84-.718,1.923,1.923,0,0,0,.3-1.071,1.962,1.962,0,0,0-.3-1.074,1.931,1.931,0,0,0-.84-.723,3.065,3.065,0,0,0-2.425,0m8.222,11.5H77.24V5.22h1.477Z" fill="#fff"/>
        <path id="패스_3075" data-name="패스 3075" d="M93.62,17.548H80.807V16.321H93.62Zm-1.571-6.961h-8.2v2.688H82.37V9.384h8.218V7.431H82.346V6.22h9.7Zm.328,3.243H82.369V12.619H92.377Zm-6.625,3H84.3V13.408h1.453Zm4.508-.024H88.807V13.384H90.26Z" fill="#fff"/>
        <path id="패스_3076" data-name="패스 3076" d="M96.624,7.986h3.515V5.947H101.6V12.4H95.147V5.947h1.477Zm3.515,1.156H96.623V11.2h3.516ZM98.5,15.1h6.164v-1.57h1.468v5.516H97.014V13.525H98.5Zm6.164,1.172H98.5v1.562h6.164Zm.4-6.453h-3.844V8.587h3.844Zm1.086,3.07h-1.484V5.22h1.484Z" fill="#fff"/>
        <path id="패스_3077" data-name="패스 3077" d="M114.057,6.627a3.376,3.376,0,0,1,1.34,1.234,3.333,3.333,0,0,1,.488,1.789,3.336,3.336,0,0,1-1.828,3.039,4.264,4.264,0,0,1-3.793,0,3.419,3.419,0,0,1-1.34-1.238,3.346,3.346,0,0,1-.492-1.8,3.31,3.31,0,0,1,.492-1.789,3.416,3.416,0,0,1,1.34-1.234,4.255,4.255,0,0,1,3.793,0m-3.066,1.125a2.049,2.049,0,0,0-.817.765,2.1,2.1,0,0,0-.289,1.133,2.132,2.132,0,0,0,.289,1.144,2.04,2.04,0,0,0,.817.77,2.458,2.458,0,0,0,1.168.273,2.424,2.424,0,0,0,1.156-.273,2.04,2.04,0,0,0,.812-.77,2.173,2.173,0,0,0,.3-1.144,2.141,2.141,0,0,0-.3-1.133,2.049,2.049,0,0,0-.812-.765,2.424,2.424,0,0,0-1.156-.274,2.458,2.458,0,0,0-1.168.274m1.1,10.414H110.6V14.385h1.484Zm8.086.781H110.6V17.72h9.57Zm-.422-3.531h-1.477V5.236h1.477Z" fill="#fff"/>
        <path id="패스_3078" data-name="패스 3078" d="M130.445,11.537q2.151-.075,4.121-.325l.086,1.071a38.816,38.816,0,0,1-4.27.437q-2.23.109-4.7.1l-.195-1.188q2.805-.022,4.957-.1m1.433-5.457a2.77,2.77,0,0,1,1.235.867,2.041,2.041,0,0,1,.437,1.289,2,2,0,0,1-.437,1.289,2.847,2.847,0,0,1-1.231.852,5.567,5.567,0,0,1-3.629,0,2.847,2.847,0,0,1-1.226-.852,2,2,0,0,1-.438-1.289,2.058,2.058,0,0,1,.438-1.293,2.729,2.729,0,0,1,1.23-.867,5.112,5.112,0,0,1,1.817-.3,5.022,5.022,0,0,1,1.8.3m-2.961,11.984h-1.492V14.822h1.492Zm8.625.883H127.425V17.72h10.117ZM128.988,7.041a1.628,1.628,0,0,0-.731.476,1.062,1.062,0,0,0-.254.719,1.045,1.045,0,0,0,.254.719,1.691,1.691,0,0,0,.731.472,3.189,3.189,0,0,0,1.086.168,3.1,3.1,0,0,0,1.066-.168,1.722,1.722,0,0,0,.731-.472,1.064,1.064,0,0,0,.265-.719,1.082,1.082,0,0,0-.265-.719,1.656,1.656,0,0,0-.731-.476,3.059,3.059,0,0,0-1.066-.157,3.15,3.15,0,0,0-1.086.157m1.976,8.375h-1.492V12.307h1.492Zm5.125-.9h-3.2V13.47h3.2Zm1.118,1.336h-1.484V5.236h1.484Z" fill="#fff"/>
        <path id="패스_3079" data-name="패스 3079" d="M143.824,11.755q2.184-.081,4.09-.324l.078,1.071a37.979,37.979,0,0,1-4.188.445q-2.21.117-4.554.117l-.141-1.219q2.531-.008,4.715-.09m2.324-4.464h-6.18V6.064h6.18Zm2.059,7.082a3.654,3.654,0,0,1,1.632.871,1.86,1.86,0,0,1,.567,1.359,1.916,1.916,0,0,1-.567,1.391,3.663,3.663,0,0,1-1.629.883,10.672,10.672,0,0,1-5.058,0,3.689,3.689,0,0,1-1.637-.883,1.911,1.911,0,0,1-.57-1.391,1.855,1.855,0,0,1,.57-1.359,3.679,3.679,0,0,1,1.641-.871,10.745,10.745,0,0,1,5.051,0m-4.754-1.856h-1.469V9.134h1.469Zm.488,2.863a2.583,2.583,0,0,0-1.113.481.949.949,0,0,0-.383.742.967.967,0,0,0,.383.77,2.642,2.642,0,0,0,1.1.48,9.334,9.334,0,0,0,3.484,0,2.641,2.641,0,0,0,1.106-.48.967.967,0,0,0,.383-.77.937.937,0,0,0-.391-.746,2.69,2.69,0,0,0-1.113-.477,8.114,8.114,0,0,0-1.723-.16,8.265,8.265,0,0,0-1.738.16m3.082-8.425q-.007.977-.07,1.812a13.319,13.319,0,0,1-.289,1.86l-1.461-.118A13.764,13.764,0,0,0,145.48,8.7q.059-.786.059-1.739v-.9h1.484v.891Zm3.281,6.953h-1.516V5.22H150.3Zm1.938-3.735h-2.609V8.931h2.609Z" fill="#fff"/>
        <path id="패스_3080" data-name="패스 3080" d="M157.816,14.923a40.218,40.218,0,0,0,4.3-.382l.109,1.086a30.5,30.5,0,0,1-3.043.406q-1.581.133-2.965.172t-3.054.039l-.2-1.235q2.586,0,4.852-.086m1.6-8.285a3.288,3.288,0,0,1,1.356,1.188,3.142,3.142,0,0,1,.488,1.73,3.143,3.143,0,0,1-.488,1.731,3.292,3.292,0,0,1-1.356,1.187,4.37,4.37,0,0,1-1.953.426,4.431,4.431,0,0,1-1.972-.426,3.3,3.3,0,0,1-1.36-1.187,3.143,3.143,0,0,1-.488-1.731,3.142,3.142,0,0,1,.488-1.73,3.293,3.293,0,0,1,1.36-1.188,4.431,4.431,0,0,1,1.972-.426,4.37,4.37,0,0,1,1.953.426M156.25,7.759a1.965,1.965,0,0,0-.84.723,1.94,1.94,0,0,0-.305,1.074,1.9,1.9,0,0,0,.305,1.071,2.046,2.046,0,0,0,.84.718,2.978,2.978,0,0,0,2.425,0,2.008,2.008,0,0,0,.84-.718,1.923,1.923,0,0,0,.3-1.071,1.962,1.962,0,0,0-.3-1.074,1.931,1.931,0,0,0-.84-.723,3.065,3.065,0,0,0-2.425,0m8.222,11.5h-1.477V5.22h1.477Z" fill="#fff"/>
        <path id="패스_3081" data-name="패스 3081" d="M179.375,17.548H166.562V16.321h12.813ZM177.8,10.587h-8.2v2.688h-1.476V9.384h8.218V7.431H168.1V6.22h9.7Zm.328,3.243H168.124V12.619h10.008Zm-6.625,3h-1.453V13.408h1.453Zm4.508-.024h-1.453V13.384h1.453Z" fill="#fff"/>
        <path id="패스_3082" data-name="패스 3082" d="M183.835,12.1a8.085,8.085,0,0,1-1.07,2.555,5.45,5.45,0,0,1-1.808,1.75l-.915-1.133a5.091,5.091,0,0,0,1.676-1.515,6.7,6.7,0,0,0,1-2.176,10.335,10.335,0,0,0,.324-2.653V7.392h1.133V8.923a13.3,13.3,0,0,1-.34,3.172m3.09-4.062h-6.508V6.814h6.508Zm-2.117,3.32a6.193,6.193,0,0,0,1,2.02,4.879,4.879,0,0,0,1.66,1.4l-.875,1.141a5.284,5.284,0,0,1-1.824-1.637,7.338,7.338,0,0,1-1.082-2.406,11.811,11.811,0,0,1-.351-2.95V7.392h1.148V8.923a8.687,8.687,0,0,0,.328,2.43m4.422,7.18h-1.406V5.486h1.406Zm2.187-6.492h-2.6V10.8h2.6Zm.907,7.179h-1.43v-14h1.43Z" fill="#fff"/>
        <path id="패스_3083" data-name="패스 3083" d="M200.782,7.627h-4.789v4.757h-1.477V6.408h6.266Zm-1.469,4a19.686,19.686,0,0,0,2.695-.364l.18,1.211a21.634,21.634,0,0,1-2.8.367q-1.417.094-3.754.094h-1.117V11.7h1.117q2.313.008,3.68-.082M197.5,18.306h-1.469V14.314H197.5Zm7.993.641h-9.461V17.72h9.461Zm-.594-3.586h-1.477V5.228H204.9Zm2.055-4.852h-2.516V9.275h2.516Z" fill="#fff"/>
      </g>
    </g>
  </g>
</svg>
