<svg xmlns="http://www.w3.org/2000/svg" xmlns:xlink="http://www.w3.org/1999/xlink" width="269.264" height="48.981" viewBox="0 0 269.264 48.981">
  <defs>
    <clipPath id="clip-path">
      <path id="패스_3147" data-name="패스 3147" d="M14.089,31.168a7.188,7.188,0,0,1-9.614-1.106,34.323,34.323,0,0,1-2.357-3.193l10.695,19.57a5,5,0,0,0,4.41,2.542h.1a5,5,0,0,0,4.41-2.542l6.663-12.194-5.255-9.6-1.09-1.927a2.441,2.441,0,0,1-.141-.322l-.222-.41c.16,2.944-4.022,6.592-7.594,9.187" fill="none"/>
    </clipPath>
    <linearGradient id="linear-gradient" x1="0.046" y1="0.897" x2="0.076" y2="0.897" gradientUnits="objectBoundingBox">
      <stop offset="0" stop-color="#8bc0c9"/>
      <stop offset="0.996" stop-color="#21a7c5"/>
      <stop offset="1" stop-color="#21a7c5"/>
    </linearGradient>
    <clipPath id="clip-path-2">
      <rect id="사각형_519" data-name="사각형 519" width="269.264" height="48.981" transform="translate(0 0)" fill="none"/>
    </clipPath>
    <clipPath id="clip-path-3">
      <path id="패스_3149" data-name="패스 3149" d="M0,21.178c0,.107.027.223.035.33a8.447,8.447,0,0,0,.789,2.98l1.294,2.381a34.323,34.323,0,0,0,2.357,3.193,7.188,7.188,0,0,0,9.614,1.106c3.572-2.595,7.754-6.243,7.594-9.187a1.714,1.714,0,0,0-.017-.214c-.009-.089-.027-.169-.044-.259a.6.6,0,0,0-.045-.17.548.548,0,0,0-.035-.16c-.851-2.4-4.821-10.008-10.767-10.008S0,15.657,0,21.178" fill="none"/>
    </clipPath>
    <linearGradient id="linear-gradient-2" x1="0.149" y1="1.359" x2="0.181" y2="1.359" gradientUnits="objectBoundingBox">
      <stop offset="0" stop-color="#32a5c4"/>
      <stop offset="1" stop-color="#1d6ba0"/>
    </linearGradient>
    <clipPath id="clip-path-4">
      <path id="패스_3150" data-name="패스 3150" d="M35.232,21.178a.665.665,0,0,0-.045.143,1.5,1.5,0,0,0-.035.187c-.018.09-.035.17-.044.259a1.715,1.715,0,0,0-.018.214c-.159,2.944,4.023,6.592,7.585,9.187A7.2,7.2,0,0,0,52.3,30.062a33.034,33.034,0,0,0,2.348-3.193l1.3-2.381a8.218,8.218,0,0,0,.78-2.98,2.076,2.076,0,0,0,.045-.33c0-5.521-4.83-10.008-10.776-10.008s-9.915,7.609-10.766,10.008" fill="none"/>
    </clipPath>
    <linearGradient id="linear-gradient-3" x1="-1.576" y1="1.693" x2="-1.531" y2="1.693" gradientUnits="objectBoundingBox">
      <stop offset="0" stop-color="#227b5a"/>
      <stop offset="1" stop-color="#48a648"/>
      <stop offset="1" stop-color="#1dc02e"/>
    </linearGradient>
    <clipPath id="clip-path-5">
      <path id="패스_3151" data-name="패스 3151" d="M27.922,16.219a8.048,8.048,0,0,0-6.345,5.119.6.6,0,0,1,.045.17c.017.09.035.17.044.259a1.714,1.714,0,0,1,.017.214l.222.41a2.441,2.441,0,0,0,.141.322l1.09,1.927,5.255,9.6,5.415-9.909,1.063-1.945.221-.41a1.715,1.715,0,0,1,.018-.214c.009-.089.026-.169.044-.259a1.5,1.5,0,0,1,.035-.187,8.155,8.155,0,0,0-6.344-5.1c-.184-.017-.292-.026-.414-.026s-.261.009-.507.026" fill="none"/>
    </clipPath>
    <linearGradient id="linear-gradient-4" x1="-1.521" y1="1.793" x2="-1.45" y2="1.793" gradientUnits="objectBoundingBox">
      <stop offset="0" stop-color="#008dbf"/>
      <stop offset="0.506" stop-color="#3ea08a"/>
      <stop offset="1" stop-color="#69b14a"/>
    </linearGradient>
    <clipPath id="clip-path-6">
      <path id="패스_3152" data-name="패스 3152" d="M34.869,22.391l-1.063,1.945-5.415,9.909,6.655,12.194a4.994,4.994,0,0,0,4.406,2.542h.1a5.008,5.008,0,0,0,4.413-2.542l10.687-19.57A33.034,33.034,0,0,1,52.3,30.062a7.2,7.2,0,0,1-9.624,1.106c-3.562-2.595-7.744-6.243-7.585-9.187Z" fill="none"/>
    </clipPath>
    <linearGradient id="linear-gradient-5" x1="-1.06" y1="0.994" x2="-1.023" y2="0.994" gradientUnits="objectBoundingBox">
      <stop offset="0" stop-color="#aec539"/>
      <stop offset="1" stop-color="#48a648"/>
      <stop offset="1" stop-color="#aec539"/>
    </linearGradient>
  </defs>
  <g id="logo_black" transform="translate(0 0)">
    <g id="그룹_356" data-name="그룹 356">
      <g id="그룹_355" data-name="그룹 355" clip-path="url(#clip-path)">
        <rect id="사각형_518" data-name="사각형 518" width="33.614" height="34.066" transform="translate(-6.171 24.825) rotate(-18.939)" fill="url(#linear-gradient)"/>
      </g>
    </g>
    <g id="그룹_358" data-name="그룹 358">
      <g id="그룹_357" data-name="그룹 357" clip-path="url(#clip-path-2)">
        <path id="패스_3148" data-name="패스 3148" d="M2.118,26.869.824,24.487a19.126,19.126,0,0,0,1.294,2.382" fill="#1a00bf"/>
      </g>
    </g>
    <g id="그룹_360" data-name="그룹 360">
      <g id="그룹_359" data-name="그룹 359" clip-path="url(#clip-path-3)">
        <rect id="사각형_520" data-name="사각형 520" width="31.113" height="31.119" transform="translate(-11.079 21.954) rotate(-44.226)" fill="url(#linear-gradient-2)"/>
      </g>
    </g>
    <g id="그룹_362" data-name="그룹 362">
      <g id="그룹_361" data-name="그룹 361" clip-path="url(#clip-path-4)">
        <rect id="사각형_521" data-name="사각형 521" width="22.088" height="22.407" transform="matrix(1, -0.011, 0.011, 1, 34.685, 11.173)" fill="url(#linear-gradient-3)"/>
      </g>
    </g>
    <g id="그룹_364" data-name="그룹 364">
      <g id="그룹_363" data-name="그룹 363" clip-path="url(#clip-path-5)">
        <rect id="사각형_522" data-name="사각형 522" width="14.041" height="18.375" transform="translate(21.142 16.204) rotate(-1.38)" fill="url(#linear-gradient-4)"/>
      </g>
    </g>
    <g id="그룹_366" data-name="그룹 366">
      <g id="그룹_365" data-name="그룹 365" clip-path="url(#clip-path-6)">
        <rect id="사각형_523" data-name="사각형 523" width="26.607" height="27.341" transform="translate(28.038 21.986) rotate(-0.749)" fill="url(#linear-gradient-5)"/>
      </g>
    </g>
    <g id="그룹_368" data-name="그룹 368">
      <g id="그룹_367" data-name="그룹 367" clip-path="url(#clip-path-2)">
        <path id="패스_3153" data-name="패스 3153" d="M28.387,11.695A5.847,5.847,0,1,0,22.54,5.848a5.847,5.847,0,0,0,5.847,5.847" fill="#2ba88a"/>
        <path id="패스_3154" data-name="패스 3154" d="M80.812,38.946a16.81,16.81,0,0,0-7.828,0,5.551,5.551,0,0,0-2.531,1.372,2.99,2.99,0,0,0-.885,2.162,3.044,3.044,0,0,0,.891,2.2,5.684,5.684,0,0,0,2.531,1.394,13.954,13.954,0,0,0,3.9.481,14.143,14.143,0,0,0,3.92-.481,5.649,5.649,0,0,0,2.543-1.394,3.1,3.1,0,0,0,.9-2.2,3.034,3.034,0,0,0-.9-2.162,5.556,5.556,0,0,0-2.543-1.372m-.035,4.518a3.418,3.418,0,0,1-1.465.6,12.621,12.621,0,0,1-2.42.216,12.3,12.3,0,0,1-2.385-.216,3.563,3.563,0,0,1-1.47-.6,1.212,1.212,0,0,1-.5-.984,1.161,1.161,0,0,1,.5-.95,3.532,3.532,0,0,1,1.47-.574,12.806,12.806,0,0,1,2.385-.187,13.126,13.126,0,0,1,2.426.187,3.431,3.431,0,0,1,1.459.569,1.165,1.165,0,0,1,.486.955,1.227,1.227,0,0,1-.486.984" fill="#4d4d4d"/>
        <path id="패스_3155" data-name="패스 3155" d="M72.63,33.7a7.277,7.277,0,0,0,1.738,2.064A8.578,8.578,0,0,0,77.725,37.4L79.131,35.1a7.967,7.967,0,0,1-2.806-1.253,5.755,5.755,0,0,1-1.7-1.887,4.579,4.579,0,0,1-.564-2.145h4.3V27.456H74.092v-2.32h-3v2.32h-4.3v2.355h4.3a5.49,5.49,0,0,1-.553,2.35,6.133,6.133,0,0,1-1.682,2.074,7.757,7.757,0,0,1-2.789,1.4l1.394,2.32a8.272,8.272,0,0,0,3.334-1.781A7.741,7.741,0,0,0,72.63,33.7" fill="#4d4d4d"/>
        <path id="패스_3156" data-name="패스 3156" d="M84.182,38.12V25.206H81.2v5.742H77.737v2.4H81.2v4.77Z" fill="#4d4d4d"/>
        <path id="패스_3157" data-name="패스 3157" d="M86.719,39.386H94.9V46.57h2.965V39.386h8.308V37.007H86.719Z" fill="#4d4d4d"/>
        <path id="패스_3158" data-name="패스 3158" d="M91.494,32.349a11.616,11.616,0,0,1-3.838,1.072l1.113,2.332a13.161,13.161,0,0,0,4.582-1.424A8,8,0,0,0,96.3,31.7c.054-.084.093-.173.143-.259.05.086.089.175.144.259a8.013,8.013,0,0,0,2.965,2.625,13.312,13.312,0,0,0,4.617,1.424l1.078-2.332a11.664,11.664,0,0,1-3.873-1.072,6.655,6.655,0,0,1-2.4-1.875,3.806,3.806,0,0,1-.764-1.787h6.207V26.355H88.465v2.332h6.207a3.808,3.808,0,0,1-.77,1.787,6.716,6.716,0,0,1-2.408,1.875" fill="#4d4d4d"/>
        <path id="패스_3159" data-name="패스 3159" d="M118.2,37.628v2.039h4.078v1.7h3V25.253h-3V37.628Z" fill="#4d4d4d"/>
        <path id="패스_3160" data-name="패스 3160" d="M116.819,26.448a7.469,7.469,0,0,0-2.754-.48,7.615,7.615,0,0,0-2.777.474,4.308,4.308,0,0,0-1.9,1.354,3.171,3.171,0,0,0-.679,1.992,3.064,3.064,0,0,0,.679,1.981,4.442,4.442,0,0,0,1.893,1.318,8.323,8.323,0,0,0,5.543,0,4.444,4.444,0,0,0,1.892-1.318,3.06,3.06,0,0,0,.68-1.981,3.142,3.142,0,0,0-.68-1.986,4.375,4.375,0,0,0-1.9-1.354m-.586,4.219a1.956,1.956,0,0,1-.873.551,4.06,4.06,0,0,1-1.295.187,4.2,4.2,0,0,1-1.324-.187,2,2,0,0,1-.885-.551,1.231,1.231,0,0,1-.31-.879,1.252,1.252,0,0,1,.31-.885,1.971,1.971,0,0,1,.885-.556,4.194,4.194,0,0,1,1.324-.188,4.059,4.059,0,0,1,1.295.188,1.906,1.906,0,0,1,.873.562,1.32,1.32,0,0,1,.316.879,1.291,1.291,0,0,1-.316.879" fill="#4d4d4d"/>
        <path id="패스_3161" data-name="패스 3161" d="M112.846,40.851h3V36.789c1.77-.132,3.5-.316,5.145-.59l-.153-2.145q-2.976.375-6.211.5t-7.5.158l.352,2.356c1.843.006,3.617-.037,5.355-.105V39.82h-3v6.375h15.914V43.781h-12.9Z" fill="#4d4d4d"/>
        <path id="패스_3162" data-name="패스 3162" d="M128.7,26.39V28.8h8.009c-.015.642-.035,1.245-.071,1.764a20.137,20.137,0,0,1-.369,2.595l2.918.223a20.089,20.089,0,0,0,.41-2.725c.064-.832.1-1.751.107-2.759V26.39h-11Z" fill="#4d4d4d"/>
        <path id="패스_3163" data-name="패스 3163" d="M144.892,25.206h-3.07V38.237h3.07V32.964H147.5V30.491h-2.613Z" fill="#4d4d4d"/>
        <path id="패스_3164" data-name="패스 3164" d="M140.825,36.48l-.141-2.1q-2.871.353-6.117.469l-.2.006v-3.7h-2.977v3.777c-1.26.024-2.578.039-3.961.043l.258,2.391q3.528,0,6.832-.188a55.885,55.885,0,0,0,6.3-.7" fill="#4d4d4d"/>
        <path id="패스_3165" data-name="패스 3165" d="M141.57,38.964a16.439,16.439,0,0,0-7.887,0,5.858,5.858,0,0,0-2.578,1.377,2.893,2.893,0,0,0-.9,2.115,3,3,0,0,0,.9,2.186,5.786,5.786,0,0,0,2.572,1.389,16.509,16.509,0,0,0,7.9,0,5.742,5.742,0,0,0,2.561-1.389,3.008,3.008,0,0,0,.891-2.186,2.893,2.893,0,0,0-.9-2.115,5.86,5.86,0,0,0-2.566-1.377m-.1,4.471a3.463,3.463,0,0,1-1.453.568,12.777,12.777,0,0,1-2.391.188A12.943,12.943,0,0,1,135.218,44a3.581,3.581,0,0,1-1.471-.568,1.175,1.175,0,0,1-.5-.979,1.128,1.128,0,0,1,.51-.914,3.555,3.555,0,0,1,1.494-.568,13.357,13.357,0,0,1,2.379-.182,13.052,13.052,0,0,1,2.362.182,3.523,3.523,0,0,1,1.47.563,1.122,1.122,0,0,1,.5.919,1.184,1.184,0,0,1-.492.979" fill="#4d4d4d"/>
        <path id="패스_3166" data-name="패스 3166" d="M162.933,38.495a4.787,4.787,0,0,0,1.377-.966,3.231,3.231,0,0,0,0-4.418,5.506,5.506,0,0,0-2.514-1.418,15.767,15.767,0,0,0-7.769,0,5.6,5.6,0,0,0-2.526,1.418,3.231,3.231,0,0,0,0,4.418,4.88,4.88,0,0,0,1.377.961v3.557h-4.652v2.379h19.5V42.047h-4.793Zm-8.766-4.171a3.238,3.238,0,0,1,1.418-.615,11.134,11.134,0,0,1,2.332-.2,10.922,10.922,0,0,1,2.3.2,3.232,3.232,0,0,1,1.418.615,1.264,1.264,0,0,1,.481,1,1.227,1.227,0,0,1-.481.99,3.431,3.431,0,0,1-1.418.6,10.269,10.269,0,0,1-2.3.2,10.483,10.483,0,0,1-2.326-.2,3.442,3.442,0,0,1-1.424-.6,1.192,1.192,0,0,1-.468-.99,1.228,1.228,0,0,1,.468-1m1.723,5a16.676,16.676,0,0,0,2.027.118,16.428,16.428,0,0,0,2.063-.122v2.724h-4.09Z" fill="#4d4d4d"/>
        <path id="패스_3167" data-name="패스 3167" d="M156.429,25.452v2.5h-7.383v2.379H166.8V27.948h-7.406v-2.5Z" fill="#4d4d4d"/>
        <path id="패스_3168" data-name="패스 3168" d="M179.907,37.148h6.187V34.769H174.012v-5.66h11.93V26.742H171.024V37.148h5.942v4.547h-8.239v2.449h19.5V41.695h-8.32Z" fill="#4d4d4d"/>
        <path id="패스_3169" data-name="패스 3169" d="M204.394,36.318a6.027,6.027,0,0,0,1.546-1.338,4.85,4.85,0,0,0-.005-5.988,6.678,6.678,0,0,0-2.86-2.016,12.291,12.291,0,0,0-8.262,0,6.63,6.63,0,0,0-2.853,2.016,4.863,4.863,0,0,0,0,5.988,6.079,6.079,0,0,0,1.617,1.382v5.251H189.23v2.449h19.5V41.613h-4.336Zm-9.885-6.143a3.884,3.884,0,0,1,1.763-1.16,9.376,9.376,0,0,1,5.332,0,3.921,3.921,0,0,1,1.782,1.16,2.89,2.89,0,0,1,0,3.61,4.044,4.044,0,0,1-1.782,1.177,7.962,7.962,0,0,1-2.66.428,8.064,8.064,0,0,1-2.666-.422,3.932,3.932,0,0,1-1.769-1.178,2.919,2.919,0,0,1,0-3.615m2.033,7.3a12.82,12.82,0,0,0,4.84-.007v4.148h-4.84Z" fill="#4d4d4d"/>
        <path id="패스_3170" data-name="패스 3170" d="M215.709,36.726a6.518,6.518,0,0,0,2.971-.668,5.233,5.233,0,0,0,2.092-1.84,4.845,4.845,0,0,0,.773-2.66,4.929,4.929,0,0,0-.773-2.677,5.025,5.025,0,0,0-2.092-1.834,7.177,7.177,0,0,0-5.947,0,5.059,5.059,0,0,0-2.1,1.834,4.825,4.825,0,0,0-.767,2.677,4.726,4.726,0,0,0,.767,2.649,5.318,5.318,0,0,0,2.1,1.845,6.5,6.5,0,0,0,2.976.674m-2.531-6.574a2.453,2.453,0,0,1,1.037-.932,3.755,3.755,0,0,1,2.988,0,2.486,2.486,0,0,1,1.043.932,2.807,2.807,0,0,1,0,2.824,2.466,2.466,0,0,1-1.043.914,3.679,3.679,0,0,1-2.988,0,2.432,2.432,0,0,1-1.037-.914,2.846,2.846,0,0,1,0-2.824" fill="#4d4d4d"/>
        <path id="패스_3171" data-name="패스 3171" d="M223.467,38.636a12.974,12.974,0,0,0-3.82-.5,13.309,13.309,0,0,0-3.868.5,5.683,5.683,0,0,0-2.548,1.459,3.2,3.2,0,0,0-.9,2.267,3.125,3.125,0,0,0,.9,2.239,5.823,5.823,0,0,0,2.548,1.447,13.162,13.162,0,0,0,3.868.51,12.831,12.831,0,0,0,3.82-.51,5.642,5.642,0,0,0,2.5-1.447,3.171,3.171,0,0,0,.873-2.239,3.247,3.247,0,0,0-.873-2.267,5.509,5.509,0,0,0-2.5-1.459m-.047,4.746a3.34,3.34,0,0,1-1.43.6,11.37,11.37,0,0,1-2.343.205,11.589,11.589,0,0,1-2.373-.205,3.449,3.449,0,0,1-1.448-.6,1.222,1.222,0,0,1-.48-1.02,1.264,1.264,0,0,1,.486-1.037,3.363,3.363,0,0,1,1.459-.621,12.056,12.056,0,0,1,2.356-.217,11.755,11.755,0,0,1,2.337.217,3.252,3.252,0,0,1,1.43.621,1.311,1.311,0,0,1,.486,1.037,1.266,1.266,0,0,1-.48,1.02" fill="#4d4d4d"/>
        <path id="패스_3172" data-name="패스 3172" d="M226.643,25.206h-2.988V37.7h2.988V34.979h2.777V32.518h-2.777V30.327h2.777V27.89h-2.777Z" fill="#4d4d4d"/>
        <path id="패스_3173" data-name="패스 3173" d="M244.842,38.829a14.345,14.345,0,0,0-3.932-.5,14.163,14.163,0,0,0-3.908.5,5.6,5.6,0,0,0-2.531,1.418,3.129,3.129,0,0,0-.885,2.233,3.059,3.059,0,0,0,.885,2.2,5.608,5.608,0,0,0,2.531,1.4,16.189,16.189,0,0,0,7.834,0,5.62,5.62,0,0,0,2.537-1.4,3.1,3.1,0,0,0,.9-2.2,3.18,3.18,0,0,0-.89-2.233,5.566,5.566,0,0,0-2.537-1.418m-.053,4.641a3.371,3.371,0,0,1-1.471.6,12.85,12.85,0,0,1-2.408.21,12.567,12.567,0,0,1-2.391-.21,3.453,3.453,0,0,1-1.464-.6,1.228,1.228,0,0,1-.5-.99,1.286,1.286,0,0,1,.5-1.043,3.439,3.439,0,0,1,1.464-.615,11.233,11.233,0,0,1,2.391-.194,11.46,11.46,0,0,1,2.414.194,3.35,3.35,0,0,1,1.465.615,1.3,1.3,0,0,1,.492,1.043,1.238,1.238,0,0,1-.492.99" fill="#4d4d4d"/>
        <path id="패스_3174" data-name="패스 3174" d="M241.3,35.12h3.926v2.86H248.2V25.206h-2.976v3.176H241.3V26.53h-2.965V29.4h-4.2V26.53h-3.012V36.749H241.3Zm-2.965-.7h-4.2V31.7h4.2Zm6.891-1.687H241.3v-2h3.926Z" fill="#4d4d4d"/>
        <path id="패스_3175" data-name="패스 3175" d="M261.717,37.628v2.039h4.078v1.7h3V25.253h-3V37.628Z" fill="#4d4d4d"/>
        <path id="패스_3176" data-name="패스 3176" d="M254.8,33.088a8.339,8.339,0,0,0,5.543,0,4.446,4.446,0,0,0,1.892-1.319,3.06,3.06,0,0,0,.68-1.98,3.15,3.15,0,0,0-.68-1.987,4.365,4.365,0,0,0-1.9-1.353,7.469,7.469,0,0,0-2.754-.481,7.615,7.615,0,0,0-2.777.475,4.3,4.3,0,0,0-1.9,1.354,3.171,3.171,0,0,0-.679,1.992,3.06,3.06,0,0,0,.679,1.98,4.443,4.443,0,0,0,1.893,1.319m.574-4.184a1.973,1.973,0,0,1,.885-.557,4.2,4.2,0,0,1,1.324-.187,4.06,4.06,0,0,1,1.3.187,1.907,1.907,0,0,1,.873.563,1.32,1.32,0,0,1,.316.879,1.293,1.293,0,0,1-.316.879,1.955,1.955,0,0,1-.873.55,4.059,4.059,0,0,1-1.3.188,4.194,4.194,0,0,1-1.324-.188,2,2,0,0,1-.885-.55,1.238,1.238,0,0,1-.311-.879,1.257,1.257,0,0,1,.311-.885" fill="#4d4d4d"/>
        <path id="패스_3177" data-name="패스 3177" d="M256.362,43.781v-2.93h3V36.79c1.77-.133,3.5-.316,5.145-.591l-.154-2.145q-2.975.375-6.211.5t-7.5.159l.352,2.355c1.843.006,3.617-.037,5.354-.105V39.82h-3v6.375h15.913V43.781Z" fill="#4d4d4d"/>
        <rect id="사각형_524" data-name="사각형 524" width="1.477" height="14.039" transform="translate(76.74 4.72)" fill="#4d4d4d"/>
        <path id="패스_3178" data-name="패스 3178" d="M69.959,15.7q1.383-.039,2.965-.172a30.252,30.252,0,0,0,3.043-.406l-.11-1.086a40.192,40.192,0,0,1-4.3.383q-2.266.086-4.852.086l.195,1.234q1.672,0,3.055-.039" fill="#4d4d4d"/>
        <path id="패스_3179" data-name="패스 3179" d="M69.236,11.974a4.436,4.436,0,0,0,1.973.426,4.37,4.37,0,0,0,1.953-.426,3.292,3.292,0,0,0,1.356-1.187,3.306,3.306,0,0,0,0-3.461,3.294,3.294,0,0,0-1.356-1.188,4.383,4.383,0,0,0-1.953-.426,4.449,4.449,0,0,0-1.973.426,3.281,3.281,0,0,0-1.358,1.188,3.127,3.127,0,0,0-.49,1.73,3.128,3.128,0,0,0,.49,1.731,3.279,3.279,0,0,0,1.358,1.187m-.081-3.992a1.957,1.957,0,0,1,.839-.723,3.07,3.07,0,0,1,2.427,0,1.926,1.926,0,0,1,.838.723,1.946,1.946,0,0,1,.3,1.074,1.908,1.908,0,0,1-.3,1.071,2,2,0,0,1-.838.718,2.983,2.983,0,0,1-2.427,0,2.036,2.036,0,0,1-.839-.718,1.894,1.894,0,0,1-.305-1.071,1.932,1.932,0,0,1,.305-1.074" fill="#4d4d4d"/>
        <path id="패스_3180" data-name="패스 3180" d="M93.119,15.822H89.76V13.33h2.117V12.119H83.346V10.088h8.2V5.72h-9.7V6.931h8.242V8.884H81.869V13.33H83.8v2.492H80.307v1.227H93.119ZM85.252,13.33h3.055v2.492H85.252Z" fill="#4d4d4d"/>
        <path id="패스_3181" data-name="패스 3181" d="M105.631,13.025h-1.469V14.6H98v-1.57H96.514v5.516h9.117Zm-1.469,4.305H98V15.768h6.164Z" fill="#4d4d4d"/>
        <path id="패스_3182" data-name="패스 3182" d="M101.1,9.314h3.062v3.07h1.485V4.72h-1.485V8.088H101.1V5.447H99.639V7.486H96.123V5.447H94.647V11.9H101.1ZM99.639,10.7H96.123V8.642h3.516Z" fill="#4d4d4d"/>
        <rect id="사각형_525" data-name="사각형 525" width="1.477" height="10.18" transform="translate(117.775 4.736)" fill="#4d4d4d"/>
        <path id="패스_3183" data-name="패스 3183" d="M119.674,17.22h-8.086V13.884H110.1v4.563h9.57Z" fill="#4d4d4d"/>
        <path id="패스_3184" data-name="패스 3184" d="M109.764,12.189a4.264,4.264,0,0,0,3.793,0,3.336,3.336,0,0,0,1.828-3.039,3.333,3.333,0,0,0-.488-1.789,3.4,3.4,0,0,0-1.34-1.235,4.264,4.264,0,0,0-3.793,0,3.419,3.419,0,0,0-1.34,1.235,3.31,3.31,0,0,0-.492,1.789,3.346,3.346,0,0,0,.492,1.8,3.412,3.412,0,0,0,1.34,1.238m-.09-4.172a2.056,2.056,0,0,1,.816-.766,2.475,2.475,0,0,1,1.168-.273,2.436,2.436,0,0,1,1.157.273,2.065,2.065,0,0,1,.812.766,2.15,2.15,0,0,1,.3,1.133,2.182,2.182,0,0,1-.3,1.144,2.047,2.047,0,0,1-.812.77,2.436,2.436,0,0,1-1.157.273,2.475,2.475,0,0,1-1.168-.273,2.038,2.038,0,0,1-.816-.77,2.132,2.132,0,0,1-.289-1.144,2.1,2.1,0,0,1,.289-1.133" fill="#4d4d4d"/>
        <path id="패스_3185" data-name="패스 3185" d="M128.972,12.252v2.663h1.492V12.176c1.274-.08,2.51-.2,3.688-.393l-.086-1.071q-1.969.25-4.121.324t-4.957.1l.195,1.188c1.318,0,2.572-.024,3.789-.07" fill="#4d4d4d"/>
        <path id="패스_3186" data-name="패스 3186" d="M137.042,17.22h-8.625v-2.9h-1.492v4.125h10.117Z" fill="#4d4d4d"/>
        <path id="패스_3187" data-name="패스 3187" d="M127.753,9.876a5.55,5.55,0,0,0,3.629,0,2.831,2.831,0,0,0,1.23-.851,2,2,0,0,0,.438-1.289,2.039,2.039,0,0,0-.438-1.289,2.772,2.772,0,0,0-1.234-.867,5.006,5.006,0,0,0-1.805-.3,5.084,5.084,0,0,0-1.816.3,2.729,2.729,0,0,0-1.23.867,2.056,2.056,0,0,0-.438,1.293,2,2,0,0,0,.438,1.289,2.829,2.829,0,0,0,1.226.851m0-2.859a1.64,1.64,0,0,1,.73-.477,3.179,3.179,0,0,1,1.086-.156,3.089,3.089,0,0,1,1.067.156,1.663,1.663,0,0,1,.73.477,1.078,1.078,0,0,1,.266.719,1.057,1.057,0,0,1-.266.718,1.71,1.71,0,0,1-.73.473,3.128,3.128,0,0,1-1.067.168,3.218,3.218,0,0,1-1.086-.168,1.686,1.686,0,0,1-.73-.473,1.033,1.033,0,0,1-.254-.718,1.052,1.052,0,0,1,.254-.719" fill="#4d4d4d"/>
        <path id="패스_3188" data-name="패스 3188" d="M132.394,12.97v1.047h2.828v1.336h1.484V4.736h-1.484V12.97Z" fill="#4d4d4d"/>
        <path id="패스_3189" data-name="패스 3189" d="M149.906,16.1a1.862,1.862,0,0,0-.567-1.359,3.658,3.658,0,0,0-1.632-.871,10.745,10.745,0,0,0-5.051,0,3.689,3.689,0,0,0-1.641.871,1.857,1.857,0,0,0-.57,1.359,1.909,1.909,0,0,0,.57,1.391,3.67,3.67,0,0,0,1.637.883,10.642,10.642,0,0,0,5.059,0,3.639,3.639,0,0,0,1.628-.883,1.914,1.914,0,0,0,.567-1.391m-1.883.77a2.642,2.642,0,0,1-1.1.48,9.283,9.283,0,0,1-3.485,0,2.642,2.642,0,0,1-1.1-.48.965.965,0,0,1-.383-.77.949.949,0,0,1,.383-.742,2.6,2.6,0,0,1,1.113-.48,8.2,8.2,0,0,1,1.738-.16,8.05,8.05,0,0,1,1.723.16,2.69,2.69,0,0,1,1.113.476.937.937,0,0,1,.391.746.965.965,0,0,1-.383.77" fill="#4d4d4d"/>
        <path id="패스_3190" data-name="패스 3190" d="M144.98,8.2a13.8,13.8,0,0,1-.277,1.809l1.461.117a13.3,13.3,0,0,0,.289-1.86q.063-.836.07-1.812V5.564h-7.055V6.791h5.565c-.005.5-.021.981-.053,1.41" fill="#4d4d4d"/>
        <path id="패스_3191" data-name="패스 3191" d="M143.3,12.447A37.934,37.934,0,0,0,147.491,12l-.078-1.071q-1.9.243-4.089.325l-.372.01V8.634h-1.468v2.673c-.922.021-1.871.036-2.875.038l.14,1.219q2.345,0,4.555-.117" fill="#4d4d4d"/>
        <path id="패스_3192" data-name="패스 3192" d="M149.8,9.674h1.937V8.432H149.8V4.721h-1.516v8.687H149.8Z" fill="#4d4d4d"/>
        <path id="패스_3193" data-name="패스 3193" d="M155.714,15.7q1.383-.039,2.965-.172a30.252,30.252,0,0,0,3.043-.406l-.11-1.086a40.192,40.192,0,0,1-4.3.383q-2.267.086-4.852.086l.195,1.234q1.673,0,3.055-.039" fill="#4d4d4d"/>
        <rect id="사각형_526" data-name="사각형 526" width="1.477" height="14.039" transform="translate(162.495 4.72)" fill="#4d4d4d"/>
        <path id="패스_3194" data-name="패스 3194" d="M154.991,11.974a4.433,4.433,0,0,0,1.973.426,4.373,4.373,0,0,0,1.953-.426,3.289,3.289,0,0,0,1.355-1.187,3.144,3.144,0,0,0,.489-1.731,3.143,3.143,0,0,0-.489-1.73,3.291,3.291,0,0,0-1.355-1.188,4.387,4.387,0,0,0-1.953-.426,4.446,4.446,0,0,0-1.973.426,3.284,3.284,0,0,0-1.359,1.188,3.134,3.134,0,0,0-.489,1.73,3.135,3.135,0,0,0,.489,1.731,3.281,3.281,0,0,0,1.359,1.187m-.082-3.992a1.965,1.965,0,0,1,.84-.723,3.068,3.068,0,0,1,2.426,0,2.008,2.008,0,0,1,.839,2.868,2.011,2.011,0,0,1-.839.718,2.981,2.981,0,0,1-2.426,0,2.046,2.046,0,0,1-.84-.718,1.9,1.9,0,0,1-.3-1.071,1.94,1.94,0,0,1,.3-1.074" fill="#4d4d4d"/>
        <path id="패스_3195" data-name="패스 3195" d="M178.874,15.822h-3.359V13.33h2.117V12.119H169.1V10.088h8.2V5.72h-9.7V6.931h8.242V8.884h-8.219V13.33h1.93v2.492h-3.492v1.227h12.812Zm-7.867-2.492h3.055v2.492h-3.055Z" fill="#4d4d4d"/>
        <path id="패스_3196" data-name="패스 3196" d="M182.218,11.076a6.694,6.694,0,0,1-1,2.176,5.08,5.08,0,0,1-1.676,1.515l.914,1.133a5.443,5.443,0,0,0,1.809-1.75,8.068,8.068,0,0,0,1.034-2.443,7.24,7.24,0,0,0,.966,2.072,5.284,5.284,0,0,0,1.824,1.637l.875-1.141a4.858,4.858,0,0,1-1.66-1.4,6.183,6.183,0,0,1-1-2.02,8.685,8.685,0,0,1-.328-2.429V7.533h2.445V6.314h-6.508V7.533h2.625v.891a10.327,10.327,0,0,1-.324,2.652" fill="#4d4d4d"/>
        <path id="패스_3197" data-name="패스 3197" d="M190.394,11.541v7.18h1.43v-14h-1.43V10.3H188.73V4.986h-1.406V18.033h1.406V11.541Z" fill="#4d4d4d"/>
        <path id="패스_3198" data-name="패스 3198" d="M195.531,13.814v4.633h9.461V17.22H197V13.814Z" fill="#4d4d4d"/>
        <path id="패스_3199" data-name="패스 3199" d="M198.887,12.338a21.832,21.832,0,0,0,2.8-.367l-.18-1.211a19.706,19.706,0,0,1-2.695.363c-.837.055-1.952.082-3.321.082V7.127h4.79V5.908h-6.266v6.524h1.117q2.337,0,3.754-.094" fill="#4d4d4d"/>
        <path id="패스_3200" data-name="패스 3200" d="M204.4,10.01h2.055V8.776H204.4V4.729h-1.477V14.862H204.4Z" fill="#4d4d4d"/>
      </g>
    </g>
  </g>
</svg>
