<?xml version="1.0" encoding="UTF-8"?>
<svg id="_레이어_1" data-name="레이어 1" xmlns="http://www.w3.org/2000/svg" xmlns:xlink="http://www.w3.org/1999/xlink" viewBox="0 0 270 50">
  <defs>
    <style>
      .cls-1 {
        fill: url(#_무제_그라디언트_21);
      }

      .cls-1, .cls-2, .cls-3, .cls-4, .cls-5, .cls-6, .cls-7, .cls-8, .cls-9 {
        stroke-width: 0px;
      }

      .cls-2 {
        fill: url(#_무제_그라디언트_60);
      }

      .cls-3 {
        fill: url(#_무제_그라디언트_39);
      }

      .cls-4 {
        fill: none;
      }

      .cls-5 {
        fill: #2ba88a;
      }

      .cls-6 {
        fill: #fff;
      }

      .cls-7 {
        fill: url(#_무제_그라디언트_78);
      }

      .cls-8 {
        fill: #1a00bf;
      }

      .cls-9 {
        fill: url(#_무제_그라디언트_199);
      }
    </style>
    <linearGradient id="_무제_그라디언트_39" data-name="무제 그라디언트 39" x1="12.42" y1="38.22" x2="27.8" y2="32.95" gradientUnits="userSpaceOnUse">
      <stop offset="0" stop-color="#8bc0c9"/>
      <stop offset="1" stop-color="#21a7c5"/>
    </linearGradient>
    <linearGradient id="_무제_그라디언트_21" data-name="무제 그라디언트 21" x1="6.83" y1="17.03" x2="17.87" y2="28.38" gradientUnits="userSpaceOnUse">
      <stop offset="0" stop-color="#32a5c4"/>
      <stop offset="1" stop-color="#1d6ba0"/>
    </linearGradient>
    <linearGradient id="_무제_그라디언트_199" data-name="무제 그라디언트 199" x1="47.58" y1="31.46" x2="47.35" y2="10.96" gradientUnits="userSpaceOnUse">
      <stop offset="0" stop-color="#227b5a"/>
      <stop offset="1" stop-color="#48a648"/>
      <stop offset="1" stop-color="#1dc02e"/>
    </linearGradient>
    <linearGradient id="_무제_그라디언트_60" data-name="무제 그라디언트 60" x1="24.04" y1="25.91" x2="36.56" y2="25.61" gradientUnits="userSpaceOnUse">
      <stop offset="0" stop-color="#008dbf"/>
      <stop offset=".51" stop-color="#3ea08a"/>
      <stop offset="1" stop-color="#69b14a"/>
    </linearGradient>
    <linearGradient id="_무제_그라디언트_78" data-name="무제 그라디언트 78" x1="29.96" y1="36.14" x2="56.31" y2="35.8" gradientUnits="userSpaceOnUse">
      <stop offset="0" stop-color="#aec539"/>
      <stop offset="1" stop-color="#48a648"/>
      <stop offset="1" stop-color="#aec539"/>
    </linearGradient>
  </defs>
  <g>
    <rect class="cls-4" x="98.02" y="17.37" width="6.16" height="1.56"/>
    <rect class="cls-4" x="85.27" y="14.93" width="3.05" height="2.49"/>
    <rect class="cls-4" x="96.14" y="10.25" width="3.52" height="2.06"/>
    <path class="cls-4" d="M70.01,12.45c.36.17.76.26,1.21.26s.85-.09,1.21-.26.64-.41.84-.72c.2-.31.3-.66.3-1.07s-.1-.76-.3-1.07c-.2-.31-.48-.56-.84-.72-.36-.17-.76-.25-1.21-.25s-.86.08-1.21.25c-.36.17-.64.41-.84.72-.2.32-.3.67-.3,1.07s.1.76.3,1.07c.2.31.48.55.84.72Z"/>
    <path class="cls-4" d="M155.91,40.93v2.72h4.09v-2.72c-.64.08-1.33.12-2.06.12s-1.4-.04-2.03-.12Z"/>
    <path class="cls-4" d="M146.92,16.49c-.48-.11-1.06-.16-1.72-.16s-1.25.05-1.74.16c-.49.11-.86.27-1.11.48-.25.21-.38.46-.38.74,0,.3.13.56.38.77s.62.37,1.11.48,1.06.16,1.75.16,1.26-.05,1.74-.16.85-.27,1.11-.48.38-.47.38-.77c0-.29-.13-.54-.39-.75s-.63-.37-1.11-.48Z"/>
    <path class="cls-4" d="M80.8,43.13c-.32-.25-.81-.44-1.46-.57s-1.46-.19-2.43-.19-1.74.06-2.38.19-1.13.32-1.47.57-.5.57-.5.95.17.72.5.98.83.47,1.47.6,1.44.21,2.38.22c.96,0,1.77-.08,2.42-.22s1.14-.34,1.46-.6.49-.59.49-.98-.16-.7-.49-.96Z"/>
    <path class="cls-4" d="M141.48,43.14c-.34-.25-.83-.44-1.47-.56s-1.43-.18-2.36-.18-1.72.06-2.38.18-1.15.31-1.49.57-.51.56-.51.91c0,.4.17.72.5.98s.83.44,1.47.57,1.45.19,2.41.19,1.75-.06,2.39-.19,1.12-.31,1.45-.57.49-.58.49-.98c0-.36-.17-.67-.5-.92Z"/>
    <path class="cls-4" d="M155.77,12.45c.36.17.76.26,1.21.26s.85-.09,1.21-.26.64-.41.84-.72c.2-.31.3-.66.3-1.07s-.1-.76-.3-1.07c-.2-.31-.48-.56-.84-.72-.36-.17-.76-.25-1.21-.25s-.86.08-1.21.25c-.36.17-.64.41-.84.72-.2.32-.3.67-.3,1.07s.1.76.3,1.07c.2.31.48.55.84.72Z"/>
    <rect class="cls-4" x="171.03" y="14.93" width="3.05" height="2.49"/>
    <path class="cls-4" d="M110.51,12.67c.35.18.74.27,1.17.27s.81-.09,1.16-.27c.34-.18.61-.44.81-.77.2-.33.3-.71.3-1.14s-.1-.8-.3-1.13-.47-.58-.81-.77c-.34-.18-.73-.27-1.16-.27s-.82.09-1.17.27c-.35.18-.62.44-.82.77s-.29.71-.29,1.13c0,.43.09.81.29,1.14.2.33.47.59.82.77Z"/>
    <path class="cls-4" d="M256.27,32.82c.38.12.82.19,1.32.19s.92-.06,1.29-.19.66-.31.87-.55.32-.54.32-.88-.11-.63-.32-.88-.5-.44-.87-.56-.8-.19-1.29-.19-.95.06-1.32.19-.67.31-.88.56-.32.54-.31.88c0,.34.1.64.31.88s.51.43.88.55Z"/>
    <path class="cls-4" d="M115.38,29.95c-.37-.12-.8-.19-1.29-.19s-.95.06-1.32.19-.67.31-.88.56-.32.54-.31.88c0,.34.1.64.31.88s.51.43.88.55.82.19,1.32.19.92-.06,1.29-.19.66-.31.87-.55.32-.54.32-.88-.11-.63-.32-.88-.5-.44-.87-.56Z"/>
    <path class="cls-4" d="M160.23,35.31c-.62-.14-1.39-.21-2.3-.21s-1.71.07-2.33.21-1.1.34-1.42.62-.48.61-.47,1c0,.4.15.73.47.99s.79.46,1.42.6,1.4.21,2.33.2c.91,0,1.67-.06,2.3-.2s1.1-.34,1.42-.6.48-.59.48-.99-.16-.72-.48-1-.79-.48-1.42-.62Z"/>
    <path class="cls-4" d="M128.51,10.53c.31.11.67.17,1.09.17s.76-.06,1.07-.17c.31-.11.55-.27.73-.47s.27-.44.27-.72-.09-.51-.27-.72c-.18-.21-.42-.37-.73-.48s-.67-.16-1.07-.16c-.41,0-.77.05-1.09.16s-.56.27-.73.48c-.17.21-.26.45-.25.72,0,.28.08.52.25.72s.42.36.73.47Z"/>
    <rect class="cls-4" x="234.16" y="33.3" width="4.2" height="2.72"/>
    <path class="cls-4" d="M201.62,30.62c-.77-.27-1.65-.39-2.66-.39-1.02,0-1.91.12-2.67.39s-1.35.65-1.76,1.16-.63,1.11-.63,1.8.21,1.3.63,1.81,1.01.9,1.77,1.18,1.65.41,2.67.42c1.01,0,1.89-.15,2.66-.43s1.36-.67,1.78-1.18.63-1.11.63-1.8-.21-1.3-.63-1.8-1.02-.89-1.78-1.16Z"/>
    <path class="cls-4" d="M196.56,39.08v4.14h4.84v-4.15c-.76.15-1.57.23-2.44.23s-1.65-.08-2.4-.23Z"/>
    <path class="cls-4" d="M214.23,35.49c.44.21.94.32,1.49.32s1.05-.11,1.49-.32.79-.52,1.04-.91.38-.87.38-1.42-.13-1-.38-1.41-.6-.72-1.04-.93-.94-.32-1.49-.31c-.55,0-1.05.1-1.49.31s-.79.53-1.04.93-.38.88-.38,1.41.12,1.02.38,1.42.6.7,1.04.91Z"/>
    <path class="cls-4" d="M243.34,42.43c-.65-.14-1.45-.2-2.41-.19-.95,0-1.75.06-2.39.19s-1.13.34-1.46.62-.5.62-.5,1.04c0,.39.17.72.5.99s.82.47,1.46.6,1.44.2,2.39.21c.95,0,1.76-.08,2.41-.21s1.14-.33,1.47-.6.49-.6.49-.99c0-.42-.16-.77-.49-1.04s-.82-.48-1.46-.62Z"/>
    <path class="cls-4" d="M222,42.31c-.63-.14-1.41-.21-2.34-.22-.93,0-1.71.08-2.36.22s-1.13.34-1.46.62-.49.62-.49,1.04c0,.41.15.75.48,1.02s.81.47,1.45.6,1.43.21,2.37.21,1.71-.07,2.34-.21,1.11-.34,1.43-.6.48-.61.48-1.02-.16-.76-.49-1.04-.8-.48-1.43-.62Z"/>
    <rect class="cls-4" x="241.32" y="32.33" width="3.93" height="2"/>
    <path class="cls-6" d="M80.83,40.55c-1.11-.31-2.41-.46-3.92-.46s-2.81.15-3.91.46-1.94.77-2.53,1.37-.88,1.33-.88,2.16.3,1.59.89,2.2,1.44,1.07,2.53,1.39,2.39.48,3.9.48,2.81-.16,3.92-.48,1.95-.79,2.54-1.39.89-1.34.9-2.2c0-.84-.31-1.56-.9-2.16s-1.44-1.06-2.54-1.37ZM80.8,45.07c-.32.27-.81.47-1.46.6s-1.46.21-2.42.22c-.95,0-1.74-.08-2.38-.22s-1.13-.34-1.47-.6-.5-.59-.5-.98.17-.69.5-.95.83-.45,1.47-.57,1.44-.19,2.38-.19,1.78.06,2.43.19,1.13.31,1.46.57.49.57.49.96-.16.72-.49.98Z"/>
    <path class="cls-6" d="M72.65,35.3c.44.78,1.01,1.47,1.74,2.06.91.75,2.03,1.3,3.36,1.64l1.41-2.31c-1.12-.28-2.05-.7-2.81-1.25s-1.32-1.18-1.7-1.89c-.37-.68-.56-1.4-.56-2.14h4.3v-2.36h-4.27v-2.32h-3v2.32h-4.3v2.36h4.3c0,.81-.19,1.6-.55,2.35-.37.77-.93,1.46-1.68,2.07s-1.68,1.08-2.79,1.4l1.39,2.32c1.32-.38,2.43-.97,3.33-1.78.79-.71,1.4-1.54,1.84-2.47Z"/>
    <polygon class="cls-6" points="84.2 39.72 84.2 26.81 81.22 26.81 81.22 32.55 77.76 32.55 77.76 34.95 81.22 34.95 81.22 39.72 84.2 39.72"/>
    <path class="cls-6" d="M91.51,33.95c-1.07.54-2.35.89-3.84,1.07l1.11,2.33c1.77-.24,3.29-.72,4.58-1.42s2.27-1.58,2.95-2.62c.05-.08.09-.17.14-.26.05.09.09.18.14.26.68,1.04,1.67,1.92,2.96,2.62s2.84,1.18,4.62,1.42l1.08-2.33c-1.52-.18-2.81-.54-3.87-1.07s-1.87-1.16-2.4-1.88c-.43-.58-.68-1.17-.76-1.79h6.21v-2.33h-15.95v2.33h6.21c-.08.61-.33,1.21-.77,1.79-.54.71-1.34,1.34-2.41,1.88Z"/>
    <polygon class="cls-6" points="86.74 40.99 94.92 40.99 94.92 48.17 97.88 48.17 97.88 40.99 106.19 40.99 106.19 38.61 86.74 38.61 86.74 40.99"/>
    <path class="cls-6" d="M112.86,42.45h3v-4.06c1.77-.13,3.5-.32,5.14-.59l-.15-2.14c-1.98.25-4.05.42-6.21.5s-4.66.13-7.5.16l.35,2.36c1.84,0,3.62-.04,5.36-.1v2.86h-3v6.38h15.91v-2.41h-12.9v-2.93Z"/>
    <polygon class="cls-6" points="118.22 41.27 122.3 41.27 122.3 42.97 125.3 42.97 125.3 26.86 122.3 26.86 122.3 39.23 118.22 39.23 118.22 41.27"/>
    <path class="cls-6" d="M116.84,28.05c-.81-.32-1.73-.48-2.75-.48s-1.96.16-2.78.47-1.45.77-1.9,1.35-.68,1.25-.68,1.99.23,1.42.68,1.98,1.08,1,1.89,1.32,1.74.47,2.78.47,1.95-.16,2.76-.47,1.44-.76,1.89-1.32.68-1.22.68-1.98-.23-1.4-.68-1.99-1.09-1.03-1.9-1.35ZM116.25,32.27c-.21.24-.5.43-.87.55s-.8.19-1.29.19-.95-.06-1.32-.19-.67-.31-.88-.55-.32-.54-.31-.88c0-.34.1-.64.31-.88s.51-.43.88-.56.82-.19,1.32-.19.92.06,1.29.19.66.31.87.56.32.54.32.88-.11.64-.32.88Z"/>
    <path class="cls-6" d="M128.72,27.99v2.41h8.01c-.01.64-.04,1.25-.07,1.76-.05.75-.17,1.62-.37,2.6l2.92.22c.21-.98.35-1.89.41-2.72s.1-1.75.11-2.76v-1.51h-11Z"/>
    <polygon class="cls-6" points="144.91 26.81 141.84 26.81 141.84 39.84 144.91 39.84 144.91 34.57 147.52 34.57 147.52 32.1 144.91 32.1 144.91 26.81"/>
    <path class="cls-6" d="M141.59,40.57c-1.11-.32-2.43-.48-3.94-.48s-2.82.16-3.94.48-1.98.78-2.58,1.38-.9,1.3-.9,2.12.3,1.58.9,2.19,1.46,1.07,2.57,1.39,2.43.48,3.95.48,2.84-.16,3.96-.48,1.97-.78,2.56-1.39.89-1.33.89-2.19-.3-1.52-.9-2.12-1.45-1.06-2.57-1.38ZM141.49,45.04c-.33.25-.81.44-1.45.57s-1.44.19-2.39.19-1.76-.06-2.41-.19-1.13-.31-1.47-.57-.5-.58-.5-.98c0-.35.17-.66.51-.91s.84-.45,1.49-.57,1.45-.18,2.38-.18,1.72.06,2.36.18,1.13.31,1.47.56.5.56.5.92c0,.4-.16.72-.49.98Z"/>
    <path class="cls-6" d="M140.84,38.08l-.14-2.1c-1.91.23-3.95.39-6.12.47-.06,0-.13,0-.2,0v-3.7h-2.98v3.78c-1.26.02-2.58.04-3.96.04l.26,2.39c2.35,0,4.63-.06,6.83-.19s4.3-.36,6.3-.7Z"/>
    <path class="cls-6" d="M162.95,40.1c.55-.27,1.02-.59,1.38-.97.58-.61.87-1.35.87-2.21s-.29-1.59-.87-2.21-1.42-1.09-2.51-1.42-2.39-.49-3.88-.49-2.8.16-3.89.49-1.94.8-2.53,1.42-.88,1.36-.87,2.21c0,.86.28,1.6.87,2.21.36.38.83.69,1.38.96v3.56h-4.65v2.38h19.5v-2.38h-4.79v-3.55ZM160,43.65h-4.09v-2.72c.63.08,1.3.12,2.03.12s1.42-.04,2.06-.12v2.72ZM161.65,37.91c-.32.26-.79.46-1.42.6s-1.39.21-2.3.2c-.92,0-1.7-.06-2.33-.2s-1.1-.34-1.42-.6-.48-.59-.47-.99c0-.39.15-.72.47-1s.79-.48,1.42-.62,1.4-.21,2.33-.21,1.67.07,2.3.21,1.1.34,1.42.62.48.61.48,1-.16.73-.48.99Z"/>
    <polygon class="cls-6" points="156.45 27.06 156.45 29.55 149.07 29.55 149.07 31.93 166.82 31.93 166.82 29.55 159.41 29.55 159.41 27.06 156.45 27.06"/>
    <polygon class="cls-6" points="179.93 38.75 186.11 38.75 186.11 36.37 174.03 36.37 174.03 30.71 185.96 30.71 185.96 28.35 171.04 28.35 171.04 36.37 171.04 37.45 171.04 38.75 176.98 38.75 176.98 43.3 168.75 43.3 168.75 45.75 188.25 45.75 188.25 43.3 179.93 43.3 179.93 38.75"/>
    <path class="cls-6" d="M204.41,37.92c.61-.38,1.13-.82,1.55-1.34.69-.86,1.03-1.86,1.03-3s-.35-2.12-1.04-2.99-1.64-1.54-2.86-2.02-2.59-.71-4.13-.71-2.92.24-4.13.71-2.17,1.15-2.85,2.02-1.03,1.86-1.03,2.99.34,2.14,1.03,3c.43.54.98.99,1.62,1.38v5.25h-4.35v2.45h19.5v-2.45h-4.34v-5.29ZM201.4,43.22h-4.84v-4.14c.75.15,1.55.23,2.4.23s1.67-.08,2.44-.23v4.15ZM203.4,35.39c-.42.51-1.02.9-1.78,1.18s-1.65.42-2.66.43c-1.02,0-1.9-.15-2.67-.42s-1.35-.67-1.77-1.18-.63-1.12-.63-1.81.21-1.3.63-1.8,1.01-.89,1.76-1.16,1.65-.39,2.67-.39c1.01,0,1.89.12,2.66.39s1.36.65,1.78,1.16.63,1.11.63,1.8-.21,1.3-.63,1.8Z"/>
    <polygon class="cls-6" points="226.66 26.81 223.67 26.81 223.67 39.3 226.66 39.3 226.66 36.58 229.44 36.58 229.44 34.12 226.66 34.12 226.66 31.93 229.44 31.93 229.44 29.49 226.66 29.49 226.66 26.81"/>
    <path class="cls-6" d="M223.49,40.24c-1.09-.34-2.36-.5-3.82-.5s-2.77.17-3.87.5-1.95.82-2.55,1.46-.9,1.39-.9,2.27.3,1.61.9,2.24,1.45,1.11,2.55,1.45,2.39.51,3.87.51,2.73-.17,3.82-.51,1.92-.82,2.5-1.45.87-1.37.87-2.24-.29-1.63-.87-2.27-1.42-1.12-2.5-1.46ZM223.44,44.99c-.32.27-.8.47-1.43.6s-1.41.21-2.34.21-1.74-.07-2.37-.21-1.12-.34-1.45-.6-.49-.61-.48-1.02c0-.41.15-.76.49-1.04s.82-.48,1.46-.62,1.43-.21,2.36-.22c.93,0,1.71.08,2.34.22s1.11.34,1.43.62.49.62.49,1.04-.16.75-.48,1.02Z"/>
    <path class="cls-6" d="M215.73,38.33c1.09,0,2.08-.22,2.97-.67s1.58-1.06,2.09-1.84.77-1.67.77-2.66c0-.99-.27-1.88-.77-2.68s-1.21-1.4-2.09-1.83-1.88-.64-2.97-.64-2.09.21-2.98.64-1.59,1.04-2.1,1.83-.77,1.69-.77,2.68.26,1.87.77,2.65,1.21,1.4,2.1,1.85,1.88.67,2.98.67ZM213.2,31.76c.25-.41.6-.72,1.04-.93s.94-.32,1.49-.31c.55,0,1.05.1,1.49.31s.79.53,1.04.93.38.88.38,1.41-.13,1.02-.38,1.42-.6.7-1.04.91-.94.32-1.49.32-1.05-.11-1.49-.32-.79-.52-1.04-.91-.38-.87-.38-1.42.12-1,.38-1.41Z"/>
    <path class="cls-6" d="M244.86,40.43c-1.11-.32-2.42-.49-3.93-.5-1.51,0-2.81.17-3.91.5s-1.94.8-2.53,1.42-.88,1.37-.88,2.23.29,1.58.88,2.2,1.43,1.08,2.53,1.4,2.4.48,3.91.48,2.82-.16,3.93-.48,1.95-.79,2.54-1.4.89-1.35.9-2.2c0-.87-.3-1.61-.89-2.23s-1.43-1.09-2.54-1.42ZM244.81,45.07c-.33.27-.82.47-1.47.6s-1.46.2-2.41.21c-.95,0-1.75-.08-2.39-.21s-1.13-.33-1.46-.6-.5-.6-.5-.99c0-.42.17-.77.5-1.04s.82-.48,1.46-.62,1.44-.2,2.39-.19c.96,0,1.77.06,2.41.19s1.14.34,1.46.62.49.62.49,1.04c0,.39-.16.72-.49.99Z"/>
    <path class="cls-6" d="M241.32,36.72h3.93v2.86h2.98v-12.77h-2.98v3.18h-3.93v-1.85h-2.96v2.87h-4.2v-2.87h-3.01v10.22h10.17v-1.63ZM241.32,32.33h3.93v2h-3.93v-2ZM238.35,36.02h-4.2v-2.72h4.2v2.72Z"/>
    <path class="cls-6" d="M254.82,34.69c.81.32,1.74.47,2.78.47s1.95-.16,2.76-.47,1.44-.76,1.89-1.32.68-1.22.68-1.98-.23-1.4-.68-1.99-1.09-1.03-1.9-1.35-1.73-.48-2.75-.48-1.96.16-2.78.47-1.45.77-1.9,1.35-.68,1.25-.68,1.99.23,1.42.68,1.98,1.08,1,1.89,1.32ZM255.39,30.51c.21-.25.51-.43.88-.56s.82-.19,1.32-.19.92.06,1.29.19.66.31.87.56.32.54.32.88-.11.64-.32.88-.5.43-.87.55-.8.19-1.29.19-.95-.06-1.32-.19-.67-.31-.88-.55-.32-.54-.31-.88c0-.34.1-.64.31-.88Z"/>
    <path class="cls-6" d="M256.38,45.38v-2.93h3v-4.06c1.77-.13,3.5-.32,5.14-.59l-.15-2.14c-1.98.25-4.05.42-6.21.5s-4.66.13-7.5.16l.35,2.36c1.84,0,3.62-.04,5.36-.1v2.86h-3v6.38h15.91v-2.41h-12.9Z"/>
    <polygon class="cls-6" points="261.74 41.27 265.81 41.27 265.81 42.97 268.81 42.97 268.81 26.86 265.81 26.86 265.81 39.23 261.74 39.23 261.74 41.27"/>
    <path class="cls-6" d="M69.98,17.31c.92-.03,1.91-.08,2.96-.17,1.05-.09,2.07-.22,3.04-.41l-.11-1.09c-1.35.2-2.79.33-4.3.38-1.51.06-3.13.09-4.85.09l.2,1.23c1.11,0,2.13-.01,3.05-.04Z"/>
    <rect class="cls-6" x="76.76" y="6.32" width="1.48" height="14.04"/>
    <path class="cls-6" d="M69.26,13.58c.58.28,1.24.43,1.97.43s1.38-.14,1.95-.43c.58-.28,1.03-.68,1.36-1.19s.49-1.08.49-1.73-.16-1.22-.49-1.73-.78-.9-1.36-1.19c-.58-.28-1.23-.43-1.95-.43s-1.39.14-1.97.43c-.58.28-1.03.68-1.36,1.19s-.49,1.08-.49,1.73.16,1.22.49,1.73.78.9,1.36,1.19ZM69.17,9.59c.2-.31.48-.56.84-.72.36-.17.76-.25,1.21-.25s.85.08,1.21.25c.36.17.64.41.84.72.2.32.3.67.3,1.07s-.1.76-.3,1.07c-.2.31-.48.55-.84.72s-.76.26-1.21.26-.86-.09-1.21-.26-.64-.41-.84-.72c-.2-.31-.3-.66-.3-1.07s.1-.76.3-1.07Z"/>
    <path class="cls-6" d="M93.14,17.43h-3.36v-2.49h2.12v-1.21h-8.53v-2.03h8.2v-4.37h-9.7v1.21h8.24v1.95h-8.22v4.45h1.93v2.49h-3.49v1.23h12.81v-1.23ZM88.33,17.43h-3.05v-2.49h3.05v2.49Z"/>
    <path class="cls-6" d="M101.12,10.92h3.06v3.07h1.48v-7.66h-1.48v3.37h-3.06v-2.64h-1.46v2.04h-3.52v-2.04h-1.48v6.45h6.45v-2.59ZM99.66,12.31h-3.52v-2.06h3.52v2.06Z"/>
    <path class="cls-6" d="M105.65,14.63h-1.47v1.57h-6.16v-1.57h-1.48v5.52h9.12v-5.52ZM104.18,18.93h-6.16v-1.56h6.16v1.56Z"/>
    <path class="cls-6" d="M109.78,13.79c.57.3,1.2.45,1.89.45s1.33-.15,1.9-.45,1.01-.71,1.34-1.24c.33-.53.49-1.13.49-1.8s-.16-1.26-.49-1.79c-.33-.53-.77-.94-1.34-1.23s-1.2-.45-1.9-.45-1.33.15-1.89.45-1.01.71-1.34,1.23c-.33.53-.49,1.12-.49,1.79s.16,1.27.49,1.8c.33.53.77.94,1.34,1.24ZM109.69,9.62c.2-.33.47-.58.82-.77.35-.18.74-.27,1.17-.27s.81.09,1.16.27c.34.18.61.44.81.77s.3.71.3,1.13-.1.81-.3,1.14c-.2.33-.47.59-.81.77-.34.18-.73.27-1.16.27s-.82-.09-1.17-.27c-.35-.18-.62-.44-.82-.77-.2-.33-.29-.71-.29-1.14,0-.43.09-.8.29-1.13Z"/>
    <polygon class="cls-6" points="119.69 18.82 111.61 18.82 111.61 15.49 110.12 15.49 110.12 18.82 110.12 19.27 110.12 20.05 119.69 20.05 119.69 18.82"/>
    <rect class="cls-6" x="117.79" y="6.34" width="1.48" height="10.18"/>
    <polygon class="cls-6" points="137.06 18.82 128.44 18.82 128.44 15.93 126.94 15.93 126.94 18.82 126.94 19.17 126.94 20.05 137.06 20.05 137.06 18.82"/>
    <polygon class="cls-6" points="132.41 15.62 135.24 15.62 135.24 16.96 136.73 16.96 136.73 6.34 135.24 6.34 135.24 14.57 132.41 14.57 132.41 15.62"/>
    <path class="cls-6" d="M127.77,11.48c.53.2,1.13.3,1.82.3s1.28-.1,1.81-.3.94-.49,1.23-.85c.29-.36.44-.79.44-1.29s-.15-.91-.44-1.29-.7-.66-1.23-.87-1.13-.3-1.8-.3-1.29.1-1.82.3c-.53.2-.94.49-1.23.87-.29.38-.44.81-.44,1.29s.15.92.44,1.29c.29.36.7.65,1.23.85ZM127.78,8.62c.17-.21.42-.37.73-.48s.67-.16,1.09-.16c.4,0,.76.05,1.07.16s.55.27.73.48c.18.21.27.45.27.72s-.09.52-.27.72-.42.36-.73.47c-.31.11-.67.17-1.07.17s-.77-.06-1.09-.17c-.31-.11-.56-.27-.73-.47s-.26-.44-.25-.72c0-.27.08-.51.25-.72Z"/>
    <path class="cls-6" d="M128.99,13.86v2.66h1.49v-2.74c1.27-.08,2.51-.2,3.69-.39l-.09-1.07c-1.31.17-2.69.27-4.12.32-1.43.05-3.09.08-4.96.1l.2,1.19c1.32,0,2.57-.02,3.79-.07Z"/>
    <path class="cls-6" d="M145,9.81c-.04.52-.13,1.13-.28,1.81l1.46.12c.15-.68.25-1.3.29-1.86.04-.56.07-1.16.07-1.81v-.89h-7.05v1.23h5.57c0,.5-.02.98-.05,1.41Z"/>
    <polygon class="cls-6" points="149.82 11.28 151.76 11.28 151.76 10.04 149.82 10.04 149.82 6.32 148.31 6.32 148.31 15.01 149.82 15.01 149.82 11.28"/>
    <path class="cls-6" d="M149.92,17.71c0-.53-.19-.98-.57-1.36-.38-.38-.92-.67-1.63-.87-.71-.2-1.55-.3-2.53-.3s-1.81.1-2.52.3c-.71.2-1.26.49-1.64.87-.38.38-.57.83-.57,1.36s.19,1.01.57,1.39.93.68,1.64.88,1.55.3,2.53.3,1.82-.1,2.53-.3,1.25-.5,1.63-.88.57-.85.57-1.39ZM148.04,18.48c-.25.21-.62.37-1.11.48s-1.06.16-1.74.16-1.26-.05-1.75-.16-.85-.27-1.11-.48-.38-.47-.38-.77c0-.28.13-.53.38-.74.25-.21.63-.37,1.11-.48.49-.11,1.07-.16,1.74-.16s1.24.05,1.72.16c.48.11.85.27,1.11.48s.39.46.39.75c0,.3-.13.56-.38.77Z"/>
    <path class="cls-6" d="M143.32,14.05c1.47-.08,2.87-.23,4.19-.45l-.08-1.07c-1.27.16-2.63.27-4.09.32-.12,0-.25,0-.37.01v-2.63h-1.47v2.67c-.92.02-1.87.04-2.88.04l.14,1.22c1.56,0,3.08-.04,4.55-.12Z"/>
    <rect class="cls-6" x="162.51" y="6.32" width="1.48" height="14.04"/>
    <path class="cls-6" d="M155.73,17.31c.92-.03,1.91-.08,2.96-.17,1.05-.09,2.07-.22,3.04-.41l-.11-1.09c-1.35.2-2.79.33-4.3.38-1.51.06-3.13.09-4.85.09l.2,1.23c1.11,0,2.13-.01,3.05-.04Z"/>
    <path class="cls-6" d="M155.01,13.58c.58.28,1.24.43,1.97.43s1.38-.14,1.95-.43c.58-.28,1.03-.68,1.36-1.19s.49-1.08.49-1.73-.16-1.22-.49-1.73-.78-.9-1.36-1.19c-.58-.28-1.23-.43-1.95-.43s-1.39.14-1.97.43c-.58.28-1.03.68-1.36,1.19s-.49,1.08-.49,1.73.16,1.22.49,1.73.78.9,1.36,1.19ZM154.93,9.59c.2-.31.48-.56.84-.72.36-.17.76-.25,1.21-.25s.85.08,1.21.25c.36.17.64.41.84.72.2.32.3.67.3,1.07s-.1.76-.3,1.07c-.2.31-.48.55-.84.72s-.76.26-1.21.26-.86-.09-1.21-.26-.64-.41-.84-.72c-.2-.31-.3-.66-.3-1.07s.1-.76.3-1.07Z"/>
    <path class="cls-6" d="M178.89,17.43h-3.36v-2.49h2.12v-1.21h-8.53v-2.03h8.2v-4.37h-9.7v1.21h8.24v1.95h-8.22v4.45h1.93v2.49h-3.49v1.23h12.81v-1.23ZM174.08,17.43h-3.05v-2.49h3.05v2.49Z"/>
    <polygon class="cls-6" points="190.41 20.32 191.84 20.32 191.84 6.32 190.41 6.32 190.41 11.9 188.75 11.9 188.75 6.59 187.34 6.59 187.34 19.64 188.75 19.64 188.75 13.15 190.41 13.15 190.41 20.32"/>
    <path class="cls-6" d="M182.24,12.68c-.22.82-.55,1.54-1,2.18-.45.64-1.01,1.14-1.68,1.52l.91,1.13c.72-.43,1.33-1.01,1.81-1.75.46-.71.8-1.53,1.03-2.44.23.77.54,1.47.97,2.07.49.7,1.09,1.24,1.82,1.64l.88-1.14c-.66-.34-1.21-.81-1.66-1.4-.45-.59-.78-1.26-1-2.02-.22-.75-.33-1.56-.33-2.43v-.89h2.45v-1.22h-6.51v1.22h2.62v.89c0,.95-.11,1.84-.32,2.65Z"/>
    <polygon class="cls-6" points="195.55 15.42 195.55 18.82 195.55 19.41 195.55 20.05 205.01 20.05 205.01 18.82 197.02 18.82 197.02 15.42 195.55 15.42"/>
    <polygon class="cls-6" points="204.42 11.61 206.47 11.61 206.47 10.38 204.42 10.38 204.42 6.33 202.94 6.33 202.94 16.47 204.42 16.47 204.42 11.61"/>
    <path class="cls-6" d="M198.91,13.94c.95-.06,1.88-.18,2.8-.37l-.18-1.21c-.89.18-1.78.3-2.7.36-.84.06-1.95.08-3.32.08v-4.08h4.79v-1.22h-6.27v6.52h1.12c1.56,0,2.81-.03,3.75-.09Z"/>
  </g>
  <g>
    <path class="cls-3" d="M23.6,23.26c-.05-.11-.11-.21-.14-.32l-.22-.41c.16,2.94-4.02,6.59-7.59,9.19-2.97,2.17-7.3,1.68-9.61-1.11-.82-.99-1.64-2.08-2.36-3.19l10.7,19.57c1.85,3.39,7.06,3.39,8.91,0l6.66-12.19-5.25-9.61-1.09-1.93Z"/>
    <path class="cls-8" d="M3.67,27.42l-1.29-2.38c.35.79.8,1.6,1.29,2.38Z"/>
    <path class="cls-1" d="M15.64,31.71c3.57-2.6,7.75-6.24,7.59-9.19,0-.07,0-.14-.02-.21,0-.09-.03-.17-.04-.26,0-.05-.02-.12-.04-.17,0-.05-.02-.11-.04-.16-.85-2.4-4.82-10.01-10.77-10.01S1.55,16.2,1.55,21.72c0,.11.03.22.04.33.05.95.33,1.96.79,2.98l1.29,2.38c.72,1.11,1.54,2.2,2.36,3.19,2.31,2.78,6.65,3.27,9.61,1.11Z"/>
    <path class="cls-9" d="M47.55,11.72c-5.95,0-9.92,7.61-10.77,10.01-.02.04-.04.09-.04.14-.02.06-.03.12-.04.19-.02.09-.04.17-.04.26,0,.07-.02.14-.02.21-.16,2.94,4.02,6.59,7.59,9.19,2.98,2.17,7.31,1.68,9.62-1.11.82-.99,1.64-2.08,2.35-3.19l1.3-2.38c.46-1.02.74-2.02.78-2.98.02-.11.04-.22.04-.33,0-5.52-4.83-10.01-10.78-10.01Z"/>
    <path class="cls-2" d="M36.42,22.94l.22-.41c0-.07,0-.14.02-.21,0-.09.03-.17.04-.26,0-.06.02-.12.04-.19-.81-2.4-3.57-4.84-6.34-5.1-.37-.03-.43-.03-.92,0-2.78.2-5.54,2.72-6.34,5.12.03.05.04.12.04.17.02.09.04.17.04.26,0,.07.02.14.02.21l.22.41c.04.11.09.21.14.32l1.09,1.93,5.25,9.61,5.41-9.91,1.06-1.94Z"/>
    <path class="cls-7" d="M44.22,31.71c-3.56-2.6-7.74-6.24-7.59-9.19l-.22.41-1.06,1.94-5.41,9.91,6.65,12.19c1.85,3.39,7.05,3.39,8.91,0l10.69-19.57c-.71,1.11-1.53,2.2-2.35,3.19-2.31,2.78-6.65,3.27-9.62,1.11Z"/>
    <circle class="cls-5" cx="29.94" cy="6.39" r="5.85"/>
  </g>
</svg>