<svg id="그룹_2" data-name="그룹 2" xmlns="http://www.w3.org/2000/svg" xmlns:xlink="http://www.w3.org/1999/xlink" width="97.465" height="67.619" viewBox="0 0 97.465 67.619">
  <defs>
    <clipPath id="clip-path">
      <rect id="사각형_24" data-name="사각형 24" width="97.465" height="67.619" fill="none"/>
    </clipPath>
  </defs>
  <g id="그룹_1" data-name="그룹 1" clip-path="url(#clip-path)">
    <path id="패스_1" data-name="패스 1" d="M43.6,156.582c1.526-.768,6.5-2.848,6.5-5.379s-4.17-3.322-6.769-3.65a42.418,42.418,0,0,0-7.04-.3c-1.933.09-2.893.554-2.893,1.085s.723.678.949.678a2.484,2.484,0,0,0,.972-.283c.316-.17.411-.514,1.232-.622a24.289,24.289,0,0,1,7.4.294c4.543.915,4.373,2.4,4.385,2.8s-.2,1.379-2.915,3.322a37.009,37.009,0,0,1-5.925,3.3c.023-.336.048-.64.074-.894.171-1.63.789-5.349.895-6.479s-.589-1.285-.589-1.285c-.874-.075-.939,1.33-.939,1.33s-.106,1.221-.347,4.31c-.084,1.076-.133,2.32-.162,3.5-.28.143-.457.289-.4.516.051.2.249.2.385.166-.035,1.926-.02,3.554-.02,3.8,0,.422.09,1.416.452,1.416s.452-.557.452-1.251c0-.513.055-2.672.153-4.421,1.15-.528,3.111-1.437,4.149-1.96" transform="translate(-21.913 -96.595)"/>
    <path id="패스_2" data-name="패스 2" d="M72.491,165.628c-.347-.151-.708.316-1.431,1.522s-2.682,5.319-3.616,5.319-.03-2.591-.738-2.652-2.531,3.149-3.3,3.149.015-3.179-.573-3.255-2.619,3.032-3.209,2.954c-.452-.06-.241-1.5-.256-2.422a.889.889,0,0,0-.927-.927c-.949,0-2.113.735-2.9,2.769s.78,3.2,2.1,1.062c0,0,.927-1.526.927-1.153s.113,1.638.8,1.638,1.435-.9,1.763-1.266,1.13-1.48,1.085-.927-.384,2.983.915,2.983c.87,0,1.842-1.639,2.057-1.932s1.1-1.9,1.1-1.164-.26,2.441.848,2.441,2.482-3,2.949-3.771a16.8,16.8,0,0,1,1.371-2.29,31.975,31.975,0,0,1-.588,3.895c-.151.889-.579,3.828.286,3.624.768-.181.347-1.469.333-1.921-.011-.377.285-2.615.466-3.7s.889-3.827.543-3.978m-13.968,4.79s-1.469,2.4-1.891,2.4-.347-.806.331-1.635,1.288-.934,1.469-.9.09.142.09.142" transform="translate(-36.301 -108.661)"/>
    <path id="패스_3" data-name="패스 3" d="M120.772,154.848c-1.007-.041-1.861-.046-2.571-.031,2.11-1.11,6.594-3.056,6.594-4.859,0-1.676-3.406-2.313-5.4-2.537a33.529,33.529,0,0,0-5.328-.046c-1.482.062-2.053.483-2.053.845s.555.464.728.464a2.086,2.086,0,0,0,.746-.193c.243-.116.41-.441,1.039-.521a19.533,19.533,0,0,1,4.528-.136c2.571.248,3.97,1.386,3.97,2.095,0,.61-.646,1.656-2.727,2.983a32.389,32.389,0,0,1-3.583,1.974l-.276.023c.261-1.875.685-4.515.774-5.463.111-1.175-.467-1.256-.467-1.256-.784-.089-.862,1.373-.862,1.373s-.2,1.263-.374,4.483c-.016.316-.034.647-.052.986a8.24,8.24,0,0,0-1.236.268c-.373.143-.561.32-.554.554s.233.46.636.452c.114,0,.52-.037,1.091-.087-.149,2.894-.3,5.988-.308,6.336a2.463,2.463,0,0,0,.159,1.105v0s.055.249.62.113a36.249,36.249,0,0,0,4.995-2.057c2.272-1.107,5.346-2.689,5.346-4.385s-1.772-2.336-5.436-2.486m-.723,6.4a23.151,23.151,0,0,1-3.892,1.537c-.3.078-.312-.375-.312-.383.051-1.23.264-4.7.435-6.254,1.451-.122,3.358-.268,4.56-.268,2.045,0,3.955.384,3.955,1.56s-2.678,2.791-4.746,3.808" transform="translate(-73.5 -96.646)"/>
    <path id="패스_4" data-name="패스 4" d="M187.037,156.248c-.4,0-1.028.317-1.876.4s-5.876.26-5.876.26a15.95,15.95,0,0,0,.972-1.91c.316-.814.791-2.746-.045-2.746s-1.1,3.21-1.82,4.69l-4.645-.034a11.87,11.87,0,0,0,.949-2.6c-.03-.535-.279-.527-.384-.527s-.558.038-1.175,1.017a13.674,13.674,0,0,0-1.032,2.042s-2.72-.113-2.885-.136-.656-.008-.746.339.5.452,1.16.49,2.072.1,2.072.1-.738,2.074-.823,2.559a24.621,24.621,0,0,1-1.955,2.424,7.323,7.323,0,0,1-2.819,1.983c-.458,0-.52-.559-.52-.559a5.6,5.6,0,0,0,1.209-.7,2.454,2.454,0,0,0,1.249-1.915.971.971,0,0,0-.966-1.074,2.584,2.584,0,0,0-1.763.989,4.153,4.153,0,0,0-.8,2.238l-1.051.254a.722.722,0,0,0-.277-.661c-.356-.322-1.113-.8-1.113-1.255s.509-.983.718-1.254a1.715,1.715,0,0,0,.413-.808c0-.215-.074-.413-.424-.413s-2.2,1.989-2.537,2.305-1.7,1.418-1.7,1.418-1.593-.876-1.593-1.531.955-1.345,1.52-1.554,1.672-.559,1.672-.944-.345-.452-.565-.452a5.193,5.193,0,0,0-2.916,1.441,8.756,8.756,0,0,0-1.746,3.1s-.206.409-.175.132c.033-.3.1-1.321.11-1.444.023-.209.319-1.146-.061-1.246a2.24,2.24,0,0,0-1.507.09,4.614,4.614,0,0,0-2.155,3.383c0,1.3.949,1.19,1.01,1.19s.648-.008,1.281-1.319c.233-.467.2-.542.331-.542s.113.128.143.4.151,1.464.686,1.464.648-1.238.866-1.878.512-1.4.641-1.4.414.555.866.9.912.724.912.724-2.151,1.105-2.151,1.652,1.8.378,2.644-.1,1.006-.961.949-1.39c-.049-.32.373-.512.731-.81s1.006-.946,1.074-.946.034.279.188.557a5.892,5.892,0,0,0,1.044,1.013c.226.181.264.192.264.268s-.1.121-.215.132-2.264.279-2.264.908,1.895.591,2.027.591,1.322-.162,1.322-1.021l1.13-.256a1.165,1.165,0,0,0,1.243,1.292,4.042,4.042,0,0,0,2.825-1.7c.531-.588,1.56-1.876,1.808-2.034,0,0-.057.678-.057,1.1s.045,2.554,1.514,2.554,2.871-2.1,3.594-3.063a25.594,25.594,0,0,0,1.571-2.215,4.645,4.645,0,0,1,.949-1.266c.113,0,.113.068.068.35s-.8,5.074-.859,5.571.079.7.4.7.463-.034.492-.576.989-7.289.989-7.289l4.1-.073a35.754,35.754,0,0,0,4.012-.164.652.652,0,0,0,.5-.678c0-.418-.328-.543-.723-.543m-20.65,5.312a.649.649,0,0,1,.682-.249c.331.226.023.678-.1.847s-1,1.014-1.205.867.275-1.089.622-1.465m-12.537.06s-1.235,2.788-1.6,2.788-.2-.957.173-1.71a2.285,2.285,0,0,1,1.288-1.288c.369-.06.143.211.143.211m18.232,3.1c-1.266-.309-.776-3.556-.6-4.061a20.861,20.861,0,0,1,1.831-2.961h4.754c-1.861,3.4-4.977,7.269-5.99,7.022" transform="translate(-99.172 -99.899)"/>
    <path id="패스_5" data-name="패스 5" d="M1.549,48.5A1.549,1.549,0,1,0,3.1,50.045,1.549,1.549,0,0,0,1.549,48.5" transform="translate(0 -31.821)" fill="#e80a4d"/>
    <path id="패스_6" data-name="패스 6" d="M56.361,21.91a1.549,1.549,0,1,0-1.549-1.549,1.549,1.549,0,0,0,1.549,1.549" transform="translate(-35.966 -12.343)" fill="#e80a4d"/>
    <path id="패스_7" data-name="패스 7" d="M87.19,37.309c-4.769-1.936-2.29-9.824-1.266-11.753,0,0-6.9,8.091-13.908,8.091S61.77,24.2,60.755,20.011C59.74,24.2,56.5,33.647,49.494,33.647s-13.908-8.091-13.908-8.091c1.025,1.929,3.5,9.817-1.266,11.753-4.7,1.909-15.972-2.35-15.972-2.35,11.813,10,12.235,19.648,12.235,19.648a236.823,236.823,0,0,1,30.171-2.17,236.823,236.823,0,0,1,30.171,2.17s.422-9.644,12.235-19.648c0,0-11.271,4.259-15.972,2.35" transform="translate(-12.04 -13.131)" fill="#e80a4d"/>
    <path id="패스_8" data-name="패스 8" d="M276,48.5a1.549,1.549,0,1,0,1.549,1.549A1.549,1.549,0,0,0,276,48.5" transform="translate(-180.087 -31.821)" fill="#e80a4d"/>
    <path id="패스_9" data-name="패스 9" d="M221.19,21.91a1.549,1.549,0,1,0-1.549-1.549,1.549,1.549,0,0,0,1.549,1.549" transform="translate(-144.121 -12.343)" fill="#e80a4d"/>
    <path id="패스_10" data-name="패스 10" d="M138.775,3.1a1.549,1.549,0,1,0-1.549-1.549A1.549,1.549,0,0,0,138.775,3.1" transform="translate(-90.043)" fill="#e80a4d"/>
  </g>
</svg>
