<svg width="119" height="51" viewBox="0 0 119 51" fill="none" xmlns="http://www.w3.org/2000/svg">
<g clip-path="url(#clip0_87_121)">
<path d="M105.64 32.91C105.23 32.91 104.81 32.84 104.4 32.7C102.47 32.02 101.47 29.9 102.15 27.97L108.6 9.78L89.1802 16.65C87.2502 17.33 85.1402 16.32 84.4502 14.39C83.7702 12.46 84.7802 10.35 86.7102 9.66L113.46 0.209996C114.81 -0.260004 116.3 0.0699965 117.31 1.08C118.32 2.09 118.66 3.59 118.18 4.93L109.13 30.43C108.59 31.95 107.16 32.89 105.64 32.9V32.91Z" fill="#ED2224"/>
<path d="M93.8905 26.3799H90.7305V37.1599H93.8905V26.3799Z" fill="white"/>
<path d="M93.8905 39.6199H90.7305V45.7999H93.8905V39.6199Z" fill="white"/>
<path d="M4.18 46.5499C4.18 46.5499 4.18 46.59 4.18 46.66V46.9199H4.19C4.25 47.7999 4.61 49.8699 6.59 49.8699H19.23V48.06H19.21V42.07H19.23V40.2599H4.18V46.56V46.5499ZM7.34 42.07H16.05V48.06H7.34V42.07ZM19.24 26.5H3.25V28.3099H16.08V35.88H0V37.6899H23.98V35.88H19.24V26.49V26.5ZM93.47 39.63H78.14V41.4399H93.47V39.63ZM66.84 41.63H70V26.3899H66.84V32.66H62.05V34.47H66.84V41.63ZM93.56 30.7999H87.24V32.61H93.56V30.7999ZM39.06 41.88C42.26 41.22 44.66 38.59 44.66 35.45C44.66 33.53 43.76 31.8 42.33 30.59H46.96V28.78H39.06V26.2H35.9V28.78H28V30.59H32.63C31.2 31.8 30.3 33.52 30.3 35.45C30.3 38.59 32.69 41.22 35.9 41.88V45.16H25.28V46.97H49.68V45.16H39.06V41.88ZM33.48 35.45C33.48 33.35 35.27 31.6399 37.48 31.6399C39.69 31.6399 41.48 33.35 41.48 35.45C41.48 37.55 39.69 39.2599 37.48 39.2599C35.27 39.2599 33.48 37.55 33.48 35.45ZM57.81 48.45L57.78 40.7099H54.62L54.64 46.95C54.64 46.95 54.64 46.99 54.64 47.0499V47.32L54.65 47.33C54.72 48.2 55.08 50.2699 57.06 50.2599L70.44 50.22V48.41L57.8 48.45H57.81ZM93.96 48.41L81.32 48.45V45.81H93.65V44H78.15V44.07H78.13L78.15 47.32H78.16C78.23 48.1999 78.59 50.2699 80.57 50.2599L93.95 50.22V48.41H93.96ZM61.49 27.08H51.55V28.8899H58.35C58.07 33.8699 50.65 38.09 50.65 38.09L51.49 39.2999C61.9 34.8399 61.5 27.08 61.5 27.08H61.49ZM80.01 29.54C81.03 30.19 84.28 33.81 84.01 37.25H86.71C86.71 37.25 85.04 29.72 80.48 27.03C80.48 27.03 78.62 26.1899 77.88 27.3099C77.14 28.4299 74.44 37.16 74.44 37.16H76.95C76.95 37.16 78.99 28.89 80.02 29.54H80.01Z" fill="white"/>
</g>
<defs>
<clipPath id="clip0_87_121">
<rect width="118.4" height="50.26" fill="white"/>
</clipPath>
</defs>
</svg>
