<?xml version="1.0" encoding="utf-8"?>
<!-- Generator: Adobe Illustrator 28.2.0, SVG Export Plug-In . SVG Version: 6.00 Build 0)  -->
<svg version="1.1" id="Layer_1" xmlns="http://www.w3.org/2000/svg" xmlns:xlink="http://www.w3.org/1999/xlink" x="0px" y="0px"
	 viewBox="0 0 16 16" style="enable-background:new 0 0 16 16;" xml:space="preserve">
<style type="text/css">
	.st0{fill:#FFFFFF;}
	.st1{fill:#E50013;}
</style>
<path class="st0" d="M10.78,3.4C9.75,3.4,8.79,3.72,8,4.27C7.21,3.72,6.25,3.4,5.22,3.4c-2.69,0-4.86,2.18-4.86,4.86
	c0,2.69,2.18,4.86,4.86,4.86c1.03,0,1.99-0.33,2.78-0.87c0.79,0.55,1.75,0.87,2.78,0.87c2.69,0,4.87-2.18,4.87-4.86
	C15.64,5.57,13.47,3.4,10.78,3.4"/>
<path class="st1" d="M8,6.33l1.24-0.81l2.96-1.92c-0.25-0.08-0.51-0.13-0.77-0.17L9.09,5.32L8,6.19L5.96,7.56L1.1,10.84
	c0.11,0.17,0.23,0.34,0.36,0.5l4.47-3.42L8,6.33"/>
<path class="st1" d="M15.28,6.41c-0.08-0.19-0.17-0.38-0.27-0.56L9.84,9.78L8,11.18l-0.72,0.45l-2.34,1.48
	c0.09,0.01,0.19,0.01,0.28,0.01c0.3,0,0.59-0.03,0.88-0.08l1.36-1.23L8,11.32l1.69-1.14L15.28,6.41"/>
<path class="st1" d="M8,10.33l2.03-1.37l4.87-3.28c-0.11-0.17-0.23-0.34-0.36-0.5L10.07,8.6L8,10.19l-1.24,0.81L3.8,12.91
	c0.25,0.08,0.51,0.13,0.77,0.17l2.34-1.88L8,10.33"/>
<path class="st1" d="M8,7.33l1.65-1.09l3.44-2.27c-0.2-0.11-0.41-0.2-0.63-0.28l-2.93,2.3L8,7.19L5.93,8.58l-4.34,2.91
	c0.14,0.15,0.29,0.3,0.44,0.44L5.96,8.9L8,7.33"/>
<path class="st1" d="M8,8.33l1.93-1.29l3.88-2.58c-0.17-0.13-0.34-0.26-0.53-0.37L9.85,6.76L8,8.19L6.07,9.48l-3.88,2.59
	c0.17,0.13,0.34,0.26,0.53,0.37l3.44-2.67L8,8.33"/>
<path class="st1" d="M8,9.33l2.07-1.39l4.34-2.91c-0.14-0.15-0.28-0.3-0.44-0.44l-3.93,3.02L8,9.19l-1.65,1.09l-3.44,2.27
	c0.2,0.11,0.41,0.21,0.63,0.28l2.93-2.3L8,9.33"/>
<path class="st1" d="M5.22,3.4c-2.69,0-4.86,2.18-4.86,4.86c0,0.57,0.1,1.12,0.28,1.63l7.32-5.66C7.17,3.71,6.23,3.4,5.22,3.4"/>
<path class="st1" d="M8,5.33l0.72-0.45l2.34-1.48C10.97,3.4,10.87,3.4,10.78,3.4c-0.3,0-0.59,0.03-0.87,0.08L8.54,4.71L8,5.2
	L6.31,6.34l-5.59,3.78c0.08,0.19,0.17,0.38,0.27,0.56l5.16-3.94L8,5.33"/>
<path class="st1" d="M15.36,6.63l-7.32,5.65c0.78,0.53,1.72,0.84,2.73,0.84c2.69,0,4.86-2.18,4.86-4.86
	C15.64,7.69,15.55,7.14,15.36,6.63"/>
<path class="st1" d="M6.39,8.81l-0.92,0c-0.3,0-0.54-0.24-0.54-0.53c0-0.3,0.24-0.54,0.54-0.54l0.92,0V7.11H5.42
	c-0.41,0-0.76,0.2-0.98,0.51V7.11H3.72v2.33h0.72V8.93c0.21,0.31,0.57,0.51,0.98,0.51h0.97V8.81"/>
<path class="st1" d="M8.09,8.82l-0.68,0V7.74h0.68c0.3,0,0.54,0.24,0.54,0.54C8.63,8.57,8.39,8.82,8.09,8.82L8.09,8.82z M8.14,9.45
	c0.65,0,1.18-0.52,1.18-1.17c0-0.64-0.53-1.17-1.18-1.17H6.68v3.16h0.72V9.45L8.14,9.45"/>
<path class="st1" d="M11.4,8.59c0.06,0,0.11,0.05,0.11,0.11c0,0.06-0.05,0.11-0.11,0.11l-1.85,0v0.63l1.94,0
	c0.41,0,0.75-0.33,0.75-0.74c0-0.41-0.33-0.74-0.75-0.74h-1.12c-0.06,0-0.11-0.05-0.11-0.11c0-0.06,0.05-0.11,0.11-0.11h1.85V7.11
	l-1.94,0c-0.41,0-0.75,0.33-0.75,0.74c0,0.41,0.33,0.74,0.75,0.74L11.4,8.59"/>
<path class="st1" d="M12.29,8.04h0.23V6.82l-2.24,0c-0.42,0-0.78,0.25-0.95,0.6c-0.27-0.37-0.7-0.6-1.19-0.6H6.39v0l-0.97,0
	c-0.24,0-0.48,0.06-0.68,0.16V6.82H3.42v2.93h1.32V9.58c0.2,0.1,0.44,0.16,0.68,0.16h0.97v0.82H7.7V9.74l0.44,0
	c0.44,0,0.84-0.2,1.11-0.5v0.5l2.24,0c0.57,0,1.04-0.46,1.04-1.04C12.53,8.45,12.44,8.22,12.29,8.04L12.29,8.04z M6.39,8.52l-0.92,0
	c-0.14,0-0.24-0.11-0.24-0.24c0-0.13,0.11-0.24,0.24-0.24h0l0.92,0L6.39,8.52L6.39,8.52L6.39,8.52z M8.27,8.45
	C8.22,8.49,8.16,8.52,8.09,8.52H7.71V8.04h0.39c0.13,0,0.24,0.11,0.24,0.24C8.34,8.34,8.31,8.4,8.27,8.45"/>
<path class="st0" d="M6.39,8.81l-0.92,0c-0.3,0-0.54-0.24-0.54-0.53c0-0.3,0.24-0.54,0.54-0.54l0.92,0V7.11H5.42
	c-0.41,0-0.76,0.2-0.98,0.51V7.11H3.72v2.33h0.72V8.93c0.21,0.31,0.57,0.51,0.98,0.51h0.97V8.81"/>
<path class="st0" d="M8.09,8.82l-0.68,0V7.74h0.68c0.3,0,0.54,0.24,0.54,0.54C8.63,8.57,8.39,8.82,8.09,8.82L8.09,8.82z M8.14,9.45
	c0.65,0,1.18-0.52,1.18-1.17c0-0.64-0.53-1.17-1.18-1.17H6.68v3.16h0.72V9.45L8.14,9.45"/>
<path class="st0" d="M11.4,8.59c0.06,0,0.11,0.05,0.11,0.11c0,0.06-0.05,0.11-0.11,0.11l-1.85,0v0.63l1.94,0
	c0.41,0,0.75-0.33,0.75-0.74c0-0.41-0.33-0.74-0.75-0.74h-1.12c-0.06,0-0.11-0.05-0.11-0.11c0-0.06,0.05-0.11,0.11-0.11h1.85V7.11
	l-1.94,0c-0.41,0-0.75,0.33-0.75,0.74c0,0.41,0.33,0.74,0.75,0.74L11.4,8.59"/>
</svg>
