<svg xmlns="http://www.w3.org/2000/svg" xmlns:xlink="http://www.w3.org/1999/xlink" width="16" height="16" viewBox="0 0 16 16">
  <defs>
    <clipPath id="clip-path">
      <rect id="사각형_527" data-name="사각형 527" width="16" height="10" transform="translate(3756.722 2859.891)" fill="#fff"/>
    </clipPath>
    <clipPath id="clip-path-2">
      <rect id="사각형_274" data-name="사각형 274" width="61.926" height="10.225" fill="none"/>
    </clipPath>
  </defs>
  <g id="그룹_452" data-name="그룹 452" transform="translate(-3748 -2836)">
    <rect id="사각형_526" data-name="사각형 526" width="16" height="16" transform="translate(3748 2836)" fill="none"/>
    <g id="마스크_그룹_1" data-name="마스크 그룹 1" transform="translate(-8.722 -19.891)" clip-path="url(#clip-path)">
      <g id="그룹_451" data-name="그룹 451" transform="translate(3756.998 2859.891)">
        <path id="패스_151" data-name="패스 151" d="M95.1,8.754l1.618-2.7,1.609,2.7h1.455l-1.61-2.7h1.449V4.944H93.812V6.056h1.457l-1.62,2.7Z" transform="translate(-65.961 -3.482)" fill="#fff"/>
        <g id="그룹_88" data-name="그룹 88" transform="translate(0 0)">
          <g id="그룹_87" data-name="그룹 87" clip-path="url(#clip-path-2)">
            <path id="패스_152" data-name="패스 152" d="M103.65,4.2H102.2V6.1a.739.739,0,1,0,0,.786v3.168H97.342V8.847H95.887l0,1.223a1.1,1.1,0,0,0,1.1,1.1h6.659Z" transform="translate(-67.538 -2.958)" fill="#fff"/>
            <path id="패스_153" data-name="패스 153" d="M67.671,5.273a.738.738,0,0,0-.625.347V4.2H65.591v5.859H60.734V9H59.281v1.037l0,.035a1.1,1.1,0,0,0,1.1,1.1h6.66l0-4.766a.739.739,0,1,0,.625-1.132" transform="translate(-41.754 -2.958)" fill="#fff"/>
            <path id="패스_154" data-name="패스 154" d="M58.718,5.919A1.781,1.781,0,1,0,61.85,4.761h1.557V3.645H60.883a.7.7,0,1,0-.77,0H57.591V4.761h1.557a1.768,1.768,0,0,0-.43,1.158m1.78.63a.63.63,0,1,1,.631-.63.63.63,0,0,1-.631.63" transform="translate(-40.564 -1.658)" fill="#fff"/>
            <path id="패스_155" data-name="패스 155" d="M135.261,9.57h-2.669a1.884,1.884,0,1,1,0-3.769h2.669V4.2h-2.884a3.491,3.491,0,0,0-2.892,1.526V4.2h-1.824v6.972h1.824V9.644a3.492,3.492,0,0,0,2.892,1.527h2.884Z" transform="translate(-89.917 -2.958)" fill="#fff"/>
            <path id="패스_156" data-name="패스 156" d="M159.871,9.568h-1.956V5.8h1.955a1.883,1.883,0,1,1,0,3.767m.222,1.6a3.485,3.485,0,1,0,0-6.971h-4.006v8.983h1.825V11.171h2.181" transform="translate(-109.939 -2.958)" fill="#fff"/>
            <path id="패스_157" data-name="패스 157" d="M188.588,8.481a.542.542,0,0,1,0,1.085l-5.322,0v1.6l5.553,0a2.143,2.143,0,0,0,0-4.287l-3.253,0a.542.542,0,1,1,0-1.085h5.327V4.2l-5.553,0a2.141,2.141,0,1,0,0,4.282Z" transform="translate(-129.035 -2.956)" fill="#fff"/>
            <path id="패스_158" data-name="패스 158" d="M10.106,0A4.692,4.692,0,0,0,7.412.849a4.716,4.716,0,1,0,0,7.736A4.715,4.715,0,1,0,10.106,0" transform="translate(0 0)" fill="#fff"/>
            <path id="패스_159" data-name="패스 159" d="M9.122,2.947l1.205-.782L13.193.3a4.653,4.653,0,0,0-.747-.163l-2.265,1.82-1.059.85L7.149,4.141,2.429,7.319a4.767,4.767,0,0,0,.348.483L7.113,4.485Z" transform="translate(-1.711 -0.1)" fill="#e50013"/>
            <path id="패스_160" data-name="패스 160" d="M25.051,8.587a4.915,4.915,0,0,0-.264-.541L19.78,11.859l-1.786,1.359-.7.44-2.271,1.433c.09.005.182.008.274.008a4.738,4.738,0,0,0,.852-.077l1.318-1.194.525-.476,1.639-1.107Z" transform="translate(-10.583 -5.667)" fill="#e50013"/>
            <path id="패스_161" data-name="패스 161" d="M15.369,10.843l1.973-1.328,4.72-3.177a4.556,4.556,0,0,0-.347-.483L17.379,9.171l-2.01,1.537-1.205.783L11.3,13.353a4.752,4.752,0,0,0,.746.162l2.265-1.82Z" transform="translate(-7.958 -4.124)" fill="#e50013"/>
            <path id="패스_162" data-name="패스 162" d="M10.249,4.5l1.6-1.053,3.335-2.2A4.712,4.712,0,0,0,14.57.975L11.727,3.207,10.249,4.368,8.238,5.715,4.028,8.536a4.774,4.774,0,0,0,.428.423L8.269,6.025Z" transform="translate(-2.837 -0.687)" fill="#e50013"/>
            <path id="패스_163" data-name="패스 163" d="M11.637,6.39l1.872-1.246,3.766-2.506a4.83,4.83,0,0,0-.512-.357L13.428,4.866,11.637,6.255,9.764,7.5,6,10.009a4.561,4.561,0,0,0,.512.357L9.845,7.78Z" transform="translate(-4.225 -1.607)" fill="#e50013"/>
            <path id="패스_164" data-name="패스 164" d="M13.316,8.515l2.011-1.347,4.209-2.819a4.653,4.653,0,0,0-.427-.423L15.3,6.858,13.316,8.38l-1.6,1.055-3.334,2.2a4.547,4.547,0,0,0,.611.277l2.842-2.232Z" transform="translate(-5.905 -2.765)" fill="#e50013"/>
            <path id="패스_165" data-name="패스 165" d="M4.716,0A4.72,4.72,0,0,0,.271,6.3L7.364.814A4.694,4.694,0,0,0,4.716,0" transform="translate(0 0)" fill="#e50013"/>
            <path id="패스_166" data-name="패스 166" d="M8.256,1.879l.7-.439L11.222.008c-.09,0-.18-.008-.271-.008A4.716,4.716,0,0,0,10.1.077L8.781,1.271l-.525.475L6.618,2.853,1.2,6.514a4.842,4.842,0,0,0,.265.541L6.471,3.239Z" transform="translate(-0.845 0)" fill="#e50013"/>
            <path id="패스_167" data-name="패스 167" d="M32.32,10.611l-7.094,5.482a4.718,4.718,0,0,0,7.094-5.482" transform="translate(-17.768 -7.474)" fill="#e50013"/>
            <path id="패스_168" data-name="패스 168" d="M13.61,13.838h-.892a.519.519,0,1,1,0-1.038h.892v-.612h-.943a1.144,1.144,0,0,0-.946.5v-.5h-.7V14.45h.7v-.5a1.144,1.144,0,0,0,.946.5h.943Z" transform="translate(-7.761 -8.585)" fill="#e50013"/>
            <path id="패스_169" data-name="패스 169" d="M22.12,13.84h-.663V12.8h.663a.52.52,0,1,1,0,1.04m.048.61a1.131,1.131,0,1,0,0-2.262H20.753v3.06h.7v-.8h.713" transform="translate(-14.617 -8.585)" fill="#e50013"/>
            <path id="패스_170" data-name="패스 170" d="M31.913,13.625a.107.107,0,1,1,0,.213H30.119v.611H32a.719.719,0,1,0,0-1.437H30.914a.107.107,0,1,1,0-.213h1.795v-.612h-1.88a.719.719,0,1,0,0,1.437Z" transform="translate(-21.204 -8.585)" fill="#e50013"/>
            <path id="패스_171" data-name="패스 171" d="M18.648,12.4h.222V11.217H16.7a1.014,1.014,0,0,0-.919.586,1.429,1.429,0,0,0-1.154-.586H11.983a1.433,1.433,0,0,0-.658.159v-.159H10.049v2.836h1.276v-.159a1.437,1.437,0,0,0,.658.159h.943v.8H14.2v-.8h.427a1.43,1.43,0,0,0,1.076-.488v.488h2.167a1.009,1.009,0,0,0,1.011-1.006,1,1,0,0,0-.235-.644m-5.722.464h-.893a.232.232,0,1,1,0-.464h.893v.464Zm1.82-.069a.235.235,0,0,1-.166.071H14.2V12.4h.376a.237.237,0,0,1,.235.234.232.232,0,0,1-.069.16" transform="translate(-7.078 -7.901)" fill="#e50013"/>
            <path id="패스_172" data-name="패스 172" d="M13.61,13.838h-.892a.519.519,0,1,1,0-1.038h.892v-.612h-.943a1.144,1.144,0,0,0-.946.5v-.5h-.7V14.45h.7v-.5a1.144,1.144,0,0,0,.946.5h.943Z" transform="translate(-7.761 -8.585)" fill="#fff"/>
            <path id="패스_173" data-name="패스 173" d="M22.12,13.84h-.663V12.8h.663a.52.52,0,1,1,0,1.04m.048.61a1.131,1.131,0,1,0,0-2.262H20.753v3.06h.7v-.8h.713" transform="translate(-14.617 -8.585)" fill="#fff"/>
            <path id="패스_174" data-name="패스 174" d="M31.913,13.625a.107.107,0,1,1,0,.213H30.119v.611H32a.719.719,0,1,0,0-1.437H30.914a.107.107,0,1,1,0-.213h1.795v-.612h-1.88a.719.719,0,1,0,0,1.437Z" transform="translate(-21.204 -8.585)" fill="#fff"/>
          </g>
        </g>
      </g>
    </g>
  </g>
</svg>
