<svg width="18" height="18" viewBox="0 0 18 18" fill="none" xmlns="http://www.w3.org/2000/svg">
<path id="Vector" fill-rule="evenodd" clip-rule="evenodd" d="M2.21051 0.360915C1.96802 0.126712 1.64325 -0.00288079 1.30614 4.86034e-05C0.96903 0.002978 0.646557 0.138195 0.408175 0.376577C0.169793 0.614959 0.0345762 0.937432 0.0316468 1.27454C0.0287174 1.61165 0.15831 1.93643 0.392513 2.17892L7.1978 8.9842L0.392513 15.7895C0.269715 15.9081 0.171766 16.05 0.104383 16.2068C0.037 16.3637 0.00153202 16.5324 4.85444e-05 16.7031C-0.00143493 16.8738 0.0310958 17.0431 0.0957427 17.2011C0.16039 17.3592 0.255858 17.5027 0.376577 17.6234C0.497296 17.7441 0.640849 17.8396 0.798858 17.9043C0.956868 17.9689 1.12617 18.0014 1.29689 18C1.4676 17.9985 1.63631 17.963 1.79318 17.8956C1.95004 17.8282 2.09191 17.7303 2.21051 17.6075L9.0158 10.8022L15.8211 17.6075C16.0636 17.8417 16.3883 17.9713 16.7255 17.9684C17.0626 17.9654 17.385 17.8302 17.6234 17.5918C17.8618 17.3534 17.997 17.031 18 16.6939C18.0029 16.3568 17.8733 16.032 17.6391 15.7895L10.8338 8.9842L17.6391 2.17892C17.8733 1.93643 18.0029 1.61165 18 1.27454C17.997 0.937432 17.8618 0.614959 17.6234 0.376577C17.385 0.138195 17.0626 0.002978 16.7255 4.86034e-05C16.3883 -0.00288079 16.0636 0.126712 15.8211 0.360915L9.0158 7.1662L2.21051 0.360915Z" fill="black"/>
</svg>
