<svg id="f_logo" xmlns="http://www.w3.org/2000/svg" xmlns:xlink="http://www.w3.org/1999/xlink" width="85.957" height="77.132" viewBox="0 0 85.957 77.132">
  <defs>
    <clipPath id="clip-path">
      <rect id="사각형_275" data-name="사각형 275" width="85.957" height="77.132" fill="none"/>
    </clipPath>
  </defs>
  <path id="패스_175" data-name="패스 175" d="M35.968,105.257l3.09-5.153,3.073,5.149h2.78L41.836,100.1H44.6V97.98H33.5V100.1h2.782l-3.093,5.153Z" transform="translate(-12.731 -37.585)" fill="#fff"/>
  <g id="그룹_91" data-name="그룹 91">
    <g id="그룹_90" data-name="그룹 90" clip-path="url(#clip-path)">
      <path id="패스_176" data-name="패스 176" d="M50.066,97.3H47.29v3.637a1.412,1.412,0,1,0,0,1.5v6.051H38.017v-2.315H35.238l0,2.334a2.1,2.1,0,0,0,2.108,2.105H50.07Z" transform="translate(-13.517 -37.323)" fill="#fff"/>
      <path id="패스_177" data-name="패스 177" d="M17.731,99.349a1.411,1.411,0,0,0-1.194.662V97.3H13.758v11.19H4.481v-2.027H1.707v1.981l0,.066a2.1,2.1,0,0,0,2.1,2.105H16.533l0-9.1a1.411,1.411,0,1,0,1.194-2.163" transform="translate(-0.655 -37.323)" fill="#fff"/>
      <path id="패스_178" data-name="패스 178" d="M2.309,102.415A3.4,3.4,0,1,0,8.291,100.2h2.973V98.072H6.446a1.343,1.343,0,1,0-1.47,0H.157V100.2H3.13a3.381,3.381,0,0,0-.82,2.212m3.4,1.2a1.2,1.2,0,1,1,1.2-1.2,1.2,1.2,0,0,1-1.2,1.2" transform="translate(-0.06 -36.674)" fill="#fff"/>
      <path id="패스_179" data-name="패스 179" d="M79.062,107.554H73.91a3.6,3.6,0,1,1,0-7.2h5.153V97.3H73.555a6.669,6.669,0,0,0-5.524,2.913V97.3H64.6v13.314H68.03v-2.918a6.669,6.669,0,0,0,5.524,2.917h5.508Z" transform="translate(-24.781 -37.323)" fill="#fff"/>
      <path id="패스_180" data-name="패스 180" d="M97.869,107.553H94.081v-7.195h3.786a3.6,3.6,0,1,1,0,7.195m.37,3.058a6.657,6.657,0,0,0,0-13.313h-7.6v17.156h3.431v-3.842l4.166,0" transform="translate(-34.77 -37.323)" fill="#fff"/>
      <path id="패스_181" data-name="패스 181" d="M125.738,105.477a1.036,1.036,0,0,1,0,2.072l-10.218,0v3.063l10.606,0a4.094,4.094,0,0,0,0-8.188l-6.268,0a1.036,1.036,0,1,1,0-2.071h10.227V97.295l-10.606,0a4.089,4.089,0,1,0,0,8.177Z" transform="translate(-44.263 -37.322)" fill="#fff"/>
      <path id="패스_182" data-name="패스 182" d="M45.571,16.662l6.988-4.537L69.175,1.334A27.128,27.128,0,0,0,64.844.393L51.711,10.948l-6.14,4.931-11.442,7.7L6.757,42.015a27.361,27.361,0,0,0,2.016,2.8L33.918,25.581Z" transform="translate(-2.592 -0.151)" fill="#e50013"/>
      <path id="패스_183" data-name="패스 183" d="M99.929,25.515a28.43,28.43,0,0,0-1.53-3.137L69.365,44.489,59.009,52.372,54.96,54.925,41.79,63.236c.525.03,1.058.048,1.59.048a27.486,27.486,0,0,0,4.945-.447l7.641-6.923,3.044-2.757,9.5-6.42Z" transform="translate(-16.03 -8.584)" fill="#e50013"/>
      <path id="패스_184" data-name="패스 184" d="M55.034,45.211l11.439-7.7L93.844,19.085a26.482,26.482,0,0,0-2.011-2.8L66.689,35.514,55.034,44.426l-6.99,4.544L31.426,59.764a27.367,27.367,0,0,0,4.328.94L48.89,50.148Z" transform="translate(-12.055 -6.246)" fill="#e50013"/>
      <path id="패스_185" data-name="패스 185" d="M47.276,23.161l9.267-6.107L75.88,4.309a27.24,27.24,0,0,0-3.542-1.6L55.853,15.65l-8.577,6.735L35.616,30.2,11.2,46.557a27.908,27.908,0,0,0,2.48,2.455L35.794,32Z" transform="translate(-4.297 -1.039)" fill="#e50013"/>
      <path id="패스_186" data-name="패스 186" d="M49.38,30.171l10.858-7.225L82.076,8.413A27.559,27.559,0,0,0,79.1,6.343L59.766,21.335,49.38,29.389,38.518,36.618,16.686,51.154a26.643,26.643,0,0,0,2.967,2.07l19.337-15Z" transform="translate(-6.401 -2.433)" fill="#e50013"/>
      <path id="패스_187" data-name="패스 187" d="M51.924,37.535l11.662-7.812,24.408-16.35a27.045,27.045,0,0,0-2.475-2.455l-22.114,17L51.924,36.75,42.65,42.866,23.318,55.618a26.676,26.676,0,0,0,3.543,1.6L43.343,44.273Z" transform="translate(-8.945 -4.188)" fill="#e50013"/>
      <path id="패스_188" data-name="패스 188" d="M27.349,0A27.366,27.366,0,0,0,1.575,36.515L42.7,4.717A27.211,27.211,0,0,0,27.349,0" fill="#e50013"/>
      <path id="패스_189" data-name="패스 189" d="M44.259,10.895l4.035-2.546L61.46.047C60.941.018,60.416,0,59.888,0a27.331,27.331,0,0,0-4.919.443L47.3,7.37l-3.045,2.751-9.5,6.42L3.336,37.775a27.505,27.505,0,0,0,1.535,3.133L33.908,18.782Z" transform="translate(-1.28)" fill="#e50013"/>
      <path id="패스_190" data-name="패스 190" d="M111.3,29.51,70.162,61.3A27.36,27.36,0,0,0,111.3,29.51" transform="translate(-26.914 -11.32)" fill="#e50013"/>
      <path id="패스_191" data-name="패스 191" d="M45.673,43.467H40.5a3.009,3.009,0,1,1,0-6.017h5.175V33.9H40.205a6.631,6.631,0,0,0-5.484,2.871V33.9h-4.07V47.016h4.07V44.142a6.635,6.635,0,0,0,5.484,2.874h5.468Z" transform="translate(-11.758 -13.003)" fill="#e50013"/>
      <path id="패스_192" data-name="패스 192" d="M65.649,43.475H61.8V37.447h3.846a3.014,3.014,0,1,1,0,6.028m.282,3.539a6.559,6.559,0,1,0,0-13.118H57.723V51.641h4.072V47.017l4.137,0" transform="translate(-22.142 -13.003)" fill="#e50013"/>
      <path id="패스_193" data-name="패스 193" d="M94.217,42.233a.617.617,0,1,1,0,1.235H83.81v3.548H94.716a4.167,4.167,0,1,0,0-8.334H88.427a.617.617,0,1,1,0-1.235H98.835V33.9H87.93a4.167,4.167,0,1,0,0,8.334Z" transform="translate(-32.119 -13.003)" fill="#e50013"/>
      <path id="패스_194" data-name="패스 194" d="M77.816,38.076H79.1V31.195l-12.57,0a5.874,5.874,0,0,0-5.326,3.4,8.3,8.3,0,0,0-6.695-3.4H39.17a8.331,8.331,0,0,0-3.82.921v-.922h-7.4V47.643h7.4V46.72a8.324,8.324,0,0,0,3.82.922h5.469v4.627h7.4V47.644h2.473a8.294,8.294,0,0,0,6.237-2.829v2.829l12.57,0a5.852,5.852,0,0,0,5.862-5.831,5.785,5.785,0,0,0-1.364-3.737m-33.18,2.69H39.462a1.345,1.345,0,1,1,0-2.689h5.18v2.69Zm10.555-.4a1.362,1.362,0,0,1-.965.412h-2.18v-2.7h2.181a1.377,1.377,0,0,1,1.366,1.361,1.332,1.332,0,0,1-.4.926" transform="translate(-10.722 -11.966)" fill="#e50013"/>
      <path id="패스_195" data-name="패스 195" d="M45.673,43.467H40.5a3.009,3.009,0,1,1,0-6.017h5.175V33.9H40.205a6.631,6.631,0,0,0-5.484,2.871V33.9h-4.07V47.016h4.07V44.142a6.635,6.635,0,0,0,5.484,2.874h5.468Z" transform="translate(-11.758 -13.003)" fill="#fff"/>
      <path id="패스_196" data-name="패스 196" d="M65.649,43.475H61.8V37.447h3.846a3.014,3.014,0,1,1,0,6.028m.282,3.539a6.559,6.559,0,1,0,0-13.118H57.723V51.641h4.072V47.017l4.137,0" transform="translate(-22.142 -13.003)" fill="#fff"/>
      <path id="패스_197" data-name="패스 197" d="M94.217,42.233a.617.617,0,1,1,0,1.235H83.81v3.548H94.716a4.167,4.167,0,1,0,0-8.334H88.427a.617.617,0,1,1,0-1.235H98.835V33.9H87.93a4.167,4.167,0,1,0,0,8.334Z" transform="translate(-32.119 -13.003)" fill="#fff"/>
    </g>
  </g>
</svg>
