<svg xmlns="http://www.w3.org/2000/svg" xmlns:xlink="http://www.w3.org/1999/xlink" width="202.118" height="60.593" viewBox="0 0 202.118 60.593">
  <defs>
    <clipPath id="clip-path">
      <rect id="사각형_7" data-name="사각형 7" width="202.118" height="60.593" fill="none"/>
    </clipPath>
  </defs>
  <g id="logo" transform="translate(0 0)">
    <g id="그룹_7" data-name="그룹 7" transform="translate(0 0)" clip-path="url(#clip-path)">
      <path id="패스_90" data-name="패스 90" d="M42.13,3.375a29.026,29.026,0,0,0-36.017,43.3,2.731,2.731,0,0,0,2.434,1.138c1.021-.1,2.22-.791,2.942-3.146C12.931,39.964,22.152,14.209,24.27,10.46s3.075-4.516,3.455-2.592-.447,6.726,1.8,3.169S32.435,9.5,32.146,12.19s-.577,4.613,2.5,5a10.556,10.556,0,0,1,6.92,3.363c1.633,1.824,5.187,2.113,6.823,2.018s2.978,1.153,1.633,3.266-1.342,4.613-7.591,4.325a7.012,7.012,0,0,0-7.5,5.093s-4.225,20.565,3.651,15.855-6.629-9.8-6.629-9.8-3.268-.1-1.248-5-4.037-8.456-4.037-8.456-5.958-5.19-4.133-1.056-4.8,5.766-3.075,7.976,5,3.554,1.924,6.823-1.636,6.437.092,8.359c1.281,1.421,1.653,5.065,1.755,6.869a1.36,1.36,0,0,0,1.1,1.258A29.04,29.04,0,0,0,58.532,30.3,28.948,28.948,0,0,0,50.14,9.1" transform="translate(0.776 0.776)" fill="none" stroke="#fff" stroke-miterlimit="10" stroke-width="1"/>
      <path id="패스_91" data-name="패스 91" d="M22.285,5.818a1.845,1.845,0,0,1-2.472.809,1.846,1.846,0,0,1-.536-2.544,1.846,1.846,0,0,1,2.472-.809,1.84,1.84,0,0,1,.536,2.544" transform="translate(29.468 4.75)" fill="#fff"/>
      <path id="패스_92" data-name="패스 92" d="M19.407,3.643a1.845,1.845,0,0,1-2.472.809A1.846,1.846,0,0,1,16.4,1.908,1.846,1.846,0,0,1,18.871,1.1a1.84,1.84,0,0,1,.536,2.544" transform="translate(25.002 1.376)" fill="#fff"/>
      <path id="패스_93" data-name="패스 93" d="M26.645,18.942a.913.913,0,0,0,.919-.633l.528-2.347c1.061-.02,1.878-.061,2.429-.082l1.572-.061c.082.265.163.551.222.816l.551,1.855a.8.8,0,0,0,.857.531A.825.825,0,0,0,34.4,17.9c-.753-2.671-1.467-5.18-2.161-7.486-.714-2.3-1.143-3.651-1.306-4.039a.6.6,0,0,0-.306-.429.81.81,0,0,0-1.528-.122c-.327,1.49-.819,3.327-1.452,5.529-.834,3.021-1.3,4.794-1.692,6.772a.669.669,0,0,0,.694.819m2.631-7.427L30.031,8.7c.49,1.531,1.041,3.388,1.633,5.529-.367,0-.9.02-1.572.043l-1.592.061c.166-.635.429-1.572.776-2.817" transform="translate(40.246 8.285)" fill="#fff"/>
      <path id="패스_94" data-name="패스 94" d="M30.556,18.214c.487.082,1.2-.2,1.222-.694-.018-1.018,0-2.855.02-5.527l.02-2.388,1.511,2.345q1.653,2.572,2.694,4.225l.857,1.345V17.5c.324.551.875.572,1.3-.467a8.178,8.178,0,0,0,.406-2.409l.1-2.613L38.9,6.77a.812.812,0,0,0-1.613.079c0,1.143-.041,2.572-.1,3.8-.064,1.49-.1,3.2-.084,4.57-.549-.919-1.163-1.919-1.855-3.041-.816-1.3-1.613-2.631-2.368-3.955A11.422,11.422,0,0,0,31.8,6.3V6.239c.02-.388-.633-.51-1.141-.51-.429,0-.554.143-.554.572.023,1.388.023,3.631,0,6.71v3.2c0,1.2.023,1.939.452,2" transform="translate(46.707 8.888)" fill="#fff"/>
      <path id="패스_95" data-name="패스 95" d="M36.627,17.091l-1.449.02a.774.774,0,0,0-.816.714c-.023.549.569.814,1.794.773l3.018-.061c1.082-.018,1.636-.283,1.636-.794a.685.685,0,0,0-.653-.755l-1.878.041c0-1.9,0-3.365.018-4.406.02-2.549.043-4.345.02-5.407l1.858-.041a.764.764,0,0,0,.714-.776c0-.51-.51-.755-1.51-.735l-3.223.082a3.7,3.7,0,0,0-1.327.2.659.659,0,0,0-.385.531A.731.731,0,0,0,35.2,7.3l1.431-.041c.02,1.694.02,3.529,0,5.55Z" transform="translate(53.311 8.788)" fill="#fff"/>
      <path id="패스_96" data-name="패스 96" d="M39.509,9.741c.265.572.691,1.572,1.286,3,.755,1.755,1.286,2.939,1.592,3.572l.365.755c.1.222.186.365.207.406a.843.843,0,0,0,1.181.163,3.589,3.589,0,0,0,.674-1.12c.163-.347.347-.694.531-1.021a21.964,21.964,0,0,0,1.511-3.427c.469-1.286.916-2.347,1.306-3.184.079,1.939.038,4.488.018,6.713l-.018,2.243a.8.8,0,0,0,1.222.694.876.876,0,0,0,.385-.776V16.046c0-4.9,0-6.693-.161-9.793a.831.831,0,0,0-1.222-.592C47.791,6.13,47,7.638,45.974,10.19a36.631,36.631,0,0,1-2.3,4.958A34.338,34.338,0,0,0,41.609,10.5c-.653-1.327-1.408-2.835-1.835-4a2.271,2.271,0,0,0-.265-.286.812.812,0,0,0-1.592.163c0,1.163-.02,3.08-.041,5.772-.038,2-.059,3.94-.059,5.794a.8.8,0,0,0,1.222.694.883.883,0,0,0,.388-.776c0-1.773.02-4.468.082-8.119" transform="translate(58.674 8.65)" fill="#fff"/>
      <path id="패스_97" data-name="패스 97" d="M49.618,15.817c.082.265.166.551.225.816l.551,1.858a.8.8,0,0,0,.857.531.826.826,0,0,0,.674-1.123c-.753-2.671-1.47-5.182-2.161-7.486-.714-2.307-1.143-3.651-1.306-4.042a.591.591,0,0,0-.306-.426.812.812,0,0,0-1.531-.122c-.327,1.49-.816,3.325-1.449,5.529-.834,3.018-1.306,4.792-1.692,6.772a.666.666,0,0,0,.691.816.913.913,0,0,0,.921-.633l.528-2.345c1.061-.023,1.878-.061,2.429-.084Zm-3.59-1.488c.163-.633.429-1.572.776-2.817L47.559,8.7c.49,1.531,1.041,3.388,1.63,5.529-.365,0-.9.02-1.569.041Z" transform="translate(67.441 8.287)" fill="#fff"/>
      <path id="패스_98" data-name="패스 98" d="M53.735,16.589l-.487.061a30.552,30.552,0,0,1-3.9.306l.061-1.592c.184-5.672.286-8.813.286-9.446a.857.857,0,0,0-.959-.551.824.824,0,0,0-.712.612c-.166,1.735-.492,11.262-.408,11.609a.874.874,0,0,0,.959.977c1.488-.018,2.957-.181,5.384-.447a.814.814,0,0,0,.572-1.1.633.633,0,0,0-.8-.429" transform="translate(73.856 8.311)" fill="#fff"/>
      <path id="패스_99" data-name="패스 99" d="M53.318,17.583a9.3,9.3,0,0,0,4.488.878c1.613-.082,2.9-1.021,2.9-2.426a3.946,3.946,0,0,0-1.674-3.041c-.429-.327-1.082-.776-1.919-1.365-1.365-.959-2.386-1.9-2.324-3.021q.061-1.163,1.59-1.345a3.149,3.149,0,0,1,2.735.875.818.818,0,0,0,1.406-.814L60.337,7a3.074,3.074,0,0,0-.2-.286,5.248,5.248,0,0,0-3.572-1.061c-2.284.061-3.424,1.123-3.424,3.141a2.879,2.879,0,0,0,.834,2.225,8.111,8.111,0,0,0,1.061.855l1.1.816a10.15,10.15,0,0,1,2.508,2.164,1.726,1.726,0,0,1,.388,1c-.02.653-.694,1.041-1.753,1.041a7.612,7.612,0,0,1-3.164-.755.82.82,0,0,0-1.327.814,1.027,1.027,0,0,0,.531.633" transform="translate(81.892 8.764)" fill="#fff"/>
      <path id="패스_100" data-name="패스 100" d="M61.069,13.03c.916-.061,1.814-.1,2.631-.1l-.02,4.08a5.507,5.507,0,0,0,.122,1.225c.061.184.163.306.327.327.49.082,1.2-.2,1.225-.694-.02-.959,0-2.712.02-5.223.018-2.9.018-4.9,0-6.019.018-.388-.635-.508-1.143-.508-.429,0-.551.143-.551.572.02.875.02,2.467.02,4.771-.569,0-1.47.023-2.692.084l-2.633.059c.02-2.079.02-3.9,0-5.427.02-.385-.633-.508-1.143-.508-.551,0-.531.406-.531,1.753.023.674.023,1.449.023,2.368-.023.916-.023,1.9-.023,2.916l-.02,3.815c0,1.2.02,1.939.449,2,.49.082,1.2-.2,1.227-.694-.023-1.327-.023-2.878,0-4.672.9-.02,1.794-.061,2.712-.122" transform="translate(87.94 8.791)" fill="#fff"/>
      <path id="패스_101" data-name="패스 101" d="M69.6,15.83l-.589.082a41.729,41.729,0,0,1-4.817.429l.122-3.427h1.51c.51,0,1,0,1.508-.02.513,0,1,0,1.49.02a.939.939,0,0,0,.714-1,.51.51,0,0,0-.551-.469l-4.611-.061c.082-2.143.122-3.529.143-4.162h1.449c.469,0,.957,0,1.429-.02.467,0,.959,0,1.426.02a.939.939,0,0,0,.714-1c-.061-.429-1.041-.49-2.549-.51l-5.185-.061a1.024,1.024,0,0,0-.936.919.525.525,0,0,0,.49.653h1.449c-.184,2.631-.429,9.487-.35,9.752a.879.879,0,0,0,.959.98,33.268,33.268,0,0,0,6.407-.592.814.814,0,0,0,.572-1.1.634.634,0,0,0-.8-.429" transform="translate(94.426 8.764)" fill="#fff"/>
      <path id="패스_102" data-name="패스 102" d="M71.392,16.589l-.487.061a30.552,30.552,0,0,1-3.9.306l.061-1.592c.184-5.672.286-8.813.286-9.446a.857.857,0,0,0-.959-.551.824.824,0,0,0-.712.612c-.166,1.735-.492,11.262-.408,11.609a.874.874,0,0,0,.959.977c1.488-.018,2.957-.181,5.384-.447a.814.814,0,0,0,.572-1.1.633.633,0,0,0-.8-.429" transform="translate(101.252 8.311)" fill="#fff"/>
      <path id="패스_103" data-name="패스 103" d="M75.692,5.7h-.857c-1.061,0-2.164,0-3.327-.02-1.161,0-2.059,0-2.689.02-.921.02-1.388.245-1.408.714-.02.429.283.816,1.038.8H71.63c.023,1.977.023,3.978,0,6.016v3.123c0,1.161.023,1.875.452,1.937.487.082,1.2-.2,1.222-.694-.018-.753-.018-1.549,0-2.406V12.557c.02-2.511.041-4.287.02-5.345h2.347a4.356,4.356,0,0,0,.732,0,.768.768,0,0,0,.717-.776c0-.51-.469-.755-1.429-.735" transform="translate(104.586 8.814)" fill="#fff"/>
      <path id="패스_104" data-name="패스 104" d="M80.188,15.83l-.589.082a41.729,41.729,0,0,1-4.817.429l.122-3.427h1.51c.51,0,1,0,1.508-.02.513,0,1,0,1.49.02a.939.939,0,0,0,.714-1,.51.51,0,0,0-.551-.469l-4.611-.061c.082-2.143.122-3.529.143-4.162h1.449c.469,0,.957,0,1.429-.02.467,0,.959,0,1.426.02a.939.939,0,0,0,.714-1c-.061-.429-1.041-.49-2.549-.51l-5.185-.061a1.024,1.024,0,0,0-.936.919.525.525,0,0,0,.49.653H73.4c-.184,2.631-.429,9.487-.35,9.752a.879.879,0,0,0,.959.98,33.268,33.268,0,0,0,6.407-.592.814.814,0,0,0,.572-1.1.634.634,0,0,0-.8-.429" transform="translate(110.847 8.764)" fill="#fff"/>
      <path id="패스_105" data-name="패스 105" d="M82.625,16.456a11.881,11.881,0,0,1-1.141-.592,20.539,20.539,0,0,1-2.878-2c3.753-1.225,6.06-3.508,5.795-5.774-.122-1.406-1.98-2.426-3.917-2.426a7.11,7.11,0,0,0-2.937.755.812.812,0,0,0-1.613.079c0,2.429,0,4.225-.02,5.427-.023.919-.023,1.817-.043,2.735s-.018,1.817,0,2.733a.808.808,0,0,0,1.227.694.882.882,0,0,0,.385-.776V15.785a4.663,4.663,0,0,1,0-.755A19.577,19.577,0,0,0,80.5,17.15c.263.163.712.388,1.3.694a5.759,5.759,0,0,1,1.286.755.82.82,0,0,0,1.041-1.245,6.361,6.361,0,0,0-1.51-.9M77.5,12.5c.023-1.9.043-3.325.043-4.243a5.619,5.619,0,0,1,3.016-1.021c1.388-.02,2.143.551,2.2,1.306.163,1.449-2.365,3.284-4.672,3.815Z" transform="translate(117.695 8.791)" fill="#fff"/>
      <path id="패스_106" data-name="패스 106" d="M39.777,20.036l-6.019.061V18.016a.777.777,0,0,1-.041-.1,21.329,21.329,0,0,0,3.161-.449.768.768,0,0,0,.612-.794.683.683,0,0,0-.651-.755.46.46,0,0,0-.186.02,52.132,52.132,0,0,1-5.935.549l.143-2.426.038-.469h5.223a.941.941,0,0,0,.717-.919.5.5,0,0,0-.551-.551c-3.1-.059-5.631-.079-7.591-.1a.875.875,0,0,0-.816.878.65.65,0,0,0,.574.694h.671c-.14,1.776-.2,2.858-.2,3.263a.693.693,0,0,0,.02.265.876.876,0,0,0,.959.98c.735,0,1.49-.02,2.266-.082l-.02.082v2.041l-5.529.061c-.572.02-.9.327-.9.755a.733.733,0,0,0,.816.776c2.937-.023,5.139-.061,6.591-.084,2.937-.061,5.118-.079,6.568-.079a.764.764,0,0,0,.755-.9c-.041-.367-.084-.633-.674-.633" transform="translate(39.907 18.644)" fill="#fff"/>
      <path id="패스_107" data-name="패스 107" d="M30.974,16.181a1.578,1.578,0,0,0-.572-.1,2.085,2.085,0,0,0-.939.184,4.587,4.587,0,0,0-1.9,3.631c0,1.755,1.141,3.143,2.49,3.1,1.549,0,2.488-1.49,2.488-3.266a4.657,4.657,0,0,0-1.572-3.549m-.837,5.08c-.551,0-.814-.469-.814-1.429a2.541,2.541,0,0,1,.9-2.059,2.777,2.777,0,0,1,.7,2c0,.732-.225,1.488-.778,1.488" transform="translate(42.772 24.947)" fill="#fff"/>
      <path id="패스_108" data-name="패스 108" d="M34.318,16.379a.928.928,0,0,0,.02.286.875.875,0,0,0,.959.977,57.513,57.513,0,0,0,6.121-.3c.671-.125,1-.452.939-.98l.082-.816c.1-.919.163-1.878.225-2.876a.267.267,0,0,0-.082-.2c-.043-.1-.2-.2-.492-.265a13.562,13.562,0,0,0-1.835-.1l-6.672-.061a1.021,1.021,0,0,0-.959,1,.587.587,0,0,0,.513.569h1.426l-.082.878c-.1.9-.163,1.531-.163,1.9m1.96-2.2.059-.572H40.99c-.061,1.1-.122,1.858-.186,2.245-.794.082-2.036.143-3.73.163l-.959.02a11.207,11.207,0,0,1,.163-1.858" transform="translate(50.617 18.671)" fill="#fff"/>
      <path id="패스_109" data-name="패스 109" d="M46.162,14.672c-1.735,0-4.366.02-7.877.082-1.184.02-2.957.061-5.325.082a.854.854,0,0,0-.9.837.73.73,0,0,0,.816.776c1.837,0,3.692-.023,5.588-.064l-.018,1.347-2.082.061a.822.822,0,0,0-.857.776.789.789,0,0,0,.776.8l1.061-.041c.467-.02.936-.02,1.408-.041s.916-.02,1.365-.02h.694c.02.245,0,.714-.023,1.388-2.957.061-4.526.122-4.71.14a.778.778,0,1,0-.061,1.551h.2c-.1.959-.161,1.653-.161,2.082a.931.931,0,0,0,.551.8c.691.061,1.651.1,2.876.1,1,0,2.182-.02,3.511-.041a.88.88,0,0,0,.755-.8.817.817,0,0,0-.676-.776l-1.447.02q-1.868.061-3.8.061a13.021,13.021,0,0,1,.1-1.49l4.082-.1a.8.8,0,0,0,.732-.755.814.814,0,0,0-.365-.671c.061-.633.082-1.245.082-1.817,0-1-.225-1.266-.819-1.266-.61,0-1.1,0-1.488.02,0-.694,0-1.141.02-1.365l5.856-.064a.762.762,0,0,0,.755-.9c-.043-.367-.043-.714-.633-.714" transform="translate(49.749 22.764)" fill="#fff"/>
      <path id="패스_110" data-name="패스 110" d="M46.4,16.687l-5.976.082a.888.888,0,0,0-.8.9.718.718,0,0,0,.714.714l.633.02,2-.041,2-.02a5.621,5.621,0,0,1,.776.02c0,.837-.02,2.386-.079,3.447,0,.469.263.755.653.755.551,0,1.1-.633,1.12-1.715l.02-1.038c0-.816.02-1.408.043-1.8a1.073,1.073,0,0,0-1.1-1.327" transform="translate(61.477 25.89)" fill="#fff"/>
      <path id="패스_111" data-name="패스 111" d="M52.479,21.1c-1.37,0-3.391.023-6.083.082a4.936,4.936,0,0,0-.02-.61l-.02-1.123a23.081,23.081,0,0,0,2.426-.306.643.643,0,0,0,.352.082.835.835,0,0,0,.814-.837V12.761c0-.406-.347-.569-.776-.569-.492,0-.875.163-.855.63v1.715l-4.9-.1c.064-.8.1-1.429.1-1.939a.5.5,0,0,0-.569-.51c-.635,0-1.064.122-1.146.612-.181,1.633-.429,4.815-.429,5.774l.02.265a.876.876,0,0,0,.939.959,3.85,3.85,0,0,0,.595.02c.508,0,1.1-.02,1.812-.061,0,.51.02,1.061.046,1.63-1.248.02-3.082.061-5.532.084-.572.018-.9.327-.9.753a.73.73,0,0,0,.816.776c2.937-.02,5.136-.061,6.591-.082,2.937-.061,5.118-.082,6.565-.082a.764.764,0,0,0,.755-.9c-.061-.467-.1-.633-.61-.633m-9.3-3.059c0-.674.041-1.345.1-2.021l3.307-.018c.732,0,1.3,0,1.735.018v1.653a49.12,49.12,0,0,1-5.141.367" transform="translate(59.518 18.595)" fill="#fff"/>
      <path id="패스_112" data-name="패스 112" d="M49.786,11.946c-.429,0-.572.122-.572.592.02,1.245.041,2.406.041,3.468l-.02,4.386-.02,2.694v.63c0,1.143.02,1.837.449,1.9.51.082,1.2-.184,1.225-.674V16.883c0-1.388-.02-2.858-.041-4.406.02-.408-.572-.531-1.061-.531" transform="translate(76.356 18.534)" fill="#fff"/>
      <path id="패스_113" data-name="패스 113" d="M51.125,20.014,49.533,18.2a28.083,28.083,0,0,0,1.794-4.529.82.82,0,0,0-.691-.959,30.128,30.128,0,0,0-3.08-.1,20.747,20.747,0,0,0-2.432.082c-.3.02-.467.306-.467.653a.889.889,0,0,0,.794.916c.717,0,1.227,0,1.554-.02,1,0,1.773,0,2.324-.02a62.91,62.91,0,0,1-3.917,8.264.99.99,0,0,0-.041.184.86.86,0,0,0,.9.753.775.775,0,0,0,.671-.324c.633-1.123,1.225-2.225,1.817-3.307.9.959,1.715,1.878,2.141,2.429a1.42,1.42,0,0,0,1.1.694.717.717,0,0,0,.732-.735,1.087,1.087,0,0,0-.122-.49Z" transform="translate(69.286 19.563)" fill="#fff"/>
      <path id="패스_114" data-name="패스 114" d="M58.573,20.917a1.85,1.85,0,0,0-.878-1.388,23.2,23.2,0,0,1-3.182-3.263c.408-1.408.7-2.511.837-3.307a.808.808,0,0,0-.9-.773.858.858,0,0,0-.776.385l-.554,2.1c-.794,3.041-1.263,4.733-2.141,7.244-.018.061-.018.143-.041.2a.941.941,0,0,0,.959.773.733.733,0,0,0,.469-.163,37.988,37.988,0,0,0,1.59-4.526,17.776,17.776,0,0,0,3.695,3.365.6.6,0,0,0,.327.082.661.661,0,0,0,.589-.735" transform="translate(79.041 18.907)" fill="#fff"/>
      <path id="패스_115" data-name="패스 115" d="M60.237,20.769H55.606a10.511,10.511,0,0,1,.1-1.385,11.754,11.754,0,0,0,.1-1.327,1.988,1.988,0,0,0-.245-1.2.87.87,0,0,0-.633-.286.835.835,0,0,0-.878.612L53.932,19.2a12.423,12.423,0,0,0-.1,1.47c0,1.061.306,1.633,1.123,1.633h5.223c.408,0,.612-.367.612-.776,0-.388-.2-.755-.551-.755" transform="translate(83.518 25.704)" fill="#fff"/>
      <path id="패스_116" data-name="패스 116" d="M56.769,11.906c-.429,0-.572.143-.572.572.02,1.243.041,2.245.041,2.978l-.02,3.225c-.02.508-.02,1.2-.02,2.059,0,1.633,0,2.592.551,2.592.508,0,1.1-.265,1.123-.694l-.02-1.49.02-3.223c.018-1.449.038-2.531.038-3.246,0-1.038,0-1.794-.02-2.263.02-.388-.633-.51-1.12-.51" transform="translate(87.191 18.472)" fill="#fff"/>
      <path id="패스_117" data-name="패스 117" d="M58.787,14.554c0-.837,0-1.47-.02-1.9.02-.388-.633-.51-1.141-.51-.429,0-.551.143-.551.572.02.8.02,1.919.02,3.386H54.159c-.469.023-.7.2-.7.551a.9.9,0,0,0,.676.878l2.957.02-.02,3.164c0,.855.079,1.406.245,1.549a.506.506,0,0,0,.347.082c.51,0,1.061-.265,1.079-.694L58.728,20.2c0-.63.018-1.59.038-2.835Z" transform="translate(82.947 18.843)" fill="#fff"/>
      <path id="패스_118" data-name="패스 118" d="M65.189,12.225c-.429,0-.551.143-.551.572.02.755.02,2.141.02,4.2H61.517c-.49.02-.694.225-.694.776,0,.388.225.612.674.653l3.161.018-.02,5.348a2.98,2.98,0,0,0,.245,1.61.514.514,0,0,0,.35.082c.508,0,1.059-.265,1.079-.694l-.02-1.671.02-3.98c.02-1.937.041-3.325.041-4.159,0-1.061,0-1.817-.02-2.245.02-.388-.633-.51-1.143-.51" transform="translate(94.368 18.967)" fill="#fff"/>
      <path id="패스_119" data-name="패스 119" d="M66.083,20.02a.447.447,0,0,0-.184.02c-.51.061-1.1.163-1.755.306a22.071,22.071,0,0,1-4.019.51l.041-1.041c.018-.8.061-1.388.082-1.773h4.059a.943.943,0,0,0,.714-.919.5.5,0,0,0-.551-.554l-4.121-.059.1-2.347h4.1a.941.941,0,0,0,.714-.919.5.5,0,0,0-.551-.551l-6.366-.1a1.022,1.022,0,0,0-.957,1,.583.583,0,0,0,.508.572h.837c-.161,1.98-.365,5.815-.365,6.976a1.277,1.277,0,0,0,.018.35.877.877,0,0,0,.959.977,40.665,40.665,0,0,0,6.774-.9.769.769,0,0,0,.612-.794.686.686,0,0,0-.653-.755" transform="translate(89.046 19.538)" fill="#fff"/>
    </g>
  </g>
</svg>
