<svg xmlns="http://www.w3.org/2000/svg" xmlns:xlink="http://www.w3.org/1999/xlink" width="146" height="139.043" viewBox="0 0 146 139.043">
  <defs>
    <clipPath id="clip-path">
      <rect id="사각형_70" data-name="사각형 70" width="146" height="139.043" fill="none"/>
    </clipPath>
  </defs>
  <g id="slogun" transform="translate(0 0)">
    <g id="그룹_87" data-name="그룹 87" transform="translate(0 0)" clip-path="url(#clip-path)">
      <path id="패스_251" data-name="패스 251" d="M.565,21.256a.447.447,0,0,1,.36-.159c.309-.06,1.356-.167,3.148-.337,1.789-.153,3.726-.292,5.794-.431a.616.616,0,0,1,.717.661.6.6,0,0,1-.522.544l-1.438.116c-.2.006-.423.023-.627.043l-.2,1.154c-.068.406-.162,1.007-.309,1.784l1.631.746a.671.671,0,0,1,.32.766.5.5,0,0,1-.7.383c-1.384-.587-2.606-1.2-4.682-2.272-1.509-.8-2.776-1.435-3.814-1.9a.6.6,0,0,1,.323-1.095m6.2.5c-1.653.1-3.094.224-4.285.346l1.94.981c.856.445,1.5.78,1.934,1l.2-1.171c.088-.493.15-.885.21-1.151" transform="translate(0 37.318)" fill="#fff"/>
      <path id="패스_252" data-name="패스 252" d="M.856,22.2c.125-.36.372-.788.638-.681l.043.014a8.726,8.726,0,0,1,1.616-.292c1.115-.21,2.246-.445,3.363-.7.959-.216,1.812-.4,2.592-.567-.967-.318-2.167-.766-3.2-1.171-.848-.343-1.838-.72-2.646-1A.606.606,0,0,1,3.6,16.645l3.641,1.424,1.815.709a6.106,6.106,0,0,1,1.594.876c.63.553.479.939.011,1.032l.014.006-1.154.275c-.947.221-2.158.508-3.633.868l-2.019.488,1.673.6c1.877.666,3.168,1.129,3.888,1.361.343.136.369.706.193,1.032-.15.286-.672.122-1.517-.17l-2.255-.783C3.69,23.6,2.1,23.049,1.126,22.725c-.3-.1-.374-.227-.269-.527" transform="translate(1.489 30.506)" fill="#fff"/>
      <path id="패스_253" data-name="패스 253" d="M9.83,22.285a.576.576,0,0,1-.218-.777l.454-.984L7.184,19.146c-1.35-.666-2.586-1.259-3.729-1.789l-.434.973a.549.549,0,0,1-.794.244A.5.5,0,0,1,2,18.142a2.669,2.669,0,0,1,.289-.959l.984-2.192c.309-.681.638-.944.981-.78a.57.57,0,0,1,.292.732L3.974,16.2c.717.329,1.917.922,3.627,1.758.692.349,1.682.822,2.958,1.435l.576-1.276a.51.51,0,0,1,.717-.2c.343.164.343.621.011,1.353L10.93,21.33c-.369.837-.737,1.146-1.1.956" transform="translate(3.666 26.003)" fill="#fff"/>
      <path id="패스_254" data-name="패스 254" d="M3.934,16.944a1.507,1.507,0,0,1,.289-.048c.9.21,2.15.354,3.244.491a25.588,25.588,0,0,1,3.743.621,27.214,27.214,0,0,0-2.147-3.468,10.1,10.1,0,0,1-1.84-3.355.621.621,0,0,1,.871-.522c2,1.168,3.119,1.9,6.177,3.908l1.066.7a.661.661,0,0,1,.326.559.6.6,0,0,1-.933.479l-1.4-.93c-1.375-.922-2.952-1.991-4.191-2.737.363.584.839,1.3,1.452,2.118a16.275,16.275,0,0,1,1.517,2.345c.128.25.269.5.417.749a2.7,2.7,0,0,1,.428.879.634.634,0,0,1-.587.669c-.034,0-.159-.011-.34-.037l-.618-.082c-.522-.068-1.477-.221-2.881-.468-1.132-.218-1.931-.357-2.4-.428,2.252,1.534,3.925,2.649,5.031,3.375a.661.661,0,0,1,.326.559.6.6,0,0,1-.933.479C9.4,22.042,8.2,21.234,6.968,20.392,5.3,19.277,4.11,18.481,3.387,18a.605.605,0,0,1,.547-1.061" transform="translate(5.793 19.488)" fill="#fff"/>
      <path id="패스_255" data-name="패스 255" d="M6.837,8.768a.434.434,0,0,1,.389.04c.3.1,1.265.522,2.907,1.256s3.389,1.58,5.255,2.473a.618.618,0,0,1,.3.93.6.6,0,0,1-.72.218l-1.31-.6c-.181-.1-.38-.193-.567-.278l-.74.91c-.261.32-.638.794-1.149,1.4l1.052,1.452a.679.679,0,0,1-.1.825.5.5,0,0,1-.8-.014C10.442,16.186,9.679,15.049,8.4,13.1c-.922-1.438-1.707-2.615-2.379-3.531-.184-.647.36-1.035.82-.8m5.15,3.494c-1.489-.723-2.8-1.33-3.9-1.806l1.205,1.806c.525.808.922,1.418,1.2,1.821l.746-.922c.323-.386.573-.695.752-.9" transform="translate(10.98 15.966)" fill="#fff"/>
      <path id="패스_256" data-name="패스 256" d="M7.849,7.182A.63.63,0,0,1,8.649,7c.32.349,1.843,2.124,4.594,5.331l.766.907a23.611,23.611,0,0,0,1.985-2.127l.238-.281a.474.474,0,0,1,.655-.164.6.6,0,0,1,.235.89c-1.2,1.367-1.92,2.195-2.728,2.955a.656.656,0,0,1-1.024-.057c-.218-.147-4.827-5.547-5.609-6.579a.618.618,0,0,1,.088-.7" transform="translate(14.117 12.713)" fill="#fff"/>
      <path id="패스_257" data-name="패스 257" d="M15.168,5.216a2.356,2.356,0,0,0-2.067.55c-.593.491-.746.984-.459,1.489.414.729,1.432.907,2.677.959.763.034,1.356.051,1.755.085a2.935,2.935,0,0,1,2.277,1.234,2.013,2.013,0,0,1-.842,2.691,6.965,6.965,0,0,1-3.171,1.259.765.765,0,0,1-.587-.184.611.611,0,0,1,.5-1.046,5.7,5.7,0,0,0,2.289-.8c.666-.428.933-.942.683-1.361a1.279,1.279,0,0,0-.647-.471,7.478,7.478,0,0,0-2.447-.346L14.11,9.206A6.075,6.075,0,0,1,13.1,9.1,2.156,2.156,0,0,1,11.68,8.035c-.817-1.268-.525-2.393.885-3.352a3.913,3.913,0,0,1,2.669-.774c.043.009.119.048.241.1l.247.133a.61.61,0,0,1-.553,1.078" transform="translate(20.615 7.107)" fill="#fff"/>
      <path id="패스_258" data-name="패스 258" d="M18.529,2.476c.343-.167.82-.3.933-.031q.57,1.115,1.965,4.033c.808,1.69,1.367,2.873,1.693,3.508.147.335-.241.76-.6.865a.3.3,0,0,1-.323-.113,3.916,3.916,0,0,1-.482-.78L20.4,7.215c-.544.267-1.134.587-1.727.93s-1.185.661-1.781.967c.573,1.211,1.08,2.249,1.526,3.131.147.337-.238.76-.593.865-.306.1-.562-.386-.956-1.191L15.634,9.35c-.332-.683-.649-1.339-.939-1.962s-.55-1.132-.786-1.58c-.44-.9-.587-1.168-.216-1.347.34-.167.817-.3.93-.034.516,1.021,1.109,2.238,1.772,3.638l1.744-.9c.8-.442,1.4-.749,1.778-.936-.752-1.546-1.27-2.612-1.571-3.193-.139-.286-.108-.423.181-.562" transform="translate(24.752 4.207)" fill="#fff"/>
      <path id="패스_259" data-name="패스 259" d="M16.465,3.552a.759.759,0,0,1,.442-.871L20.58,1.493c1.075-.346,1.778-.533,1.926-.244a.7.7,0,0,1-.269.873c-.335.1-.681.213-1.012.326s-.672.241-1,.352L19.2,3.146c.136.451.44,1.441.888,2.972l3.273-1.052a.379.379,0,0,1,.5.2.706.706,0,0,1-.261.876c-.354.1-.7.218-1.061.337-.354.136-.7.252-1.061.374l-1.066.36.726,2.447a31.226,31.226,0,0,0,3.3-1.443l.394-.2a.477.477,0,0,1,.666.113.606.606,0,0,1-.142.913,24.609,24.609,0,0,1-4.384,1.943.656.656,0,0,1-.91-.465c-.116-.167-1.574-5.068-2.073-6.971L16.964,3.9a.39.39,0,0,1-.5-.346" transform="translate(30.199 2.031)" fill="#fff"/>
      <path id="패스_260" data-name="패스 260" d="M20.1.525a.628.628,0,0,1,.78.247c.1.462.53,2.765,1.3,6.92l.207,1.166a22.5,22.5,0,0,0,2.785-.842l.346-.122a.472.472,0,0,1,.649.187.605.605,0,0,1-.241.89c-1.727.579-2.768.933-3.845,1.185a.657.657,0,0,1-.856-.562c-.116-.241-1.392-7.223-1.546-8.51A.612.612,0,0,1,20.1.525" transform="translate(36.132 0.878)" fill="#fff"/>
      <path id="패스_261" data-name="패스 261" d="M21.338,1.432c-.028-.349.3-.559.978-.658C22.782.7,23.445.615,24.307.5c.862-.091,1.679-.2,2.462-.295L27.4.13c.709-.1,1.08.034,1.126.411a.572.572,0,0,1-.457.641,3.264,3.264,0,0,1-.542.068l-1.738.218c.113.783.264,2.1.482,3.959l.247,1.948c.065.635.139,1.225.224,1.781.031.366-.471.644-.842.63-.32-.006-.4-.533-.51-1.392L25.1,6.082c-.176-1.514-.363-2.995-.562-4.455l-2.357.295c-.556.088-.82-.17-.845-.491" transform="translate(39.171 0.175)" fill="#fff"/>
      <path id="패스_262" data-name="패스 262" d="M24.406.716a.763.763,0,0,1,.686-.7L28.952,0c1.123-.006,1.855.028,1.9.346a.691.691,0,0,1-.516.752c-.349-.009-.715,0-1.063.006s-.715.026-1.063.031l-1.078.02c-.009.471-.02,1.5-.057,3.1l3.434-.014a.38.38,0,0,1,.417.343.7.7,0,0,1-.519.754c-.366-.011-.729,0-1.106,0-.38.023-.746.028-1.126.034l-1.123.02-.048,2.552a30.676,30.676,0,0,0,3.579-.38l.44-.068a.474.474,0,0,1,.6.309.606.606,0,0,1-.414.828,24.6,24.6,0,0,1-4.759.522.65.65,0,0,1-.726-.717c-.068-.2.031-5.3.133-7.263L24.781,1.2a.389.389,0,0,1-.374-.479" transform="translate(44.792 0)" fill="#fff"/>
      <path id="패스_263" data-name="패스 263" d="M29.586.665a5.31,5.31,0,0,1,2.235-.32c1.435.156,2.725,1.061,2.7,2.113.014,1.7-1.875,3.2-4.75,3.806a15.266,15.266,0,0,0,1.965,1.713c.241.179.513.36.8.53a4.6,4.6,0,0,1,1.046.786.609.609,0,0,1-.871.837,4.343,4.343,0,0,0-.89-.661c-.411-.275-.726-.476-.91-.618a14.488,14.488,0,0,1-2.062-1.815,3.27,3.27,0,0,0-.062.559l-.125,1.134a.66.66,0,0,1-.349.542.6.6,0,0,1-.851-.613c.06-.681.13-1.344.221-2.025s.162-1.341.25-2.019c.113-.89.258-2.218.454-4.016a.6.6,0,0,1,1.2.068m3.7,1.994c.017-.564-.5-1.049-1.526-1.146a4.185,4.185,0,0,0-2.317.513c-.074.681-.2,1.736-.371,3.136l.448-.057c1.75-.207,3.769-1.364,3.766-2.447" transform="translate(50.417 0.164)" fill="#fff"/>
      <path id="패스_264" data-name="패스 264" d="M39.981,11.755c-.159.335-.4.428-.922.258a4.853,4.853,0,0,1-1.693-1.078,5.191,5.191,0,0,1-3.525-.017c-1.432-.525-2.246-1.6-1.86-2.961.366-1.29,1.208-1.846,2.714-2.371a4.936,4.936,0,0,1,0-2.81,2.162,2.162,0,0,1,2.938-1.543A2.2,2.2,0,0,1,39.17,4.152c-.377,1.143-1.18,1.614-2.853,2.164l.122.363.235.638A8.344,8.344,0,0,0,37.621,9.3,4.342,4.342,0,0,0,38.841,7.8a.658.658,0,0,1,.837-.346A.624.624,0,0,1,40,8.34a4.735,4.735,0,0,1-1.443,1.928,3.708,3.708,0,0,0,.953.559c.513.187.655.539.476.927M34.136,9.781a3.419,3.419,0,0,0,2.382.085,13.708,13.708,0,0,1-1.449-3.131c-.99.425-1.56.879-1.772,1.563a1.183,1.183,0,0,0,.839,1.483M35.92,5.19c1.109-.386,1.843-.817,2.067-1.625a.823.823,0,0,0-.63-1.106c-.627-.193-1.137.04-1.4.848A3.322,3.322,0,0,0,35.92,5.19" transform="translate(58.538 1.995)" fill="#fff"/>
      <path id="패스_265" data-name="패스 265" d="M41.027,3.11a.585.585,0,0,1,.3.746l-.162.346c-1.455,3.25-2.3,5.178-2.513,5.78l.638-.536c2.1-1.787,3.361-2.827,4.654-3.724a.692.692,0,0,1,.683-.06.49.49,0,0,1,.278.641,30.853,30.853,0,0,1-.93,3.185,27.327,27.327,0,0,0-1.018,3.644,41.627,41.627,0,0,0,3.369-3.074c.641-.624.984-.944,1.027-.987A3.866,3.866,0,0,1,48.394,8.3a.517.517,0,0,1,.527.043.63.63,0,0,1,.156.956,30.532,30.532,0,0,1-6.361,5.544.887.887,0,0,1-.851.1.528.528,0,0,1-.21-.292,2.229,2.229,0,0,1-.054-.661,20.111,20.111,0,0,1,1.256-4.915l.482-1.489a27.739,27.739,0,0,1-5.519,4.421.705.705,0,0,1-.706-.136.534.534,0,0,1-.164-.678A49.6,49.6,0,0,1,40.244,3.3a.607.607,0,0,1,.783-.193" transform="translate(67.735 5.59)" fill="#fff"/>
      <path id="패스_266" data-name="패스 266" d="M44.658,5.787a.763.763,0,0,1,.976-.065l2.9,2.541c.845.74,1.37,1.248,1.2,1.52a.7.7,0,0,1-.885.221c-.258-.238-.536-.474-.8-.7s-.553-.454-.82-.681l-.82-.7c-.315.349-1.01,1.115-2.093,2.289L46.9,12.474a.382.382,0,0,1,.085.533.7.7,0,0,1-.885.221c-.269-.25-.547-.485-.834-.732s-.576-.471-.868-.72l-.854-.729L41.813,12.93a31.383,31.383,0,0,0,2.932,2.084l.377.241a.473.473,0,0,1,.244.627.609.609,0,0,1-.859.349,24.8,24.8,0,0,1-3.914-2.765.654.654,0,0,1-.068-1.018c.082-.19,3.536-3.953,4.912-5.354l-.82-.7a.391.391,0,0,1,.04-.607" transform="translate(74.013 10.232)" fill="#fff"/>
      <path id="패스_267" data-name="패스 267" d="M49.648,7.861a.634.634,0,0,1,.19.8c-.34.323-2.093,1.875-5.252,4.674l-.893.783a23.185,23.185,0,0,0,2.158,1.951l.284.233a.47.47,0,0,1,.173.649.6.6,0,0,1-.885.252c-1.387-1.177-2.223-1.889-3-2.683a.651.651,0,0,1,.04-1.018c.147-.221,5.468-4.917,6.486-5.714a.62.62,0,0,1,.7.074" transform="translate(77.473 14.155)" fill="#fff"/>
      <path id="패스_268" data-name="패스 268" d="M49.77,9.75a.76.76,0,0,1,.967.145L53.032,13c.666.9,1.069,1.514.842,1.744a.7.7,0,0,1-.913.026c-.2-.289-.417-.581-.63-.859s-.442-.559-.655-.839l-.652-.859q-1.229.906-2.524,1.8L50.783,17.1a.383.383,0,0,1-.028.539.707.707,0,0,1-.919.026c-.227-.323-.474-.652-.717-.978-.272-.329-.527-.669-.794-1.021l-.76-1.007-2.175,1.512c-.553.4-.959.573-1.287.136a.543.543,0,0,1,.037-.808c.374-.337,4.577-3.292,6.117-4.308l-.652-.859a.392.392,0,0,1,.167-.584" transform="translate(80.669 17.697)" fill="#fff"/>
      <path id="패스_269" data-name="패스 269" d="M55.015,13.584a.443.443,0,0,1-.156.36c-.187.252-.885,1.041-2.09,2.379s-2.547,2.739-3.97,4.242a.616.616,0,0,1-.976,0,.6.6,0,0,1,.011-.752l.981-1.061c.147-.142.3-.3.437-.457l-.638-.984c-.224-.343-.564-.851-.981-1.523l-1.7.556A.674.674,0,0,1,45.174,16a.5.5,0,0,1,.258-.757c1.415-.5,2.728-.885,4.983-1.5,1.653-.437,3.017-.822,4.1-1.183.669.026.873.664.5,1.027m-4.906,3.828c1.143-1.2,2.124-2.257,2.915-3.156l-2.09.593c-.93.252-1.631.44-2.1.579l.647,1c.269.423.485.754.627.99" transform="translate(82.781 23.052)" fill="#fff"/>
      <path id="패스_270" data-name="패스 270" d="M54.893,15.878a5.329,5.329,0,0,1,1.4,1.772c.587,1.319.457,2.893-.465,3.4-1.458.868-3.715-.009-5.689-2.195a15.787,15.787,0,0,0-.488,2.566,9.24,9.24,0,0,0-.054.956,4.748,4.748,0,0,1-.156,1.3.611.611,0,0,1-1.163-.332,4.357,4.357,0,0,0,.125-1.1c.031-.5.048-.871.077-1.1a14.716,14.716,0,0,1,.53-2.7,3.735,3.735,0,0,0-.516.23l-1.041.465a.66.66,0,0,1-.644-.028.6.6,0,0,1,.1-1.044c.618-.295,1.228-.567,1.86-.831s1.242-.536,1.875-.8c.825-.349,2.048-.893,3.7-1.631a.6.6,0,0,1,.544,1.072m.139,4.2c.5-.269.655-.959.221-1.894a4.2,4.2,0,0,0-1.611-1.75c-.624.281-1.605.7-2.9,1.262l.278.36c1.061,1.407,3.077,2.572,4.013,2.022" transform="translate(85.467 27.13)" fill="#fff"/>
      <path id="패스_271" data-name="패스 271" d="M55.351,17.449a.766.766,0,0,1,.859.468L57.3,21.623c.315,1.08.482,1.792.193,1.928a.7.7,0,0,1-.871-.289c-.085-.34-.193-.689-.295-1.024S56.1,21.561,56,21.226l-.318-1.032c-.457.125-1.455.4-3,.808l.961,3.3a.377.377,0,0,1-.213.5.693.693,0,0,1-.865-.292c-.1-.352-.2-.7-.315-1.066s-.233-.706-.343-1.069l-.329-1.078-2.47.661a31.81,31.81,0,0,0,1.356,3.341l.19.4a.475.475,0,0,1-.133.661.6.6,0,0,1-.907-.167,24.687,24.687,0,0,1-1.823-4.435.651.651,0,0,1,.491-.9c.167-.116,5.11-1.441,7.024-1.883l-.318-1.035a.391.391,0,0,1,.36-.491" transform="translate(87.646 32.011)" fill="#fff"/>
      <path id="패스_272" data-name="패스 272" d="M13,46.343a.593.593,0,0,1,.865-.128L17.4,48.348l.8-1.3.045-.043c-.516-.267-1-.547-1.469-.837a.654.654,0,0,1-.224-1c-.006-.02.037-.085.091-.176.162-.258.624-.922,1.409-1.991l-.425-.264a.484.484,0,0,1-.088-.664.646.646,0,0,1,.859-.235c1.234.78,2.833,1.787,4.773,3.04a.369.369,0,0,1,.133.567.7.7,0,0,1-.811.3l-3.312-2.05-.21.281-1.046,1.486a39.523,39.523,0,0,0,3.984,1.979.35.35,0,0,1,.125.057.514.514,0,0,1,.116.737.58.58,0,0,1-.7.264,16.25,16.25,0,0,1-2.181-.956c-.009.011,0,.034-.014.079l-.817,1.322,3.843,2.32c.372.233.295.417.176.666a.568.568,0,0,1-.831.272c-.919-.567-2.308-1.412-4.2-2.524-.924-.556-2.34-1.4-4.211-2.535A.544.544,0,0,1,13,46.343m3.559,3.616a1.529,1.529,0,0,1,.666.252,1.2,1.2,0,0,1,.323.286,3.48,3.48,0,0,1-.4,2.87c-.695,1.126-1.875,1.7-2.859,1.092a2.1,2.1,0,0,1-.363-2.944,3.413,3.413,0,0,1,2.629-1.557m-1.534,3.434c.349.216.786-.176,1.078-.641a2.075,2.075,0,0,0,.343-1.54,1.9,1.9,0,0,0-1.378.953c-.374.61-.391,1.012-.043,1.228" transform="translate(23.686 76.676)" fill="#fff"/>
      <path id="패스_273" data-name="패스 273" d="M17.8,53.556a.591.591,0,0,1,.794-.329c.133.028,1.253.377,3.344,1.066.181-.468.312-.791.36-.967l-.488-.173c-.315-.111-.63-.221-.964-.326s-.664-.218-1-.318l-.754-.235a.591.591,0,0,1-.349-.752.612.612,0,0,1,.794-.332l1.477.474.349-.942c-1.344-.442-2.652-.888-3.942-1.341a.547.547,0,0,1-.38-.749.639.639,0,0,1,.837-.366c1.667.576,2.924.987,3.76,1.265,2.479.828,4.333,1.466,5.547,1.9.417.147.332.391.269.658a.569.569,0,0,1-.752.442L22.575,51.12c-.068.153-.179.468-.354.956.278.082.624.2,1.055.354.414.147.5.389.255,1.092-.139.4-.306.825-.5,1.253a.624.624,0,0,1,.091.564.6.6,0,0,1-.7.346l-2.893-.939a9.629,9.629,0,0,0-.44,1.021q1.353.476,2.677.9l1.024.346a.605.605,0,0,1,.281.712.653.653,0,0,1-.726.372c-.939-.315-1.772-.6-2.476-.842-.859-.3-1.523-.57-1.994-.786a.7.7,0,0,1-.19-.695c.108-.3.32-.774.632-1.421l-.145-.051a.6.6,0,0,1-.366-.743M20.638,43.8l4.668,1.7a10.7,10.7,0,0,1,1.265.527c.184.116.272.227.275.309a.2.2,0,0,1,.009.164c-.289.686-.573,1.344-.871,1.962l-.261.553c-.088.389-.4.536-.9.454a42.708,42.708,0,0,1-4.373-1.3.654.654,0,0,1-.431-.924.738.738,0,0,1,.06-.2c.091-.258.289-.686.584-1.293l.272-.6-1-.354a.434.434,0,0,1-.216-.527.757.757,0,0,1,.922-.462m4.123,4.469c.139-.255.369-.771.686-1.531L22.18,45.584,22,45.967a8.4,8.4,0,0,0-.576,1.265l.681.224c1.191.406,2.082.672,2.66.811" transform="translate(31.214 80.345)" fill="#fff"/>
      <path id="패스_274" data-name="패스 274" d="M21.146,53.876a.639.639,0,0,1,.74-.536L26,53.8c.068-.559.119-.984.139-1.256l.085-.817c-.7-.043-1.367-.108-2.016-.187a.646.646,0,0,1-.618-.814.756.756,0,0,1,.017-.258c.116-.95.658-4,.924-5.144.079-.3.34-.417.749-.369s.556.238.488.766c-.031.272-.13.814-.275,1.639l3.718.533.241-1.948c.028-.349.312-.437.675-.391.32.04.562.193.525.493L30,51.349a.611.611,0,0,1-.681.544.464.464,0,0,1-.25-.091,14.271,14.271,0,0,1-1.639,0l-.077.865-.122,1.256,4.415.5c.451.054.437.315.431.59a.568.568,0,0,1-.641.6c-1.072-.133-2.688-.318-4.869-.539-1.072-.119-2.711-.289-4.886-.542a.551.551,0,0,1-.533-.649m7.722-3.2.21-1.69-3.792-.468c-.125.644-.238,1.3-.332,1.951,1.287.128,2.581.2,3.914.207" transform="translate(38.813 82.515)" fill="#fff"/>
      <path id="패스_275" data-name="패스 275" d="M25.95,56.077a.633.633,0,0,1,.607-.681l3.919-.4-.147-1.761a1.823,1.823,0,0,1-2.019-1.571c-.113-1.256.264-1.948,1.526-3.026a1.043,1.043,0,0,1,.36-.077,2.065,2.065,0,0,1,.893.085,7.592,7.592,0,0,1,.644.522,2.362,2.362,0,0,1,.672,1.526,2.23,2.23,0,0,1-.893,2.252l.173,1.909,4.631-.471c.454-.04.493.216.547.485a.566.566,0,0,1-.5.717c-1.075.1-2.694.261-4.869.508-1.075.113-2.705.292-4.886.508a.541.541,0,0,1-.658-.522m1.188-8.842c.2-.034,1.012-.139,2.419-.284l-.057-.774a6.342,6.342,0,0,0-.04-.635.658.658,0,0,1,.567-.635.64.64,0,0,1,.624.465c.026.286.045.513.045.681l.057.791c.788-.074,1.441-.116,1.94-.147a.84.84,0,0,1,.706.683c.023.258-.173.428-.6.5l-2.652.244c-1.483.136-2.376.216-2.663.258a.635.635,0,0,1-.652-.613c-.023-.258.077-.5.3-.53m3.482,4.812c.372-.1.6-.284.522-1.149a1.684,1.684,0,0,0-.661-1.208c-.255.238-.437.408-.547.525a1.371,1.371,0,0,0-.406,1.092c.048.53.386.865,1.092.74" transform="translate(47.636 82.438)" fill="#fff"/>
      <path id="패스_276" data-name="패스 276" d="M30.906,46.788a.6.6,0,0,1,.814.349c.079.6.125,1.446.156,2.538a17.271,17.271,0,0,0,3,1.6,1.388,1.388,0,0,1,.939.786.5.5,0,0,1-.255.658.443.443,0,0,1-.25.017,13.261,13.261,0,0,1-3.386-1.554,29.135,29.135,0,0,1-.1,3.579.566.566,0,0,1-.3.221.7.7,0,0,1-.856-.332c0-.048-.02-.108-.017-.156.054-1.982,0-3.29-.122-5.632l-.085-1.616a.65.65,0,0,1,.462-.454m3.44,1.923,2.087-.666c-.332-1.044-.587-1.843-.783-2.4-.1-.306-.043-.434.264-.53.363-.116.854-.179.927.1.111.3.255.749.445,1.341l.624,2c.269.89.471,1.577.615,2.025l.343,1.027c.082.306-.25.621-.613.737a.368.368,0,0,1-.264.02c-.147-.062-.332-.437-.525-1.044l-.7-2.252-2.107.655a.669.669,0,0,1-.678-.471c-.079-.247.04-.428.366-.547M36.853,55.7l-.371-1.463a.622.622,0,0,1,.485-.632.641.641,0,0,1,.516.06,1.5,1.5,0,0,1,.445.8,8.57,8.57,0,0,1,.23.964,7.477,7.477,0,0,0,.241,1.01l3.29-1.049c.247-.079.476.133.564.411s.031.6-.261.689l-3.709,1.185c-.579.184-.927-.15-1.168-.907a9.164,9.164,0,0,1-.261-1.066m2.473-6.86-.717-2.294c-.167-.522-.406-1.228-.7-2.107-.1-.306-.028-.44.278-.536.346-.111.839-.173.91.108.122.329.292.865.527,1.605.164.508.394,1.279.709,2.314l.715,2.294L41.4,51.28c.085.312-.275.635-.638.749-.394.125-.61-.556-.981-1.716-.193-.61-.352-1.1-.454-1.469" transform="translate(55.892 80.435)" fill="#fff"/>
      <path id="패스_277" data-name="패스 277" d="M34.083,48.472a.764.764,0,0,1,.241-1l4.129-2.323a.368.368,0,0,1,.562.147.7.7,0,0,1-.113.856l-2.637,1.54.817,1.546,2.671-1.506a.369.369,0,0,1,.562.145.7.7,0,0,1-.113.859l-2.609,1.523c.13.258.326.655.613,1.171l.363.686a16.569,16.569,0,0,0,2.391-1.838c.369-.337.709-.624,1.015-.856a.316.316,0,0,1,.111-.079.509.509,0,0,1,.7.238.582.582,0,0,1-.094.743,30.739,30.739,0,0,1-4.018,3.119.654.654,0,0,1-.984-.269.854.854,0,0,1-.145-.216c-.434-.749-1.744-3.29-2.382-4.622l-.536.312a.437.437,0,0,1-.544-.173m7.135-1.724,2.019-1.18c-.774-1.324-1.293-2.215-1.591-2.694-.159-.275-.133-.411.139-.573.329-.193.794-.357.927-.1.173.269.457.754.856,1.435.312.539.82,1.438,1.534,2.691l1.483,2.564.638,1.066c.15.284-.1.661-.434.854a.381.381,0,0,1-.252.077c-.159-.031-.431-.38-.763-.944L43.781,46.5l-2.039,1.174a.47.47,0,0,1-.681-.164c-.2-.354-.15-.564.156-.76" transform="translate(62.397 77.231)" fill="#fff"/>
      <path id="패스_278" data-name="패스 278" d="M11.8,52.365a10.9,10.9,0,0,1-1.951-.173.728.728,0,0,1-.6-.678,4.608,4.608,0,0,0-.584-2.382,2.333,2.333,0,0,1-.034-3.392c.717-.763.369-1.1-.213-1.665a6.119,6.119,0,0,1-.508-.539c-.414-.53.071-1,.462-1.378.553-.536.922-.964.641-1.605-.088-.19-.284-.641-.006-.848.1-.077.428-.312,1.892.964.8.465,2.195,1.8,1.548,3.378-.312.757-.244,1.12-.13,1.3a.509.509,0,0,0,.38.216l.071.014c.065.023.227.082.448.17.111-1.078.292-2,.337-2.223a2.8,2.8,0,0,1,3-2.059c1.764.079,2.022-.425,2.351-1.066a4.637,4.637,0,0,1,.233-.414c.164-.261.207-.488.119-.638a.538.538,0,0,0-.51-.2,3.641,3.641,0,0,1-2.7-.82,3.658,3.658,0,0,0-2.4-1.16c-1.33-.167-1.231-1.066-1.129-2.019l.009-.077a1.634,1.634,0,0,0-.057-.871,2.378,2.378,0,0,0-.476.6c-.25.391-.471.635-.723.564-.306-.085-.315-.508-.323-1.095a4.352,4.352,0,0,0-.043-.715.993.993,0,0,0-.043-.156,4.794,4.794,0,0,0-.8,1.177C9.333,35.877,5.958,45.255,5.394,47.1c-.312,1.018-.871,1.282-1.282,1.322A1.225,1.225,0,0,1,3,47.907a10.905,10.905,0,0,1,7.963-17.319,10.915,10.915,0,0,1,5.57,1.049l-.2.42a10.442,10.442,0,0,0-14.956,8.9,10.329,10.329,0,0,0,2,6.67.763.763,0,0,0,.683.326c.394-.04.692-.374.879-.993.493-1.611,3.905-11.182,4.719-12.625.638-1.129.967-1.5,1.3-1.441.306.048.38.417.408.556a4.9,4.9,0,0,1,.054.8c0,.156,0,.366.02.516.04-.054.094-.128.159-.233.275-.437.644-.924,1.038-.788s.417.82.36,1.364l-.009.074c-.113,1.038-.111,1.4.72,1.506A4.117,4.117,0,0,1,16.4,38.007a3.259,3.259,0,0,0,2.32.664,1.012,1.012,0,0,1,.942.437,1.037,1.037,0,0,1-.13,1.126,4.1,4.1,0,0,0-.21.377c-.354.695-.706,1.421-2.791,1.319l-.164,0a2.3,2.3,0,0,0-2.351,1.7,21.629,21.629,0,0,0-.34,2.317c1,.451,2.447,1.27,2.547,2.243.051.525-.275,1-.973,1.418a1.257,1.257,0,0,1-1.421.122c-.692-.493-.76-2.05-.652-3.488-.2-.085-.389-.156-.536-.207a1,1,0,0,1-.715-.428,1.883,1.883,0,0,1,.091-1.73c.655-1.6-1.364-2.808-1.387-2.819a6.836,6.836,0,0,0-1.27-.907,2.138,2.138,0,0,0,.085.221c.437.99-.247,1.648-.743,2.13-.471.457-.544.593-.417.754a5.337,5.337,0,0,0,.462.491c.562.544,1.262,1.225.23,2.323a1.873,1.873,0,0,0,.04,2.756,5.168,5.168,0,0,1,.7,2.669.263.263,0,0,0,.213.244,10.642,10.642,0,0,0,2.368.156A10.467,10.467,0,0,0,22.23,41.742a10.351,10.351,0,0,0-3.017-7.626l.332-.329A10.829,10.829,0,0,1,22.7,41.753a10.939,10.939,0,0,1-10.377,10.6c-.176.008-.349.011-.522.011m1.835-5.924c-.085,1.344,0,2.569.465,2.9.2.142.508.1.91-.142.525-.315.777-.641.743-.967-.068-.664-1.174-1.341-2.118-1.789" transform="translate(1.642 56.098)" fill="#fff"/>
      <path id="패스_279" data-name="패스 279" d="M8.093,32.293a.455.455,0,1,1-.139-.664.48.48,0,0,1,.139.664" transform="translate(13.281 57.966)" fill="#fff"/>
      <path id="패스_280" data-name="패스 280" d="M7,31.541a.455.455,0,1,1-.783-.454A.455.455,0,1,1,7,31.541" transform="translate(11.273 56.585)" fill="#fff"/>
      <path id="패스_281" data-name="패스 281" d="M54.7,52.365a10.9,10.9,0,0,1-1.951-.173.728.728,0,0,1-.6-.678,4.608,4.608,0,0,0-.584-2.382,2.333,2.333,0,0,1-.034-3.392c.717-.763.369-1.1-.213-1.665a6.119,6.119,0,0,1-.508-.539c-.414-.53.071-1,.462-1.378.553-.536.922-.964.641-1.605-.088-.19-.284-.641-.006-.848.1-.077.428-.312,1.892.964.8.465,2.195,1.8,1.548,3.378-.312.757-.244,1.12-.13,1.3a.509.509,0,0,0,.38.216l.071.014c.065.023.227.082.448.17.111-1.078.292-2,.337-2.223a2.8,2.8,0,0,1,3-2.059c1.764.079,2.022-.425,2.351-1.066a4.637,4.637,0,0,1,.233-.414c.164-.261.207-.488.119-.638a.538.538,0,0,0-.51-.2,3.641,3.641,0,0,1-2.7-.82,3.658,3.658,0,0,0-2.4-1.16c-1.33-.167-1.231-1.066-1.129-2.019l.009-.077a1.634,1.634,0,0,0-.057-.871,2.379,2.379,0,0,0-.476.6c-.25.391-.471.635-.723.564-.306-.085-.315-.508-.323-1.095a4.352,4.352,0,0,0-.043-.715.993.993,0,0,0-.043-.156,4.794,4.794,0,0,0-.8,1.177c-.737,1.31-4.112,10.688-4.676,12.532-.312,1.018-.871,1.282-1.282,1.322a1.225,1.225,0,0,1-1.109-.513,10.905,10.905,0,0,1,7.963-17.319,10.915,10.915,0,0,1,5.57,1.049l-.2.42a10.442,10.442,0,0,0-14.956,8.9,10.329,10.329,0,0,0,2,6.67.763.763,0,0,0,.683.326c.394-.04.692-.374.879-.993.493-1.611,3.905-11.182,4.719-12.625.638-1.129.967-1.5,1.3-1.441.306.048.38.417.408.556a4.9,4.9,0,0,1,.054.8c0,.156,0,.366.02.516.04-.054.094-.128.159-.233.275-.437.644-.924,1.038-.788s.417.82.36,1.364l-.009.074c-.113,1.038-.111,1.4.72,1.506A4.117,4.117,0,0,1,59.3,38.007a3.259,3.259,0,0,0,2.32.664,1.012,1.012,0,0,1,.942.437,1.037,1.037,0,0,1-.13,1.126,4.1,4.1,0,0,0-.21.377c-.357.695-.706,1.421-2.791,1.319l-.164,0a2.3,2.3,0,0,0-2.351,1.7,21.632,21.632,0,0,0-.34,2.317c1,.451,2.447,1.27,2.547,2.243.051.525-.275,1-.973,1.418a1.257,1.257,0,0,1-1.421.122c-.692-.493-.76-2.05-.652-3.488-.2-.085-.389-.156-.536-.207a1,1,0,0,1-.715-.428,1.883,1.883,0,0,1,.091-1.73c.655-1.6-1.364-2.808-1.387-2.819a6.837,6.837,0,0,0-1.27-.907,1.634,1.634,0,0,0,.085.221c.437.99-.247,1.648-.743,2.13-.471.457-.544.593-.417.754a5.338,5.338,0,0,0,.462.491c.562.544,1.262,1.225.23,2.323a1.873,1.873,0,0,0,.04,2.756,5.168,5.168,0,0,1,.7,2.669.263.263,0,0,0,.213.244,10.642,10.642,0,0,0,2.368.156,10.467,10.467,0,0,0,9.928-10.144,10.351,10.351,0,0,0-3.017-7.626l.332-.329A10.829,10.829,0,0,1,65.6,41.753a10.939,10.939,0,0,1-10.376,10.6c-.176.008-.349.011-.522.011m1.835-5.924c-.085,1.344,0,2.569.465,2.9.2.142.508.1.91-.142.525-.315.777-.641.743-.967-.068-.664-1.174-1.341-2.118-1.789" transform="translate(80.398 56.098)" fill="#fff"/>
      <path id="패스_282" data-name="패스 282" d="M50.992,32.293a.455.455,0,1,1-.139-.664.48.48,0,0,1,.139.664" transform="translate(92.039 57.966)" fill="#fff"/>
      <path id="패스_283" data-name="패스 283" d="M49.9,31.541a.455.455,0,1,1-.139-.664.48.48,0,0,1,.139.664" transform="translate(90.03 56.585)" fill="#fff"/>
    </g>
  </g>
</svg>
