<svg xmlns="http://www.w3.org/2000/svg" xmlns:xlink="http://www.w3.org/1999/xlink" width="222" height="53.371" viewBox="0 0 222 53.371">
  <defs>
    <clipPath id="clip-path">
      <rect id="사각형_24" data-name="사각형 24" width="222" height="53.371" fill="none"/>
    </clipPath>
  </defs>
  <g id="그룹_6" data-name="그룹 6" transform="translate(0 0)">
    <g id="그룹_5" data-name="그룹 5" transform="translate(0 0)" clip-path="url(#clip-path)">
      <path id="패스_66" data-name="패스 66" d="M80.123,22.356C77.2,12.944,73.051,5.278,70.195,1.5a3.908,3.908,0,0,0-6.259.144A93.523,93.523,0,0,0,53.559,22.449a20.126,20.126,0,0,1,3.973,12.144,19.6,19.6,0,0,1-6.61,14.941,7.666,7.666,0,0,0,4.523,1.606H79.693c3.665,0,4.921-3.387,5.035-7.051.161-5.184-1.874-12.95-4.6-21.734" transform="translate(23.166 0)" fill="#648943"/>
      <path id="패스_67" data-name="패스 67" d="M26.954,40.059c-.933-4.8-.892-15.559-.749-22.545a42.315,42.315,0,0,0-5.27-6.953,4.649,4.649,0,0,0-6.246.111A65.434,65.434,0,0,0,3.754,28.056C1.315,34.327-.3,41.414.045,45.322c.176,2.008,3.562,3.371,6.173,3.371H30.409a5.828,5.828,0,0,0,1.676-.249c-2.7-.621-4.017-2.642-5.131-8.385" transform="translate(0 4.28)" fill="#35763c"/>
      <path id="패스_68" data-name="패스 68" d="M46.3,18.267c-.115-1.675-.2-2.711-.2-2.711-.288-5.539-3.05-13.564-7.7-13.564H30.608A12.412,12.412,0,0,0,18.2,14.4s-.109,2.686-.186,6.485a58.83,58.83,0,0,1,4.635,9.068c2.725,6.746,4.756,12.713,4.595,16.7-.095,2.324-.989,4.477-3.349,5.166a12.228,12.228,0,0,0,2.724.249H37.623c3.438,0,5.342-1.525,6.879-4.6A19.837,19.837,0,0,1,39.12,33.687,19.508,19.508,0,0,1,46.3,18.267" transform="translate(8.194 0.906)" fill="#a3bc49"/>
      <path id="패스_69" data-name="패스 69" d="M27.265,40.744c.161-3.982-1.87-9.947-4.595-16.694a58.848,58.848,0,0,0-4.635-9.07c-.143,6.987-.183,17.746.749,22.545,1.116,5.744,2.434,7.763,5.131,8.385,2.36-.688,3.255-2.843,3.349-5.166" transform="translate(8.169 6.814)" fill="#245f2e"/>
      <path id="패스_70" data-name="패스 70" d="M55.948,41.807c-.343-5.086,1.273-14.313,3.717-22.477.18-.6.378-1.213.583-1.826A15.967,15.967,0,0,0,47.53,10.87a15.366,15.366,0,0,0-9.511,3.358c.423,6.141,1.248,20.944-.26,25.382a30.706,30.706,0,0,1-1.539,3.819,15.664,15.664,0,0,0,11.311,5,15.447,15.447,0,0,0,10.083-3.837,3.979,3.979,0,0,1-1.664-2.782" transform="translate(16.477 4.945)" fill="#68ac45"/>
      <path id="패스_71" data-name="패스 71" d="M58.067,27.574A20.135,20.135,0,0,0,54.1,15.43c-.207.613-.4,1.222-.585,1.826-2.444,8.164-4.061,17.391-3.717,22.477a3.979,3.979,0,0,0,1.664,2.782,19.6,19.6,0,0,0,6.61-14.941" transform="translate(22.631 7.019)" fill="#33753c"/>
      <path id="패스_72" data-name="패스 72" d="M39.7,13.178A19.508,19.508,0,0,0,32.52,28.6,19.837,19.837,0,0,0,37.9,42.38,30.808,30.808,0,0,0,39.44,38.56c1.509-4.439.684-19.241.26-25.382" transform="translate(14.794 5.994)" fill="#448c38"/>
      <path id="패스_73" data-name="패스 73" d="M87.03,15a16.6,16.6,0,0,0,3.377,2.764c.495.32.931.349,1.28-.029l1.95-2.328a.808.808,0,0,0-.406-1.165,21.075,21.075,0,0,1-4.192-3.084,19.55,19.55,0,0,0,1.048-5.152A1.1,1.1,0,0,0,88.95,4.7H86.013c-.671,0-1.135.407-1.165,1.309a13.471,13.471,0,0,1-4.277,9.78c-.467.436-.525.9-.2,1.251l1.483,1.513a1.027,1.027,0,0,0,1.427.147A14.217,14.217,0,0,0,87.03,15" transform="translate(36.468 2.137)" fill="#fff"/>
      <path id="패스_74" data-name="패스 74" d="M90.889,18.455H93.3a.772.772,0,0,0,.874-.873l.116-3.784h1.833v5.239A.772.772,0,0,0,97,19.91h2.415a.772.772,0,0,0,.874-.873l.639-13.766a.739.739,0,0,0-.844-.873H96.972c-.582,0-.844.291-.844.873V9.724H94.411l.116-4.163a.741.741,0,0,0-.844-.873H90.569c-.582,0-.844.291-.844.873l.291,12.021a.772.772,0,0,0,.873.873" transform="translate(40.817 2)" fill="#fff"/>
      <path id="패스_75" data-name="패스 75" d="M100.449,20.9c0-3.492-2.967-6.461-7.186-6.461-4.251,0-7.218,2.969-7.218,6.461s2.967,6.287,7.218,6.287c4.219,0,7.186-2.793,7.186-6.287m-10.039,0a2.734,2.734,0,0,1,3.026-2.677A2.8,2.8,0,0,1,96.462,20.9a3.053,3.053,0,0,1-6.052,0" transform="translate(39.143 6.569)" fill="#fff"/>
      <path id="패스_76" data-name="패스 76" d="M101.428,18.368l9.313-.116a1.634,1.634,0,0,0,1.746-1.746v-.116h3.668l.029,1.775a.771.771,0,0,0,.873.873h3.028c.581,0,.844-.29.871-.873l.292-12.893A.742.742,0,0,0,120.4,4.4h-3.55c-.582,0-.844.292-.844.873V6.844h-3.29V6.756A1.585,1.585,0,0,0,111,5.009l-9.953.058A1.607,1.607,0,0,0,99.3,6.815l.377,9.808a1.636,1.636,0,0,0,1.747,1.746M112.6,10.859h3.464l.029,1.515h-3.521Zm-4.6-1.833v5.3l-3.93.029-.058-5.326Z" transform="translate(45.175 2)" fill="#fff"/>
      <path id="패스_77" data-name="패스 77" d="M103.663,20.834c0,3.4,2.94,6.2,7.19,6.2,4.219,0,7.131-2.795,7.131-6.2s-2.911-6.374-7.131-6.374c-4.25,0-7.19,2.968-7.19,6.374m10.333,0a3.018,3.018,0,0,1-5.967,0c0-1.455,1.136-2.591,3-2.591A2.719,2.719,0,0,1,114,20.834" transform="translate(47.158 6.578)" fill="#fff"/>
      <path id="패스_78" data-name="패스 78" d="M129.1,27.35h2.853a.772.772,0,0,0,.873-.873l.64-20.606A.741.741,0,0,0,132.62,5h-3.551c-.582,0-.844.291-.844.873V26.477a.772.772,0,0,0,.873.873" transform="translate(58.332 2.273)" fill="#fff"/>
      <path id="패스_79" data-name="패스 79" d="M123.936,19.723c4.483,0,7.6-2.939,7.6-7.305a7.627,7.627,0,0,0-15.25,0c0,4.366,3.144,7.305,7.654,7.305m.436-10.331a2.9,2.9,0,0,1,3.086,3.026,3.1,3.1,0,0,1-6.2,0,2.911,2.911,0,0,1,3.115-3.026" transform="translate(52.899 2.246)" fill="#fff"/>
      <path id="패스_80" data-name="패스 80" d="M132.212,16.745c-.116-.553-.38-.786-.9-.7a93.135,93.135,0,0,1-14.174,1.018.825.825,0,0,0-.874.873v2.328a.826.826,0,0,0,.874.874,69.8,69.8,0,0,0,14.7-1.485c.467-.116.844-.349.727-.9Z" transform="translate(52.89 7.291)" fill="#fff"/>
      <path id="패스_81" data-name="패스 81" d="M139.28,13.286a1.165,1.165,0,0,0,1.368.495,18.892,18.892,0,0,0,7.16-3.143,19.763,19.763,0,0,0,8.092,2.619c.639.058,1.018-.175,1.135-.64l.7-2.591a.732.732,0,0,0-.669-.989,21.339,21.339,0,0,1-6.345-1.542,10.256,10.256,0,0,0,1.048-2.386A.986.986,0,0,0,150.719,3.8h-3.2c-.669,0-.813.466-1.164,1.309-.96,2.3-3.783,4.132-7.247,5.034a.862.862,0,0,0-.553,1.253Z" transform="translate(62.985 1.727)" fill="#fff"/>
      <path id="패스_82" data-name="패스 82" d="M158.5,11.339l-19.966.116a.825.825,0,0,0-.873.873V14.57a.81.81,0,0,0,.873.873l7.451-.145.058,1.571c0,.058-.029.145,0,.2h-5.763a.825.825,0,0,0-.873.873v2.1a.811.811,0,0,0,.873.873l2.1-.029.028,2.648h-2.124a.825.825,0,0,0-.873.873v2.1a.811.811,0,0,0,.873.873l16.765-.292a.84.84,0,0,0,.873-.873V24.436a.825.825,0,0,0-.873-.873h-2.037l.028-2.969,1.718-.058a.84.84,0,0,0,.873-.873V17.888a.825.825,0,0,0-.873-.873l-5.792.029a.369.369,0,0,0,.029-.175l.029-1.688,7.48-.175a.842.842,0,0,0,.874-.873V12.212a.826.826,0,0,0-.874-.873m-7.945,12.2h-3.7V20.77l3.7-.087Z" transform="translate(62.625 5.158)" fill="#fff"/>
      <path id="패스_83" data-name="패스 83" d="M88.4,27.647l-4.292.023a.742.742,0,0,0-.815.815l.128,7.538a.309.309,0,0,0,.349.349H84.96a.309.309,0,0,0,.349-.349l.045-3.106,2.817-.047a.384.384,0,0,0,.406-.407v-.885a.384.384,0,0,0-.406-.407l-2.792-.022.022-1.676,3-.058a.384.384,0,0,0,.407-.406v-.954a.385.385,0,0,0-.407-.407" transform="translate(37.892 12.577)" fill="#fff"/>
      <path id="패스_84" data-name="패스 84" d="M91.8,27.534c-2.5,0-4.187,1.909-4.187,4.538A4.127,4.127,0,0,0,91.8,36.538c2.489,0,4.164-1.838,4.164-4.467s-1.675-4.538-4.164-4.538m.1,7.179a2.271,2.271,0,0,1-2.2-2.524,2.262,2.262,0,0,1,2.2-2.536,2.287,2.287,0,0,1,2.2,2.536,2.276,2.276,0,0,1-2.2,2.524" transform="translate(39.854 12.525)" fill="#fff"/>
      <path id="패스_85" data-name="패스 85" d="M100.884,34.82a4.05,4.05,0,0,1-1.768-1.663,2.7,2.7,0,0,0,1.628-2.524c0-2.211-2.059-3.351-5.77-3.025-.477.047-.826.268-.815.813l.128,7.644a.309.309,0,0,0,.349.349h1.141a.309.309,0,0,0,.348-.349l.047-2.466a7.054,7.054,0,0,0,1.292-.012,4.8,4.8,0,0,0,2.385,2.885.4.4,0,0,0,.57-.141l.65-.941a.374.374,0,0,0-.185-.57m-4.759-2.827.025-2.454c1.616-.175,2.651.221,2.651,1.234s-1.069,1.372-2.676,1.221" transform="translate(42.834 12.534)" fill="#fff"/>
      <path id="패스_86" data-name="패스 86" d="M105.722,34.428a21.106,21.106,0,0,1-4.037.279l-.012-1.768,3.7-.035a.385.385,0,0,0,.407-.407v-.954a.386.386,0,0,0-.407-.407l-3.7.07V29.473l4.164-.058a.384.384,0,0,0,.406-.407v-.953a.384.384,0,0,0-.406-.407l-5.456.022a.741.741,0,0,0-.813.816l.138,7.2a.739.739,0,0,0,.815.8,23.992,23.992,0,0,0,5.514-.454c.2-.047.291-.163.244-.407l-.173-.966c-.038-.21-.141-.279-.384-.233" transform="translate(45.295 12.577)" fill="#fff"/>
      <path id="패스_87" data-name="패스 87" d="M109.454,31.769a16.054,16.054,0,0,1-1.944-.605c-.452-.185-.755-.466-.709-.918.058-.605.592-.92,1.407-.931a4.756,4.756,0,0,1,2.2.5.346.346,0,0,0,.512-.2l.361-.978c.081-.221-.047-.372-.268-.489a5.939,5.939,0,0,0-2.8-.617c-2.059,0-3.374,1.071-3.386,2.722a2.452,2.452,0,0,0,1.548,2.281,13.045,13.045,0,0,0,2.291.755c.57.163.965.372.953.873-.01.454-.534.791-1.477.757a4.019,4.019,0,0,1-2.361-.815.327.327,0,0,0-.489.1l-.5.757a.3.3,0,0,0,.07.441,5.258,5.258,0,0,0,3.292,1.164c2.012.023,3.374-.941,3.444-2.4.058-1.267-.71-2.024-2.14-2.408" transform="translate(47.639 12.525)" fill="#fff"/>
      <path id="패스_88" data-name="패스 88" d="M116.579,27.655l-6.317.012a.384.384,0,0,0-.406.407v.953a.385.385,0,0,0,.406.409l2.129.01.1,6.573a.309.309,0,0,0,.351.349h1.139a.309.309,0,0,0,.349-.349l.116-6.573,2.129-.023a.383.383,0,0,0,.406-.406v-.954a.384.384,0,0,0-.406-.407" transform="translate(49.975 12.58)" fill="#fff"/>
      <path id="패스_89" data-name="패스 89" d="M122.234,27.647l-4.292.023a.741.741,0,0,0-.815.815l.128,7.538a.308.308,0,0,0,.348.349h1.187a.309.309,0,0,0,.349-.349l.047-3.106L122,32.87a.385.385,0,0,0,.407-.407v-.885a.386.386,0,0,0-.407-.407l-2.792-.022.023-1.676,3-.058a.384.384,0,0,0,.407-.406v-.954a.385.385,0,0,0-.407-.407" transform="translate(53.283 12.577)" fill="#fff"/>
      <path id="패스_90" data-name="패스 90" d="M125.628,27.534c-2.5,0-4.189,1.909-4.189,4.538a4.127,4.127,0,0,0,4.189,4.467c2.489,0,4.164-1.838,4.164-4.467s-1.675-4.538-4.164-4.538m.1,7.179a2.27,2.27,0,0,1-2.2-2.524,2.262,2.262,0,0,1,2.2-2.536,2.288,2.288,0,0,1,2.2,2.536,2.277,2.277,0,0,1-2.2,2.524" transform="translate(55.245 12.525)" fill="#fff"/>
      <path id="패스_91" data-name="패스 91" d="M134.716,34.82a4.053,4.053,0,0,1-1.769-1.663,2.7,2.7,0,0,0,1.628-2.524c0-2.211-2.059-3.351-5.77-3.025-.476.047-.825.268-.815.813l.128,7.644a.31.31,0,0,0,.351.349h1.139a.309.309,0,0,0,.349-.349L130,33.6a7.037,7.037,0,0,0,1.291-.012,4.8,4.8,0,0,0,2.386,2.885.4.4,0,0,0,.569-.141l.652-.941a.375.375,0,0,0-.185-.57m-4.759-2.827.023-2.454c1.616-.175,2.652.221,2.652,1.234s-1.069,1.372-2.676,1.221" transform="translate(58.225 12.534)" fill="#fff"/>
      <path id="패스_92" data-name="패스 92" d="M140.316,34.414a16.008,16.008,0,0,1-3.118.279l.093-6.69a.3.3,0,0,0-.338-.349h-1.465c-.233,0-.338.118-.338.349l.128,7.666a.738.738,0,0,0,.815.8,19.084,19.084,0,0,0,4.56-.452c.2-.048.291-.151.244-.4l-.175-.966c-.035-.21-.163-.291-.407-.244" transform="translate(61.483 12.58)" fill="#fff"/>
      <path id="패스_93" data-name="패스 93" d="M141.436,27.655h-1.42c-.233,0-.338.116-.338.349l.141,8.015a.308.308,0,0,0,.348.349h1.141a.308.308,0,0,0,.348-.349L141.772,28a.3.3,0,0,0-.336-.349" transform="translate(63.542 12.58)" fill="#fff"/>
      <path id="패스_94" data-name="패스 94" d="M147.2,27.647l-4.292.023a.741.741,0,0,0-.815.815l.128,7.538a.308.308,0,0,0,.348.349h1.187a.309.309,0,0,0,.349-.349l.047-3.106,2.815-.047a.385.385,0,0,0,.407-.407v-.885a.386.386,0,0,0-.407-.407l-2.792-.022.023-1.676,3-.058a.384.384,0,0,0,.407-.406v-.954a.385.385,0,0,0-.407-.407" transform="translate(64.641 12.577)" fill="#fff"/>
      <path id="패스_95" data-name="패스 95" d="M152.728,34.428a21.074,21.074,0,0,1-4.036.279l-.012-1.768,3.7-.035a.384.384,0,0,0,.406-.407v-.954a.384.384,0,0,0-.406-.407l-3.7.07V29.473l4.164-.058a.385.385,0,0,0,.407-.407v-.953a.385.385,0,0,0-.407-.407l-5.456.022a.742.742,0,0,0-.813.816l.138,7.2a.74.74,0,0,0,.816.8,23.979,23.979,0,0,0,5.513-.454c.2-.047.291-.163.244-.407l-.173-.966c-.036-.21-.141-.279-.386-.233" transform="translate(66.679 12.577)" fill="#fff"/>
    </g>
  </g>
</svg>
