<svg width="163" height="54" viewBox="0 0 163 54" fill="none" xmlns="http://www.w3.org/2000/svg">
<path d="M47.6806 41.0601C46.5669 40.6627 46.3558 40.3977 46.3558 39.9418C46.3558 39.4859 46.6763 39.1236 47.4383 39.1236C47.9972 39.1236 48.3685 39.3067 48.7749 39.6418L49.1735 39.1547C48.7045 38.7807 48.2278 38.5625 47.4774 38.5625C46.4379 38.5625 45.7344 39.0924 45.7344 39.9808C45.7344 40.7834 46.1409 41.1731 47.3446 41.6017C48.3645 41.9679 48.6733 42.2602 48.6733 42.7745C48.6733 43.3628 48.2121 43.7291 47.4735 43.7291C46.899 43.7291 46.4144 43.4642 45.9924 43.0628L45.582 43.5226C46.0197 43.9668 46.6958 44.2941 47.454 44.2941C48.6147 44.2941 49.2986 43.6161 49.2986 42.7472C49.2986 41.8783 48.9195 41.5082 47.6846 41.064L47.6806 41.0601Z" fill="white"/>
<path d="M51.825 39.9535C51.2818 39.9535 50.7894 40.086 50.422 40.2847L50.6487 40.7679C50.9887 40.5692 51.3482 40.4484 51.7859 40.4484C52.3956 40.4484 52.6926 40.7484 52.6926 41.3718V41.8628C52.4464 41.7264 52.0673 41.6212 51.6492 41.6212C50.8246 41.6212 50.0508 42.0186 50.0508 42.9537C50.0508 43.959 50.7347 44.2863 51.3834 44.2863C51.9853 44.2863 52.3956 44.0058 52.6926 43.6902V44.2006H53.2866V41.2939C53.2866 40.3276 52.7239 39.9457 51.825 39.9457V39.9535ZM52.6926 43.1836C52.4386 43.5304 52.0321 43.8071 51.4928 43.8071C50.9809 43.8071 50.637 43.5382 50.637 42.9187C50.637 42.3966 51.0043 42.1004 51.6179 42.1004C52.1259 42.1004 52.419 42.194 52.6926 42.342V43.1875V43.1836Z" fill="white"/>
<path d="M59.2796 41.7653V44.2044H59.8736V41.6679C59.8736 40.4522 59.3421 39.9535 58.4901 39.9535C57.8101 39.9535 57.4701 40.2691 57.2239 40.6665C57.0246 40.2691 56.669 39.9535 56.0789 39.9535C55.5865 39.9535 55.2347 40.1912 55.0198 40.5496V40.0431H54.418V44.2083H55.0198V41.7692C55.0198 40.8458 55.3754 40.4678 55.9499 40.4678C56.5244 40.4678 56.8488 40.8146 56.8488 41.7692V44.2083H57.4467V41.7692C57.4467 40.8458 57.8101 40.4678 58.3768 40.4678C58.9786 40.4678 59.2756 40.8146 59.2756 41.7692L59.2796 41.7653Z" fill="white"/>
<path d="M62.2703 41.781C61.5629 41.4615 61.3519 41.3251 61.3519 40.9706C61.3519 40.6666 61.602 40.4562 62.0436 40.4562C62.4852 40.4562 62.7588 40.5731 63.0832 40.8303L63.4153 40.39C63.0988 40.1289 62.6533 39.9497 62.0827 39.9497C61.3206 39.9497 60.7774 40.3783 60.7774 41.0095C60.7774 41.6758 61.1252 41.9291 61.9655 42.2875C62.7041 42.6031 62.9503 42.7941 62.9503 43.137C62.9503 43.5422 62.6806 43.7799 62.1061 43.7799C61.6919 43.7799 61.3011 43.6123 60.9689 43.3201L60.6172 43.7526C61.0158 44.0721 61.516 44.2864 62.0905 44.2864C62.8135 44.2864 63.5209 43.9318 63.5209 43.1097C63.5209 42.3655 63.0597 42.1356 62.2664 41.7771L62.2703 41.781Z" fill="white"/>
<path d="M67.0051 42.4745C67.0051 43.3863 66.5479 43.772 65.9734 43.772C65.3012 43.772 64.9846 43.3707 64.9846 42.4745V40.0393H64.3906V42.5759C64.3906 43.772 64.9729 44.2903 65.8522 44.2903C66.3798 44.2903 66.7667 44.0448 67.0051 43.6941V44.2045H67.603V40.0393H67.0051V42.4745Z" fill="white"/>
<path d="M71.8257 44.2046V41.668C71.8257 40.4679 71.2434 39.9536 70.3602 39.9536C69.8365 39.9536 69.4457 40.1991 69.2112 40.5498V40.0432H68.6094V44.2085H69.2112V41.7693C69.2112 40.8576 69.6606 40.4679 70.239 40.4679C70.9073 40.4679 71.2278 40.8732 71.2278 41.7693V44.2085H71.8257V44.2046Z" fill="white"/>
<path d="M73.7036 45.28L73.8951 45.7319C75.4466 45.6852 76.0093 45.0812 76.0093 43.8266V40.0354H75.4114V40.503C75.1183 40.1679 74.7588 39.9497 74.2351 39.9497C73.3597 39.9497 72.6562 40.7095 72.6562 42.1862C72.6562 43.663 73.3206 44.2864 74.153 44.2864C74.7197 44.2864 75.1183 44.0058 75.4114 43.6902V43.9045C75.4114 44.8747 75.0949 45.241 73.6997 45.2761L73.7036 45.28ZM74.3054 43.7721C73.645 43.7721 73.2464 43.2266 73.2464 42.1784C73.2464 41.0602 73.5864 40.464 74.282 40.464C74.7783 40.464 75.1808 40.7407 75.4114 41.0875V43.172C75.1183 43.5383 74.751 43.7721 74.3054 43.7721Z" fill="white"/>
<path d="M82.5995 41.3874C82.5995 39.482 81.5209 38.6482 80.0593 38.6482H78.5859V44.2044H79.9498C81.4388 44.2044 82.5995 43.4018 82.5995 41.3874ZM79.2073 39.2093H80.0124C81.2942 39.2093 81.9781 39.9885 81.9781 41.4068C81.9781 43.0043 81.2278 43.6395 80.028 43.6395H79.2073V39.2093Z" fill="white"/>
<path d="M84.1917 40.5537V40.0393H83.5938V44.2046H84.1917V41.7576C84.1917 40.9628 84.52 40.4991 85.1022 40.4991C85.3797 40.4991 85.5595 40.5615 85.7275 40.6589L85.876 40.0588C85.7354 39.9965 85.536 39.9575 85.2234 39.9575C84.774 39.9575 84.3793 40.2264 84.1917 40.5576V40.5537Z" fill="white"/>
<path d="M89.4468 43.8071L89.1654 43.3785C88.7824 43.6318 88.4971 43.776 88.0086 43.776C87.3286 43.776 86.9026 43.211 86.8479 42.3265H89.6304C89.65 42.2291 89.6578 42.1434 89.6578 42.0031C89.6578 40.8147 89.0638 39.9575 87.9734 39.9575C86.9808 39.9575 86.25 40.7797 86.25 42.1005C86.25 43.7409 87.1801 44.2942 87.9461 44.2942C88.5753 44.2942 88.9426 44.1267 89.4468 43.811V43.8071ZM87.9734 40.4679C88.7042 40.4679 89.056 41.0329 89.1029 41.8395H86.8479C86.9183 40.9082 87.3521 40.4679 87.9734 40.4679Z" fill="white"/>
<path d="M91.6491 44.2903C92.247 44.2903 92.6573 44.0097 92.9504 43.6941V44.2046H93.5484V41.2979C93.5484 40.3316 92.9856 39.9497 92.0867 39.9497C91.5435 39.9497 91.0511 40.0822 90.6838 40.2809L90.9065 40.7641C91.2504 40.5653 91.6061 40.4445 92.0438 40.4445C92.6573 40.4445 92.9504 40.7446 92.9504 41.368V41.8589C92.7042 41.7226 92.329 41.6174 91.9109 41.6174C91.0824 41.6174 90.3047 42.0148 90.3047 42.9499C90.3047 43.9552 90.9925 44.2825 91.6451 44.2825L91.6491 44.2903ZM91.8796 42.0966C92.3877 42.0966 92.6847 42.1901 92.9543 42.3382V43.1837C92.7003 43.5305 92.2939 43.8071 91.7546 43.8071C91.2465 43.8071 90.8987 43.5383 90.8987 42.9188C90.8987 42.3966 91.27 42.1005 91.8796 42.1005V42.0966Z" fill="white"/>
<path d="M99.5413 41.7654V44.2046H100.139V41.668C100.139 40.4524 99.6077 39.9536 98.7558 39.9536C98.0797 39.9536 97.7358 40.2692 97.4935 40.6667C97.2941 40.2692 96.9385 39.9536 96.3484 39.9536C95.8521 39.9536 95.5043 40.1913 95.2893 40.5498V40.0432H94.6953V44.2085H95.2893V41.7693C95.2893 40.8459 95.6489 40.4679 96.2233 40.4679C96.7978 40.4679 97.1261 40.8147 97.1261 41.7693V44.2085H97.7201V41.7693C97.7201 40.8459 98.0836 40.4679 98.6541 40.4679C99.256 40.4679 99.553 40.8147 99.553 41.7693L99.5413 41.7654Z" fill="white"/>
<path d="M47.6806 49.3243C46.5629 48.9269 46.3597 48.6658 46.3597 48.2061C46.3597 47.7463 46.6802 47.3917 47.4423 47.3917C48.0011 47.3917 48.3763 47.5709 48.7788 47.906L49.1774 47.4229C48.7085 47.0527 48.2278 46.8306 47.4813 46.8306C46.4379 46.8306 45.7384 47.3527 45.7384 48.2489C45.7384 49.0516 46.1448 49.4373 47.3485 49.8659C48.3685 50.2361 48.6772 50.5244 48.6772 51.0426C48.6772 51.6271 48.216 51.9933 47.4735 51.9933C46.899 51.9933 46.4144 51.7284 45.9924 51.3271L45.582 51.7868C46.0197 52.231 46.6958 52.5544 47.454 52.5544C48.6147 52.5544 49.2947 51.8803 49.2947 51.0076C49.2947 50.1348 48.9156 49.7685 47.6846 49.3243H47.6806Z" fill="white"/>
<path d="M51.8328 48.7321C52.2549 48.7321 52.5324 48.8802 52.8333 49.1529L53.1928 48.7087C52.8646 48.4204 52.4308 48.2139 51.8719 48.2139C50.9965 48.2139 50.0703 48.8646 50.0703 50.4036C50.0703 51.857 50.9105 52.5505 51.8289 52.5505C52.4151 52.5505 52.8216 52.3285 53.1733 51.97L52.8138 51.592C52.5285 51.8687 52.2588 52.0323 51.8524 52.0323C51.1138 52.0323 50.6722 51.3738 50.6722 50.3491C50.6722 49.3243 51.1763 48.7243 51.8289 48.7243L51.8328 48.7321Z" fill="white"/>
<path d="M55.743 48.2177C55.2193 48.2177 54.8246 48.4632 54.5862 48.8139V46.8579H53.9922V52.4765H54.5862V50.0374C54.5862 49.1256 55.0434 48.736 55.6218 48.736C56.294 48.736 56.6106 49.1373 56.6106 50.0374V52.4765H57.2085V49.9322C57.2085 48.736 56.6262 48.2177 55.743 48.2177Z" fill="white"/>
<path d="M59.8719 48.2177C58.8558 48.2177 58.0469 48.9775 58.0469 50.3919C58.0469 51.8063 58.8246 52.5583 59.8407 52.5583C60.8568 52.5583 61.6735 51.7751 61.6735 50.3607C61.6735 48.9463 60.888 48.2177 59.8719 48.2177ZM59.8602 52.0401C59.1333 52.0401 58.6448 51.4712 58.6448 50.3763C58.6448 49.2814 59.1333 48.7359 59.8602 48.7359C60.5871 48.7359 61.0756 49.2814 61.0756 50.3763C61.0756 51.4712 60.5832 52.0401 59.8602 52.0401Z" fill="white"/>
<path d="M63.1721 46.854H62.5742V52.4726H63.1721V46.854Z" fill="white"/>
<path d="M65.9031 48.2177C65.3599 48.2177 64.8675 48.354 64.5041 48.5527L64.7268 49.0398C65.0707 48.8411 65.4303 48.7203 65.868 48.7203C66.4776 48.7203 66.7746 49.0242 66.7746 49.6398V50.1347C66.5284 49.9983 66.1533 49.8931 65.7351 49.8931C64.9066 49.8931 64.1328 50.2905 64.1328 51.2296C64.1328 52.2348 64.8167 52.5582 65.4694 52.5582C66.0673 52.5582 66.4776 52.2816 66.7746 51.966V52.4764H67.3726V49.5736C67.3726 48.5995 66.8059 48.2215 65.9071 48.2215L65.9031 48.2177ZM66.7707 51.4478C66.5206 51.7906 66.1064 52.0712 65.571 52.0712C65.0629 52.0712 64.719 51.8023 64.719 51.1828C64.719 50.6568 65.0864 50.3685 65.6999 50.3685C66.208 50.3685 66.5011 50.4542 66.7707 50.6061V51.4478Z" fill="white"/>
<path d="M69.1057 48.8216V48.2995H68.5078V52.4686H69.1057V50.0217C69.1057 49.2307 69.4262 48.7592 70.0124 48.7592C70.2938 48.7592 70.4735 48.8216 70.6416 48.919L70.794 48.315C70.6494 48.2527 70.454 48.2098 70.1414 48.2098C69.6959 48.2098 69.2933 48.4787 69.1096 48.8177L69.1057 48.8216Z" fill="white"/>
<path d="M73.0828 50.049C72.3754 49.7295 72.1605 49.5853 72.1605 49.2386C72.1605 48.9385 72.4145 48.7242 72.8522 48.7242C73.2899 48.7242 73.5713 48.845 73.8957 49.0983L74.2278 48.6619C73.9074 48.4008 73.4658 48.2177 72.8913 48.2177C72.1331 48.2177 71.5821 48.6463 71.5821 49.2814C71.5821 49.9165 71.9338 50.201 72.7701 50.5555C73.5088 50.8712 73.755 51.066 73.755 51.405C73.755 51.8141 73.4853 52.0479 72.9147 52.0479C72.4966 52.0479 72.1097 51.8803 71.7736 51.5881L71.4258 52.0245C71.8244 52.344 72.3246 52.5544 72.8991 52.5544C73.6221 52.5544 74.3294 52.1959 74.3294 51.3816C74.3294 50.6335 73.8683 50.4075 73.0789 50.049H73.0828Z" fill="white"/>
<path d="M77.0555 48.2177C76.524 48.2177 76.1371 48.4632 75.8987 48.8139V46.8579H75.3008V52.4765H75.8987V50.0374C75.8987 49.1256 76.352 48.736 76.9343 48.736C77.6026 48.736 77.9192 49.1373 77.9192 50.0374V52.4765H78.5171V49.9322C78.5171 48.736 77.9387 48.2177 77.0555 48.2177Z" fill="white"/>
<path d="M80.2932 48.2996H79.6992V52.4687H80.2932V48.2996Z" fill="white"/>
<path d="M80.008 46.7098C79.7657 46.7098 79.5742 46.9008 79.5742 47.1423C79.5742 47.3839 79.7657 47.5631 80.008 47.5631C80.2308 47.5631 80.4223 47.3683 80.4223 47.1423C80.4223 46.9008 80.2308 46.7098 80.008 46.7098Z" fill="white"/>
<path d="M83.3524 48.2177C82.7897 48.2177 82.391 48.4982 82.094 48.8138V48.3034H81.4961V54.0038H82.094V52.0049C82.3871 52.3361 82.7467 52.5582 83.2742 52.5582C84.1457 52.5582 84.8492 51.7945 84.8492 50.3217C84.8492 48.8489 84.1848 48.2177 83.3524 48.2177ZM83.2234 52.04C82.731 52.04 82.3246 51.7634 82.094 51.4127V49.332C82.3871 48.9697 82.7545 48.732 83.2 48.732C83.8644 48.732 84.263 49.2775 84.263 50.3256C84.263 51.4439 83.9191 52.0361 83.2274 52.0361L83.2234 52.04Z" fill="white"/>
<path d="M88.012 47.4775H90.6616V46.9164H87.3906V52.4726H88.012V49.8815H89.54V49.3205H88.012V47.4775Z" fill="white"/>
<path d="M92.4774 48.2177C91.4613 48.2177 90.6484 48.9774 90.6484 50.3918C90.6484 51.8062 91.43 52.5582 92.4461 52.5582C93.4622 52.5582 94.279 51.7751 94.279 50.3607C94.279 48.9463 93.5013 48.2177 92.4774 48.2177ZM92.4618 52.04C91.7349 52.04 91.2542 51.4711 91.2542 50.3762C91.2542 49.2814 91.7388 48.7359 92.4618 48.7359C93.1847 48.7359 93.6811 49.2814 93.6811 50.3762C93.6811 51.4711 93.1887 52.04 92.4618 52.04Z" fill="white"/>
<path d="M97.5715 50.7388C97.5715 51.6506 97.1221 52.0402 96.5398 52.0402C95.8715 52.0402 95.5511 51.6389 95.5511 50.7388V48.2997H94.957V50.8401C94.957 52.0363 95.5393 52.5545 96.4225 52.5545C96.9423 52.5545 97.3331 52.313 97.5715 51.9623V52.4727H98.1733V48.3036H97.5715V50.7427V50.7388Z" fill="white"/>
<path d="M100.923 48.2176C100.399 48.2176 100.008 48.4631 99.7698 48.8138V48.3034H99.1719V52.4725H99.7698V50.0334C99.7698 49.1216 100.223 48.732 100.805 48.732C101.474 48.732 101.79 49.1333 101.79 50.0334V52.4725H102.388V49.9282C102.388 48.732 101.806 48.2137 100.923 48.2137V48.2176Z" fill="white"/>
<path d="M105.982 48.775C105.685 48.44 105.329 48.214 104.801 48.214C103.926 48.214 103.227 48.9738 103.227 50.4544C103.227 51.935 103.887 52.5545 104.723 52.5545C105.29 52.5545 105.685 52.2779 105.978 51.9623V52.4727H106.576V46.8541H105.978V48.775H105.982ZM105.982 51.4363C105.685 51.7986 105.321 52.0363 104.876 52.0363C104.215 52.0363 103.817 51.4908 103.817 50.4427C103.817 49.3205 104.157 48.7283 104.852 48.7283C105.345 48.7283 105.747 49.0049 105.982 49.3556V51.4324V51.4363Z" fill="white"/>
<path d="M109.106 48.2177C108.567 48.2177 108.075 48.354 107.707 48.5527L107.926 49.0398C108.27 48.8411 108.629 48.7203 109.067 48.7203C109.677 48.7203 109.97 49.0242 109.97 49.6398V50.1347C109.724 49.9983 109.349 49.8931 108.927 49.8931C108.102 49.8931 107.328 50.2905 107.328 51.2296C107.328 52.2348 108.016 52.5582 108.669 52.5582C109.267 52.5582 109.677 52.2816 109.97 51.966V52.4764H110.568V49.5736C110.568 48.5995 110.005 48.2215 109.102 48.2215L109.106 48.2177ZM109.97 51.4478C109.716 51.7906 109.313 52.0712 108.766 52.0712C108.262 52.0712 107.922 51.8023 107.922 51.1828C107.922 50.6568 108.286 50.3685 108.899 50.3685C109.407 50.3685 109.704 50.4542 109.97 50.6061V51.4478Z" fill="white"/>
<path d="M112.477 46.8541H111.875V48.2997H111.359V48.8023H111.875V51.6116C111.875 52.3013 112.157 52.5506 112.676 52.5506C112.989 52.5506 113.212 52.5039 113.442 52.4104L113.485 51.896C113.294 51.974 113.138 52.0129 112.895 52.0129C112.579 52.0129 112.477 51.8844 112.477 51.5142V48.8023H113.513V48.2997H112.477V46.8541Z" fill="white"/>
<path d="M114.867 46.7098C114.621 46.7098 114.426 46.9008 114.426 47.1423C114.426 47.3839 114.621 47.5631 114.867 47.5631C115.09 47.5631 115.278 47.3683 115.278 47.1423C115.278 46.9008 115.086 46.7098 114.867 46.7098Z" fill="white"/>
<path d="M115.153 48.2996H114.555V52.4687H115.153V48.2996Z" fill="white"/>
<path d="M117.88 48.2177C116.864 48.2177 116.051 48.9774 116.051 50.3918C116.051 51.8062 116.828 52.5582 117.848 52.5582C118.868 52.5582 119.677 51.7751 119.677 50.3607C119.677 48.9463 118.896 48.2177 117.88 48.2177ZM117.864 52.04C117.141 52.04 116.653 51.4711 116.653 50.3762C116.653 49.2814 117.141 48.7359 117.864 48.7359C118.587 48.7359 119.083 49.2814 119.083 50.3762C119.083 51.4711 118.591 52.04 117.864 52.04Z" fill="white"/>
<path d="M122.294 48.2176C121.77 48.2176 121.379 48.4631 121.137 48.8138V48.3034H120.539V52.4725H121.137V50.0334C121.137 49.1216 121.59 48.732 122.173 48.732C122.841 48.732 123.161 49.1333 123.161 50.0334V52.4725H123.755V49.9282C123.755 48.732 123.173 48.2137 122.294 48.2137V48.2176Z" fill="white"/>
<path d="M68.5762 27.7112C66.1767 27.7151 64.1992 29.5853 64.1992 31.931C64.1992 34.2766 66.1767 36.1274 68.5762 36.1352C70.9992 36.1274 72.9571 34.2532 72.9571 31.931C72.9571 29.6087 70.9992 27.7151 68.5762 27.7112ZM68.5176 34.2104C67.2631 34.2104 66.3174 33.1895 66.3174 31.931C66.3174 30.6724 67.3295 29.6321 68.5801 29.6321C69.8307 29.6321 70.8077 30.653 70.8077 31.931C70.8077 33.209 69.7838 34.2104 68.5215 34.2104H68.5176Z" fill="white"/>
<path d="M48.4915 24.8083C49.1598 25.4668 49.9257 26.0435 50.68 26.4136L50.7582 26.4565L52.0517 24.933L51.9267 24.8629C50.6995 24.2005 49.7382 23.3628 49.109 22.3069C48.4837 21.2665 48.1632 20.0586 48.1632 18.6131V17.2571H45.8497V18.4689C45.8497 20.0353 45.494 21.2665 44.8258 22.3458C44.0793 23.542 42.9734 24.5044 41.5587 25.3967L41.4336 25.4746L42.8366 26.9241L42.9147 26.8812C43.7511 26.4292 44.6382 25.7318 45.4081 24.9525C46.0763 24.2706 46.6547 23.542 47.0064 22.8524C47.3464 23.5303 47.8662 24.22 48.4915 24.8122V24.8083Z" fill="white"/>
<path d="M45.9883 35.1377H55.6724V28.5411H45.9883V35.1377ZM48.1651 30.4035H53.4956V33.2752H48.1651V30.4035Z" fill="white"/>
<path d="M78.2734 35.1376H89.2237V28.541H78.2734V35.1376ZM80.4268 30.4035H87.0743V33.2751H80.4268V30.4035Z" fill="white"/>
<path d="M55.708 16.8674H53.5547V27.7851H55.708V22.9536H58.2287V21.0132H55.708V16.8674Z" fill="white"/>
<path d="M100.355 25.3655C101.062 25.9772 101.871 26.4916 102.633 26.8228L102.711 26.8578L103.876 25.2876L103.751 25.2252C102.641 24.6603 101.652 23.9589 100.941 23.1017C100.218 22.2289 99.788 21.1769 99.788 19.9106V19.5404H102.993V17.6624H94.2934V19.5404H97.494V19.9924C97.494 21.1457 97.111 22.2211 96.474 23.1524C95.7276 24.2706 94.6373 25.1707 93.5782 25.7551L93.4375 25.8292L94.8678 27.3059L94.946 27.2669C95.7159 26.8305 96.5678 26.1721 97.2947 25.4317C97.877 24.8239 98.4007 24.181 98.7212 23.5381C99.1081 24.1615 99.7021 24.7849 100.359 25.3655H100.355Z" fill="white"/>
<path d="M115.93 30.4465H123.757V35.1338H125.93V28.584H115.93V30.4465Z" fill="white"/>
<path d="M121.329 22.9381C121.329 21.9056 120.864 20.9548 120.176 20.2301H122.325V18.3715H118.222V16.3259H115.889V18.3715H111.688V20.2301H113.884C113.212 20.9548 112.747 21.8978 112.747 22.9381C112.747 25.2409 114.65 27.1111 117.03 27.1189C119.41 27.1111 121.325 25.2409 121.329 22.9381ZM114.822 22.8524C114.822 21.5783 115.9 20.499 117.03 20.499C118.159 20.499 119.234 21.5822 119.238 22.8524C119.238 24.107 118.159 25.1902 117.03 25.1941C115.896 25.1902 114.826 24.107 114.822 22.8524Z" fill="white"/>
<path d="M125.931 16.8674H123.781V27.8241H125.931V23.6432H128.459V21.7028H125.931V16.8674Z" fill="white"/>
<path d="M107.688 16.8676H105.539V27.8242H107.688V22.9537H110.213V21.0133H107.688V16.8676Z" fill="white"/>
<path d="M71.2047 20.117H67.8203V22.0379H71.2047V28.1708H73.358V16.8674H71.2047V20.117Z" fill="white"/>
<path d="M65.7376 25.0928C66.4098 25.7474 67.1953 26.324 67.9456 26.7137L68.0277 26.7604L69.3212 25.2369L69.1962 25.1668C67.9691 24.5239 67.0272 23.6901 66.3941 22.6497C65.7532 21.6172 65.4327 20.3626 65.4327 18.917V17.2571H63.1153V18.7767C63.1153 20.3431 62.7636 21.5704 62.1109 22.6303C61.3684 23.8459 60.239 24.8161 58.8243 25.7006L58.7031 25.7785L60.1139 27.2319L60.1843 27.1851C61.0167 26.7293 61.8843 26.0708 62.6541 25.3188C63.3498 24.6291 63.9282 23.8771 64.2799 23.1563C64.6121 23.8148 65.1201 24.4849 65.7376 25.0967V25.0928Z" fill="white"/>
<path d="M103.076 27.7112C100.677 27.7151 98.6992 29.5853 98.6953 31.931C98.6992 34.2532 100.673 36.1274 103.076 36.1352C105.495 36.1274 107.457 34.2532 107.457 31.931C107.457 29.6087 105.495 27.7151 103.076 27.7112ZM103.014 34.2104C101.763 34.2104 100.81 33.1895 100.81 31.931C100.81 30.6724 101.818 29.6321 103.076 29.6321C104.335 29.6321 105.3 30.653 105.304 31.931C105.304 33.1856 104.276 34.2104 103.014 34.2104Z" fill="white"/>
<path d="M80.8962 23.129H83.0495V17.5532H77.2383V19.4079H80.8962V23.129Z" fill="white"/>
<path d="M87.361 23.129H89.5183V17.5532H83.707V19.4079H87.361V23.129Z" fill="white"/>
<path d="M142.252 21.8042H140.442V17.1713H138.406V34.6661H140.442V23.9082H142.252V35.1337H144.362V16.8674H142.252V21.8042Z" fill="white"/>
<path d="M135.417 24.2239C134.932 23.168 134.733 21.9874 134.733 20.5379V19.8483H137.176V17.8806H130.079V19.8483H132.599V20.5769C132.599 21.9484 132.419 23.0706 131.986 24.1109C131.482 25.3071 130.633 26.3825 129.281 27.5359L129.188 27.6216L130.524 28.9425L130.606 28.8801C131.278 28.3853 131.982 27.6683 132.568 26.928C133.064 26.3046 133.482 25.6578 133.744 25.0889C134.014 25.6422 134.436 26.2773 134.928 26.8696C135.499 27.5631 136.144 28.2216 136.761 28.6152L136.843 28.6697L137.969 27.3293L137.879 27.2475C136.667 26.1955 135.917 25.2565 135.425 24.22L135.417 24.2239Z" fill="white"/>
<path d="M75.4375 25.724H82.5853V27.8047H84.9184V25.724H92.1795V23.8577H75.4375V25.724Z" fill="white"/>
<path d="M156.618 25.1278H149.341V19.6066H154.882V17.6624H147.16V27.0137H156.618V25.1278Z" fill="white"/>
<path d="M152.505 29.3125H150.328V35.1337H160.509V33.2167H152.505V29.3125Z" fill="white"/>
<path d="M160.454 21.9249V16.8635H158.305V30.3411H160.454V23.8653H162.998V21.9249H160.454Z" fill="white"/>
<path d="M45.6488 11.2294L40.072 8.92662L45.6488 6.62385L44.6561 4.24316L39.0833 6.54593L41.3929 0.985785L39.0012 0L36.6955 5.56014L34.3858 0L31.9941 0.985785L34.3038 6.54593L28.7309 4.24316L27.7422 6.62385L33.315 8.92662L27.7422 11.2294L28.7309 13.6101L34.3038 11.3073L31.9941 16.8675L34.3858 17.8532L36.6955 12.297L39.0012 17.8532L41.3929 16.8636L39.0833 11.3073L44.6561 13.6101L45.6488 11.2294Z" fill="#009FE3"/>
<path d="M9.56659 26.7409H13.2753V16.8674H0.59375V20.1949H9.56659V26.7409Z" fill="#009FE3"/>
<path d="M24.0353 26.7409H27.7441V16.8674H15.0625V20.1949H24.0353V26.7409Z" fill="#009FE3"/>
<path d="M0 31.8491H24.0344V36.9338H27.7431V28.5215H0V31.8491Z" fill="#009FE3"/>
<path d="M8.97266 52.4726H27.7429V38.6443H8.97266V52.4726ZM12.6814 41.9719H24.0381V49.1451H12.6814V41.9719Z" fill="#009FE3"/>
</svg>
