<svg width="84" height="50" viewBox="0 0 84 50" fill="none" xmlns="http://www.w3.org/2000/svg">
<path d="M11.5025 26.9686C9.97086 27.2936 8.81278 28.6381 8.81278 30.2559C8.81278 30.9947 9.05933 31.7113 9.50763 32.2875L8.08801 40.5909C8.02823 40.9455 8.12536 41.3075 8.36445 41.5882C8.59607 41.8615 8.94725 42.0241 9.31336 42.0241H15.1188C15.4774 42.0241 15.8137 41.8689 16.0528 41.603C16.2844 41.337 16.3964 40.9824 16.3441 40.6278L15.1337 31.9698C15.4475 31.4527 15.6119 30.8617 15.6119 30.2559C15.6119 29.0444 14.9544 27.9806 13.9831 27.3896V22.8981L21.634 26.1781V44.9568C21.634 47.2691 23.5393 49.1529 25.8779 49.1529H60.7852C63.1238 49.1529 65.0291 47.2691 65.0291 44.9568V25.0331L83.2523 17.2172C83.723 17.0177 84.0144 16.5523 83.9994 16.0426C83.977 15.5403 83.6483 15.097 83.1626 14.9345L41.7177 0.942798C41.4487 0.854149 41.1498 0.85415 40.8809 0.957573C26.6923 6.2691 3.38838 14.7424 1.22908 14.868C0.646299 14.868 0.145713 15.2743 0.026167 15.8432C-0.0933786 16.412 0.205456 16.9808 0.743411 17.2172L11.5175 21.8343V26.9686H11.5025ZM10.7703 39.564L12.0479 32.0954C12.1227 31.6669 11.9583 31.2311 11.6221 30.9504C11.4129 30.7731 11.2933 30.5219 11.2933 30.2486C11.2933 29.7462 11.7043 29.3399 12.2123 29.3399C12.7204 29.3399 13.1313 29.7462 13.1313 30.2486C13.1313 30.5293 13.0043 30.7287 12.8997 30.8469C12.6681 31.1129 12.556 31.4675 12.6083 31.8147L13.6917 39.5567H10.7703V39.564ZM62.541 44.9495C62.541 45.9172 61.749 46.7003 60.7703 46.7003H25.8629C24.8841 46.7003 24.0922 45.9172 24.0922 44.9495V27.2345L41.4861 34.6958C41.643 34.7622 41.8073 34.7992 41.9792 34.7992C42.151 34.7992 42.3154 34.7622 42.4723 34.6958L62.541 26.0895V44.9495ZM4.97984 16.3677C13.9383 13.6048 35.4565 5.59685 41.3292 3.4028L79.3223 16.2273L41.9867 32.2432L17.3304 21.6644L38.1462 18.9459C39.0578 19.4999 40.4101 19.8397 41.9867 19.8397C44.8557 19.8397 47.0225 18.7095 47.0225 17.2098C47.0225 15.7102 44.8557 14.5873 41.9867 14.5873C39.5136 14.5873 37.5635 15.4295 37.0778 16.6188L12.9222 19.7732L4.98727 16.3677H4.97984ZM38.1911 17.2172C38.1911 16.6484 39.6705 15.8136 41.9867 15.8136C44.3028 15.8136 45.7822 16.641 45.7822 17.2172C45.7822 17.7934 44.3028 18.6208 41.9867 18.6208C39.6705 18.6208 38.1911 17.7934 38.1911 17.2172Z" fill="white"/>
</svg>
