<svg width="26" height="18" viewBox="0 0 26 18" fill="none" xmlns="http://www.w3.org/2000/svg">
<path d="M1.3125 17.6803C1.01146 17.6803 0.759115 17.5773 0.555469 17.3713C0.351823 17.1653 0.25 16.91 0.25 16.6055C0.25 16.301 0.351823 16.0478 0.555469 15.8459C0.759115 15.6441 1.01146 15.5432 1.3125 15.5432H24.6875C24.9885 15.5432 25.2409 15.6462 25.4445 15.8522C25.6482 16.0582 25.75 16.3135 25.75 16.618C25.75 16.9225 25.6482 17.1757 25.4445 17.3776C25.2409 17.5794 24.9885 17.6803 24.6875 17.6803H1.3125ZM7.3125 10.2003C7.01146 10.2003 6.75911 10.0973 6.55547 9.89126C6.35182 9.68524 6.25 9.42996 6.25 9.12544C6.25 8.8209 6.35182 8.5677 6.55547 8.36586C6.75911 8.16401 7.01146 8.06309 7.3125 8.06309H24.6875C24.9885 8.06309 25.2409 8.16609 25.4445 8.37209C25.6482 8.57811 25.75 8.83338 25.75 9.13791C25.75 9.44245 25.6482 9.69565 25.4445 9.89749C25.2409 10.0993 24.9885 10.2003 24.6875 10.2003H7.3125ZM1.3125 2.72017C1.01146 2.72017 0.759115 2.61718 0.555469 2.41118C0.351823 2.20515 0.25 1.94988 0.25 1.64536C0.25 1.34081 0.351823 1.08762 0.555469 0.885773C0.759115 0.68393 1.01146 0.583008 1.3125 0.583008H24.6875C24.9885 0.583008 25.2409 0.686007 25.4445 0.892006C25.6482 1.09803 25.75 1.3533 25.75 1.65782C25.75 1.96237 25.6482 2.21557 25.4445 2.41741C25.2409 2.61925 24.9885 2.72017 24.6875 2.72017H1.3125Z" fill="#3D3D3D"/>
</svg>
