<svg width="14" height="14" viewBox="0 0 14 14" fill="none" xmlns="http://www.w3.org/2000/svg">
<path d="M7.14779 13.9345C6.22004 13.9345 5.34321 13.7563 4.51728 13.3999C3.69136 13.0435 2.97009 12.557 2.35347 11.9404C1.73686 11.3238 1.25036 10.6025 0.893963 9.7766C0.537571 8.95067 0.359375 8.07384 0.359375 7.14608C0.359375 6.20702 0.537571 5.32735 0.893963 4.50709C1.25036 3.68682 1.73686 2.96838 2.35347 2.35176C2.97009 1.73515 3.69136 1.24865 4.51728 0.892254C5.34321 0.535862 6.22004 0.357666 7.14779 0.357666C8.08686 0.357666 8.96652 0.535862 9.78679 0.892254C10.6071 1.24865 11.3255 1.73515 11.9421 2.35176C12.5587 2.96838 13.0452 3.68682 13.4016 4.50709C13.758 5.32735 13.9362 6.20702 13.9362 7.14608C13.9362 8.07384 13.758 8.95067 13.4016 9.7766C13.0452 10.6025 12.5587 11.3238 11.9421 11.9404C11.3255 12.557 10.6071 13.0435 9.78679 13.3999C8.96652 13.7563 8.08686 13.9345 7.14779 13.9345ZM7.14779 12.5429C7.44196 12.1356 7.69652 11.7113 7.91149 11.2701C8.12646 10.8288 8.30183 10.3593 8.43759 9.86145H5.85799C5.99376 10.3593 6.16913 10.8288 6.3841 11.2701C6.59906 11.7113 6.85363 12.1356 7.14779 12.5429ZM5.3828 12.2713C5.17915 11.898 5.00096 11.5105 4.84822 11.1088C4.69548 10.7072 4.56819 10.2914 4.46637 9.86145H2.46378C2.79189 10.4272 3.20203 10.9193 3.69419 11.3379C4.18635 11.7566 4.74922 12.0677 5.3828 12.2713ZM8.91278 12.2713C9.54637 12.0677 10.1092 11.7566 10.6014 11.3379C11.0936 10.9193 11.5037 10.4272 11.8318 9.86145H9.82922C9.72739 10.2914 9.60011 10.7072 9.44737 11.1088C9.29463 11.5105 9.11644 11.898 8.91278 12.2713ZM1.88677 8.50377H4.19483C4.16089 8.27749 4.13543 8.05404 4.11846 7.83341C4.10149 7.61279 4.09301 7.38368 4.09301 7.14608C4.09301 6.90849 4.10149 6.67938 4.11846 6.45876C4.13543 6.23813 4.16089 6.01468 4.19483 5.7884H1.88677C1.8302 6.01468 1.78777 6.23813 1.75949 6.45876C1.7312 6.67938 1.71706 6.90849 1.71706 7.14608C1.71706 7.38368 1.7312 7.61279 1.75949 7.83341C1.78777 8.05404 1.8302 8.27749 1.88677 8.50377ZM5.55252 8.50377H8.74307C8.77701 8.27749 8.80247 8.05404 8.81944 7.83341C8.83641 7.61279 8.8449 7.38368 8.8449 7.14608C8.8449 6.90849 8.83641 6.67938 8.81944 6.45876C8.80247 6.23813 8.77701 6.01468 8.74307 5.7884H5.55252C5.51857 6.01468 5.49312 6.23813 5.47615 6.45876C5.45917 6.67938 5.45069 6.90849 5.45069 7.14608C5.45069 7.38368 5.45917 7.61279 5.47615 7.83341C5.49312 8.05404 5.51857 8.27749 5.55252 8.50377ZM10.1008 8.50377H12.4088C12.4654 8.27749 12.5078 8.05404 12.5361 7.83341C12.5644 7.61279 12.5785 7.38368 12.5785 7.14608C12.5785 6.90849 12.5644 6.67938 12.5361 6.45876C12.5078 6.23813 12.4654 6.01468 12.4088 5.7884H10.1008C10.1347 6.01468 10.1602 6.23813 10.1771 6.45876C10.1941 6.67938 10.2026 6.90849 10.2026 7.14608C10.2026 7.38368 10.1941 7.61279 10.1771 7.83341C10.1602 8.05404 10.1347 8.27749 10.1008 8.50377ZM9.82922 4.43072H11.8318C11.5037 3.86502 11.0936 3.37286 10.6014 2.95424C10.1092 2.53562 9.54637 2.22448 8.91278 2.02083C9.11644 2.39419 9.29463 2.7817 9.44737 3.18335C9.60011 3.58499 9.72739 4.00078 9.82922 4.43072ZM5.85799 4.43072H8.43759C8.30183 3.9329 8.12646 3.46337 7.91149 3.02212C7.69652 2.58087 7.44196 2.1566 7.14779 1.74929C6.85363 2.1566 6.59906 2.58087 6.3841 3.02212C6.16913 3.46337 5.99376 3.9329 5.85799 4.43072ZM2.46378 4.43072H4.46637C4.56819 4.00078 4.69548 3.58499 4.84822 3.18335C5.00096 2.7817 5.17915 2.39419 5.3828 2.02083C4.74922 2.22448 4.18635 2.53562 3.69419 2.95424C3.20203 3.37286 2.79189 3.86502 2.46378 4.43072Z" fill="white"/>
</svg>
