<svg width="242" height="80" viewBox="0 0 242 80" fill="none" xmlns="http://www.w3.org/2000/svg">
<path d="M70.7876 60.8298C69.134 60.241 68.8207 59.8485 68.8207 59.1731C68.8207 58.4977 69.2965 57.9609 70.4279 57.9609C71.2576 57.9609 71.8088 58.2322 72.4122 58.7286L73.004 58.007C72.3078 57.4529 71.5999 57.1296 70.4859 57.1296C68.9425 57.1296 67.8982 57.9147 67.8982 59.2308C67.8982 60.4199 68.5016 60.9972 70.2886 61.6321C71.803 62.1747 72.2613 62.6077 72.2613 63.3696C72.2613 64.2413 71.5767 64.7839 70.4801 64.7839C69.6272 64.7839 68.9077 64.3913 68.2811 63.7968L67.6719 64.4779C68.3217 65.136 69.3255 65.6209 70.4511 65.6209C72.1743 65.6209 73.1897 64.6165 73.1897 63.3292C73.1897 62.042 72.6269 61.4936 70.7934 60.8355L70.7876 60.8298Z" fill="white"/>
<path d="M76.9388 59.1905C76.1323 59.1905 75.4013 59.3868 74.8559 59.6812L75.1924 60.3969C75.6972 60.1025 76.231 59.9236 76.8808 59.9236C77.7859 59.9236 78.2269 60.3681 78.2269 61.2917V62.019C77.8614 61.817 77.2986 61.6611 76.6777 61.6611C75.4535 61.6611 74.3047 62.2499 74.3047 63.6353C74.3047 65.1246 75.32 65.6094 76.2832 65.6094C77.1767 65.6094 77.7859 65.1938 78.2269 64.7263V65.4824H79.1088V61.1762C79.1088 59.7447 78.2733 59.179 76.9388 59.179V59.1905ZM78.2269 63.9758C77.8498 64.4896 77.2463 64.8994 76.4457 64.8994C75.6856 64.8994 75.175 64.5011 75.175 63.5833C75.175 62.8098 75.7204 62.3711 76.6313 62.3711C77.3856 62.3711 77.8208 62.5096 78.2269 62.729V63.9816V63.9758Z" fill="white"/>
<path d="M88.0069 61.8746V65.4881H88.8888V61.7303C88.8888 59.9293 88.0997 59.1904 86.8349 59.1904C85.8253 59.1904 85.3205 59.658 84.955 60.2468C84.6591 59.658 84.1311 59.1904 83.255 59.1904C82.5239 59.1904 82.0017 59.5425 81.6826 60.0736V59.3232H80.7891V65.4939H81.6826V61.8804C81.6826 60.5123 82.2106 59.9524 83.0635 59.9524C83.9164 59.9524 84.398 60.4661 84.398 61.8804V65.4939H85.2857V61.8804C85.2857 60.5123 85.8253 59.9524 86.6666 59.9524C87.5601 59.9524 88.0011 60.4661 88.0011 61.8804L88.0069 61.8746Z" fill="white"/>
<path d="M92.4465 61.8979C91.3963 61.4245 91.083 61.2225 91.083 60.6972C91.083 60.2469 91.4543 59.9352 92.11 59.9352C92.7656 59.9352 93.1717 60.1084 93.6533 60.4894L94.1465 59.8371C93.6765 59.4503 93.0151 59.1848 92.168 59.1848C91.0366 59.1848 90.2301 59.8198 90.2301 60.7549C90.2301 61.742 90.7465 62.1172 91.9939 62.6483C93.0905 63.1158 93.456 63.3987 93.456 63.9067C93.456 64.507 93.0557 64.8591 92.2028 64.8591C91.5878 64.8591 91.0076 64.6109 90.5144 64.178L89.9922 64.8187C90.584 65.292 91.3267 65.6095 92.1796 65.6095C93.253 65.6095 94.3031 65.0842 94.3031 63.8662C94.3031 62.7637 93.6185 62.4231 92.4407 61.8921L92.4465 61.8979Z" fill="white"/>
<path d="M99.4793 62.9251C99.4793 64.2759 98.8004 64.8474 97.9475 64.8474C96.9495 64.8474 96.4796 64.2528 96.4796 62.9251V59.3174H95.5977V63.0752C95.5977 64.8474 96.4622 65.6151 97.7676 65.6151C98.5509 65.6151 99.1253 65.2514 99.4793 64.7319V65.4881H100.367V59.3174H99.4793V62.9251Z" fill="white"/>
<path d="M106.635 65.4881V61.7303C106.635 59.9524 105.77 59.1904 104.459 59.1904C103.681 59.1904 103.101 59.5541 102.753 60.0736V59.3232H101.859V65.4939H102.753V61.8804C102.753 60.5296 103.42 59.9524 104.279 59.9524C105.271 59.9524 105.747 60.5527 105.747 61.8804V65.4939H106.635V65.4881Z" fill="white"/>
<path d="M109.422 67.0815L109.706 67.7511C112.01 67.6818 112.845 66.7871 112.845 64.9284V59.3118H111.958V60.0045C111.523 59.5081 110.989 59.1848 110.211 59.1848C108.912 59.1848 107.867 60.3104 107.867 62.4982C107.867 64.6859 108.854 65.6095 110.089 65.6095C110.931 65.6095 111.523 65.1939 111.958 64.7263V65.0438C111.958 66.4812 111.488 67.0238 109.416 67.0757L109.422 67.0815ZM110.316 64.8476C109.335 64.8476 108.743 64.0394 108.743 62.4866C108.743 60.83 109.248 59.9468 110.281 59.9468C111.018 59.9468 111.615 60.3566 111.958 60.8704V63.9586C111.523 64.5012 110.977 64.8476 110.316 64.8476Z" fill="white"/>
<path d="M122.631 61.3146C122.631 58.4919 121.029 57.2566 118.859 57.2566H116.672V65.4881H118.697C120.907 65.4881 122.631 64.2989 122.631 61.3146ZM117.594 58.0878H118.79C120.693 58.0878 121.708 59.2423 121.708 61.3435C121.708 63.7102 120.594 64.6511 118.813 64.6511H117.594V58.0878Z" fill="white"/>
<path d="M124.989 60.0795V59.3175H124.102V65.4882H124.989V61.8631C124.989 60.6856 125.477 59.9987 126.341 59.9987C126.753 59.9987 127.02 60.091 127.27 60.2353L127.49 59.3464C127.281 59.254 126.985 59.1963 126.521 59.1963C125.854 59.1963 125.268 59.5946 124.989 60.0852V60.0795Z" fill="white"/>
<path d="M132.793 64.8994L132.375 64.2645C131.807 64.6397 131.383 64.8533 130.658 64.8533C129.648 64.8533 129.016 64.0163 128.935 62.7059H133.066C133.095 62.5616 133.106 62.4346 133.106 62.2268C133.106 60.4662 132.224 59.1963 130.606 59.1963C129.132 59.1963 128.047 60.4143 128.047 62.3711C128.047 64.8013 129.428 65.621 130.565 65.621C131.499 65.621 132.045 65.3728 132.793 64.9052V64.8994ZM130.606 59.9525C131.691 59.9525 132.213 60.7895 132.282 61.9844H128.935C129.039 60.6048 129.683 59.9525 130.606 59.9525Z" fill="white"/>
<path d="M136.066 65.6153C136.954 65.6153 137.563 65.1997 137.998 64.7321V65.4883H138.886V61.1821C138.886 59.7505 138.051 59.1848 136.716 59.1848C135.91 59.1848 135.179 59.3811 134.633 59.6755L134.964 60.3913C135.474 60.0969 136.002 59.9179 136.652 59.9179C137.563 59.9179 137.998 60.3624 137.998 61.286V62.0133C137.633 61.8113 137.076 61.6554 136.455 61.6554C135.225 61.6554 134.07 62.2442 134.07 63.6296C134.07 65.1189 135.091 65.6037 136.06 65.6037L136.066 65.6153ZM136.409 62.3654C137.163 62.3654 137.604 62.504 138.004 62.7233V63.9759C137.627 64.4897 137.024 64.8995 136.223 64.8995C135.469 64.8995 134.952 64.5012 134.952 63.5834C134.952 62.8099 135.503 62.3712 136.409 62.3712V62.3654Z" fill="white"/>
<path d="M147.788 61.8746V65.4881H148.676V61.7303C148.676 59.9293 147.887 59.1904 146.622 59.1904C145.618 59.1904 145.108 59.658 144.748 60.2468C144.452 59.658 143.924 59.1904 143.048 59.1904C142.311 59.1904 141.795 59.5425 141.476 60.0736V59.3232H140.594V65.4939H141.476V61.8804C141.476 60.5123 142.009 59.9524 142.862 59.9524C143.715 59.9524 144.203 60.4661 144.203 61.8804V65.4939H145.085V61.8804C145.085 60.5123 145.624 59.9524 146.471 59.9524C147.365 59.9524 147.806 60.4661 147.806 61.8804L147.788 61.8746Z" fill="white"/>
<path d="M70.7876 73.073C69.1282 72.4842 68.8265 72.0975 68.8265 71.4163C68.8265 70.7352 69.3023 70.2099 70.4337 70.2099C71.2634 70.2099 71.8204 70.4754 72.418 70.9718L73.0098 70.2561C72.3136 69.7077 71.5999 69.3787 70.4917 69.3787C68.9425 69.3787 67.904 70.1522 67.904 71.4798C67.904 72.6689 68.5074 73.2404 70.2944 73.8754C71.8088 74.4238 72.2671 74.8509 72.2671 75.6186C72.2671 76.4845 71.5825 77.0271 70.4801 77.0271C69.6272 77.0271 68.9077 76.6346 68.2811 76.04L67.6719 76.7212C68.3217 77.3792 69.3255 77.8584 70.4511 77.8584C72.1743 77.8584 73.1839 76.8597 73.1839 75.5667C73.1839 74.2737 72.6211 73.7311 70.7934 73.073H70.7876Z" fill="white"/>
<path d="M76.9488 72.1957C77.5754 72.1957 77.9874 72.4151 78.4341 72.8191L78.9679 72.1611C78.4805 71.7339 77.8365 71.428 77.0068 71.428C75.7071 71.428 74.332 72.392 74.332 74.6721C74.332 76.8252 75.5795 77.8527 76.943 77.8527C77.8133 77.8527 78.4167 77.5237 78.9389 76.9926L78.4051 76.4327C77.9816 76.8425 77.5812 77.0849 76.9778 77.0849C75.8812 77.0849 75.2256 76.1094 75.2256 74.5913C75.2256 73.0731 75.974 72.1842 76.943 72.1842L76.9488 72.1957Z" fill="white"/>
<path d="M82.7556 71.4338C81.9781 71.4338 81.3921 71.7974 81.0382 72.3169V69.4192H80.1562V77.743H81.0382V74.1295C81.0382 72.7787 81.717 72.2015 82.5757 72.2015C83.5737 72.2015 84.0437 72.7961 84.0437 74.1295V77.743H84.9314V73.9736C84.9314 72.2015 84.0669 71.4338 82.7556 71.4338Z" fill="white"/>
<path d="M88.8893 71.4336C87.3807 71.4336 86.1797 72.5592 86.1797 74.6546C86.1797 76.75 87.3343 77.8641 88.8429 77.8641C90.3514 77.8641 91.564 76.7038 91.564 74.6084C91.564 72.513 90.3978 71.4336 88.8893 71.4336ZM88.8719 77.0963C87.7927 77.0963 87.0674 76.2536 87.0674 74.6315C87.0674 73.0095 87.7927 72.2013 88.8719 72.2013C89.9511 72.2013 90.6763 73.0095 90.6763 74.6315C90.6763 76.2536 89.9453 77.0963 88.8719 77.0963Z" fill="white"/>
<path d="M93.7862 69.4133H92.8984V77.7372H93.7862V69.4133Z" fill="white"/>
<path d="M97.8432 71.4333C97.0367 71.4333 96.3056 71.6354 95.766 71.9298L96.0968 72.6513C96.6074 72.3569 97.1411 72.178 97.791 72.178C98.6961 72.178 99.1371 72.6282 99.1371 73.5403V74.2734C98.7715 74.0713 98.2145 73.9155 97.5937 73.9155C96.3637 73.9155 95.2148 74.5043 95.2148 75.8954C95.2148 77.3847 96.2302 77.8638 97.1992 77.8638C98.0869 77.8638 98.6961 77.454 99.1371 76.9864V77.7426H100.025V73.4422C100.025 71.999 99.1835 71.4391 97.849 71.4391L97.8432 71.4333ZM99.1313 76.2187C98.7599 76.7267 98.1449 77.1423 97.35 77.1423C96.5957 77.1423 96.0852 76.744 96.0852 75.8262C96.0852 75.0469 96.6306 74.6197 97.5415 74.6197C98.2958 74.6197 98.7309 74.7467 99.1313 74.9718V76.2187Z" fill="white"/>
<path d="M102.599 72.3281V71.5546H101.711V77.7311H102.599V74.1061C102.599 72.9343 103.074 72.2358 103.945 72.2358C104.362 72.2358 104.629 72.3281 104.879 72.4725L105.105 71.5777C104.89 71.4854 104.6 71.4219 104.136 71.4219C103.475 71.4219 102.877 71.8202 102.604 72.3224L102.599 72.3281Z" fill="white"/>
<path d="M108.499 74.1466C107.449 73.6733 107.13 73.4597 107.13 72.946C107.13 72.5015 107.507 72.184 108.157 72.184C108.807 72.184 109.224 72.363 109.706 72.7382L110.199 72.0916C109.723 71.7049 109.068 71.4336 108.215 71.4336C107.089 71.4336 106.271 72.0686 106.271 73.0095C106.271 73.9504 106.793 74.3718 108.035 74.897C109.132 75.3646 109.497 75.6532 109.497 76.1554C109.497 76.7615 109.097 77.1079 108.25 77.1079C107.629 77.1079 107.054 76.8597 106.555 76.4267L106.039 77.0733C106.631 77.5466 107.374 77.8583 108.226 77.8583C109.3 77.8583 110.35 77.3272 110.35 76.1208C110.35 75.0125 109.665 74.6777 108.493 74.1466H108.499Z" fill="white"/>
<path d="M114.402 71.4335C113.613 71.4335 113.039 71.7972 112.685 72.3167V69.4189H111.797V77.7428H112.685V74.1292C112.685 72.7785 113.358 72.2013 114.222 72.2013C115.214 72.2013 115.684 72.7958 115.684 74.1292V77.7428H116.572V73.9734C116.572 72.2012 115.713 71.4335 114.402 71.4335Z" fill="white"/>
<path d="M119.206 71.5549H118.324V77.7314H119.206V71.5549Z" fill="white"/>
<path d="M118.785 69.1997C118.425 69.1997 118.141 69.4826 118.141 69.8404C118.141 70.1983 118.425 70.4639 118.785 70.4639C119.115 70.4639 119.4 70.1752 119.4 69.8404C119.4 69.4826 119.115 69.1997 118.785 69.1997Z" fill="white"/>
<path d="M123.748 71.4333C122.913 71.4333 122.321 71.849 121.88 72.3165V71.5603H120.992V80.0054H121.88V77.0441C122.315 77.5348 122.849 77.8638 123.632 77.8638C124.926 77.8638 125.97 76.7324 125.97 74.5505C125.97 72.3685 124.984 71.4333 123.748 71.4333ZM123.557 77.0961C122.826 77.0961 122.222 76.6863 121.88 76.1667V73.0843C122.315 72.5474 122.86 72.1953 123.522 72.1953C124.508 72.1953 125.1 73.0035 125.1 74.5562C125.1 76.2129 124.589 77.0903 123.563 77.0903L123.557 77.0961Z" fill="white"/>
<path d="M130.665 70.3368H134.599V69.5056H129.742V77.7371H130.665V73.8984H132.933V73.0672H130.665V70.3368Z" fill="white"/>
<path d="M137.294 71.4333C135.785 71.4333 134.578 72.559 134.578 74.6544C134.578 76.7498 135.739 77.8638 137.247 77.8638C138.756 77.8638 139.968 76.7036 139.968 74.6082C139.968 72.5128 138.814 71.4333 137.294 71.4333ZM137.27 77.0961C136.191 77.0961 135.477 76.2533 135.477 74.6313C135.477 73.0092 136.197 72.2011 137.27 72.2011C138.344 72.2011 139.081 73.0092 139.081 74.6313C139.081 76.2533 138.349 77.0961 137.27 77.0961Z" fill="white"/>
<path d="M144.858 75.1685C144.858 76.5192 144.191 77.0965 143.326 77.0965C142.334 77.0965 141.858 76.5019 141.858 75.1685V71.5549H140.977V75.3185C140.977 77.0907 141.841 77.8584 143.152 77.8584C143.924 77.8584 144.504 77.5005 144.858 76.981V77.7372H145.752V71.5607H144.858V75.1742V75.1685Z" fill="white"/>
<path d="M149.834 71.4335C149.056 71.4335 148.476 71.7972 148.122 72.3167V71.5605H147.234V77.737H148.122V74.1235C148.122 72.7727 148.795 72.1955 149.66 72.1955C150.652 72.1955 151.122 72.79 151.122 74.1235V77.737H152.01V73.9676C152.01 72.1955 151.145 71.4277 149.834 71.4277V71.4335Z" fill="white"/>
<path d="M157.34 72.2594C156.9 71.763 156.372 71.4281 155.588 71.4281C154.289 71.4281 153.25 72.5538 153.25 74.7473C153.25 76.9408 154.231 77.8586 155.472 77.8586C156.314 77.8586 156.9 77.4488 157.335 76.9812V77.7374H158.222V69.4136H157.335V72.2594H157.34ZM157.34 76.2019C156.9 76.7388 156.36 77.0909 155.698 77.0909C154.718 77.0909 154.126 76.2828 154.126 74.73C154.126 73.0675 154.631 72.1901 155.664 72.1901C156.395 72.1901 156.992 72.6 157.34 73.1195V76.1962V76.2019Z" fill="white"/>
<path d="M161.984 71.4333C161.183 71.4333 160.452 71.6354 159.907 71.9298L160.231 72.6513C160.742 72.3569 161.276 72.178 161.926 72.178C162.831 72.178 163.266 72.6282 163.266 73.5403V74.2734C162.9 74.0713 162.343 73.9155 161.717 73.9155C160.493 73.9155 159.344 74.5043 159.344 75.8954C159.344 77.3847 160.365 77.8638 161.334 77.8638C162.222 77.8638 162.831 77.454 163.266 76.9864V77.7426H164.154V73.4422C164.154 71.999 163.318 71.4391 161.978 71.4391L161.984 71.4333ZM163.266 76.2187C162.889 76.7267 162.291 77.1423 161.479 77.1423C160.73 77.1423 160.226 76.744 160.226 75.8262C160.226 75.0469 160.765 74.6197 161.676 74.6197C162.43 74.6197 162.871 74.7467 163.266 74.9718V76.2187Z" fill="white"/>
<path d="M166.988 69.4136H166.094V71.5551H165.328V72.2998H166.094V76.4617C166.094 77.4834 166.512 77.8529 167.283 77.8529C167.748 77.8529 168.078 77.7836 168.421 77.645L168.484 76.8831C168.2 76.9985 167.968 77.0563 167.608 77.0563C167.138 77.0563 166.988 76.8658 166.988 76.3174V72.2998H168.525V71.5551H166.988V69.4136Z" fill="white"/>
<path d="M170.538 69.1997C170.173 69.1997 169.883 69.4826 169.883 69.8404C169.883 70.1983 170.173 70.4639 170.538 70.4639C170.869 70.4639 171.148 70.1752 171.148 69.8404C171.148 69.4826 170.863 69.1997 170.538 69.1997Z" fill="white"/>
<path d="M170.958 71.5549H170.07V77.7314H170.958V71.5549Z" fill="white"/>
<path d="M175.012 71.4336C173.504 71.4336 172.297 72.5592 172.297 74.6546C172.297 76.75 173.451 77.8641 174.966 77.8641C176.48 77.8641 177.681 76.7038 177.681 74.6084C177.681 72.513 176.521 71.4336 175.012 71.4336ZM174.989 77.0963C173.916 77.0963 173.19 76.2536 173.19 74.6315C173.19 73.0095 173.916 72.2013 174.989 72.2013C176.062 72.2013 176.799 73.0095 176.799 74.6315C176.799 76.2536 176.068 77.0963 174.989 77.0963Z" fill="white"/>
<path d="M181.558 71.4335C180.781 71.4335 180.201 71.7972 179.841 72.3167V71.5605H178.953V77.737H179.841V74.1235C179.841 72.7727 180.514 72.1955 181.378 72.1955C182.371 72.1955 182.846 72.79 182.846 74.1235V77.737H183.728V73.9676C183.728 72.1955 182.864 71.4277 181.558 71.4277V71.4335Z" fill="white"/>
<path d="M101.811 41.0535C98.2484 41.0592 95.3125 43.83 95.3125 47.305C95.3125 50.78 98.2484 53.5219 101.811 53.5334C105.408 53.5219 108.315 50.7454 108.315 47.305C108.315 43.8646 105.408 41.0592 101.811 41.0535ZM101.724 50.6819C99.8614 50.6819 98.4572 49.1695 98.4572 47.305C98.4572 45.4405 99.96 43.8993 101.817 43.8993C103.673 43.8993 105.124 45.4116 105.124 47.305C105.124 49.1984 103.604 50.6819 101.73 50.6819H101.724Z" fill="white"/>
<path d="M71.9942 36.7531C72.9864 37.7287 74.1236 38.583 75.2434 39.1314L75.3595 39.1949L77.2799 36.9378L77.0943 36.8339C75.2724 35.8526 73.8451 34.6115 72.911 33.0472C71.9826 31.506 71.5069 29.7165 71.5069 27.575V25.5662H68.072V27.3614C68.072 29.6819 67.544 31.506 66.5519 33.1049C65.4437 34.8771 63.8017 36.3029 61.7013 37.6248L61.5156 37.7402L63.5986 39.8875L63.7146 39.824C64.9563 39.1544 66.2734 38.1212 67.4164 36.9667C68.4085 35.9565 69.2672 34.8771 69.7894 33.8554C70.2942 34.8598 71.0659 35.8815 71.9942 36.7589V36.7531Z" fill="white"/>
<path d="M68.2734 52.0557H82.6511V42.283H68.2734V52.0557ZM71.5052 45.0422H79.4193V49.2965H71.5052V45.0422Z" fill="white"/>
<path d="M116.211 52.0557H132.468V42.283H116.211V52.0557ZM119.408 45.0422H129.277V49.2965H119.408V45.0422Z" fill="white"/>
<path d="M82.7126 24.9888H79.5156V41.1631H82.7126V34.0053H86.4549V31.1306H82.7126V24.9888Z" fill="white"/>
<path d="M148.996 37.5786C150.046 38.4849 151.248 39.2468 152.379 39.7375L152.495 39.7894L154.224 37.4631L154.038 37.3708C152.391 36.5338 150.923 35.4947 149.867 34.2248C148.793 32.9318 148.155 31.3732 148.155 29.4972V28.9488H152.913V26.1665H139.997V28.9488H144.749V29.6184C144.749 31.327 144.181 32.9202 143.235 34.2998C142.127 35.9565 140.508 37.29 138.935 38.1558L138.727 38.2655L140.85 40.4532L140.966 40.3955C142.109 39.749 143.374 38.7735 144.453 37.6767C145.318 36.7762 146.095 35.8238 146.571 34.8713C147.145 35.7949 148.027 36.7185 149.002 37.5786H148.996Z" fill="white"/>
<path d="M172.117 45.1059H183.739V52.0501H186.965V42.3467H172.117V45.1059Z" fill="white"/>
<path d="M180.134 33.9823C180.134 32.4526 179.444 31.0442 178.422 29.9705H181.614V27.217H175.521V24.1865H172.058V27.217H165.82V29.9705H169.081C168.083 31.0442 167.393 32.4411 167.393 33.9823C167.393 37.3938 170.218 40.1646 173.752 40.1761C177.285 40.1646 180.128 37.3938 180.134 33.9823ZM170.474 33.8553C170.474 31.9677 172.075 30.3688 173.752 30.3688C175.429 30.3688 177.024 31.9735 177.03 33.8553C177.03 35.7141 175.429 37.3188 173.752 37.3246C172.069 37.3188 170.479 35.7141 170.474 33.8553Z" fill="white"/>
<path d="M186.965 24.9888H183.773V41.2208H186.965V35.027H190.719V32.1523H186.965V24.9888Z" fill="white"/>
<path d="M159.886 24.9888H156.695V41.2208H159.886V34.0053H163.635V31.1306H159.886V24.9888Z" fill="white"/>
<path d="M105.716 29.803H100.691V32.6488H105.716V41.7346H108.913V24.9888H105.716V29.803Z" fill="white"/>
<path d="M97.6 37.1745C98.598 38.1443 99.7642 38.9986 100.878 39.5758L101 39.6451L102.921 37.3881L102.735 37.2842C100.913 36.3317 99.5147 35.0964 98.5748 33.5552C97.6232 32.0255 97.1475 30.1668 97.1475 28.0252V25.5662H93.7068V27.8174C93.7068 30.1379 93.1846 31.9562 92.2157 33.5263C91.1133 35.3273 89.4365 36.7647 87.3361 38.075L87.1562 38.1905L89.2508 40.3436L89.3552 40.2743C90.5911 39.5989 91.8792 38.6234 93.0222 37.5093C94.055 36.4876 94.9137 35.3735 95.4358 34.3056C95.929 35.2811 96.6833 36.274 97.6 37.1803V37.1745Z" fill="white"/>
<path d="M153.035 41.0535C149.473 41.0592 146.537 43.83 146.531 47.305C146.537 50.7454 149.467 53.5219 153.035 53.5334C156.627 53.5219 159.54 50.7454 159.54 47.305C159.54 43.8646 156.627 41.0592 153.035 41.0535ZM152.943 50.6819C151.086 50.6819 149.67 49.1695 149.67 47.305C149.67 45.4405 151.167 43.8993 153.035 43.8993C154.904 43.8993 156.337 45.4116 156.343 47.305C156.343 49.1637 154.817 50.6819 152.943 50.6819Z" fill="white"/>
<path d="M120.103 34.2652H123.3V26.0049H114.672V28.7526H120.103V34.2652Z" fill="white"/>
<path d="M129.702 34.2652H132.905V26.0049H124.277V28.7526H129.702V34.2652Z" fill="white"/>
<path d="M211.194 32.3024H208.507V25.439H205.484V51.3572H208.507V35.4195H211.194V52.0499H214.327V24.9888H211.194V32.3024Z" fill="white"/>
<path d="M201.049 35.8872C200.33 34.3229 200.034 32.5739 200.034 30.4265V29.4048H203.66V26.4897H193.124V29.4048H196.866V30.4843C196.866 32.5162 196.599 34.1786 195.955 35.7199C195.207 37.492 193.948 39.0852 191.94 40.7938L191.801 40.9208L193.785 42.8777L193.907 42.7853C194.905 42.0522 195.949 40.9901 196.82 39.8933C197.556 38.9697 198.177 38.0115 198.566 37.1687C198.966 37.9884 199.593 38.9293 200.324 39.8067C201.171 40.8342 202.129 41.8098 203.045 42.3928L203.167 42.4736L204.838 40.4879L204.705 40.3667C202.906 38.8081 201.792 37.4169 201.061 35.8815L201.049 35.8872Z" fill="white"/>
<path d="M112 38.1097H122.612V41.1922H126.076V38.1097H136.856V35.3447H112V38.1097Z" fill="white"/>
<path d="M232.525 37.2262H221.722V29.0467H229.949V26.1663H218.484V40.0201H232.525V37.2262Z" fill="white"/>
<path d="M226.415 43.426H223.184V52.05H238.298V49.21H226.415V43.426Z" fill="white"/>
<path d="M238.222 32.4813V24.9829H235.031V44.9497H238.222V35.356H242V32.4813H238.222Z" fill="white"/>
<path d="M67.7727 16.6361L59.4931 13.2246L67.7727 9.81312L66.299 6.28617L58.0252 9.69767L61.4543 1.46042L57.9034 0L54.4801 8.23725L51.0511 0L47.5002 1.46042L50.9292 9.69767L42.6554 6.28617L41.1875 9.81312L49.4613 13.2246L41.1875 16.6361L42.6554 20.1631L50.9292 16.7516L47.5002 24.9888L51.0511 26.4492L54.4801 18.2178L57.9034 26.4492L61.4543 24.983L58.0252 16.7516L66.299 20.1631L67.7727 16.6361Z" fill="white"/>
<path d="M14.2044 39.6161H19.7106V24.9888H0.882812V29.9184H14.2044V39.6161Z" fill="white"/>
<path d="M35.6849 39.6161H41.1911V24.9888H22.3633V29.9184H35.6849V39.6161Z" fill="white"/>
<path d="M0 47.1838H35.6829V54.7168H41.1891V42.2542H0V47.1838Z" fill="white"/>
<path d="M13.3203 77.7373H41.1878V57.251H13.3203V77.7373ZM18.8265 62.1806H35.6874V72.8077H18.8265V62.1806Z" fill="white"/>
</svg>
