<svg width="44" height="41" viewBox="0 0 44 41" fill="none" xmlns="http://www.w3.org/2000/svg">
<g clip-path="url(#clip0_48_1663)">
<path d="M43.813 11.3477C43.813 11.4192 43.8051 11.4748 43.7893 11.5383C43.7341 11.7606 43.6235 11.9671 43.4577 12.1259L40.5833 14.818C40.5833 14.818 40.5122 14.8815 40.4728 14.9053C40.1648 15.0959 39.77 15.1277 39.4383 15.0006C39.1066 14.8736 38.8618 14.6036 38.7671 14.2542C38.6802 13.9524 38.5223 13.6824 38.317 13.4521C37.9458 13.055 37.4326 12.8248 36.8956 12.8168C36.3507 12.8248 35.8453 13.0233 35.4505 13.4124L35.3952 13.468C34.9688 13.8174 34.724 14.3097 34.6845 14.8577C34.645 15.4056 34.8267 15.9377 35.1978 16.3347C35.4031 16.573 35.6637 16.7397 35.948 16.8588C36.2875 16.9859 36.5323 17.2559 36.6429 17.5974C36.7456 17.9468 36.6745 18.3279 36.4613 18.6218C36.4376 18.6615 36.3981 18.7012 36.3665 18.7329L33.4606 21.3932C33.3658 21.4806 33.2789 21.5203 33.2158 21.56C33.0973 21.6315 32.971 21.6632 32.8446 21.687H32.6551C32.3866 21.6553 32.1339 21.5203 31.9444 21.3217L29.2911 18.455C29.2122 18.4232 29.149 18.3677 29.1016 18.3041L29.0621 18.2644C28.7779 17.9547 28.6831 17.51 28.8173 17.113C28.9595 16.708 29.299 16.4062 29.7254 16.3427C30.0966 16.2712 30.4361 16.1044 30.7125 15.8503C31.2653 15.358 31.4785 14.5956 31.2969 13.8809C31.0995 13.1027 30.4598 12.5309 29.5438 12.3165C29.5043 12.3086 29.4491 12.3086 29.3938 12.3086C28.3909 12.4595 27.696 13.0153 27.467 13.865C27.3565 14.2859 27.0248 14.6036 26.6142 14.6989C26.2115 14.8021 25.785 14.6671 25.5008 14.3574L22.729 11.2921C22.5711 11.1254 22.4763 10.9109 22.4448 10.6806C22.4369 10.6171 22.429 10.5615 22.4369 10.498C22.4606 10.2915 22.5395 10.093 22.6738 9.9183C22.6975 9.88654 22.7448 9.82301 22.8001 9.75948L25.4534 7.27391C25.098 7.09126 24.7901 6.84509 24.5216 6.54333C23.2581 5.16157 23.3371 3.04923 24.6874 1.75483C26.0772 0.500133 28.2093 0.611309 29.4649 1.95336C29.7412 2.24718 29.9545 2.58865 30.1124 2.95394L32.7893 0.492192C32.9947 0.301605 33.2631 0.198371 33.5395 0.19043C33.6106 0.19043 33.658 0.198371 33.7211 0.214253C33.9422 0.269841 34.1476 0.381017 34.3055 0.54778L37.1167 3.58129C37.401 3.89099 37.4957 4.32775 37.3694 4.72481C37.243 5.12981 36.8956 5.43157 36.4692 5.50304C35.6163 5.66186 35.0004 6.32892 34.7793 7.32156C34.7714 7.36126 34.7714 7.42479 34.7793 7.47244C34.9214 8.40155 35.4268 9.08448 36.177 9.34654C36.8798 9.59272 37.6458 9.43389 38.1906 8.91772C38.4591 8.6636 38.6565 8.33802 38.7513 7.97273C38.8539 7.55185 39.1856 7.22626 39.5962 7.12303C39.999 7.01979 40.4333 7.14685 40.7176 7.4645L40.757 7.5042C40.8123 7.56773 40.8518 7.63126 40.8834 7.71067L43.513 10.6012C43.6946 10.7998 43.7972 11.0618 43.813 11.3398V11.3477ZM42.2179 11.3239L39.9674 8.83037C39.7858 9.26713 39.5094 9.65624 39.1619 9.98183C38.5302 10.5695 37.7168 10.8871 36.8798 10.903C36.4929 10.9109 36.0901 10.8395 35.7032 10.7124C34.4476 10.2677 33.5711 9.14007 33.35 7.67891C33.3184 7.4645 33.3263 7.22626 33.3658 7.01185C33.6738 5.62216 34.5424 4.60569 35.7348 4.21658L33.4921 1.80248L30.831 4.23246C30.7283 4.33569 30.5941 4.41511 30.4519 4.47069C30.1598 4.61363 29.8202 4.61363 29.5201 4.47863C29.2043 4.35158 28.9595 4.08158 28.8647 3.74805C28.7779 3.44629 28.6278 3.17629 28.4146 2.946C27.6881 2.15189 26.4484 2.10424 25.6508 2.81894C24.8927 3.54952 24.8453 4.77246 25.5718 5.58245C25.785 5.8048 26.0377 5.98745 26.3299 6.09862C26.6458 6.21774 26.8985 6.4798 27.0011 6.81332C27.1038 7.12303 27.0722 7.4645 26.9143 7.75038C26.8432 7.90126 26.7563 8.02037 26.6458 8.12361L24.0162 10.5854L26.2351 13.0312C26.7168 11.8639 27.7987 11.0856 29.1964 10.8871C29.4175 10.8633 29.6465 10.8712 29.8597 10.9189C31.2811 11.2524 32.3392 12.2212 32.6709 13.5156C32.7735 13.9206 32.813 14.3415 32.7657 14.7465C32.6788 15.5644 32.2997 16.3347 31.668 16.9144C31.3206 17.2321 30.9099 17.4782 30.4677 17.6291L32.7499 20.0909L35.0162 18.0262C34.6845 17.8435 34.3845 17.5974 34.1239 17.3194C33.4921 16.6206 33.1842 15.7233 33.2394 14.7783C33.3026 13.8492 33.729 13.0074 34.4397 12.3959C35.0952 11.7368 35.9638 11.3795 36.8956 11.3874C37.8353 11.3953 38.7118 11.7845 39.3514 12.4833C39.612 12.7612 39.8173 13.0789 39.9753 13.4203L42.21 11.3239H42.2179Z" fill="black"/>
<path d="M36.8713 10.9028L36.895 11.3792C35.9632 11.3713 35.0946 11.7286 34.4392 12.3878C33.7285 12.9992 33.3021 13.841 33.2389 14.7701L32.7651 14.7463C32.8046 14.3413 32.773 13.9204 32.6703 13.5154C32.3387 12.221 31.2884 11.2522 29.8591 10.9187C29.6459 10.8631 29.4169 10.8551 29.1958 10.8869C27.7981 11.0854 26.7163 11.8716 26.2346 13.031L24.0156 10.5851L26.6452 8.12338C26.7558 8.02014 26.8426 7.90103 26.9137 7.75014C27.0716 7.46426 27.1032 7.1228 27.0005 6.81309C26.8979 6.47957 26.6452 6.22545 26.3293 6.09839C26.0372 5.99516 25.7845 5.81251 25.5713 5.58222C24.8448 4.77222 24.8922 3.54929 25.6502 2.81871C26.4478 2.10401 27.6876 2.1596 28.414 2.94577C28.6273 3.16812 28.7773 3.43812 28.8642 3.74782C28.9589 4.08135 29.2037 4.3434 29.5196 4.4784C29.8196 4.60546 30.1592 4.60546 30.4514 4.47046C30.6014 4.41487 30.7278 4.3434 30.8304 4.23223L33.4916 1.80225L35.7342 4.21635C34.5418 4.60546 33.6811 5.62192 33.3652 7.01162C33.3257 7.22603 33.31 7.46426 33.3494 7.67867C33.5626 9.13984 34.4471 10.2675 35.7026 10.7122C36.0896 10.8392 36.4923 10.9107 36.8792 10.9028H36.8713Z" fill="#FAD05A"/>
<path d="M34.495 39.5546C34.5029 39.8643 34.3844 40.1501 34.1633 40.3804C33.9501 40.5948 33.65 40.7298 33.3421 40.7298L29.4095 40.7457C29.3701 40.7537 29.3148 40.7457 29.2674 40.7378C28.9121 40.6663 28.6041 40.4281 28.4462 40.1025C28.2882 39.7769 28.2882 39.4037 28.4462 39.094C28.5883 38.8081 28.6594 38.5143 28.6515 38.1887C28.6515 37.1008 27.7591 36.2113 26.6773 36.2113C26.2035 36.2113 25.7297 36.3781 25.2717 36.6958C25.2322 36.7196 25.1927 36.7593 25.1691 36.799C24.4584 37.8393 24.7032 38.689 24.9164 39.1019C25.0822 39.4354 25.0822 39.8007 24.9243 40.1263C24.7663 40.444 24.4663 40.6901 24.1188 40.7616C24.0635 40.7775 24.024 40.7775 23.9688 40.7775L19.8388 40.8013C19.673 40.8013 19.523 40.7695 19.3808 40.706C19.3492 40.714 19.3098 40.7219 19.2782 40.7219L5.94867 40.8013H5.94077C5.30904 40.8013 4.79576 40.2772 4.77997 39.6499L4.76418 36.0922C4.39303 36.2352 4.0061 36.2987 3.61916 36.3066C2.34781 36.3066 1.187 35.6078 0.578964 34.4802C-0.0448696 33.3049 0.0656831 31.8755 0.886932 30.6605C1.01328 30.4779 1.17121 30.3111 1.35283 30.184C2.42677 29.4296 3.63496 29.239 4.72469 29.6282L4.7089 26.2294C4.7089 26.2294 4.7168 26.1976 4.7168 26.1738C4.67731 26.0864 4.63783 25.9832 4.63783 25.872L4.62204 21.9173C4.62204 21.8776 4.62204 21.822 4.62993 21.7744C4.74049 21.2265 5.21428 20.8294 5.75915 20.8294C5.93288 20.8294 6.1066 20.8691 6.25664 20.9485C6.53302 21.0915 6.83309 21.155 7.14106 21.155C7.89124 21.155 8.56245 20.7341 8.90201 20.075C9.27315 19.3682 9.17839 18.5185 8.64142 17.7482C8.61773 17.7085 8.57825 17.6688 8.53876 17.645C7.77279 17.1209 6.94364 17.0256 6.24874 17.383C6.07502 17.4703 5.90129 17.51 5.71967 17.51C5.1748 17.51 4.701 17.1209 4.59835 16.5809C4.59045 16.5412 4.58255 16.4935 4.58255 16.438L4.55886 12.2768C4.55886 11.9751 4.67731 11.6812 4.89842 11.4509C5.11163 11.2365 5.39591 11.1095 5.71177 11.1095L9.24946 11.0856C9.10732 10.7204 9.04415 10.3233 9.03625 9.93418C9.03625 9.01301 9.3916 8.14743 10.0312 7.49626C10.6787 6.84509 11.5395 6.4798 12.4555 6.4798C13.2057 6.4798 13.9637 6.73391 14.6507 7.20244C14.8403 7.32156 14.9982 7.48832 15.1245 7.66302C15.8747 8.75096 16.0642 9.95801 15.6773 11.0618L19.2071 11.038C19.8467 11.038 20.3679 11.5621 20.3758 12.2053L20.3916 15.7471C21.4576 15.3659 22.6895 15.5486 23.7398 16.2712C23.9214 16.3983 24.0872 16.565 24.2136 16.7477C25.0427 17.9468 25.1691 19.3762 24.561 20.5594C24.482 20.7262 24.3794 20.8691 24.2767 21.02C24.9716 20.5435 25.7297 20.2894 26.4799 20.2894C28.3514 20.2894 29.8833 21.83 29.8991 23.7041C29.8991 24.0932 29.836 24.4744 29.7096 24.8317L33.2315 24.8158C33.879 24.8158 34.4002 25.34 34.4002 25.9673L34.4239 30.1126C34.4239 30.4223 34.3133 30.7082 34.0922 30.9305C33.7211 31.3037 33.0973 31.3752 32.6393 31.0893C32.3313 30.8908 31.968 30.7876 31.5969 30.7876C31.1231 30.7876 30.6493 30.9543 30.1834 31.272C30.1439 31.2958 30.1044 31.3355 30.0808 31.3752C29.5596 32.1455 29.4727 33.0031 29.8439 33.7099C30.1913 34.3611 30.8546 34.7661 31.589 34.7661C31.9759 34.7661 32.3471 34.6549 32.663 34.4564C32.8525 34.3372 33.0815 34.2658 33.3026 34.2658C33.9422 34.2658 34.4476 34.7661 34.4634 35.4172L34.4792 39.5466L34.495 39.5546ZM33.0578 39.2846L33.042 35.8937C32.5998 36.1002 32.126 36.2034 31.6364 36.2113C30.3492 36.2113 29.1884 35.5046 28.5962 34.3769C27.9724 33.2017 28.0987 31.7802 28.9121 30.5652C29.0384 30.3746 29.1963 30.2079 29.378 30.0887C30.5151 29.2867 31.8812 29.1358 33.0025 29.644L32.9867 26.2532L29.3148 26.277C28.8963 26.277 28.5251 26.0705 28.3198 25.7132C28.1066 25.3717 28.0829 24.9588 28.2645 24.6014C28.4067 24.3235 28.4698 24.0217 28.4698 23.7041C28.4619 22.6082 27.5696 21.7267 26.4799 21.7267C26.0061 21.7267 25.5323 21.8935 25.0743 22.2112C25.0427 22.235 25.0032 22.2747 24.9716 22.3144C24.2609 23.3547 24.5136 24.2044 24.7189 24.6173C24.9006 24.9826 24.8848 25.3955 24.6795 25.745C24.4742 26.0944 24.103 26.3008 23.6924 26.3008L20.0205 26.3247L20.0441 30.0252C20.0441 30.3349 19.9257 30.6367 19.7046 30.8511C19.3571 31.2084 18.7965 31.2958 18.3622 31.0655C17.6594 30.7082 16.8223 30.8034 16.0485 31.3434C16.0169 31.3673 15.9774 31.4149 15.9537 31.4467C15.4325 32.217 15.3457 33.0746 15.7168 33.7814C16.0642 34.4325 16.7276 34.8375 17.4698 34.8375C17.8015 34.8296 18.1016 34.7581 18.3859 34.5993C18.5517 34.5119 18.7333 34.4722 18.9149 34.4722C19.5546 34.4722 20.0757 34.9964 20.0757 35.6396L20.0915 39.3401L23.4397 39.3243C23.0607 38.2363 23.2423 37.0372 23.9688 35.9652C24.0951 35.7825 24.253 35.6158 24.4347 35.4966C25.1375 35.0122 25.9034 34.7502 26.6615 34.7502C28.533 34.7502 30.065 36.2908 30.0729 38.1649C30.0729 38.546 30.0097 38.9272 29.8912 39.2846L33.0341 39.2687L33.0578 39.2846ZM23.3055 19.9082C23.6766 19.1935 23.5818 18.3438 23.0449 17.5735C23.0212 17.5418 22.9817 17.4941 22.9422 17.4703C22.1841 16.9462 21.3471 16.8509 20.6522 17.2162C20.4785 17.2956 20.3047 17.3353 20.1231 17.3353C19.4914 17.3353 18.9781 16.8112 18.9781 16.1838L18.9544 12.4912L15.2746 12.515C14.8561 12.515 14.4849 12.3086 14.2796 11.9592C14.0664 11.6098 14.0427 11.1968 14.2243 10.8315C14.5876 10.1168 14.4849 9.27507 13.9558 8.50478C13.9322 8.47302 13.8848 8.43331 13.8532 8.40949C13.3952 8.09979 12.9293 7.94096 12.4634 7.94096C11.9264 7.94096 11.4368 8.14743 11.0578 8.52861C10.6787 8.90978 10.4813 9.40213 10.4813 9.94213C10.4892 10.2598 10.5682 10.5695 10.7182 10.8554C10.8999 11.2127 10.892 11.6256 10.6866 11.9751C10.4813 12.3324 10.1102 12.5389 9.69167 12.5468L6.01184 12.5627L6.02764 15.9297C7.09368 15.5565 8.31766 15.7391 9.36791 16.4618C9.54953 16.5888 9.71536 16.7477 9.83381 16.9303C10.6709 18.1374 10.8051 19.5747 10.1892 20.75C9.60481 21.8856 8.4519 22.5923 7.18054 22.6003C6.78571 22.6003 6.42247 22.5367 6.06712 22.4176L6.08291 25.5782L9.96805 25.5623C10.126 25.5623 10.2681 25.475 10.3471 25.3241C10.4261 25.1811 10.4182 25.0064 10.3234 24.8635C10.047 24.4267 9.89698 23.9344 9.89698 23.4182C9.88908 22.6876 10.1734 22.0047 10.6866 21.4806C11.1999 20.9644 11.8711 20.6785 12.5976 20.6785C13.2215 20.6785 13.8216 20.877 14.406 21.2741C14.5086 21.3535 14.6113 21.4488 14.6823 21.552C15.4246 22.632 15.5036 23.855 14.8876 24.8317C14.7929 24.9747 14.785 25.1414 14.8719 25.2923C14.9429 25.4352 15.0851 25.5067 15.2509 25.5067L18.7649 25.4908C18.7886 25.4511 18.8044 25.4114 18.836 25.3717H18.8439C18.8991 25.2923 18.9623 25.2208 19.0334 25.1653L19.0176 21.8062C19.0097 21.4965 19.1281 21.1947 19.3571 20.9723C19.6967 20.6229 20.2574 20.5356 20.6759 20.7579C20.9444 20.885 21.2444 20.9565 21.5445 20.9565C22.2947 20.9565 22.9659 20.5515 23.3055 19.8844V19.9082ZM20.4548 24.9032L23.2818 24.8873C22.9027 23.8391 23.0686 22.6717 23.7398 21.6235C23.1475 22.1238 22.3815 22.4256 21.5682 22.4256C21.1734 22.4256 20.8022 22.362 20.4469 22.2429V24.9111L20.4548 24.9032ZM18.6859 39.1813L18.6701 36.1002C18.3069 36.2272 17.9121 36.2987 17.5251 36.3066C16.238 36.3066 15.0772 35.5999 14.4849 34.4722C13.8611 33.297 13.9874 31.8755 14.8008 30.6605C14.9192 30.4699 15.0851 30.3111 15.2588 30.184C16.309 29.4455 17.5567 29.247 18.6385 29.6282L18.6228 26.9599L15.2588 26.9758C14.5797 26.9758 13.948 26.6026 13.6163 26.0149C13.2846 25.4035 13.3162 24.665 13.6795 24.0853C14.0743 23.4579 13.79 22.8067 13.5531 22.4494C12.8898 22.0126 12.1712 22.0523 11.7132 22.5129C11.4763 22.7591 11.3421 23.0767 11.35 23.4182C11.35 23.6644 11.421 23.8947 11.5474 24.0932C11.9185 24.6729 11.9422 25.4194 11.6184 26.0308C11.3026 26.6264 10.6787 27.0076 9.99174 27.0155L6.17767 27.0314L6.19346 30.049C6.19346 30.454 5.98815 30.8273 5.6407 31.0496C5.29325 31.272 4.87473 31.2879 4.51938 31.1052C3.80868 30.7399 2.97164 30.8431 2.20567 31.3752C2.17408 31.399 2.1346 31.4467 2.11091 31.4784C1.58184 32.2487 1.49497 33.1143 1.87401 33.8131C2.22146 34.4722 2.90057 34.8534 3.63496 34.8693C3.95082 34.8614 4.25879 34.7899 4.54307 34.6311C4.89842 34.4484 5.30904 34.4564 5.65649 34.6628C6.01184 34.8693 6.21715 35.2425 6.21715 35.6634L6.24084 39.364L18.607 39.2846L18.6859 39.1813Z" fill="black"/>
<path d="M18.6618 36.0922L18.6776 39.1733L18.5987 39.2766L6.23254 39.356L6.20885 35.6554C6.20885 35.2345 6.00354 34.8613 5.64819 34.6548C5.30074 34.4484 4.89012 34.4404 4.53477 34.6231C4.25049 34.7819 3.95042 34.8454 3.62666 34.8613C2.89227 34.8454 2.21316 34.4642 1.86571 33.8051C1.48667 33.0984 1.57353 32.2407 2.10261 31.4704C2.1263 31.4387 2.16578 31.391 2.19737 31.3672C2.96334 30.8352 3.80038 30.7319 4.51108 31.0972C4.86643 31.2799 5.28495 31.264 5.6324 31.0416C5.97985 30.8193 6.18516 30.454 6.18516 30.041L6.16937 27.0234L9.98344 27.0075C10.6626 26.9996 11.2864 26.6264 11.6101 26.0228C11.9418 25.4114 11.9102 24.6649 11.5391 24.0852C11.4127 23.8867 11.3417 23.6484 11.3417 23.4102C11.3338 23.0687 11.468 22.7511 11.7049 22.5049C12.1629 22.0443 12.8815 22.0126 13.5448 22.4414C13.7896 22.7987 14.0739 23.4499 13.6712 24.0773C13.3079 24.657 13.2842 25.3955 13.608 26.007C13.9397 26.5946 14.5635 26.9678 15.2505 26.9678L18.6145 26.9519L18.6302 29.6202C17.5484 29.239 16.3086 29.4375 15.2505 30.176C15.0768 30.3031 14.9109 30.4619 14.7925 30.6525C13.9712 31.8675 13.8528 33.2969 14.4766 34.4642C15.0689 35.5919 16.2297 36.2986 17.5168 36.2986C17.9038 36.2907 18.3065 36.2192 18.6618 36.0922Z" fill="#FAD05A"/>
<path d="M40.8795 7.71876C40.8479 7.63935 40.8005 7.56788 40.7531 7.51229L40.7136 7.47258C40.4294 7.16288 39.9951 7.02788 39.5923 7.13111C39.1738 7.23435 38.85 7.56788 38.7474 7.98081C38.6526 8.34611 38.4552 8.67963 38.1867 8.92581C37.6419 9.44198 36.8759 9.59286 36.1731 9.35463C35.4229 9.09257 34.9096 8.40963 34.7754 7.48052C34.7675 7.44082 34.7675 7.37729 34.7754 7.32964C34.9965 6.337 35.6124 5.66995 36.4653 5.51113C36.8917 5.43171 37.2312 5.13789 37.3655 4.7329C37.4918 4.33584 37.3971 3.89908 37.1128 3.58937L34.3016 0.555867C34.1358 0.389104 33.9383 0.277928 33.7172 0.22234C33.6541 0.206458 33.6067 0.198517 33.5356 0.198517C33.2592 0.206458 32.9907 0.309693 32.7854 0.500279L30.1085 2.96203C29.9505 2.59673 29.7373 2.25527 29.461 1.96145C28.2054 0.611455 26.0733 0.508221 24.6835 1.76292C23.3332 3.05732 23.2621 5.16966 24.5177 6.55141C24.7862 6.85318 25.0941 7.09935 25.4495 7.282L22.7962 9.76757C22.733 9.8311 22.6935 9.88668 22.6699 9.92639C22.5435 10.1011 22.4645 10.2996 22.433 10.5061C22.4251 10.5696 22.433 10.6252 22.4409 10.6887C22.4724 10.9111 22.5672 11.1334 22.7251 11.3002L25.4968 14.3655C25.7811 14.6672 26.2075 14.8102 26.6103 14.7069C27.0288 14.6116 27.3526 14.2861 27.4631 13.8731C27.6842 13.0234 28.387 12.4675 29.3899 12.3167C29.4452 12.3167 29.4925 12.3167 29.5399 12.3246C30.4559 12.539 31.0956 13.1028 31.293 13.889C31.4746 14.6116 31.2614 15.3661 30.7086 15.8584C30.4322 16.1205 30.0927 16.2872 29.7215 16.3508C29.2951 16.4222 28.9556 16.716 28.8134 17.121C28.6713 17.5181 28.7739 17.9628 29.0582 18.2725L29.0977 18.3122C29.153 18.3757 29.2083 18.4234 29.2872 18.4631L31.9405 21.3298C32.13 21.5284 32.3827 21.6634 32.6512 21.6951H32.8407C32.9671 21.6713 33.0934 21.6316 33.2119 21.5681C33.275 21.5363 33.3619 21.4887 33.4566 21.4013L36.3626 18.741C36.3626 18.741 36.4337 18.6696 36.4574 18.6299C36.6706 18.336 36.7416 17.9549 36.639 17.6055C36.5363 17.264 36.2836 16.994 35.9441 16.8669C35.6598 16.7558 35.3992 16.581 35.1939 16.3428C34.8228 15.9458 34.6411 15.4137 34.6806 14.8658C34.7122 14.3178 34.9649 13.8255 35.3913 13.4761L35.4466 13.4205C35.8335 13.0314 36.3468 12.8328 36.8917 12.8249C37.4365 12.8328 37.9419 13.0631 38.3131 13.4602C38.5184 13.6825 38.6763 13.9525 38.7632 14.2622C38.8579 14.6116 39.1106 14.8816 39.4344 15.0087C39.7739 15.1358 40.1609 15.104 40.4689 14.9134C40.5083 14.8896 40.5478 14.8578 40.5794 14.8261L43.4538 12.134C43.6196 11.9673 43.7302 11.7687 43.7854 11.5464C43.8012 11.4828 43.8091 11.4273 43.8091 11.3558C43.7933 11.0779 43.6907 10.8158 43.5091 10.6173L40.8795 7.7267V7.71876Z" stroke="black" stroke-width="0.25" stroke-linecap="round" stroke-linejoin="round"/>
<path d="M4.79933 39.65C4.80723 40.2853 5.32841 40.8015 5.96014 40.8015H5.96803L19.2975 40.722C19.2975 40.722 19.3686 40.7141 19.4002 40.7062C19.5423 40.7697 19.6924 40.8015 19.8582 40.8015L23.9881 40.7776C24.0434 40.7776 24.0829 40.7776 24.1382 40.7618C24.4856 40.6903 24.7857 40.4521 24.9436 40.1265C25.1016 39.7929 25.1016 39.4276 24.9357 39.1021C24.7225 38.6971 24.4777 37.8394 25.1884 36.7991C25.2121 36.7594 25.2516 36.7197 25.2911 36.6959C25.7491 36.3783 26.2229 36.2115 26.6967 36.2115C27.7864 36.2115 28.6708 37.1088 28.6708 38.1888C28.6787 38.5065 28.5998 38.8082 28.4655 39.0941C28.3076 39.4038 28.3076 39.7771 28.4655 40.1026C28.6235 40.4282 28.9314 40.6665 29.2868 40.7379C29.3263 40.7459 29.3815 40.7538 29.4289 40.7459L33.3614 40.73C33.6694 40.73 33.9695 40.6029 34.1827 40.3806C34.3959 40.1582 34.5222 39.8644 34.5143 39.5547L34.4985 35.4253C34.4906 34.7742 33.9774 34.2739 33.3377 34.2739C33.1166 34.2739 32.8876 34.3453 32.6981 34.4644C32.3901 34.663 32.019 34.7742 31.6242 34.7742C30.8898 34.7742 30.2265 34.3692 29.879 33.718C29.5079 33.0033 29.5947 32.1536 30.1159 31.3833C30.1396 31.3436 30.1791 31.3039 30.2186 31.2801C30.6845 30.9624 31.1583 30.7956 31.6321 30.7956C32.0032 30.7956 32.3665 30.8989 32.6744 31.0974C33.1324 31.3833 33.7563 31.3118 34.1274 30.9386C34.3406 30.7242 34.4591 30.4383 34.4591 30.1207L34.4354 25.9754C34.4354 25.3401 33.9142 24.8239 33.2667 24.8239L29.7448 24.8398C29.8711 24.4825 29.9343 24.1013 29.9343 23.7122C29.9185 21.8381 28.3866 20.2975 26.5151 20.2975C25.7649 20.2975 25.0068 20.5516 24.3119 21.0281C24.4146 20.8772 24.5172 20.7343 24.5962 20.5675C25.2121 19.3843 25.0779 17.9549 24.2487 16.7558C24.1224 16.5731 23.9565 16.4063 23.7749 16.2793C22.7247 15.5566 21.4849 15.374 20.4268 15.7552L20.411 12.2134C20.4031 11.5702 19.8819 11.0461 19.2423 11.0461L15.7125 11.0699C16.0994 9.96609 15.9099 8.75904 15.1597 7.67111C15.0334 7.49641 14.8754 7.32964 14.6859 7.21053C14.0068 6.742 13.2408 6.48788 12.4906 6.48788C11.5746 6.48788 10.7139 6.85318 10.0664 7.50435C9.42675 8.15552 9.07141 9.0211 9.07141 9.94227C9.0793 10.3314 9.15037 10.7364 9.28462 11.0937L5.74693 11.1176C5.43896 11.1176 5.15468 11.2367 4.93357 11.459C4.72037 11.6814 4.59402 11.9831 4.59402 12.2849L4.61771 16.446C4.61771 16.5016 4.62561 16.5413 4.6335 16.589C4.73616 17.129 5.20996 17.5181 5.75482 17.5181C5.93645 17.5181 6.11017 17.4784 6.2839 17.391C6.9788 17.0337 7.80795 17.129 8.57392 17.6531C8.6134 17.6769 8.65289 17.7166 8.67657 17.7563C9.21355 18.5266 9.3083 19.3843 8.93716 20.0831C8.59761 20.7422 7.9264 21.1631 7.17622 21.1631C6.87614 21.1631 6.56818 21.0916 6.29179 20.9566C6.13386 20.8772 5.96014 20.8375 5.79431 20.8375C5.24944 20.8375 4.77564 21.2345 4.66509 21.7825C4.65719 21.8222 4.65719 21.8778 4.65719 21.9254L4.67299 25.8801C4.67299 25.9913 4.70457 26.0945 4.75195 26.1819C4.75195 26.1977 4.74406 26.2136 4.74406 26.2374L4.75985 29.6362C3.67011 29.2471 2.46193 29.4377 1.38799 30.1921C1.20637 30.3192 1.04843 30.4859 0.922088 30.6686C0.100839 31.8836 -0.00971341 33.3209 0.61412 34.4883C1.22216 35.6159 2.38296 36.3147 3.65432 36.3147C4.04126 36.3068 4.42819 36.2353 4.79933 36.1003L4.81512 39.6579L4.79933 39.65Z" stroke="black" stroke-width="0.25" stroke-linecap="round" stroke-linejoin="round"/>
<path d="M24.6896 25.7612C24.8949 25.4117 24.9107 24.9988 24.7291 24.6335C24.5238 24.2285 24.2711 23.3709 24.9818 22.3306C25.0133 22.2909 25.0528 22.2512 25.0844 22.2274C25.5424 21.9097 26.0162 21.743 26.49 21.743C27.5797 21.743 28.4642 22.6324 28.48 23.7203C28.48 24.03 28.4089 24.3397 28.2747 24.6176C28.093 24.975 28.1088 25.3879 28.3299 25.7294C28.5352 26.0867 28.9064 26.2932 29.3249 26.2932L32.9968 26.2694L33.0126 29.6602C31.8913 29.1441 30.5252 29.3029 29.3881 30.1049C29.2065 30.2241 29.0485 30.3908 28.9222 30.5814C28.1009 31.7964 27.9825 33.2258 28.6063 34.3932C29.1986 35.5208 30.3594 36.2276 31.6465 36.2276C32.1361 36.2196 32.6178 36.1164 33.0521 35.9099L33.0679 39.3008L29.925 39.3166C30.0435 38.9593 30.1067 38.5781 30.1067 38.1969C30.0988 36.3228 28.5668 34.7823 26.6953 34.7823C25.9373 34.7823 25.1634 35.0443 24.4685 35.5287C24.2869 35.6479 24.1289 35.8146 24.0026 35.9973C23.2761 37.0773 23.0945 38.2764 23.4735 39.3564L20.1253 39.3722L20.1095 35.6717C20.1095 35.0284 19.5884 34.5043 18.9487 34.5043C18.7671 34.5043 18.5855 34.544 18.4197 34.6314C18.1354 34.7902 17.8353 34.8537 17.5037 34.8696C16.7614 34.8696 16.0981 34.4646 15.7506 33.8135C15.3795 33.0988 15.4663 32.2491 15.9875 31.4788C16.0112 31.447 16.0507 31.3994 16.0823 31.3755C16.8561 30.8355 17.7011 30.7402 18.396 31.0976C18.8303 31.3199 19.3909 31.2405 19.7384 30.8832C19.9516 30.6688 20.078 30.367 20.078 30.0573L20.0543 26.3567L23.7262 26.3329C24.1289 26.3329 24.5001 26.1264 24.7133 25.777L24.6896 25.7612Z" stroke="black" stroke-width="0.25" stroke-linecap="round" stroke-linejoin="round"/>
<path d="M23.2879 24.8794L20.4609 24.8953V22.2271C20.8084 22.3462 21.1795 22.4097 21.5744 22.4097C22.3877 22.4097 23.1458 22.1159 23.7459 21.6077C23.0747 22.6559 22.9089 23.8233 23.2879 24.8715V24.8794Z" stroke="black" stroke-width="0.25" stroke-linecap="round" stroke-linejoin="round"/>
<path d="M7.18433 22.6083C8.45568 22.6004 9.60069 21.8936 10.1929 20.7581C10.8089 19.5748 10.6746 18.1454 9.83759 16.9384C9.71914 16.7557 9.55331 16.5969 9.37169 16.4699C8.32144 15.7472 7.08957 15.5646 6.03142 15.9378L6.01562 12.5708L9.69545 12.5549C10.114 12.5469 10.4851 12.3405 10.6904 11.9831C10.8957 11.6337 10.9036 11.2208 10.722 10.8634C10.572 10.5775 10.5009 10.2758 10.4851 9.9502C10.4851 9.4102 10.6904 8.90991 11.0616 8.53668C11.4327 8.16345 11.9302 7.94904 12.4672 7.94904C12.9331 7.94904 13.399 8.10786 13.857 8.41756C13.8886 8.44139 13.9359 8.48109 13.9596 8.51286C14.4887 9.28314 14.5914 10.1249 14.2281 10.8396C14.0465 11.2049 14.0623 11.6178 14.2834 11.9672C14.4887 12.3167 14.8598 12.5231 15.2784 12.5231L18.9582 12.4993L18.9819 16.1919C18.9819 16.8272 19.5031 17.3434 20.1269 17.3434C20.3085 17.3434 20.4822 17.3037 20.656 17.2243C21.3509 16.859 22.1879 16.9543 22.946 17.4784C22.9855 17.5022 23.025 17.5498 23.0486 17.5816C23.5856 18.3519 23.6804 19.2095 23.3092 19.9163C22.9697 20.5754 22.2985 20.9884 21.5483 20.9884C21.2482 20.9884 20.9402 20.9169 20.6797 20.7898C20.2532 20.5754 19.6926 20.6628 19.3609 21.0042C19.1398 21.2266 19.0135 21.5283 19.0214 21.8381L19.0372 25.1971C18.9661 25.2607 18.895 25.3242 18.8476 25.4036H18.8397C18.8161 25.4433 18.8003 25.483 18.7687 25.5227L15.2547 25.5386C15.0888 25.5386 14.9467 25.4592 14.8756 25.3242C14.7888 25.1733 14.7967 25.0066 14.8914 24.8636C15.5074 23.8789 15.4284 22.656 14.6861 21.5839C14.6151 21.4807 14.5124 21.3854 14.4097 21.306C13.8333 20.9089 13.2252 20.7104 12.6014 20.7104C11.8749 20.7104 11.2037 20.9963 10.6904 21.5125C10.1771 22.0366 9.89287 22.7195 9.90076 23.4501C9.90076 23.9663 10.0508 24.4586 10.3272 24.8954C10.4219 25.0383 10.4298 25.213 10.3509 25.356C10.2719 25.5068 10.1298 25.5942 9.97183 25.5942L6.08669 25.6101L6.0709 22.4495C6.42625 22.5686 6.78949 22.6322 7.18433 22.6322V22.6083Z" stroke="black" stroke-width="0.25" stroke-linecap="round" stroke-linejoin="round"/>
</g>
<defs>
<clipPath id="clip0_48_1663">
<rect width="44" height="41" fill="white"/>
</clipPath>
</defs>
</svg>
