<svg width="40" height="29" viewBox="0 0 40 29" fill="none" xmlns="http://www.w3.org/2000/svg">
<path d="M28.3694 11.4413C25.0668 10.4915 21.8264 9.36153 18.586 8.21299C14.9172 6.91544 11.2484 5.6179 7.57967 4.31414C10.4124 6.10215 13.3419 7.76599 16.2645 9.45466C20.0853 11.6524 23.8991 13.8626 27.6577 16.1411C28.8806 16.8861 30.0897 17.6311 31.2989 18.3885C32.805 19.3694 34.2767 20.3814 35.7276 21.4244C35.2578 18.5934 34.788 15.7686 34.3112 12.9375C32.3007 12.5216 30.3247 12.0125 28.3694 11.4413ZM33.0883 4.76735C32.584 4.69906 32.0865 4.63077 31.5959 4.55627C29.7996 4.2831 27.9963 4.05339 26.1861 3.8361C22.3722 3.3891 18.5376 3.02281 14.703 2.69376C11.6906 2.43301 8.67132 2.19089 5.6451 1.9736C10.1153 3.55673 14.5787 5.13985 19.042 6.71678C22.3377 7.88395 25.6472 9.0387 29.0188 10.0072C30.9465 10.566 32.888 11.0626 34.8709 11.4662C35.9418 9.60366 36.9022 7.71011 37.524 5.68619C36.1422 5.20815 34.5945 4.97844 33.0883 4.76735ZM26.7595 17.4945C19.3736 13.099 11.6423 9.07595 4.57418 4.30173C6.28766 6.44982 8.04949 8.55445 9.89424 10.628C12.4714 13.5273 15.0899 16.3894 17.7431 19.2328C19.1042 20.698 20.4791 22.1507 21.8609 23.6035C21.9369 23.6842 22.0198 23.7711 22.0958 23.8518C22.6348 24.4106 23.1668 24.9693 23.6849 25.5405C23.9889 25.882 24.3897 26.54 24.8388 26.8505C25.9512 25.8323 26.801 24.1747 27.5886 23.0385C28.4108 21.8589 29.2054 20.6607 29.9792 19.4501C28.9152 18.7858 27.8443 18.1339 26.7595 17.4945ZM38.9818 4.56869C39.3273 4.71769 39.4586 5.13365 39.3757 5.44406C38.7055 7.98949 37.4757 10.3425 36.1284 12.652C36.0938 12.7016 36.0593 12.7513 36.0178 12.7948C36.5913 16.2218 37.1647 19.6488 37.7382 23.0696C37.8695 23.8456 36.9851 24.3423 36.2942 23.827C34.6982 22.6288 33.0607 21.474 31.3887 20.3627C30.1519 22.2749 28.8737 24.156 27.5195 25.9999C26.7457 27.0678 25.7508 29.222 24.0166 28.2535C23.1322 27.7631 22.5657 26.7387 21.9024 26.0247C20.9904 25.0376 20.0438 24.0691 19.118 23.0944C17.3078 21.1822 15.5114 19.2576 13.7357 17.3206C8.95459 12.1118 4.34618 6.85336 0.124675 1.27205C-0.234601 0.800217 0.235222 0.0676323 0.863957 0.104882C5.77638 0.409092 10.675 0.7878 15.5736 1.21618C19.5464 1.57005 23.5191 1.96118 27.4781 2.44543C31.1883 2.89864 35.5756 3.13456 38.9818 4.56869Z" fill="black"/>
<path d="M28.3694 11.4413C25.0668 10.4915 21.8264 9.36153 18.586 8.21299C14.9172 6.91544 11.2484 5.6179 7.57967 4.31414C10.4124 6.10215 13.3419 7.76599 16.2645 9.45466C20.0853 11.6524 23.8991 13.8626 27.6577 16.1411C28.8806 16.8861 30.0897 17.6311 31.2989 18.3885C32.805 19.3694 34.2767 20.3814 35.7276 21.4244C35.2578 18.5934 34.788 15.7686 34.3112 12.9375C32.3007 12.5216 30.3247 12.0125 28.3694 11.4413ZM33.0883 4.76735C32.584 4.69906 32.0865 4.63077 31.5959 4.55627C29.7996 4.2831 27.9963 4.05339 26.1861 3.8361C22.3722 3.3891 18.5376 3.02281 14.703 2.69376C11.6906 2.43301 8.67132 2.19089 5.6451 1.9736C10.1153 3.55673 14.5787 5.13985 19.042 6.71678C22.3377 7.88395 25.6472 9.0387 29.0188 10.0072C30.9465 10.566 32.888 11.0626 34.8709 11.4662C35.9418 9.60366 36.9022 7.71011 37.524 5.68619C36.1422 5.20815 34.5945 4.97844 33.0883 4.76735ZM26.7595 17.4945C19.3736 13.099 11.6423 9.07595 4.57418 4.30173C6.28766 6.44982 8.04949 8.55445 9.89424 10.628C12.4714 13.5273 15.0899 16.3894 17.7431 19.2328C19.1042 20.698 20.4791 22.1507 21.8609 23.6035C21.9369 23.6842 22.0198 23.7711 22.0958 23.8518C22.6348 24.4106 23.1668 24.9693 23.6849 25.5405C23.9889 25.882 24.3897 26.54 24.8388 26.8505C25.9512 25.8323 26.801 24.1747 27.5886 23.0385C28.4108 21.8589 29.2054 20.6607 29.9792 19.4501C28.9152 18.7858 27.8443 18.1339 26.7595 17.4945ZM38.9818 4.56869C39.3273 4.71769 39.4586 5.13365 39.3757 5.44406C38.7055 7.98949 37.4757 10.3425 36.1284 12.652C36.0938 12.7016 36.0593 12.7513 36.0178 12.7948C36.5913 16.2218 37.1647 19.6488 37.7382 23.0696C37.8695 23.8456 36.9851 24.3423 36.2942 23.827C34.6982 22.6288 33.0607 21.474 31.3887 20.3627C30.1519 22.2749 28.8737 24.156 27.5195 25.9999C26.7457 27.0678 25.7508 29.222 24.0166 28.2535C23.1322 27.7631 22.5657 26.7387 21.9024 26.0247C20.9904 25.0376 20.0438 24.0691 19.118 23.0944C17.3078 21.1822 15.5114 19.2576 13.7357 17.3206C8.95459 12.1118 4.34618 6.85336 0.124675 1.27205C-0.234601 0.800217 0.235222 0.0676323 0.863957 0.104882C5.77638 0.409092 10.675 0.7878 15.5736 1.21618C19.5464 1.57005 23.5191 1.96118 27.4781 2.44543C31.1883 2.89864 35.5756 3.13456 38.9818 4.56869Z" fill="black"/>
<path d="M34.3098 12.9371C34.7865 15.7681 35.2563 18.5929 35.7262 21.4239C34.2752 20.3809 32.8036 19.369 31.2974 18.388C30.0883 17.6306 28.8792 16.8856 27.6562 16.1406L28.3679 11.4409C30.3232 12.0121 32.2992 12.5211 34.3098 12.9371Z" fill="#49BEB6"/>
<path d="M34.3098 12.9371C34.7865 15.7681 35.2563 18.5929 35.7262 21.4239C34.2752 20.3809 32.8036 19.369 31.2974 18.388C30.0883 17.6306 28.8792 16.8856 27.6562 16.1406L28.3679 11.4409C30.3232 12.0121 32.2992 12.5211 34.3098 12.9371Z" fill="#49BEB6"/>
<path d="M37.5208 5.68586C36.899 7.70979 35.9386 9.60333 34.8677 11.4658C32.8848 11.0623 30.9433 10.5656 29.0156 10.0069L33.0851 4.76703C34.5913 4.97811 36.139 5.20782 37.5208 5.68586Z" fill="#49BEB6"/>
<path d="M37.5208 5.68586C36.899 7.70979 35.9386 9.60333 34.8677 11.4658C32.8848 11.0623 30.9433 10.5656 29.0156 10.0069L33.0851 4.76703C34.5913 4.97811 36.139 5.20782 37.5208 5.68586Z" fill="#49BEB6"/>
<path d="M29.9771 19.45C29.2033 20.6606 28.4087 21.8589 27.5865 23.0384C26.7989 24.1746 25.9491 25.8322 24.8367 26.8504C24.3876 26.54 23.9869 25.8819 23.6829 25.5404C23.1647 24.9692 22.6327 24.4105 22.0938 23.8517L26.7574 17.4944C27.8422 18.1338 28.9131 18.7857 29.9771 19.45Z" fill="#49BEB6"/>
<path d="M29.9771 19.45C29.2033 20.6606 28.4087 21.8589 27.5865 23.0384C26.7989 24.1746 25.9491 25.8322 24.8367 26.8504C24.3876 26.54 23.9869 25.8819 23.6829 25.5404C23.1647 24.9692 22.6327 24.4105 22.0938 23.8517L26.7574 17.4944C27.8422 18.1338 28.9131 18.7857 29.9771 19.45Z" fill="#49BEB6"/>
</svg>
