<svg width="30" height="37" viewBox="0 0 30 37" fill="none" xmlns="http://www.w3.org/2000/svg">
<path d="M29.4867 11.0675C30.1384 14.1905 29.7435 17.4554 28.4006 20.3891C27.7095 21.9151 26.7682 23.3287 25.5965 24.6004C24.3525 25.9489 22.6147 26.7888 21.3509 28.0841C18.8891 30.6215 22.8319 35.7023 17.9281 36.4889C16.322 36.7433 13.7812 36.9562 12.3725 36.0394C11.3852 35.4006 11.1548 34.2591 11.0758 33.2299C10.9902 32.0411 11.3984 30.3199 10.9047 29.0896C10.8718 29.0364 10.8454 28.9713 10.8323 28.9063C10.7467 28.7347 10.6414 28.5691 10.5097 28.4272C9.52238 27.327 7.54108 26.8361 6.30359 25.9371C3.2757 23.7427 0.859965 20.8031 0.195145 17.2898C-1.01601 10.896 3.56532 5.01086 9.64744 2.08899C13.8141 0.231771 18.8496 -0.241405 22.9438 2.05942C26.4259 4.0231 28.7363 7.4832 29.4867 11.0675ZM21.3312 26.1382C26.393 22.4947 29.2366 16.9349 27.8082 11.0557C27.071 7.99778 25.116 5.02269 22.1145 3.33699C18.5271 1.32008 14.13 1.73411 10.4768 3.36657C4.22356 6.37124 -0.351195 12.8656 2.51214 19.2535C3.86811 22.27 6.55372 24.553 9.65402 26.1204C10.2991 26.4517 10.8191 26.7829 11.2404 27.1496C11.5103 26.1264 11.767 25.1031 12.05 24.0799C12.2014 23.5239 12.491 22.8141 12.6622 22.0984C12.208 22.1458 11.7604 22.1339 11.3194 22.0452C9.48288 21.6962 8.18615 19.5137 9.95023 18.3189C11.7077 17.1301 13.768 18.3958 14.2683 20.0579C14.288 20.046 14.3143 20.0342 14.3407 20.0224C14.5447 19.9277 14.7883 19.7976 15.045 19.6498C14.6895 19.1825 14.4526 18.6383 14.3868 18.0291C14.209 16.3553 15.9204 14.5749 17.9017 15.0895C20.5676 15.7934 18.718 18.4668 17.5792 19.6024C17.5529 19.632 17.5265 19.6557 17.4936 19.6852C17.6911 19.7799 17.8886 19.8568 18.0992 19.9218C18.4415 19.2771 18.9286 18.7093 19.6395 18.3485C20.5215 17.899 21.9038 17.7925 22.6081 18.5792C24.0497 20.1762 21.1929 21.4301 19.8172 21.5425C19.6132 21.5602 19.4025 21.5661 19.1853 21.5602C18.6258 23.4411 18.7772 25.458 19.4289 27.3152C19.4684 27.3921 19.5013 27.4749 19.5144 27.5636C19.5408 27.6346 19.5737 27.7056 19.6 27.7825C20.0476 27.1614 20.64 26.6409 21.3312 26.1382ZM19.9884 19.91C20.1858 19.8863 20.3767 19.8745 20.5413 19.9041C20.5084 19.4605 20.3175 19.4664 19.9884 19.91ZM18.9088 32.5024C18.9023 32.3605 18.8891 32.2126 18.8759 32.0647C16.8749 32.7213 14.7883 32.9993 12.6424 32.9105C12.6424 33.1175 12.6622 33.3246 12.6885 33.5257C14.6961 33.5138 17.1514 33.4251 18.9154 32.5024H18.9088ZM18.7838 30.521C18.7838 30.4027 18.7904 30.2844 18.7969 30.1661C16.8157 30.6984 14.7817 30.9232 12.7082 30.8345C12.7148 30.8936 12.7148 30.9468 12.7148 31.0001C12.7148 31.1302 12.7082 31.2781 12.7017 31.4378C14.8146 31.5147 16.8222 31.2071 18.7838 30.521ZM18.2769 28.7702C18.244 28.6933 18.2111 28.6224 18.1782 28.5514C16.3088 28.9536 14.4131 29.1251 12.4844 29.0601C12.5108 29.1547 12.5371 29.2552 12.5634 29.3558C14.5118 29.4504 16.4075 29.2552 18.2769 28.7702ZM16.0323 35.1818C17.0987 35.1581 18.5205 35.1463 18.8694 34.1704C17.2896 34.7618 15.4136 34.9334 13.689 34.9807C14.3736 35.2468 15.328 35.1936 16.0323 35.1818ZM17.2698 17.4909C17.6319 17.0709 17.2698 16.9231 16.2167 17.0473C15.9139 17.6328 15.9468 18.1829 16.3286 18.6975C16.3351 18.7152 16.3483 18.7271 16.3549 18.7389C16.8156 18.3426 17.1777 17.9108 17.2698 17.4909ZM17.6714 27.1437C17.1184 25.2392 17.046 23.24 17.5792 21.3C17.0987 21.158 16.6445 20.9569 16.2364 20.7026C15.6637 21.087 15.0252 21.4301 14.3604 21.6844C14.2485 22.5361 13.9392 23.3879 13.7154 24.1923C13.3928 25.322 13.1098 26.4635 12.807 27.5932C14.4526 27.6287 16.0718 27.4749 17.6714 27.1437ZM12.7477 20.5606C12.6951 20.3359 12.6029 20.117 12.4581 19.9277C11.4642 19.0051 10.9771 19.1233 10.9968 20.2945C11.5432 20.6375 12.129 20.7262 12.7477 20.5606Z" fill="black"/>
<path d="M17.5769 21.2998C17.0437 23.2398 17.1161 25.239 17.6691 27.1435C16.0695 27.4748 14.4503 27.6285 12.8047 27.5931C13.1075 26.4633 13.3905 25.3218 13.7131 24.1921C13.9369 23.3877 14.2462 22.536 14.3581 21.6843C15.0229 21.4299 15.6614 21.0869 16.2341 20.7024C16.6422 20.9568 17.0964 21.1579 17.5769 21.2998Z" fill="#FAD05A"/>
<path d="M7.96795 5.86866C8.67227 5.1589 9.83077 6.2058 9.13303 6.91557C6.30261 9.7842 3.03117 13.3567 4.80183 17.426C5.18361 18.3132 3.59725 18.6917 3.21547 17.8164C1.22101 13.2325 4.76891 9.12767 7.96795 5.86866Z" fill="black"/>
<path d="M6.89706 20.3654C7.23934 20.6434 7.19326 21.1225 6.89706 21.4064C6.59427 21.708 6.05451 21.6725 5.73856 21.4064C5.40285 21.1343 5.11981 20.8208 4.85652 20.4837C4.59322 20.1465 4.80386 19.6793 5.15272 19.4722C5.54767 19.2475 6.02818 19.4249 6.27831 19.7384C6.30464 19.7739 6.33097 19.8153 6.36388 19.8508C6.38363 19.8744 6.39021 19.8863 6.39679 19.8922C6.44287 19.9395 6.5087 20.0046 6.52186 20.0164C6.64034 20.1406 6.76541 20.253 6.89706 20.3654Z" fill="black"/>
</svg>
